<svg width="451" height="451" viewBox="0 0 451 451" fill="none" xmlns="http://www.w3.org/2000/svg">
<path d="M185.795 372.864C180.719 365.523 167.373 362.18 157.121 362.18C154.197 362.157 151.279 362.442 148.415 363.031C138.771 365.108 130.545 366.976 123.288 368.623C103.853 373.035 92.1211 375.698 82.3686 375.698C74.2504 375.698 67.2924 373.886 57.5502 369.233C49.4233 365.297 41.5325 360.891 33.9179 356.037C24.5127 350.211 18.2993 346.362 9.79494 346.362C6.70421 346.406 3.63177 346.845 0.652344 347.668L0.652344 348.387C3.63007 347.553 6.70307 347.108 9.79492 347.062C18.1001 347.063 24.2461 350.869 33.5493 356.632C41.1853 361.499 49.0985 365.918 57.2485 369.864C67.0937 374.566 74.1367 376.398 82.3686 376.398C92.1992 376.398 103.959 373.729 123.443 369.306C130.699 367.658 138.922 365.792 148.563 363.715C151.378 363.137 154.247 362.857 157.121 362.88C167.196 362.88 180.287 366.129 185.219 373.263C186.288 374.796 186.946 376.578 187.131 378.438C187.315 380.298 187.02 382.175 186.274 383.889C183.331 391.686 169.579 398.573 157.446 404.65C150.112 408.323 143.185 411.793 139.624 415.012C129.214 424.425 131.71 437.178 135.936 450.929H136.669C132.475 437.319 129.945 424.708 140.094 415.531C143.584 412.376 150.469 408.927 157.76 405.276C170.007 399.142 183.89 392.189 186.929 384.137C187.719 382.317 188.029 380.326 187.83 378.353C187.632 376.379 186.931 374.49 185.795 372.864V372.864Z" fill="#D6D6D6"/>
<path d="M3.82861 292.83C5.25 261.987 24.9121 239.502 40.7114 221.434L41.8335 220.152C43.6665 218.223 47.895 213.062 47.5625 206.828C47.3603 203.034 45.4809 199.599 41.9775 196.622C39.8769 194.837 37.9336 193.169 36.0854 191.582C28.2485 184.614 20.0185 178.101 11.436 172.075C7.77442 169.536 4.17985 167.136 0.652344 164.875V165.23C4.11602 167.456 7.65362 169.82 11.2651 172.321C19.839 178.341 28.0608 184.849 35.8901 191.81C37.7387 193.397 39.6821 195.066 41.7832 196.851C45.2216 199.773 47.0654 203.135 47.2627 206.844C47.5888 212.962 43.4223 218.044 41.6118 219.95L40.4848 221.238C24.6552 239.339 4.95507 261.869 3.52884 292.817C3.3765 296.113 2.09464 298.129 0.652384 298.814V299.171C2.21258 298.529 3.65954 296.487 3.82861 292.83Z" fill="#D6D6D6"/>
<path d="M10.8208 293.152C12.1298 264.751 30.8994 243.287 45.9819 226.04L47.1088 224.751C49.8158 221.705 52.3613 218.52 54.7348 215.207C57.081 211.85 61.4482 205.602 51.1352 195.645C40.0387 184.927 28.0964 175.12 15.4243 166.321C10.2963 162.766 5.37234 159.552 0.652344 156.682V157.032C5.3081 159.883 10.1751 163.062 15.2534 166.567C27.9123 175.358 39.8422 185.154 50.9272 195.861C61.0556 205.64 56.7836 211.752 54.4887 215.035C52.1215 218.339 49.5828 221.516 46.8833 224.554L45.7553 225.844C30.643 243.125 11.8349 264.633 10.521 293.138C9.91113 306.359 7.56445 314.052 3.13476 317.35C2.41909 317.928 1.56219 318.305 0.652344 318.442L0.652344 318.744C1.62865 318.611 2.54952 318.212 3.31347 317.59C7.82134 314.236 10.2065 306.47 10.8208 293.152Z" fill="#D6D6D6"/>
<path d="M132.878 90.0152C130.935 82.3404 115.255 80.2882 97.1001 77.9122C92.6137 77.3253 87.9746 76.7179 83.4687 76.0069C63.5629 72.8653 45.3403 62.8722 27.7177 53.2081C18.8929 48.3684 9.8775 43.4273 0.652344 39.3633V40.1263C9.7547 44.156 18.661 49.0398 27.3813 53.8219C45.0561 63.5147 63.333 73.5377 83.3593 76.6983C87.8745 77.4107 92.518 78.0187 97.0092 78.6065C114.167 80.8522 130.373 82.9728 132.2 90.1871C133.623 95.8082 126.302 104.336 109.819 116.256C86.6914 132.982 67.2851 140.773 48.7461 140.772C37.9238 140.701 27.2764 138.035 17.6972 132.998C11.711 129.806 6.00857 126.107 0.652344 121.943L0.652344 122.817C5.91256 126.884 11.5077 130.499 17.3779 133.621C27.0556 138.709 37.8124 141.401 48.7456 141.472H48.748C67.4409 141.472 86.9775 133.639 110.229 116.823C127.204 104.547 134.401 96.0289 132.878 90.0152Z" fill="#D6D6D6"/>
<path d="M3.2456 247.859C6.06655 243.205 9.26637 238.791 12.8125 234.662C17.686 228.664 22.7255 222.462 25.4375 214.843C30.2197 201.406 20.8461 195.199 10.9218 188.627C10.0068 188.02 9.08593 187.41 8.16113 186.785C6.52588 185.678 4.98095 184.634 3.45947 183.579C2.71167 183.061 1.79058 182.397 0.652344 181.568V181.939C1.70709 182.706 2.57953 183.334 3.28857 183.825C4.81157 184.881 6.35693 185.926 8.00293 187.04C8.91893 187.659 9.84033 188.27 10.7563 188.877C20.5795 195.382 29.8584 201.527 25.1552 214.742C22.4599 222.313 17.437 228.495 12.5795 234.472C9.02298 238.614 5.81389 243.042 2.98486 247.711C2.09543 249.407 1.3163 251.159 0.652344 252.956L0.652344 253.766C0.733764 253.562 0.815554 253.357 0.895994 253.155C1.56503 251.341 2.34985 249.572 3.2456 247.859V247.859Z" fill="#D6D6D6"/>
<path d="M317.031 421.309C316.646 417.925 314.518 414.991 310.704 412.59C303.81 408.249 289.39 406.307 278.157 406.307C275.963 406.307 273.953 406.381 272.184 406.527C260.359 407.597 248.667 409.812 237.27 413.143C235.477 413.649 233.695 414.197 231.971 414.769C211.08 421.704 199.004 432.678 193.205 450.929H193.736C199.513 432.935 211.48 422.098 232.129 415.243C233.846 414.674 235.621 414.129 237.407 413.623C248.772 410.302 260.433 408.092 272.225 407.025C273.98 406.88 275.976 406.807 278.157 406.807C289.318 406.807 303.628 408.726 310.438 413.014C314.117 415.33 316.168 418.14 316.534 421.365C317.456 429.471 308 438.981 300.402 446.624C298.869 448.166 297.441 449.602 296.194 450.929H296.885C298.05 449.702 299.356 448.386 300.757 446.977C308.431 439.258 317.979 429.652 317.031 421.309Z" fill="#D6D6D6"/>
<path d="M126.036 395.875C127.593 395.015 129.362 394.616 131.138 394.723C131.899 394.723 132.664 394.757 133.473 394.794C134.28 394.831 135.114 394.869 135.941 394.869C138.207 394.977 140.458 394.442 142.435 393.328C148.119 389.808 150.001 385.722 149.345 383.414C148.912 381.891 147.434 381.017 145.292 381.017C142.84 381.163 140.448 381.837 138.28 382.993C136.519 383.99 134.92 385.25 133.538 386.729C131.737 388.457 129.875 390.244 127.739 390.83C127.092 391.009 126.424 391.099 125.752 391.099C124.444 391.046 123.15 390.805 121.91 390.385C120.614 389.949 119.262 389.7 117.896 389.647C117.394 389.646 116.893 389.692 116.4 389.784C113.864 390.258 112.128 391.867 110.45 393.425C109.116 394.844 107.499 395.969 105.705 396.727C102.813 397.579 99.8022 397.956 96.7895 397.843C91.7732 397.737 86.7663 397.359 81.791 396.71C80.5078 396.564 79.3173 396.43 78.2597 396.323C69.0063 395.395 59.3842 392.495 48.8442 387.46C40.0519 383.213 31.5159 378.455 23.2802 373.209C20.1075 371.139 16.4153 370.005 12.6274 369.938C8.25733 370.006 4.0382 371.547 0.652344 374.311L0.652344 374.683C4.02019 371.879 8.24562 370.31 12.6274 370.238C16.3623 370.306 20.0024 371.425 23.1294 373.469C31.3723 378.718 39.9156 383.481 48.7153 387.731C59.2871 392.781 68.9414 395.689 78.2294 396.622C79.2861 396.728 80.4755 396.862 81.7573 397.008C86.7438 397.658 91.7619 398.037 96.7895 398.143C99.8358 398.256 102.88 397.874 105.804 397.01C107.638 396.24 109.291 395.093 110.654 393.645C112.377 392.046 114.004 390.537 116.455 390.079C116.93 389.99 117.412 389.945 117.896 389.946C119.234 390.001 120.558 390.245 121.827 390.673C123.095 391.099 124.416 391.344 125.752 391.398C126.451 391.4 127.146 391.306 127.818 391.119C130.028 390.514 131.917 388.699 133.745 386.944C135.106 385.489 136.679 384.248 138.411 383.263C140.538 382.127 142.885 381.464 145.292 381.316C147.32 381.316 148.657 382.091 149.057 383.497C149.683 385.698 147.829 389.634 142.276 393.072C140.347 394.157 138.151 394.676 135.941 394.569C135.121 394.569 134.29 394.531 133.487 394.494C132.71 394.459 131.906 394.422 131.138 394.422C129.306 394.313 127.481 394.729 125.877 395.621C124.023 396.785 122.617 399.724 121.257 402.566C120.578 404.119 119.768 405.611 118.836 407.026C111.992 416.349 111.575 426.384 113.053 438.583C113.582 442.745 114.378 446.869 115.437 450.929H115.748C114.683 446.858 113.882 442.722 113.351 438.548C111.881 426.418 112.292 416.446 119.079 407.204C120.022 405.774 120.841 404.266 121.528 402.696C122.869 399.892 124.256 396.993 126.036 395.875Z" fill="#D6D6D6"/>
<path d="M27.6782 225.844C28.1254 225.311 28.5784 224.776 29.0371 224.239C35.4741 216.667 42.1298 208.837 34.5649 199.474C28.7133 192.232 19.8818 186.26 12.0898 180.992C10.4751 179.9 8.95019 178.869 7.44775 177.827C6.43945 177.128 5.07375 176.131 3.49267 174.977C2.62367 174.343 1.66931 173.646 0.652344 172.91V173.28C1.60234 173.969 2.49798 174.622 3.31591 175.219C4.89843 176.374 6.26562 177.372 7.27685 178.073C8.78027 179.116 10.3066 180.148 11.9219 181.24C19.6963 186.497 28.5084 192.455 34.3316 199.662C41.7403 208.832 35.1661 216.566 28.8087 224.044C28.3511 224.583 27.8961 225.119 27.4488 225.652C21.8589 232.314 14.7183 241.235 9.07032 251.17C5.65639 257.172 2.83701 263.493 0.652344 270.043L0.652344 271.028C2.86589 264.18 5.77392 257.575 9.33105 251.319C14.9672 241.405 22.0966 232.496 27.6782 225.844Z" fill="#D6D6D6"/>
<path d="M21.9824 124.632C29.583 128.526 36.0405 130.34 42.3051 130.34C48.8623 130.34 54.6933 128.37 61.4453 126.089C65.2753 124.795 69.6167 123.328 74.538 122.093C76.5319 121.608 78.5784 121.373 80.6303 121.394C81.5849 121.394 82.4995 121.431 83.3837 121.467C84.2221 121.5 85.0141 121.533 85.7978 121.533C89.8515 121.532 93.0737 120.574 96.6064 115.802C98.3824 113.408 99.755 110.739 100.67 107.902C101.848 104.62 102.779 102.029 107.964 98.3211C109.558 97.3231 111.261 96.5098 113.039 95.8968C116.003 94.7308 118.563 93.7234 118.669 92.0179C118.755 90.6355 117.145 89.0936 113.602 87.1644C109.357 84.8611 103.301 84.5501 97.9355 84.5501C95.5424 84.5501 93.0297 84.6238 90.6001 84.6951C88.1586 84.7669 85.6337 84.8406 83.2168 84.8406C79.1012 84.9761 74.9856 84.5696 70.976 83.6316C53.5732 78.9061 37.2563 69.9578 22.8603 62.0633C15.3037 57.9191 7.97204 53.9038 0.652344 50.4531V51.0063C7.8894 54.4288 15.1444 58.402 22.6201 62.5018C37.0405 70.41 53.3847 79.3728 70.8452 84.1141C74.8974 85.0643 79.057 85.4766 83.2168 85.3406C85.6411 85.3406 88.1694 85.2669 90.6147 85.1951C93.041 85.1238 95.5498 85.0501 97.9355 85.0501C103.238 85.0501 109.217 85.3538 113.363 87.6038C116.623 89.3787 118.24 90.8533 118.17 91.9866C118.084 93.3748 115.544 94.3738 112.856 95.4314C111.039 96.0583 109.3 96.8914 107.673 97.9144C102.361 101.713 101.359 104.503 100.199 107.733C99.2999 110.524 97.9504 113.149 96.2041 115.504C92.7968 120.107 89.6962 121.032 85.7978 121.033C85.0244 121.033 84.2373 121.001 83.4043 120.967C82.5146 120.931 81.5947 120.894 80.6303 120.894C78.5373 120.873 76.4498 121.113 74.416 121.608C69.476 122.848 65.1245 124.318 61.2851 125.615C54.5752 127.882 48.7802 129.84 42.3051 129.84C36.123 129.84 29.7377 128.044 22.2099 124.187C15.3281 120.66 9.13916 115.969 3.15234 111.431C2.32177 110.801 1.48844 110.171 0.652344 109.541V110.166C1.38758 110.72 2.12065 111.275 2.85156 111.83C8.854 116.38 15.061 121.085 21.9824 124.632Z" fill="#D6D6D6"/>
<path d="M283.177 429.482C282.306 427.732 279.306 427.108 273.928 427.556C263.456 428.514 253.103 430.487 243.013 433.446C241.516 433.869 240.038 434.323 238.621 434.794C228.454 438.169 221.356 443.349 216.744 450.929H217.097C221.679 443.495 228.696 438.404 238.715 435.079C240.129 434.609 241.602 434.157 243.095 433.735C253.166 430.781 263.501 428.811 273.953 427.854C275.052 427.764 276.064 427.718 276.961 427.718C280.327 427.718 282.272 428.339 282.908 429.616C284.025 431.861 280.879 436.025 277.837 440.052C277.298 440.764 276.758 441.48 276.234 442.191C274.181 444.996 272.286 447.913 270.558 450.929H270.903C272.603 447.975 274.463 445.118 276.477 442.369C276.998 441.659 277.538 440.944 278.076 440.233C281.316 435.944 284.377 431.893 283.177 429.482Z" fill="#D6D6D6"/>
<path d="M293.268 434.625C297.879 430.293 299.729 426.865 298.767 424.437C297.625 421.553 292.54 420.09 283.652 420.09C280.689 420.09 277.319 420.25 273.35 420.579C262.429 421.575 251.631 423.628 241.107 426.71C239.53 427.156 237.951 427.641 236.416 428.15C223.08 432.577 214.074 439.956 208.775 450.929H209.114C214.389 440.104 223.316 432.814 236.51 428.436C238.042 427.927 239.616 427.443 241.189 426.999C251.694 423.922 262.474 421.872 273.375 420.878C277.336 420.55 280.698 420.391 283.652 420.391C292.404 420.391 297.396 421.789 298.488 424.547C299.4 426.85 297.575 430.167 293.063 434.406C292.156 435.258 291.281 436.084 290.545 436.824C287.436 439.783 284.541 442.958 281.882 446.327C280.774 447.833 279.728 449.372 278.713 450.929H279.069C280.048 449.433 281.058 447.954 282.124 446.505C284.775 443.148 287.66 439.983 290.759 437.034C291.49 436.299 292.363 435.475 293.268 434.625Z" fill="#D6D6D6"/>
<path d="M26.5878 115.643C33.4074 119.285 41.0096 121.217 48.7407 121.271C52.9492 121.271 62.0366 119.554 69.9599 116.68C76.9003 114.163 85.1777 109.981 85.1972 104.358C85.2202 97.7363 72.4331 94.0571 64.7929 91.8594C63.1318 91.3813 61.6967 90.9683 60.7387 90.6211C46.0012 85.1815 31.7131 78.5942 18.0058 70.9199C12.0991 67.6807 6.33502 64.5202 0.652344 61.6807V62.0168C6.28723 64.8367 12.0039 67.9704 17.8613 71.1826C31.5821 78.8643 45.8843 85.4581 60.6362 90.9033C61.604 91.2539 63.0434 91.668 64.7099 92.1475C72.2685 94.3223 84.9194 97.9619 84.8974 104.357C84.8637 114.076 57.4658 120.971 48.7363 120.972C41.0543 120.916 33.5007 118.996 26.7246 115.376C20.6147 112.245 14.7783 107.82 9.13379 103.541C6.40134 101.47 3.59027 99.3409 0.652344 97.2697V97.6379C3.52453 99.6683 6.27634 101.752 8.95214 103.781C14.6074 108.067 20.4545 112.5 26.5878 115.643Z" fill="#D6D6D6"/>
<path d="M29.7793 109.412C35.6135 112.541 42.1197 114.209 48.7397 114.271C54.2866 114.271 61.5273 112.625 64.3169 109.014C64.9131 108.25 65.3168 107.354 65.4939 106.402C65.671 105.449 65.6163 104.468 65.3344 103.541C64.0688 98.6928 53.9135 95.2636 46.4985 92.7597C44.102 91.9502 42.0322 91.2514 40.7612 90.6616C32.1933 86.686 23.7153 82.0351 15.5156 77.5376L14.6015 77.0361C9.86187 74.4369 5.21801 71.8926 0.652344 69.5352V69.8731C5.17096 72.2091 9.76696 74.7268 14.457 77.2988L15.3715 77.8008C23.5752 82.3008 32.0581 86.9541 40.6352 90.9341C41.9209 91.5303 43.9975 92.2319 46.4023 93.0439C53.3383 95.3857 63.8193 98.9253 65.0444 103.618C65.3135 104.5 65.3663 105.435 65.1983 106.342C65.0304 107.249 64.6467 108.103 64.0795 108.83C61.3515 112.362 54.2158 113.971 48.7226 113.971C42.1559 113.906 35.7028 112.25 29.916 109.145C24.3535 106.295 18.7656 102.059 13.3593 97.9604C9.45019 94.997 5.25317 91.8194 0.652344 88.8154V89.1747C5.18334 92.1429 9.32244 95.2767 13.1806 98.2016C18.5947 102.306 24.1933 106.55 29.7793 109.412Z" fill="#D6D6D6"/>
<path d="M178.129 6.91797C178.628 4.90088 179.119 2.91125 179.58 0.928711H179.067C178.613 2.8714 178.133 4.82123 177.643 6.79785C176.725 10.5064 175.776 14.3413 175.007 18.2554C172.445 31.3047 170.236 48.4126 175.949 65.0181C178.27 71.7661 184.055 77.2788 189.158 82.1426C193.699 86.4712 197.621 90.209 197.267 93.3516C197.105 94.7964 196.049 96.0806 194.04 97.2773C192.563 97.9402 190.944 98.2263 189.329 98.1099C181.653 98.1099 168.109 94.7212 158.092 91.3633C147.196 87.7104 133.771 81.8916 131.689 74.9136C131.025 72.6909 131.57 70.4458 133.308 68.2402C135.536 65.4131 137.928 62.9263 140.241 60.522C144.792 55.7905 149.092 51.3213 151.937 44.688C155.987 35.4187 156.507 24.9888 153.401 15.3623C152.653 12.9394 151.9 10.7075 151.235 8.73831C150.253 5.8269 149.398 3.28638 148.816 0.928711H148.295C148.887 3.33386 149.758 5.9256 150.762 8.89795C151.425 10.8643 152.178 13.0928 152.924 15.5098C155.993 25.0231 155.479 35.3303 151.477 44.4907C148.668 51.0405 144.4 55.4775 139.881 60.1753C137.431 62.6425 135.106 65.2308 132.915 67.9307C131.071 70.2715 130.497 72.6689 131.209 75.0566C133.353 82.2402 146.925 88.147 157.933 91.8369C167.989 95.2085 181.597 98.6099 189.329 98.6099C191.034 98.7288 192.742 98.4184 194.296 97.707C196.449 96.4243 197.583 95.0181 197.764 93.4077C198.145 90.0185 194.141 86.2012 189.503 81.7808C184.441 76.956 178.704 71.4878 176.422 64.855C170.748 48.3628 172.948 31.3398 175.497 18.352C176.264 14.4497 177.212 10.6206 178.129 6.91797Z" fill="#D6D6D6"/>
<path d="M17.9126 293.48C19.1079 267.56 36.9711 247.131 51.3247 230.717L52.456 229.423C69.5249 209.884 68.832 203.061 60.8237 195.16C48.0756 182.419 34.2383 170.818 19.4697 160.487C13.0766 156.055 6.75286 152.003 0.652344 148.396V148.976C6.66192 152.539 12.8883 156.533 19.1845 160.898C33.9295 171.212 47.7446 182.795 60.4721 195.515C68.2495 203.189 68.8833 209.858 52.0791 229.095L50.9482 230.388C36.5434 246.861 18.6167 267.362 17.4135 293.456C16.2841 317.95 7.0592 325.142 0.652344 327.16V327.684C7.20764 325.685 16.7612 318.458 17.9126 293.48Z" fill="#D6D6D6"/>
<path d="M307.708 420.71C304.77 414.447 292.896 413.133 283.452 413.133C280.134 413.133 276.54 413.291 272.77 413.604C261.401 414.635 250.16 416.769 239.203 419.974C237.513 420.453 235.833 420.969 234.21 421.507C223.809 424.959 215.811 429.952 209.757 436.773C206.076 440.958 203.146 445.747 201.094 450.929H201.408C207.195 436.651 217.863 427.249 234.304 421.792C235.923 421.255 237.599 420.74 239.285 420.263C250.223 417.063 261.446 414.933 272.796 413.902C276.557 413.591 280.142 413.433 283.452 413.433C292.809 413.433 304.566 414.717 307.436 420.837C310.582 427.544 302.932 434.736 297.868 439.496C297.007 440.306 296.193 441.071 295.511 441.758C292.652 444.477 289.982 447.389 287.521 450.474C287.41 450.626 287.305 450.777 287.195 450.929H287.564C287.632 450.836 287.695 450.744 287.764 450.651C290.215 447.579 292.875 444.678 295.724 441.969C296.402 441.286 297.214 440.523 298.074 439.715C303.2 434.896 310.946 427.613 307.708 420.71Z" fill="#D6D6D6"/>
<path d="M101.698 404.56C97.2485 403.417 92.4672 403.343 87.8427 403.271C85.1748 403.23 82.416 403.187 79.7802 402.936C68.0024 401.958 56.499 398.854 45.8271 393.776C36.8041 389.422 28.0445 384.541 19.5937 379.159C17.5249 377.782 15.1115 377.013 12.6274 376.938C8.44275 376.938 4.11956 379.674 0.652344 384.25V384.749C4.09997 380.056 8.4389 377.238 12.6274 377.238C15.0556 377.313 17.4142 378.068 19.4355 379.415C27.8961 384.802 36.6654 389.688 45.6982 394.048C56.4019 399.141 67.9392 402.253 79.7519 403.234C82.3994 403.486 85.164 403.529 87.8383 403.571C92.4448 403.643 97.2085 403.717 101.624 404.851C108.498 406.616 108.25 411.636 107.275 417.526C106.111 424.553 105.146 431.515 106.104 439.424C106.592 443.297 107.304 447.138 108.236 450.929H108.544C107.607 447.127 106.892 443.274 106.402 439.389C105.448 431.519 106.411 424.579 107.571 417.575C108.534 411.759 108.81 406.387 101.698 404.56Z" fill="#D6D6D6"/>
<path d="M128.29 9.57812C135.144 30.9219 137.928 42.5176 120.919 52.3491C117.985 54.0172 114.806 55.2122 111.5 55.8901C108.347 56.5372 105.135 56.8529 101.917 56.832C70.2998 56.8281 26.8715 30.4111 3.54004 16.2192L2.74414 15.7349C2.02923 15.3001 1.33563 14.8786 0.652344 14.4637V15.0486C1.25184 15.4127 1.8625 15.7839 2.48434 16.1621L3.28024 16.646C26.6533 30.8638 70.1596 57.3281 101.917 57.332C105.17 57.353 108.417 57.0337 111.604 56.3794C114.962 55.6906 118.19 54.4764 121.169 52.7817C138.512 42.7578 135.701 31.0215 128.765 9.42529C127.887 6.69071 126.975 3.84247 126.138 0.928711H125.618C126.467 3.89563 127.396 6.79523 128.29 9.57812Z" fill="#D6D6D6"/>
<path d="M118.864 12.6045C121.639 21.2466 124.292 32.0845 120.144 39.2432C118.089 42.7895 114.488 45.1323 109.44 46.207C106.965 46.7095 104.444 46.9525 101.918 46.9321C73.0732 46.9282 31.1875 21.4487 8.68457 7.76025L4.53271 5.23877C3.26104 4.46893 1.96758 3.74688 0.652344 3.07263V3.41263C1.91314 4.06595 3.15634 4.75632 4.37744 5.49563L8.5288 8.01663C31.0566 21.7202 72.9892 47.228 101.918 47.2319C104.465 47.2524 107.007 47.0071 109.502 46.5C114.637 45.4072 118.304 43.0161 120.403 39.3935C124.611 32.1328 121.943 21.2139 119.149 12.5127C117.951 8.78284 116.764 4.90698 115.748 0.928711H115.437C116.46 4.94 117.657 8.84619 118.864 12.6045Z" fill="#D6D6D6"/>
<path d="M101.904 2.93071C103.325 8.26519 104.793 13.7818 104.949 19.4742C105.149 26.8346 102.283 31.0484 96.4283 31.9991C95.4939 32.1451 94.5493 32.2163 93.6036 32.212C83.4351 32.212 68.8795 24.9527 61.0596 21.0528C60.2969 20.6725 59.5948 20.3224 58.963 20.0118L57.0357 19.0655C44.8717 13.1091 33.5976 6.92834 23.917 0.928711H23.3477C33.1281 7.01337 44.5587 13.29 56.9039 19.335L58.8306 20.2812C59.462 20.5913 60.1636 20.9414 60.9258 21.3213C68.7676 25.2324 83.3643 32.5122 93.6036 32.5122C94.5653 32.5166 95.5259 32.444 96.4761 32.2949C102.503 31.3164 105.454 27 105.249 19.4663C105.092 13.7383 103.619 8.20459 102.194 2.85351C102.024 2.21551 101.854 1.57391 101.685 0.928711H101.375C101.55 1.599 101.727 2.26634 101.904 2.93071Z" fill="#D6D6D6"/>
<path d="M112.199 14.7451C112.346 15.2031 112.497 15.6621 112.648 16.1216C114.246 20.9858 115.899 26.0151 113.23 30.8701C111.988 32.9769 110.327 34.8064 108.349 36.2457C106.372 37.6851 104.12 38.7036 101.734 39.2383C101.247 39.3437 100.756 39.4258 100.275 39.4819C99.0418 39.6227 97.8015 39.6923 96.5602 39.6904C83.1334 39.6904 67.3825 31.9497 55.8815 26.2978L53.9562 25.353C39.1789 18.1172 24.9108 9.43799 12.3219 1.77978C11.7877 1.45526 11.3274 1.17578 10.9206 0.928711H10.3428C11.2901 1.50409 12.1664 2.03638 12.1662 2.03613C24.7604 9.69726 39.0348 18.3808 53.8244 25.6225L55.7492 26.5674C67.2765 32.2319 83.0641 39.9902 96.5602 39.9902C97.8131 39.9922 99.065 39.9219 100.31 39.7798C100.8 39.7226 101.301 39.6391 101.797 39.5312C104.225 38.9868 106.516 37.9501 108.528 36.4852C110.539 35.0203 112.229 33.1585 113.493 31.0146C116.225 26.0454 114.551 20.9531 112.933 16.0283C112.782 15.5688 112.631 15.1108 112.485 14.6533C111.077 10.2701 109.691 5.67914 108.544 0.928711H108.236C109.387 5.71265 110.782 10.3341 112.199 14.7451Z" fill="#D6D6D6"/>
<path d="M101.313 224.163C96.9274 225.246 93.09 231.319 90.0065 236.199C88.9279 237.906 87.9093 239.518 87.0153 240.673C82.0245 246.886 76.6881 252.814 71.0314 258.428C69.6198 259.881 67.8459 261.524 65.9674 263.265C60.3874 268.436 53.443 274.873 51.3327 280.763C49.5578 285.716 50.6042 290.438 51.6159 295.006C52.4464 298.755 53.3053 302.632 52.6256 306.657C52.2043 309.155 50.6911 311.615 49.089 314.219C47.1711 317.337 45.1881 320.56 45.068 324.025C45.0274 325.203 45.2112 326.377 45.6095 327.486C46.9338 331.191 48.3127 332.917 49.9499 332.917C51.5993 332.917 53.339 331.23 55.9552 327.096C58.4523 323.148 59.4347 318.575 60.3854 314.151C61.3395 309.711 62.3258 305.12 64.8439 301.148C69.6408 293.584 78.1017 288.013 85.5671 283.097C86.1955 282.682 86.8189 282.271 87.4372 281.862C99.8293 273.65 109.617 267.164 113.984 249.697C115.139 245.075 114.835 233.302 110.134 227.279C109.172 225.905 107.804 224.866 106.223 224.307C104.641 223.748 102.924 223.698 101.313 224.163V224.163ZM109.739 227.587C113.954 232.985 114.793 244.397 113.498 249.576C109.179 266.854 99.4626 273.293 87.1569 281.448C86.5426 281.854 85.9209 282.264 85.2917 282.679C77.7848 287.622 69.276 293.225 64.422 300.881C61.8556 304.928 60.8595 309.563 59.8962 314.047C58.9552 318.427 57.9821 322.956 55.5324 326.828C53.7843 329.592 51.7536 332.417 49.9499 332.417C48.5724 332.417 47.3063 330.749 46.0802 327.318C45.7002 326.27 45.5263 325.157 45.568 324.043C45.6833 320.71 47.631 317.543 49.5148 314.481C51.1432 311.835 52.6808 309.335 53.1188 306.741C53.8146 302.619 52.945 298.693 52.1042 294.897C51.0617 290.192 50.0768 285.748 51.8034 280.931C53.8727 275.157 60.7672 268.766 66.3073 263.632C68.1906 261.887 69.9694 260.238 71.3898 258.775C77.0599 253.149 82.4087 247.207 87.4108 240.979C88.3195 239.806 89.3444 238.183 90.4294 236.466C93.4645 231.662 97.2423 225.683 101.433 224.648C102.152 224.466 102.891 224.371 103.634 224.366C104.834 224.379 106.014 224.678 107.076 225.238C108.138 225.798 109.051 226.603 109.739 227.587V227.587Z" fill="#D6D6D6"/>
<path d="M105.913 202.45C105.207 201.269 104.242 200.265 103.091 199.513C101.939 198.761 100.632 198.281 99.2674 198.11C97.5067 197.845 95.8367 197.156 94.4012 196.102L94.2528 195.937C89.1493 190.23 72.0477 171.61 66.2557 171.61C65.9541 171.594 65.6529 171.651 65.3779 171.776C65.1029 171.901 64.8622 172.09 64.6761 172.328C63.9022 173.338 63.9413 175.37 64.7958 178.539C65.3041 180.424 70.1463 183.023 75.2733 185.775C79.5453 188.068 83.9632 190.44 85.4598 192.218C86.8026 193.813 88.5697 196.023 88.4105 196.788C88.3675 196.996 88.1424 197.117 87.7484 197.313C86.8548 197.757 85.5047 198.429 86.2245 201.584C86.9259 203.886 87.9904 206.062 89.3778 208.029C90.5838 209.748 91.5378 211.631 92.2108 213.62C93.4935 218.535 85.4344 227.567 80.1019 233.542C78.3426 235.513 76.8236 237.216 75.8568 238.498C71.7432 243.661 67.2622 248.521 62.4486 253.038C53.3417 262.014 43.9247 271.295 40.6126 284.112C35.6639 303.261 34.6771 320.171 37.68 334.371C39.2811 341.949 44.8001 352.516 50.1512 352.516C53.4842 352.516 55.9115 348.512 57.3651 340.614C62.9642 310.193 78.2396 300.071 93.0121 290.283C106.1 281.61 118.463 273.418 123.781 252.146C125.786 244.119 122.701 231.778 118.693 224.946C117.093 222.394 114.974 220.206 112.473 218.526C110.47 217.182 108.733 215.478 107.353 213.5C106.364 211.945 106.539 210.134 106.726 208.217C106.918 206.235 107.118 204.186 105.913 202.45ZM106.763 213.876C108.185 215.926 109.978 217.692 112.049 219.083C114.475 220.711 116.532 222.829 118.09 225.301C122.028 232.013 125.064 244.121 123.102 251.976C117.85 272.985 105.598 281.104 92.6253 289.699C77.7313 299.568 62.3294 309.774 56.6766 340.487C55.3124 347.899 53.056 351.817 50.1512 351.817C45.6068 351.817 40.0838 342.361 38.3646 334.227C35.3846 320.133 36.369 303.331 41.2904 284.287C44.5541 271.659 53.9007 262.446 62.9398 253.537C67.7778 248.996 72.2814 244.111 76.4154 238.92C77.3651 237.66 78.8753 235.968 80.6239 234.008C86.3807 227.557 94.2655 218.722 92.8885 213.443C92.2006 211.384 91.2182 209.436 89.972 207.659C88.6289 205.756 87.5945 203.654 86.9071 201.429C86.3099 198.81 87.2396 198.347 88.0599 197.94C88.513 197.714 88.9818 197.481 89.096 196.931C89.2484 196.198 88.7826 195.078 85.995 191.766C84.4125 189.887 79.9344 187.483 75.6043 185.158C71.056 182.717 65.9012 179.95 65.4715 178.356C64.4964 174.74 64.8031 173.314 65.2318 172.754C65.3538 172.602 65.5107 172.483 65.689 172.406C65.8674 172.328 66.0619 172.295 66.2557 172.31C70.6268 172.31 83.3148 184.756 93.7308 196.403C93.8602 196.548 93.9335 196.62 93.9374 196.623C95.4637 197.757 97.2427 198.502 99.121 198.794C100.399 198.947 101.625 199.393 102.703 200.096C103.781 200.799 104.682 201.741 105.337 202.849C106.396 204.374 106.218 206.208 106.029 208.149C105.84 210.1 105.643 212.118 106.763 213.876Z" fill="#D6D6D6"/>
<path d="M0.652344 137.536C34.3734 156.619 70.7152 186.979 77.3315 202.069C81.3051 211.132 71.6728 221.962 59.4785 235.672C45.6211 251.251 28.3754 270.64 27.3027 293.912C25.9948 322.28 11.9357 333.93 0.652344 337.453V338.185C12.1949 334.669 26.6688 322.866 28.0019 293.944C29.0634 270.92 46.2177 251.634 60.0014 236.136C72.3627 222.239 82.1264 211.262 77.9726 201.788C71.3065 186.584 34.6174 155.96 0.652344 136.788V137.536Z" fill="#D6D6D6"/>
<path d="M170.519 0.984861L170.571 0.928711H170.162C169.454 1.61534 168.879 2.4272 168.466 3.32324C167.222 6.24124 167.575 9.28324 167.916 12.2246C168.154 13.8779 168.257 15.5478 168.224 17.2178C168.024 19.8849 167.633 22.5343 167.055 25.1455C166.631 27.3057 166.193 29.5386 165.982 31.7139C164.701 44.939 165.859 56.8994 169.425 67.2637C170.164 69.4136 173.063 72.7217 176.131 76.2241C180.055 80.7026 184.111 85.334 184.273 88.1455C184.303 88.4178 184.275 88.6934 184.19 88.9539C184.105 89.2144 183.966 89.4538 183.781 89.6558C182.72 90.7798 179.877 90.9863 175.333 90.2661C172.026 89.5895 168.818 88.5015 165.782 87.0273C163.989 86.248 162.134 85.4419 160.283 84.8208C159.761 84.6455 159.218 84.4663 158.661 84.2827C152.012 82.0879 142.907 79.0825 141.601 73.8183C140.979 71.3076 142.199 68.4385 145.227 65.2905C150.001 60.3281 154.937 55.1973 158.278 47.4082C161.48 39.9424 165.165 25.4111 163.754 17.5459C163.478 16.1988 162.929 14.9224 162.142 13.7949C161.582 13.0725 161.176 12.2428 160.95 11.3573C160.723 10.4717 160.681 9.54907 160.825 8.64648C161.045 7.29336 161.586 6.01269 162.403 4.91211C163.313 3.79492 163.741 2.36207 163.595 0.928711L163.296 0.928711C163.37 1.60911 163.307 2.29734 163.11 2.95292C162.914 3.6085 162.588 4.21817 162.153 4.74609C161.31 5.88216 160.753 7.20413 160.528 8.60059C160.376 9.53815 160.418 10.4971 160.651 11.4177C160.885 12.3384 161.305 13.2012 161.887 13.9526C162.653 15.0486 163.188 16.2891 163.459 17.5986C164.86 25.4062 161.19 39.8589 158.002 47.29C154.683 55.0288 149.766 60.1396 145.012 65.0825C141.907 68.3096 140.662 71.2734 141.31 73.8906C142.655 79.3154 151.852 82.3511 158.567 84.5674C159.124 84.7515 159.666 84.9302 160.187 85.105C162.026 85.7222 163.875 86.5254 165.662 87.3022C168.721 88.7875 171.954 89.8827 175.286 90.562C176.803 90.8215 178.337 90.9645 179.875 90.9897C181.934 90.9897 183.283 90.6206 183.999 89.8613C184.211 89.6291 184.372 89.3547 184.471 89.0559C184.57 88.7572 184.605 88.4409 184.573 88.1279C184.405 85.2139 180.313 80.5434 176.357 76.0268C173.309 72.5469 170.429 69.2602 169.708 67.166C166.157 56.8428 165.003 44.9248 166.281 31.7432C166.49 29.582 166.927 27.3559 167.349 25.2036C167.931 22.578 168.323 19.9141 168.524 17.2324C168.557 15.5461 168.454 13.8599 168.215 12.1904C167.862 9.15379 167.529 6.28562 168.742 3.44139C169.177 2.51932 169.779 1.68627 170.519 0.984861V0.984861Z" fill="#D6D6D6"/>
<path d="M137.715 6.55176C144.043 26.2583 150.587 46.6358 125.873 60.9204C122.039 63.1087 117.884 64.6793 113.561 65.5742C109.73 66.3649 105.827 66.7529 101.916 66.7319C68.5051 66.7319 26.7121 41.8852 0.652344 26.0495V26.8688C26.7988 42.7518 68.4683 67.4321 101.916 67.4321C105.876 67.4531 109.828 67.0598 113.707 66.2588C118.102 65.3487 122.326 63.7518 126.224 61.5268C151.426 46.959 144.794 26.3086 138.382 6.33789C137.798 4.52106 137.22 2.71661 136.669 0.928711H135.936C136.507 2.78693 137.109 4.66284 137.715 6.55176Z" fill="#D6D6D6"/>
<path d="M96.5219 414.039C92.8823 410.673 87.4404 410.388 82.6391 410.137C81.4057 410.072 80.2407 410.012 79.1152 409.904C66.5205 408.853 54.2203 405.529 42.8105 400.093C34.542 396.276 26.5913 391.805 19.0341 386.723C17.471 385.569 15.5902 384.925 13.6479 384.879C9.54882 384.879 5.69094 388.095 3.32763 393.481C2.43505 395.516 1.55395 397.514 0.652344 399.492V400.212C1.651 398.039 2.61969 395.842 3.60254 393.602C5.91654 388.328 9.67187 385.18 13.6479 385.18C15.529 385.226 17.3501 385.851 18.8637 386.969C26.434 392.061 34.3986 396.54 42.6816 400.364C54.1231 405.815 66.4573 409.149 79.0869 410.203C80.2187 410.311 81.3872 410.372 82.6235 410.437C87.374 410.686 92.7583 410.967 96.3178 414.26C100.445 418.078 99.8637 425.326 99.351 431.721C99.0196 434.557 98.9539 437.417 99.1547 440.266C99.6529 443.866 100.394 447.429 101.374 450.929H101.684C100.699 447.417 99.9538 443.843 99.4526 440.23C99.255 437.402 99.3211 434.561 99.6499 431.744C100.168 425.281 100.756 417.956 96.5219 414.039Z" fill="#D6D6D6"/>
<path d="M3.05859 431.396C2.18176 431.045 1.37579 430.719 0.652344 430.346V430.681C1.35827 431.037 2.12945 431.347 2.94726 431.674C3.36816 431.842 3.80175 432.016 4.24609 432.203C9.64881 434.377 14.8274 437.071 19.7089 440.246C24.8709 443.724 30.7003 447.315 37.0266 450.929H37.6313C31.1348 447.231 25.1568 443.555 19.8769 439.998C14.9791 436.811 9.78317 434.108 4.36234 431.926C3.9165 431.738 3.48095 431.564 3.05859 431.396Z" fill="#D6D6D6"/>
<path d="M15.7983 446.052C18.1816 447.657 20.7079 449.286 23.3474 450.929H23.9156C21.1301 449.202 18.4695 447.49 15.9663 445.804C11.1102 442.731 5.98434 440.107 0.652344 437.964L0.652344 438.286C5.92514 440.412 10.9945 443.011 15.7983 446.052V446.052Z" fill="#D6D6D6"/>
<path d="M93.0293 428.561C93.5058 425.621 93.999 422.58 92.0581 420.27C89.7412 417.512 85.9575 417.317 82.6196 417.146L82.2749 417.128C81.0883 417.065 79.7436 416.995 78.4521 416.873C65.0399 415.748 51.9423 412.203 39.7939 406.409C35.9829 404.59 32.2392 402.515 28.6191 400.509C26.6308 399.407 24.5747 398.268 22.5283 397.182L22.3896 397.108C19.9902 395.835 17.5092 394.518 14.9565 394.518C13.6346 394.511 12.3409 394.899 11.2417 395.634C7.17089 398.283 5.21728 403.424 3.32763 408.396C2.56265 410.534 1.66926 412.625 0.652344 414.656L0.652344 415.282C1.79932 413.096 2.78723 410.83 3.60839 408.502C5.48047 403.575 7.4165 398.481 11.4057 395.886C12.4561 395.183 13.6928 394.811 14.9565 394.817C17.4345 394.817 19.8818 396.117 22.249 397.373L22.3877 397.447C24.4316 398.531 26.4863 399.67 28.4736 400.772C32.0981 402.779 35.8457 404.856 39.665 406.681C51.8451 412.49 64.9767 416.044 78.4238 417.172C79.7216 417.295 81.0698 417.365 82.2592 417.427L82.604 417.445C85.8808 417.613 89.5952 417.805 91.8286 420.463C93.6811 422.668 93.1992 425.64 92.7329 428.513C92.583 429.437 92.4419 430.31 92.3725 431.172C91.9952 434.471 91.9392 437.798 92.2055 441.107C92.6415 444.419 93.2894 447.7 94.145 450.929H94.4545C93.5935 447.689 92.9418 444.396 92.5034 441.072C92.2402 437.779 92.2968 434.467 92.6723 431.185C92.7397 430.346 92.8803 429.479 93.0293 428.561Z" fill="#D6D6D6"/>
<path d="M79.7378 424.627C76.5787 423.249 73.1299 422.919 69.7945 422.6C67.8695 422.449 65.9536 422.199 64.0547 421.849C54.6226 419.937 45.4613 416.873 36.7769 412.725C32.7779 410.816 28.9424 408.691 25.2256 406.631C24.6988 406.339 24.086 405.948 23.4375 405.534C21.294 404.167 18.626 402.463 16.2398 402.463C15.3915 402.45 14.5604 402.703 13.8633 403.186C12.0411 404.461 11.1817 407.03 10.4233 409.296C10.2339 409.861 10.0557 410.395 9.8706 410.881C9.38383 412.006 8.82976 413.1 8.21142 414.158C6.54931 417.174 4.47998 420.929 5.2246 423.188C5.9766 425.467 8.94726 426.716 11.3345 427.719C11.8755 427.947 12.3868 428.162 12.8238 428.37C16.5692 430.12 20.178 432.149 23.6197 434.44C32.6432 440.424 41.9765 445.928 51.5805 450.928H52.2218C42.4522 445.86 32.9605 440.273 23.7876 434.192C20.3337 431.892 16.7118 429.855 12.9527 428.098C12.5093 427.887 11.9952 427.671 11.4507 427.443C9.11965 426.463 6.21874 425.244 5.50976 423.094C4.80615 420.959 6.83984 417.268 8.47412 414.302C9.10059 413.233 9.66056 412.127 10.1509 410.989C10.3379 410.496 10.5176 409.96 10.7075 409.391C11.4511 407.169 12.2939 404.65 14.0351 403.432C14.6821 402.984 15.453 402.75 16.2397 402.763C18.5385 402.763 21.165 404.44 23.2758 405.787C23.9287 406.204 24.5449 406.597 25.0883 406.898C28.8012 408.956 32.6401 411.083 36.6479 412.997C45.3547 417.154 54.5393 420.226 63.9951 422.144C65.9045 422.495 67.8308 422.747 69.7661 422.899C73.0781 423.215 76.5024 423.543 79.6176 424.903C85.1235 427.305 85.1 432.003 85.0751 436.978C85.0322 438.637 85.0926 440.297 85.2558 441.949C85.6404 444.972 86.2007 447.97 86.9338 450.928H87.242C86.5039 447.959 85.9402 444.949 85.5538 441.914C85.3921 440.274 85.3324 438.626 85.375 436.979C85.4004 431.904 85.4248 427.109 79.7378 424.627Z" fill="#D6D6D6"/>
<path d="M203.22 351.495C216.488 349.985 230.718 334.618 230.902 321.6C231.186 301.64 219.708 285.693 208.608 270.273C206.724 267.654 204.775 264.947 202.935 262.286L201.828 260.69C196.605 253.167 190.685 244.64 188.762 235.429C187.13 227.616 184.64 209.454 187.354 203.173C189.34 198.577 195.001 195.946 200.476 193.402C204.257 191.644 207.828 189.984 210.338 187.711L210.454 187.605C219.037 179.83 219.037 179.83 224.886 179.631C226.655 179.57 228.859 179.495 231.965 179.203C234.809 178.954 237.628 178.471 240.394 177.761C241.274 177.497 242.181 177.334 243.098 177.275C244.902 177.275 246.408 178.551 251.399 182.776C266.15 195.267 265.873 216.988 265.605 237.995C265.267 264.43 264.917 291.765 294.831 300.418C298.873 301.623 303.064 302.255 307.281 302.293C318.529 302.292 328.106 297.268 334.976 287.763C345.056 273.816 347.734 252.051 341.64 233.601C327.574 191.017 293.95 166.667 257.787 143.468C224.919 122.383 193.614 116.571 166.852 112.779C165.038 112.513 163.207 112.375 161.374 112.365C150.521 112.365 145.361 117.885 138.83 124.873C136.205 127.768 133.435 130.528 130.529 133.141C126.854 136.373 122.175 138.585 117.65 140.725C110.271 144.214 103.3 147.509 100.42 154.837C94.3082 170.386 109.322 182.502 122.568 193.192C128.7 198.141 134.492 202.815 137.884 207.485C151.338 226.008 147.314 257.239 135.114 274.786C131.306 280.264 124.006 287.039 116.278 294.212C103.478 306.093 88.9703 319.56 86.4087 330.873C85.2037 336.195 85.5186 339.909 87.3716 342.229C88.919 344.165 91.5279 345.106 95.3472 345.106C101.633 345.106 110.638 342.515 120.171 339.773C131.822 336.42 145.027 332.621 156.292 332.621C160.953 332.483 165.589 333.354 169.882 335.174C174.025 337.242 177.909 339.793 181.453 342.773C187.318 347.333 192.859 351.642 200.699 351.642C201.541 351.64 202.383 351.591 203.22 351.495ZM170.089 334.719C165.731 332.869 161.024 331.983 156.292 332.121C144.957 332.121 131.716 335.931 120.033 339.292C110.534 342.024 101.562 344.606 95.3472 344.606C91.6895 344.606 89.2086 343.727 87.7623 341.917C86.0103 339.724 85.7271 336.148 86.8961 330.984C89.4239 319.82 103.872 306.41 116.618 294.578C124.367 287.387 131.685 280.593 135.524 275.071C147.822 257.384 151.868 225.886 138.289 207.191C134.858 202.467 129.041 197.773 122.882 192.803C109.77 182.221 94.9078 170.228 100.885 155.02C103.693 147.877 110.576 144.623 117.864 141.177C122.42 139.023 127.131 136.795 130.859 133.517C133.777 130.893 136.559 128.121 139.195 125.214C145.644 118.315 150.737 112.865 161.374 112.865C163.184 112.875 164.991 113.012 166.782 113.274C193.492 117.059 224.734 122.858 257.518 143.889C293.602 167.037 327.151 191.329 341.165 233.757C347.211 252.063 344.561 273.648 334.57 287.47C327.799 296.839 318.362 301.792 307.281 301.793C303.111 301.755 298.966 301.13 294.97 299.938C281.715 296.104 273.33 288.229 269.337 275.864C265.762 264.793 265.936 251.173 266.105 238.001C266.374 216.879 266.653 195.037 251.721 182.394C244.586 176.352 244.396 176.259 240.274 177.275C237.532 177.98 234.738 178.458 231.918 178.705C228.826 178.996 226.632 179.071 224.869 179.131C218.837 179.337 218.837 179.337 210.119 187.235L210.002 187.341C207.549 189.563 204.011 191.208 200.265 192.948C194.706 195.532 188.957 198.204 186.895 202.975C184.133 209.365 186.63 227.668 188.273 235.53C190.216 244.841 196.167 253.412 201.418 260.976L202.524 262.571C204.366 265.235 206.317 267.944 208.202 270.564C219.255 285.92 230.684 301.798 230.402 321.592C230.221 334.398 216.219 349.513 203.164 350.999C202.345 351.093 201.522 351.14 200.699 351.142C193.03 351.142 187.556 346.885 181.76 342.378C178.185 339.373 174.268 336.803 170.089 334.719V334.719Z" fill="#D6D6D6"/>
<path d="M450.653 3.07245C449.15 2.2984 447.618 1.58382 446.058 0.928711H445.247C447.09 1.67462 448.892 2.50267 450.653 3.41284V3.07245Z" fill="#D6D6D6"/>
<path d="M437.34 409.68C433.133 416.05 428.581 422.187 423.705 428.062C423.484 428.334 423.24 428.619 422.99 428.913C421.193 431.023 418.954 433.648 420.535 436.289C422.066 438.844 426.437 439.358 429.628 439.733C430.202 439.802 430.744 439.865 431.202 439.935C437.918 440.939 444.463 442.865 450.653 445.659V445.331C444.475 442.555 437.945 440.64 431.247 439.638C430.784 439.567 430.239 439.504 429.663 439.436C426.533 439.067 422.247 438.563 420.793 436.135C419.322 433.678 421.483 431.144 423.218 429.107C423.471 428.812 423.714 428.525 423.938 428.251C428.821 422.368 433.379 416.222 437.592 409.842C441.503 403.759 444.267 397.459 447.193 390.789C448.121 388.655 449.281 386.63 450.653 384.749V384.25C449.161 386.236 447.907 388.39 446.917 390.668C443.996 397.327 441.238 403.616 437.34 409.68Z" fill="#D6D6D6"/>
<path d="M414.7 40.8633C413.387 40.8633 412.107 40.853 410.851 40.8428C409.641 40.833 408.454 40.8232 407.283 40.8232C400.466 40.8232 395.038 41.1885 389.054 43.0054C385.98 44.0369 383.004 45.3374 380.158 46.8916C375.424 49.3022 370.953 51.5786 365.602 51.5786C364.707 51.5781 363.814 51.5135 362.929 51.3852C358.982 50.8149 356.027 48.4878 353.167 46.2373C349.955 43.708 346.92 41.3193 342.662 41.3193C342.269 41.3197 341.877 41.3401 341.486 41.3804C338.86 41.6489 334.655 44.0122 330.588 46.2978C328.39 47.6174 326.106 48.788 323.751 49.8017C321.84 50.5016 319.885 51.0778 317.9 51.5268C313.696 52.5273 313.166 52.8965 311.123 60.6357C310.559 62.7754 310.15 64.7754 309.753 66.7095C308.282 73.8867 307.121 79.5561 299.47 84.9722C294.307 88.6172 287.755 90.3896 279.441 90.3901C271.202 90.3906 262.591 88.6655 254.992 87.1435C251.02 86.3476 247.267 85.5962 244.479 85.2993C242.859 85.1265 240.363 85.0229 237.801 85.0229C230.461 85.0229 221.863 87.7104 221.261 91.5669C220.977 93.3931 222.403 96.1348 230.818 98.8252L231.756 99.125C263.826 109.412 286.194 122.835 308.958 145.458C315.238 151.699 320.033 154.606 324.051 154.606C324.987 154.607 325.916 154.44 326.793 154.113C331.064 152.52 334.177 147.131 337.782 140.891C339.645 137.669 341.754 134.018 344.248 130.503C356.091 113.649 373.294 101.304 393.052 95.4809C398.444 93.8883 404.032 93.0559 409.654 93.0078C426.924 93.0078 439.112 101.464 450.653 110.166V109.54C439.136 100.87 426.938 92.5078 409.654 92.5078C403.985 92.5561 398.35 93.3951 392.913 95.0005C373.046 100.855 355.748 113.267 343.84 130.214C341.333 133.747 339.217 137.41 337.35 140.641C333.792 146.797 330.72 152.114 326.618 153.645C325.797 153.951 324.927 154.107 324.051 154.106C320.174 154.106 315.489 151.245 309.31 145.104C286.486 122.42 264.061 108.961 231.908 98.6489L230.969 98.3486C224.668 96.334 221.396 93.9526 221.756 91.644C222.256 88.4404 229.904 85.5229 237.801 85.5229C240.346 85.5229 242.822 85.625 244.426 85.7964C247.191 86.0908 250.933 86.8403 254.895 87.6338C262.516 89.1601 271.154 90.8906 279.441 90.8901C287.863 90.8896 294.508 89.0874 299.759 85.3804C307.571 79.8501 308.75 74.0952 310.242 66.8096C310.638 64.8823 311.046 62.8891 311.608 60.7637C313.642 53.0542 314.056 52.9556 318.015 52.0132C320.02 51.5599 321.993 50.9778 323.923 50.2705C326.304 49.249 328.612 48.0673 330.833 46.7334C334.668 44.5786 339.014 42.1357 341.536 41.8774C341.91 41.8391 342.286 41.8197 342.662 41.8193C346.747 41.8193 349.715 44.1562 352.859 46.6304C355.769 48.9214 358.778 51.2905 362.857 51.8804C363.766 52.0119 364.683 52.0781 365.602 52.0786C371.073 52.0786 375.807 49.6684 380.385 47.3374C383.204 45.7972 386.153 44.5077 389.198 43.4839C395.124 41.685 400.512 41.3232 407.283 41.3232C408.452 41.3232 409.638 41.333 410.847 41.3428C412.104 41.353 413.386 41.3633 414.7 41.3633C420.346 41.302 425.972 42.0358 431.412 43.543C438.018 45.5022 444.453 47.9982 450.653 51.0062V50.453C444.495 47.4765 438.106 45.0049 431.549 43.0625C426.064 41.5421 420.392 40.8018 414.7 40.8633Z" fill="#D6D6D6"/>
<path d="M393.499 266.051C394.066 266.793 395.129 267.803 397.801 268.022C407.795 268.839 422.898 270.076 435.655 281.695L435.801 281.826C440.316 286.03 443.901 291.133 446.325 296.806C447.051 298.451 448.228 299.394 449.556 299.394C449.933 299.392 450.305 299.316 450.652 299.17V298.813C450.312 298.986 449.938 299.083 449.556 299.094C448.352 299.094 447.275 298.216 446.6 296.685C444.159 290.974 440.549 285.837 436.003 281.604L435.856 281.472C423.025 269.785 407.86 268.544 397.826 267.723C395.272 267.514 394.269 266.565 393.737 265.87C392.743 264.393 392.288 262.62 392.449 260.847C393.839 254.727 395.567 247.11 394.918 238.773C393.823 224.66 388.181 212.534 382.725 200.807C378.346 191.396 373.383 180.729 375.106 175.866C378.175 167.212 390.713 154.805 395.961 149.872C399.113 146.811 403.343 145.114 407.737 145.148C409.835 145.16 411.918 145.494 413.914 146.139C423.111 149.104 436.135 155.899 450.652 165.229V164.874C436.178 155.583 423.192 148.815 414.006 145.854C411.98 145.2 409.866 144.86 407.737 144.848C403.267 144.813 398.963 146.539 395.756 149.653C390.491 154.601 377.914 167.05 374.823 175.766C373.058 180.744 378.05 191.47 382.454 200.935C387.898 212.637 393.528 224.737 394.619 238.796C395.264 247.087 393.541 254.68 392.154 260.793C391.984 262.649 392.459 264.506 393.499 266.051Z" fill="#D6D6D6"/>
<path d="M319.444 16.4419C328.075 21.8603 338.135 24.4946 350.199 24.4946C361.3 24.4946 372.919 22.3105 384.155 20.1982C395.092 18.1426 406.399 16.0171 416.91 16.0171C427.57 16.0171 436.404 18.228 443.917 22.7759C445.229 23.5703 446.604 24.4054 448.042 25.2812C448.893 25.7988 449.763 26.3278 450.652 26.8683V26.0494C449.891 25.5868 449.139 25.1294 448.405 24.6831C446.969 23.8091 445.594 22.9738 444.28 22.1772C436.655 17.561 427.702 15.3169 416.91 15.3169C406.335 15.3169 394.994 17.4487 384.026 19.5102C372.821 21.6167 361.234 23.7944 350.199 23.7944C338.27 23.7944 328.332 21.1953 319.817 15.8491C314.099 12.2573 311.338 8.48193 311.611 4.62793C311.726 3.32189 312.131 2.05798 312.797 0.928711L312.016 0.928711C311.4 2.05575 311.024 3.29867 310.913 4.57861C310.62 8.71045 313.49 12.7016 319.444 16.4419Z" fill="#D6D6D6"/>
<path d="M412.326 256.989C414.602 258.236 417.727 258.768 420.749 259.282C422.931 259.586 425.083 260.072 427.184 260.735C428.512 261.254 429.812 261.842 431.078 262.498C433.947 263.911 437.198 265.513 440.159 265.513C440.709 265.516 441.258 265.456 441.795 265.336C441.933 265.303 442.069 265.268 442.202 265.228C446.441 263.965 448.705 258.651 450.653 253.766V252.956L450.617 253.044C448.638 258.022 446.394 263.666 442.117 264.941C441.989 264.979 441.859 265.012 441.728 265.043C441.213 265.158 440.686 265.216 440.159 265.213C437.268 265.213 434.05 263.627 431.21 262.228C429.934 261.567 428.624 260.975 427.285 260.454C425.169 259.783 422.999 259.292 420.8 258.986C417.802 258.476 414.702 257.949 412.47 256.725C407.531 254.017 408.046 249.058 408.591 243.808C408.865 241.78 408.96 239.731 408.875 237.686C407.583 221.048 401.403 207.761 395.424 194.911C394.084 192.114 393.343 189.069 393.246 185.969C393.15 182.869 393.701 179.783 394.865 176.909C396.227 173.72 398.23 170.845 400.75 168.462C403.269 166.079 406.251 164.239 409.511 163.057C411.596 162.265 413.807 161.858 416.037 161.857C425.684 161.857 434.744 169.255 442.738 175.783C445.001 177.631 447.139 179.377 449.189 180.873C449.719 181.26 450.198 181.609 450.653 181.94V181.569C450.251 181.276 449.825 180.966 449.367 180.631C447.323 179.139 445.188 177.396 442.927 175.55C434.895 168.991 425.791 161.557 416.037 161.557C413.771 161.558 411.524 161.971 409.406 162.776C406.107 163.974 403.09 165.836 400.541 168.247C397.992 170.659 395.965 173.568 394.587 176.795C393.408 179.708 392.849 182.835 392.946 185.976C393.044 189.118 393.795 192.204 395.153 195.038C401.119 207.863 407.288 221.126 408.576 237.71C408.659 239.736 408.564 241.767 408.293 243.777C407.761 248.894 407.211 254.184 412.326 256.989Z" fill="#D6D6D6"/>
<path d="M414.7 50.9629C406.29 50.9629 397.346 52.4878 387.861 54.105C377.189 55.9258 366.155 57.8081 354.4 57.8086C353.553 57.8086 352.714 57.7988 351.906 57.7793C348.342 57.637 344.797 57.1806 341.313 56.4155C338.979 55.8741 336.6 55.5537 334.206 55.4585C329.01 55.4585 325.189 58.1943 321.02 64.9018C319.051 68.3514 317.411 71.9788 316.123 75.7358C313.613 82.3462 311.018 89.1821 305.282 93.2319C303.308 94.6264 299.529 95.7051 295.528 96.8471C288.539 98.8423 280.616 101.104 279.54 105.824C278.198 111.741 290.354 119.837 296.885 124.187C298.1 124.997 299.149 125.696 299.838 126.201C307.495 131.818 313.828 135.56 319.848 135.56C320.666 135.56 321.482 135.488 322.287 135.344C327.088 134.482 331.449 131.087 336.011 124.659C349.181 105.937 368.306 92.2295 390.267 85.772C396.564 83.9195 403.089 82.9552 409.653 82.9072C426.906 82.9072 439.672 89.8755 450.652 97.6375V97.2691C439.674 89.5295 426.904 82.6074 409.653 82.6074C403.061 82.6553 396.509 83.6235 390.185 85.4839C368.158 91.9596 348.976 105.707 335.767 124.485C331.253 130.845 326.953 134.202 322.234 135.049C321.447 135.19 320.648 135.26 319.848 135.259C313.91 135.259 307.625 131.542 300.016 125.959C299.322 125.45 298.27 124.749 297.051 123.938C290.58 119.628 278.536 111.606 279.833 105.89C280.869 101.343 288.701 99.1079 295.611 97.1357C299.637 95.9863 303.439 94.9009 305.456 93.477C311.266 89.3745 313.877 82.4951 316.403 75.8423C317.686 72.1037 319.316 68.4938 321.273 65.06C325.382 58.4536 329.128 55.7588 334.206 55.7588C336.58 55.8547 338.94 56.1732 341.255 56.7099C344.755 57.4786 348.317 57.9368 351.898 58.0791C352.709 58.0986 353.551 58.1084 354.4 58.1084C366.181 58.1079 377.229 56.2236 387.927 54.3984C397.384 52.7856 406.315 51.2627 414.7 51.2627C419.426 51.2038 424.136 51.8095 428.693 53.062C436.273 55.3647 443.624 58.3622 450.652 62.0163V61.6804C443.649 58.0466 436.325 55.0652 428.775 52.7739C424.192 51.5134 419.454 50.9037 414.7 50.9629V50.9629Z" fill="#D6D6D6"/>
<path d="M405.848 262.375C407.893 262.889 409.892 263.351 411.824 263.8C422.279 266.224 431.309 268.318 440.338 276.492L440.519 276.656C442.595 278.535 444.232 279.448 445.528 279.448C445.726 279.448 445.923 279.426 446.116 279.383C448.077 278.929 449.055 276.192 450.129 272.662C450.295 272.115 450.476 271.572 450.652 271.027V270.042C450.372 270.884 450.1 271.727 449.842 272.574C448.796 276.011 447.852 278.673 446.048 279.09C444.75 279.394 443.034 278.527 440.72 276.432L440.539 276.269C431.452 268.043 422.388 265.941 411.892 263.508C409.961 263.059 407.964 262.597 405.92 262.084C398.587 260.244 399.827 253.348 401.026 246.68C401.652 243.908 401.944 241.071 401.896 238.23C400.704 222.858 394.793 210.15 389.073 197.855C388.39 196.387 387.658 194.951 386.949 193.562C383.274 186.355 380.101 180.131 384.638 172.47C388.052 166.707 393.164 161.99 398.109 157.429C399.001 156.606 399.888 155.787 400.76 154.968C402.885 153.097 405.655 152.129 408.483 152.268C420.801 152.268 439.75 165.38 450.652 173.28V172.909C439.696 164.977 420.827 151.968 408.483 151.968C405.579 151.828 402.735 152.825 400.555 154.749C399.684 155.568 398.797 156.386 397.905 157.208C392.945 161.784 387.815 166.516 384.38 172.317C379.759 180.12 383.122 186.716 386.683 193.698C387.39 195.084 388.12 196.518 388.804 197.986C394.509 210.252 400.409 222.935 401.598 238.254C401.642 241.069 401.351 243.879 400.731 246.626C399.508 253.431 398.242 260.467 405.848 262.375Z" fill="#D6D6D6"/>
<path d="M195.404 406.388C192.876 410.203 189.729 414.952 190.816 418.231C191.098 418.951 191.545 419.595 192.121 420.111C192.697 420.627 193.385 421 194.132 421.201C194.481 421.322 194.848 421.383 195.217 421.38C199.082 421.38 205.199 415.413 210.596 410.148C214.03 406.799 217.274 403.635 219.224 402.751C228.548 398.523 241.401 396.51 252.742 394.735C257.219 394.034 261.447 393.373 265.351 392.608C273.76 390.914 282.312 390.034 290.89 389.981C317.227 389.981 339.341 399.458 356.619 418.148C358.557 420.244 361.374 421.307 364.995 421.307C376.277 421.307 395.621 410.326 409.25 389.976C417.401 377.804 429.238 352.92 416.929 323.025C411.995 311.044 404.665 305.464 393.859 305.464C385.634 305.464 376.256 308.486 365.397 311.986C352.033 316.294 336.886 321.176 320.59 321.176C308.152 321.238 295.9 318.162 284.966 312.232C250.17 293.675 249.155 259.823 252.158 232.404C253.326 221.741 251.431 213.302 246.676 207.998C245.014 206.145 242.97 204.674 240.686 203.686C238.402 202.698 235.931 202.215 233.442 202.272C223.402 202.272 210.874 210.065 206.355 224.961C202.1 238.984 212.183 251.73 223.858 266.487C237.024 283.129 251.945 301.991 249.05 327.161C247.613 339.638 243.057 351.612 236.859 359.191C232.161 364.939 228.008 365.45 223.61 365.991C220.254 366.404 216.783 366.831 212.709 369.415C209.604 371.385 208.628 374.741 207.595 378.295C207.022 380.797 206.026 383.184 204.651 385.352C203.83 386.49 202.405 386.737 200.897 386.999C198.906 387.346 196.649 387.737 195.453 390.311C194.62 392.103 195.719 394.211 196.781 396.25C197.667 397.948 198.582 399.705 198.308 401.168C198.089 402.337 196.845 404.215 195.404 406.388ZM197.293 395.983C196.249 393.98 195.263 392.088 195.976 390.553C197.045 388.254 199.053 387.905 200.996 387.567C202.551 387.297 204.161 387.018 205.119 385.689C206.535 383.469 207.56 381.023 208.149 378.456C209.15 375.01 210.097 371.755 213.018 369.901C216.982 367.388 220.387 366.969 223.681 366.564C228.196 366.008 232.461 365.483 237.307 359.557C243.569 351.895 248.174 339.81 249.622 327.228C252.546 301.82 237.545 282.858 224.31 266.13C212.736 251.499 202.74 238.863 206.906 225.128C211.344 210.502 223.615 202.849 233.442 202.849C235.85 202.793 238.241 203.259 240.451 204.214C242.661 205.169 244.638 206.592 246.247 208.383C250.889 213.561 252.735 221.846 251.586 232.342C248.563 259.94 249.594 294.021 284.694 312.741C295.711 318.716 308.057 321.816 320.59 321.752C336.977 321.752 352.169 316.856 365.574 312.535C376.387 309.05 385.725 306.04 393.859 306.04C404.546 306.04 411.496 311.347 416.396 323.244C428.604 352.892 416.859 377.578 408.771 389.654C395.744 409.106 376.283 420.731 364.995 420.731C361.542 420.731 358.866 419.731 357.043 417.758C339.651 398.943 317.394 389.404 290.89 389.404C282.275 389.458 273.685 390.342 265.239 392.042C261.348 392.805 257.124 393.466 252.652 394.166C241.275 395.946 228.381 397.965 218.985 402.226C216.943 403.151 213.815 406.203 210.193 409.735C204.875 414.924 198.847 420.803 195.217 420.803C194.914 420.806 194.613 420.757 194.326 420.658C193.662 420.488 193.046 420.163 192.531 419.71C192.016 419.257 191.616 418.688 191.363 418.05C190.364 415.037 193.425 410.418 195.885 406.707C197.36 404.481 198.634 402.559 198.875 401.273C199.186 399.615 198.224 397.769 197.293 395.983Z" fill="#D6D6D6"/>
<path d="M133.32 408.039C137.831 403.961 144.97 400.385 153.237 396.245C159.011 393.354 166.763 386.255 166.3 380.445C166.047 377.272 163.495 374.898 158.713 373.392C156.674 372.776 154.552 372.479 152.422 372.511C146.297 372.511 139.404 374.543 133.323 376.336C130.543 377.154 127.918 377.929 125.524 378.472C105.4 383.04 93.2534 385.798 82.3686 385.799C72.7309 385.799 64.2793 383.64 53.1977 378.347C44.738 374.255 36.5247 369.673 28.5996 364.623C19.4643 358.964 15.1977 356.462 9.79492 356.462C6.67834 356.568 3.59587 357.146 0.652344 358.176L0.652344 358.7C3.59397 357.66 6.67683 357.074 9.79492 356.962C15.0615 356.962 19.2846 359.441 28.3427 365.053C36.2813 370.11 44.5084 374.699 52.9819 378.798C64.1362 384.126 72.6503 386.299 82.3686 386.299C93.3095 386.298 105.477 383.536 125.635 378.96C128.044 378.412 130.677 377.637 133.464 376.815C139.513 375.032 146.37 373.011 152.422 373.011C154.501 372.979 156.572 373.269 158.563 373.868C163.131 375.308 165.566 377.534 165.802 380.485C166.247 386.075 158.661 392.97 153.013 395.798C144.714 399.954 137.546 403.544 132.985 407.668C119.228 420.108 121.444 436.35 125.618 450.929H126.138C121.982 436.453 119.736 420.322 133.32 408.039Z" fill="#D6D6D6"/>
<path d="M437.097 338.14C438.906 339.084 440.935 339.523 442.972 339.414C445.578 339.38 448.166 338.967 450.653 338.186V337.454C448.169 338.254 445.581 338.679 442.972 338.714C441.069 338.814 439.173 338.413 437.474 337.55C431.599 333.798 429.002 327.173 426.253 320.162C423.88 314.109 421.428 307.852 416.666 303.44L416.653 303.234L416.446 303.24C410.97 298.41 403.591 296.061 393.892 296.061C384.437 296.061 374.485 298.332 366.488 300.156C361.027 301.402 356.309 302.479 353.273 302.479C351.489 302.479 350.405 302.112 349.957 301.357C349.362 300.352 349.811 298.47 351.292 295.764C358.202 283.147 372.157 253.066 371.191 240.618C370.429 230.796 365.708 220.652 361.144 210.841C354.534 196.636 347.699 181.946 352.675 167.915C358.353 151.904 383.363 123.288 401.159 120.861C402.263 120.715 403.375 120.643 404.488 120.647C416.064 120.647 432.999 127.547 450.653 137.537V136.789C432.995 126.821 416.072 119.947 404.488 119.947C403.344 119.943 402.2 120.017 401.066 120.167C383.043 122.625 357.746 151.519 352.015 167.68C346.944 181.983 353.84 196.803 360.509 211.137C365.048 220.89 369.74 230.976 370.493 240.673C371.355 251.77 359.179 279.907 350.679 295.428C349.025 298.449 348.604 300.446 349.356 301.715C349.94 302.7 351.221 303.178 353.273 303.178C356.388 303.178 361.141 302.094 366.645 300.839C374.607 299.022 384.516 296.761 393.892 296.761C403.475 296.761 410.734 299.082 416.085 303.856L416.086 303.857C420.798 308.165 423.24 314.393 425.602 320.417C428.394 327.539 431.03 334.265 437.097 338.14Z" fill="#D6D6D6"/>
<path d="M431.26 383.795C428.617 389.819 426.121 395.509 422.957 400.431C404.522 429.096 383.975 433.926 362.221 439.041C360.564 439.43 358.824 439.801 357.141 440.159C349.895 441.703 342.401 443.299 336.294 447.26C334.662 448.266 333.184 449.501 331.905 450.928H332.56C333.754 449.682 335.1 448.591 336.565 447.68C342.597 443.768 350.043 442.182 357.245 440.648C358.931 440.289 360.674 439.918 362.336 439.527C384.19 434.389 404.833 429.537 423.377 400.701C426.563 395.746 429.066 390.039 431.723 383.983C435.935 374.385 440.708 363.509 447.307 359.873C448.479 359.428 449.588 359.042 450.652 358.7V358.176C449.526 358.534 448.345 358.946 447.098 359.421C440.317 363.152 435.508 374.112 431.26 383.795Z" fill="#D6D6D6"/>
<path d="M327.297 440.079C339.087 434.823 349.752 432.316 360.065 429.891C380.781 425.021 398.671 420.816 415.049 395.346C417.809 391.055 420.162 385.694 422.651 380.018C427.853 368.162 433.233 355.901 443.218 350.838C445.649 349.883 448.13 349.064 450.652 348.386V347.668C448.02 348.367 445.431 349.219 442.897 350.217C432.693 355.389 427.262 367.767 422.01 379.737C419.532 385.386 417.19 390.723 414.462 394.967C398.236 420.199 380.472 424.375 359.905 429.21C349.56 431.642 338.863 434.157 327.012 439.44C319.302 442.877 314.151 446.858 312.016 450.928H312.797C314.946 447.12 319.924 443.367 327.297 440.079Z" fill="#D6D6D6"/>
<path d="M329.609 416.159C327.755 410.296 319.642 405.919 305.495 403.149C296.172 401.325 286.695 400.404 277.194 400.4C263.037 400.435 248.952 402.424 235.339 406.31C233.461 406.841 231.575 407.42 229.734 408.03C205.805 415.974 191.996 429.21 185.796 450.929H186.53C192.701 429.566 206.357 416.529 229.955 408.694C231.786 408.088 233.661 407.512 235.529 406.984C249.081 403.116 263.102 401.136 277.194 401.101C286.649 401.104 296.082 402.021 305.361 403.837C319.237 406.554 327.17 410.77 328.943 416.37C330.299 420.659 328.052 425.893 322.262 431.93C316.274 438.171 310.223 444.478 304.786 450.929H305.707C311.033 444.649 316.929 438.5 322.768 432.414C328.747 426.18 331.05 420.711 329.609 416.159Z" fill="#D6D6D6"/>
<path d="M209.632 395.882C210.701 396.085 211.789 396.17 212.877 396.137C215.918 396.137 227.208 395.685 244.815 389.87C260.484 384.861 276.837 382.317 293.288 382.331C320.507 382.331 338.59 386.41 361.882 408.704C363.675 410.339 366.043 411.197 368.467 411.089C378.59 411.089 393.899 400.071 403.32 386.003C410.679 375.014 421.375 352.572 410.329 325.744C405.573 314.195 399.603 312.602 393.859 312.602C386.759 312.602 377.881 315.463 367.587 318.781C353.724 323.249 338.012 328.314 320.59 328.314C306.98 328.383 293.572 325.018 281.607 318.531C242.598 297.726 242.068 258.97 245.064 231.628C245.991 223.16 244.675 216.46 241.361 212.764C240.366 211.66 239.142 210.788 237.774 210.209C236.406 209.63 234.927 209.357 233.443 209.411C226.033 209.411 216.695 215.464 213.186 227.034C210.016 237.485 219.024 248.871 229.457 262.059C242.787 278.908 259.374 299.874 256.142 327.974C255.264 335.852 253.107 343.533 249.757 350.717C244.841 361.444 237.797 371.06 229.053 378.984C224.293 383.1 219.176 386.784 213.762 389.993C210.033 392.308 207.782 393.706 207.944 394.769C208.017 395.249 208.554 395.604 209.632 395.882ZM213.921 390.247C219.349 387.03 224.48 383.336 229.252 379.208C238.027 371.258 245.095 361.608 250.029 350.844C253.393 343.632 255.559 335.919 256.441 328.009C259.687 299.785 243.056 278.764 229.69 261.87C219.311 248.751 210.348 237.421 213.473 227.121C216.94 215.691 226.143 209.711 233.443 209.711C234.885 209.658 236.322 209.922 237.651 210.484C238.981 211.046 240.171 211.892 241.138 212.964C244.394 216.596 245.683 223.213 244.765 231.595C241.76 259.024 242.296 297.906 281.466 318.796C293.474 325.307 306.931 328.684 320.59 328.615C338.059 328.615 353.795 323.541 367.694 319.062C377.95 315.756 386.806 312.903 393.859 312.903C399.498 312.903 405.363 314.472 410.051 325.857C421.045 352.557 410.396 374.897 403.07 385.837C393.856 399.595 378.333 410.789 368.467 410.789C366.12 410.896 363.827 410.069 362.089 408.488C350.801 397.683 340.297 390.814 329.033 386.871C319.337 383.479 308.647 382.031 293.288 382.031C276.805 382.017 260.421 384.566 244.721 389.585C227.157 395.386 215.907 395.837 212.877 395.837C211.814 395.87 210.752 395.788 209.707 395.591C208.786 395.354 208.292 395.062 208.24 394.723C208.108 393.857 210.546 392.343 213.921 390.247Z" fill="#D6D6D6"/>
<path d="M262.657 371.763C263.815 371.747 264.971 371.668 266.119 371.525C276.315 370.447 286.558 369.882 296.811 369.832C302.179 369.798 307.545 370.047 312.887 370.578C335.88 373.05 355.777 384.015 365.295 393.783C366.088 394.64 367.05 395.323 368.12 395.789C369.19 396.256 370.346 396.495 371.513 396.491C376.839 396.491 383.404 391.855 389.522 383.77C400.238 369.608 403.479 342.504 398.169 331.829C396.761 328.996 394.791 327.499 392.474 327.499C392.278 327.499 392.082 327.509 391.887 327.529C387.683 327.959 381.849 329.67 374.462 331.837C360.631 335.894 341.69 341.45 321.151 341.778C303.601 342.067 283.541 335.119 276.718 331.794C275.284 330.956 273.694 330.421 272.045 330.223C270.009 330.223 269.922 332.157 269.777 335.362C269.724 338.756 269.213 342.127 268.259 345.384C266.429 351.115 264.195 356.709 261.573 362.124C259.5 366.572 258.248 369.258 259.136 370.651C259.626 371.42 260.712 371.763 262.657 371.763ZM261.845 362.251C264.472 356.824 266.712 351.217 268.546 345.474C269.509 342.192 270.023 338.795 270.076 335.375C270.218 332.246 270.296 330.523 272.045 330.523C273.647 330.728 275.191 331.252 276.587 332.064C283.298 335.334 302.772 342.087 320.127 342.087C320.471 342.087 320.813 342.084 321.155 342.079C341.735 341.749 360.699 336.187 374.546 332.124C381.918 329.962 387.74 328.254 391.918 327.828C394.399 327.576 396.414 328.972 397.901 331.963C403.173 342.564 399.942 369.504 389.283 383.588C383.222 391.598 376.744 396.191 371.513 396.191C370.386 396.194 369.27 395.963 368.237 395.512C367.204 395.062 366.275 394.402 365.51 393.574C355.953 383.767 335.987 372.76 312.918 370.279C307.566 369.748 302.189 369.499 296.811 369.532C286.547 369.583 276.293 370.148 266.086 371.227C264.948 371.368 263.804 371.447 262.657 371.463C260.851 371.463 259.812 371.153 259.389 370.49C258.589 369.235 259.815 366.606 261.845 362.251Z" fill="#D6D6D6"/>
<path d="M240.278 383.216C241.426 383.174 242.561 382.949 243.639 382.549C257.643 377.691 273.882 375.331 293.287 375.331C317.457 375.331 341.406 377.546 368.618 404.302C369.024 404.689 369.503 404.991 370.027 405.19C370.552 405.389 371.111 405.48 371.671 405.459H371.672C379.284 405.459 393.345 390.88 397.514 382.09C397.894 381.289 398.307 380.44 398.742 379.546C404.049 368.661 412.929 350.443 403.856 328.408C400.23 319.602 396.845 319.602 393.859 319.602C387.86 319.602 379.461 322.309 369.735 325.442C355.382 330.069 339.114 335.313 320.59 335.313C304.741 335.313 291.915 332.401 279.004 325.87C277.005 324.858 275.08 323.754 273.382 322.779C269.983 320.829 267.297 319.288 265.569 319.288C264.221 319.288 263.554 320.229 263.53 322.165C263.526 322.472 263.574 322.969 263.642 323.656C265.49 342.638 258.141 360.356 241.798 376.321C238.944 379.109 237.737 381.112 238.209 382.274C238.46 382.891 239.176 383.216 240.278 383.216ZM242.007 376.536C252.518 366.268 259.406 355.126 262.48 343.418C264.183 336.967 264.678 330.258 263.94 323.627C263.874 322.949 263.826 322.459 263.83 322.169C263.859 319.855 264.836 319.588 265.569 319.588C267.217 319.588 270.005 321.187 273.233 323.04C274.935 324.017 276.863 325.123 278.869 326.138C291.824 332.691 304.692 335.614 320.59 335.614C339.161 335.614 355.452 330.361 369.828 325.727C379.53 322.602 387.906 319.902 393.859 319.902C396.751 319.902 400.029 319.902 403.578 328.521C412.6 350.433 403.757 368.575 398.473 379.415C398.036 380.31 397.622 381.159 397.242 381.961C393.105 390.687 379.184 405.16 371.671 405.159C371.15 405.18 370.63 405.096 370.141 404.911C369.653 404.727 369.207 404.447 368.829 404.087C356.185 391.656 343.1 383.516 328.825 379.199C316.102 375.352 304.292 375.03 293.287 375.03C273.849 375.03 257.576 377.397 243.541 382.266C242.495 382.654 241.393 382.873 240.278 382.916C239.601 382.916 238.741 382.785 238.488 382.161C238.249 381.577 238.39 380.069 242.007 376.536Z" fill="#D6D6D6"/>
<path d="M186.529 0.928711H185.795C184.18 6.74475 183.09 12.6944 182.541 18.7056C181.431 29.9819 180.453 44.7515 182.763 58.9888C184.446 69.3647 187.825 73.9922 193.717 73.9922H193.719C197.482 73.9917 201.854 72.168 206.916 70.0571C210.512 68.4749 214.2 67.1111 217.96 65.9731C218.333 65.8677 218.703 65.7656 219.08 65.6645C230.152 62.6973 242.631 62.2778 255.871 64.4214C259.459 65.0738 263.009 65.9187 266.506 66.9526C271.583 68.355 276.832 69.8047 282.162 70.0391C284.337 70.2748 286.537 69.9692 288.566 69.1494C292.819 67.0322 290.751 61.7407 288.561 56.1387C287.267 52.8252 285.928 49.3994 285.708 46.3262C284.539 30.0099 293.656 15.1359 305.706 0.928711H304.785C292.828 15.1131 283.836 29.9899 285.01 46.376C285.237 49.5552 286.595 53.0312 287.91 56.3931C290.069 61.9189 291.933 66.6909 288.254 68.5225C286.328 69.2781 284.249 69.5585 282.193 69.3398C276.942 69.1089 271.731 67.6699 266.693 66.2778C263.171 65.2367 259.596 64.3862 255.982 63.73C242.644 61.5708 230.066 61.9951 218.899 64.9888C218.518 65.0908 218.146 65.1929 217.77 65.2993C213.983 66.4448 210.268 67.8177 206.647 69.4106C201.653 71.4932 197.341 73.2915 193.719 73.292C188.237 73.2925 185.072 68.8467 183.454 58.8765C181.157 44.7192 182.132 30.0083 183.237 18.7739C183.788 12.7375 184.89 6.76418 186.529 0.928711V0.928711Z" fill="#D6D6D6"/>
<path d="M165.331 198.411H165.331C166.194 198.411 166.877 197.193 167.548 194.464C170.058 184.259 178.353 170.745 191.226 163.56C204.253 156.289 212.939 154.401 217.605 153.387C219.922 152.884 221.085 152.631 221.364 152.02C221.415 151.883 221.432 151.736 221.414 151.591C221.396 151.446 221.343 151.307 221.26 151.187C220.364 149.544 204.22 140.514 181.006 138.641L180.027 138.561C177.934 138.389 176.127 138.24 174.393 138.24C168.338 138.24 163.451 139.935 152.056 149.564C150.256 151.085 148.414 152.497 146.633 153.862C141.119 158.087 136.358 161.736 136.669 165.877C136.908 169.058 140.057 172.214 146.58 175.81C153.803 179.792 158.203 187.688 161.114 192.913C162.959 196.223 164.178 198.41 165.331 198.411ZM146.725 175.547C140.387 172.053 137.196 168.883 136.968 165.855C136.669 161.876 141.371 158.273 146.815 154.1C148.599 152.732 150.444 151.319 152.249 149.793C163.573 140.224 168.412 138.54 174.393 138.54C176.115 138.54 177.916 138.689 180.002 138.86L180.982 138.94C203.661 140.77 220.145 149.771 220.996 151.331C221.169 151.646 221.133 151.804 221.091 151.896C220.874 152.37 219.62 152.643 217.541 153.094C212.86 154.111 204.146 156.005 191.079 163.298C178.128 170.526 169.783 184.124 167.257 194.393C166.642 196.895 166.012 198.111 165.332 198.111H165.331C164.354 198.11 163.04 195.752 161.376 192.766C158.448 187.512 154.023 179.571 146.725 175.547Z" fill="#D6D6D6"/>
<path d="M167.22 215.58C168.088 215.58 168.689 214.537 169.112 212.298C171.709 198.532 177.337 179.028 196.149 168.625C202.488 165.204 209.229 162.586 216.217 160.834C217.943 160.221 219.564 159.343 221.022 158.232C223.095 156.835 225.238 155.392 227.218 155.392C227.443 155.391 227.668 155.411 227.89 155.449C228.91 155.698 229.851 156.199 230.628 156.906C231.418 157.684 232.453 158.164 233.558 158.264C234.199 158.266 234.828 158.089 235.374 157.753C235.919 157.417 236.361 156.936 236.649 156.363C236.889 155.825 237.298 155.38 237.813 155.094C238.328 154.809 238.922 154.698 239.506 154.779C241.192 154.921 242.102 156.208 243.066 157.571C243.658 158.563 244.462 159.412 245.421 160.056C246.401 160.571 247.485 160.856 248.591 160.889C248.902 160.923 249.217 160.883 249.51 160.774C249.803 160.664 250.067 160.488 250.28 160.259C250.436 160.01 250.531 159.728 250.558 159.435C250.585 159.142 250.543 158.847 250.435 158.574C249.78 156.217 244.724 154.015 241.378 152.557C240.391 152.127 239.537 151.756 238.988 151.465C234.008 148.827 229.039 146.591 224.835 144.752C207.113 136.998 190.958 132.268 175.45 130.29C173.916 130.083 172.37 129.972 170.822 129.96C163.187 129.96 157.267 133.3 145.482 144.258C142.591 146.946 139.615 149.255 136.738 151.489C130.295 156.49 125.205 160.441 125.327 165.413C125.424 169.335 128.83 173.515 136.047 178.566C147.664 186.698 155.38 199.048 160.486 207.22C163.631 212.254 165.709 215.58 167.22 215.58ZM136.218 178.32C129.087 173.328 125.721 169.224 125.627 165.405C125.509 160.585 130.545 156.675 136.923 151.726C139.805 149.488 142.785 147.175 145.686 144.477C157.405 133.581 163.278 130.26 170.822 130.26C172.358 130.272 173.891 130.382 175.412 130.588C190.891 132.562 207.019 137.285 224.715 145.027C228.913 146.864 233.876 149.097 238.848 151.729C239.407 152.026 240.265 152.4 241.258 152.832C244.552 154.267 249.529 156.435 250.146 158.654C250.239 158.883 250.278 159.131 250.26 159.378C250.242 159.625 250.167 159.864 250.04 160.077C249.85 160.263 249.622 160.405 249.372 160.493C249.122 160.581 248.855 160.614 248.591 160.589C247.536 160.554 246.503 160.282 245.568 159.793C244.65 159.169 243.879 158.351 243.311 157.397C242.35 156.039 241.357 154.634 239.531 154.48C238.894 154.39 238.245 154.509 237.681 154.818C237.116 155.128 236.667 155.611 236.4 156.196C236.14 156.728 235.735 157.176 235.233 157.488C234.73 157.801 234.15 157.965 233.558 157.963C232.522 157.858 231.552 157.401 230.812 156.669C229.998 155.93 229.011 155.409 227.943 155.154C227.703 155.112 227.461 155.091 227.218 155.091C225.147 155.091 222.965 156.561 220.854 157.983C219.426 159.078 217.836 159.942 216.14 160.544C209.129 162.303 202.364 164.929 196.003 168.363C177.081 178.827 171.425 198.417 168.817 212.242C168.431 214.286 167.909 215.28 167.22 215.28C165.875 215.28 163.721 211.832 160.74 207.06C155.621 198.868 147.886 186.487 136.218 178.32Z" fill="#D6D6D6"/>
<path d="M204.163 341.054C207.674 340.565 211.01 339.217 213.875 337.128C216.739 335.039 219.043 332.275 220.581 329.081C223.446 323.151 224.995 313.093 216.113 298.85C212.3 292.734 208.141 286.56 204.119 280.588C192.62 263.515 181.758 247.388 177.273 231.209C172.201 212.909 176.274 197.813 190.093 183.7C202.058 171.48 217.874 164.471 233.485 164.471C245.216 164.471 255.68 168.598 262.953 176.091C270.945 184.326 274.938 196.371 274.502 210.924C274.401 214.304 274.24 217.794 274.07 221.49C273.466 234.629 272.78 249.521 274.903 261.912C277.345 276.159 283.132 284.96 292.596 288.817C297.109 290.765 301.957 291.822 306.872 291.929C310.733 291.973 314.546 291.075 317.982 289.313C321.418 287.552 324.372 284.979 326.59 281.818C334.902 270.57 336.894 251.308 331.546 233.885C320.071 196.506 292.498 174.19 251.728 150.299C220.76 132.152 194.601 126.549 170.947 123.197C169.294 122.955 167.626 122.829 165.955 122.82C156.078 122.82 151.376 127.851 145.423 134.219C143.024 136.864 140.492 139.386 137.837 141.775C135.066 144.169 132.081 146.303 128.919 148.152C124.753 150.714 121.155 152.926 117.194 158.845C109.333 170.596 119.85 177.804 130.986 185.437C136.87 189.47 142.954 193.64 146.211 198.574C166.692 229.604 158.428 262.704 143.865 283.334C139.702 289.232 133.622 294.8 127.186 300.695C119.314 307.904 111.175 315.358 106.521 323.681C104.518 327.263 103.949 329.693 104.781 331.113C105.391 332.151 106.736 332.656 108.895 332.656H108.898C112.738 332.655 118.842 331.064 125.909 329.221C135.819 326.637 148.153 323.42 159.048 323.42C164.089 323.278 169.104 324.21 173.758 326.154C177.547 328.045 181.099 330.378 184.341 333.103C189.686 337.26 194.735 341.186 201.868 341.186C202.635 341.185 203.401 341.141 204.163 341.054V341.054ZM173.882 325.881C169.193 323.905 164.133 322.963 159.048 323.12C148.114 323.12 135.76 326.342 125.833 328.931C118.786 330.769 112.7 332.356 108.898 332.356H108.895C106.852 332.356 105.591 331.9 105.04 330.961C104.266 329.642 104.836 327.308 106.783 323.827C111.413 315.547 119.535 308.109 127.389 300.916C133.837 295.01 139.929 289.432 144.11 283.508C152.51 271.792 157.548 258.003 158.68 243.631C159.817 227.631 155.706 212.416 146.461 198.409C143.172 193.426 137.063 189.238 131.155 185.189C120.146 177.643 109.747 170.516 117.443 159.012C121.368 153.147 124.94 150.951 129.076 148.408C132.252 146.55 135.251 144.406 138.036 142.001C140.698 139.605 143.237 137.076 145.642 134.423C151.545 128.108 156.208 123.121 165.955 123.121C167.612 123.13 169.266 123.254 170.905 123.494C194.529 126.842 220.653 132.438 251.576 150.558C292.284 174.413 319.812 196.688 331.259 233.973C336.581 251.309 334.607 270.465 326.348 281.641C324.158 284.763 321.24 287.304 317.846 289.045C314.452 290.785 310.686 291.672 306.872 291.629C301.996 291.521 297.187 290.472 292.709 288.54C283.349 284.725 277.622 275.998 275.199 261.862C273.081 249.502 273.766 234.627 274.37 221.504C274.54 217.807 274.701 214.315 274.803 210.933C275.241 196.297 271.218 184.177 263.168 175.882C255.839 168.33 245.298 164.171 233.485 164.171C217.794 164.171 201.9 171.213 189.878 183.49C182.538 190.987 178.004 198.723 176.02 207.14C174.248 214.656 174.563 222.555 176.984 231.289C181.482 247.515 192.356 263.661 203.87 280.756C207.89 286.725 212.048 292.898 215.858 299.008C224.668 313.136 223.142 323.089 220.311 328.95C218.795 332.099 216.525 334.824 213.702 336.884C210.878 338.943 207.59 340.273 204.129 340.755C203.378 340.841 202.624 340.885 201.868 340.886C194.838 340.886 189.829 336.99 184.525 332.866C181.265 330.126 177.693 327.781 173.882 325.881V325.881Z" fill="#D6D6D6"/>
<path d="M210.721 328.652C212.003 327.732 213.074 326.548 213.862 325.18C214.649 323.811 215.134 322.29 215.285 320.719C216.479 310.884 207.758 296.542 199.927 287.249C190.154 275.65 180.457 263.267 175.711 251.29C175.289 249.853 174.94 248.395 174.666 246.922C173.14 239.805 170.586 227.892 166.888 227.892C166.523 227.898 166.165 228.004 165.855 228.198C164.318 229.111 163.865 230.903 164.468 233.676C165.124 236.148 166.002 238.557 167.091 240.872C168.147 243.315 169.059 245.427 169.044 246.624C169.005 249.71 167.564 251.073 166.169 252.392C164.894 253.386 163.976 254.768 163.554 256.329C163.033 258.71 164.015 260.498 164.965 262.227C165.842 263.824 166.748 265.476 166.46 267.605C165.93 271.513 153.554 285.607 142.636 298.043C133.6 308.333 125.796 317.221 125.929 318.922C125.931 318.979 125.945 319.036 125.969 319.088C125.994 319.14 126.029 319.186 126.073 319.224C126.819 319.844 128.177 320.145 130.224 320.145H130.225C134.565 319.926 138.885 319.406 143.153 318.59C149.463 317.578 156.616 316.431 162.822 316.431C167.669 316.431 171.297 317.121 173.912 318.541C175.337 319.314 176.919 320.233 178.593 321.206C186.052 325.541 195.334 330.935 203.189 330.935C205.88 331.004 208.521 330.203 210.721 328.652V328.652ZM174.056 318.277C171.395 316.833 167.721 316.131 162.822 316.131C156.592 316.131 149.427 317.28 143.105 318.294C138.853 319.107 134.549 319.626 130.225 319.846H130.224C128.249 319.846 126.954 319.566 126.264 318.993C126.257 318.986 126.234 318.968 126.228 318.898C126.105 317.323 134.244 308.054 142.861 298.24C153.808 285.773 166.216 271.643 166.757 267.645C167.059 265.418 166.128 263.723 165.228 262.083C164.263 260.325 163.35 258.665 163.847 256.393C164.253 254.89 165.141 253.56 166.375 252.609C167.815 251.248 169.304 249.841 169.344 246.628C169.36 245.366 168.436 243.228 167.366 240.753C166.285 238.455 165.413 236.065 164.761 233.611C164.188 230.981 164.596 229.295 166.009 228.456C166.273 228.29 166.577 228.199 166.888 228.192C170.344 228.192 172.965 240.417 174.373 246.984C174.648 248.474 175.001 249.949 175.431 251.401C180.194 263.417 189.908 275.824 199.697 287.442C207.49 296.689 216.17 310.943 214.987 320.683C214.841 322.213 214.368 323.695 213.602 325.027C212.836 326.36 211.793 327.514 210.544 328.41C208.395 329.923 205.816 330.704 203.189 330.635C195.414 330.635 186.171 325.264 178.744 320.947C177.068 319.973 175.484 319.053 174.056 318.277Z" fill="#D6D6D6"/>
<path d="M207.299 316.103C208.191 307.867 199.367 294.941 194.955 289.973C189.126 283.358 183.643 276.445 178.528 269.264C175.046 264.469 173.127 261.827 171.884 261.827C171.031 261.827 170.565 262.931 170.275 265.636C168.091 285.996 154.924 297.022 147.056 303.609C143.611 306.495 141.334 308.4 141.24 309.972C141.228 310.199 141.264 310.427 141.346 310.639C141.429 310.852 141.555 311.044 141.717 311.204C142.434 311.969 143.572 312.325 145.298 312.325C147.73 312.201 150.147 311.876 152.526 311.355C156.517 310.507 160.578 310.024 164.657 309.913C170.472 309.913 175.166 311.363 179.008 314.346C184.414 318.545 192.422 323.031 198.684 323.031H198.685C200.737 323.094 202.754 322.495 204.438 321.322C205.265 320.712 205.949 319.928 206.443 319.027C206.937 318.126 207.229 317.128 207.299 316.103V316.103ZM198.685 322.731H198.684C192.498 322.731 184.559 318.277 179.192 314.109C175.296 311.084 170.541 309.613 164.657 309.613C160.56 309.724 156.481 310.208 152.471 311.06C150.111 311.577 147.711 311.9 145.298 312.024C144.697 312.094 144.088 312.039 143.51 311.863C142.931 311.686 142.395 311.392 141.936 310.999C141.801 310.869 141.696 310.712 141.628 310.538C141.56 310.364 141.529 310.177 141.539 309.99C141.626 308.548 143.984 306.573 147.249 303.84C155.151 297.223 168.377 286.148 170.573 265.667C170.836 263.22 171.24 262.128 171.884 262.128C172.974 262.128 174.973 264.88 178.285 269.44C183.406 276.63 188.895 283.549 194.73 290.172C199.115 295.108 207.882 307.935 207.001 316.07C206.935 317.054 206.655 318.011 206.182 318.876C205.709 319.741 205.054 320.493 204.262 321.08C202.628 322.215 200.673 322.794 198.685 322.731V322.731Z" fill="#D6D6D6"/>
<path d="M414.7 57.9633C406.882 57.9633 398.216 59.4413 389.04 61.0057C378.081 62.8754 366.749 64.8085 354.4 64.809C353.488 64.809 352.594 64.7982 351.741 64.7777C351.004 64.7601 350.278 64.7412 349.564 64.7211C347.697 64.6703 345.933 64.6224 344.234 64.6224C333.596 64.6224 327.008 66.7904 322.665 78.2255C319.921 85.4555 316.809 93.6498 309.344 98.9335C307.231 100.429 305.12 101.704 303.256 102.83C298.935 105.441 295.523 107.502 295.395 110.35C295.278 112.967 297.926 116.115 303.978 120.557C309.785 124.817 314.562 126.888 318.582 126.888C318.945 126.888 319.309 126.871 319.664 126.838C325.504 126.295 329.421 121.47 334.38 115.36C336.824 112.252 339.429 109.274 342.185 106.439C355.004 93.5512 370.883 84.1256 388.336 79.0443C395.261 77.0113 402.436 75.9555 409.653 75.9076C426.67 75.9076 439.794 82.0623 450.652 89.1752V88.8159C439.791 81.7247 426.665 75.6078 409.653 75.6078C402.408 75.6555 395.205 76.7152 388.254 78.7562C370.751 83.8512 354.828 93.303 341.972 106.227C339.209 109.07 336.597 112.055 334.147 115.171C329.232 121.226 325.35 126.008 319.637 126.539C319.291 126.572 318.936 126.588 318.582 126.588C314.629 126.588 309.909 124.536 304.156 120.315C298.192 115.939 295.583 112.869 295.695 110.363C295.816 107.676 299.168 105.651 303.411 103.087C305.279 101.959 307.396 100.68 309.517 99.1786C317.057 93.8417 320.185 85.6019 322.946 78.3319C327.226 67.0595 333.73 64.9227 344.234 64.9227C345.929 64.9227 347.691 64.9706 349.555 65.0209C350.27 65.0404 350.996 65.0592 351.733 65.0775C352.589 65.0985 353.486 65.1088 354.4 65.1088C366.774 65.1083 378.119 63.1732 389.091 61.3016C398.253 59.7391 406.907 58.2631 414.7 58.2631C418.776 58.2058 422.839 58.7209 426.771 59.7933C434.524 62.0078 442.458 65.6379 450.652 69.8738V69.5357C442.492 65.3227 434.586 61.7138 426.853 59.5053C422.894 58.4251 418.803 57.906 414.7 57.9633V57.9633Z" fill="#D6D6D6"/>
<path d="M285.003 232.917C283.843 248.09 286.839 260.368 293.44 267.493C296.892 271.22 301.134 273.272 305.383 273.272H305.384C311.442 273.272 316.288 269.063 317.73 262.548C321.942 243.512 315.424 226.386 309.215 215.37C301.918 202.426 292.583 193.269 288.089 190.273C286.447 189.178 285.288 188.5 284.585 188.5C284.47 188.495 284.355 188.516 284.249 188.56C284.143 188.605 284.048 188.673 283.971 188.759C283.394 189.414 283.629 191.265 284.099 194.952C285.791 207.536 286.095 220.267 285.003 232.917V232.917ZM284.196 188.957C284.244 188.903 284.305 188.861 284.372 188.834C284.44 188.807 284.513 188.795 284.585 188.8C285.21 188.8 286.371 189.489 287.923 190.523C298.071 197.289 325.037 228.137 317.437 262.484C316.027 268.856 311.295 272.972 305.383 272.972C301.218 272.972 297.055 270.953 293.659 267.289C287.117 260.227 284.149 248.029 285.302 232.941C286.395 220.27 286.092 207.518 284.397 194.914C283.968 191.544 283.708 189.51 284.196 188.957Z" fill="#D6D6D6"/>
<path d="M279.249 233.9C278.096 252.785 281.711 267.702 289.426 275.903C293.417 280.145 298.26 282.388 303.432 282.388H303.433C313.331 282.388 321.717 274.38 324.299 262.461C328.109 244.876 324.833 227.567 314.562 211.015C304.157 194.245 289.755 183.401 282.096 178.43C278.196 175.898 276.525 174.844 275.885 175.613C275.357 176.249 275.701 178.068 276.387 181.69C277.871 189.537 280.959 205.866 279.249 233.9ZM276.116 175.804C276.16 175.754 276.215 175.715 276.277 175.69C276.338 175.664 276.405 175.654 276.471 175.66C277.278 175.66 279.03 176.797 281.932 178.681C307.452 195.246 331.905 225.937 324.006 262.396C321.454 274.176 313.185 282.089 303.432 282.088C298.345 282.088 293.577 279.878 289.644 275.698C281.986 267.557 278.401 252.72 279.548 233.918C281.261 205.847 278.168 189.493 276.681 181.635C276.055 178.328 275.679 176.332 276.116 175.804V175.804Z" fill="#D6D6D6"/>
<path d="M369.492 287.238C370.206 288.266 371.949 288.705 375.319 288.705C377.426 288.704 379.941 288.537 382.852 288.343C386.456 288.103 390.541 287.83 394.766 287.83C408.138 287.83 417.155 290.671 423.167 296.794C428.757 301.094 431.84 308.105 434.561 314.29C437.867 321.808 440.723 328.301 447.028 328.301C447.734 328.297 448.439 328.221 449.13 328.075C449.613 327.976 450.124 327.845 450.653 327.684V327.159C450.119 327.329 449.577 327.471 449.029 327.585C448.371 327.724 447.7 327.797 447.028 327.801C441.049 327.801 438.254 321.447 435.019 314.089C432.274 307.849 429.163 300.776 423.498 296.421C417.41 290.219 408.281 287.33 394.766 287.33C390.525 287.33 386.431 287.603 382.819 287.844C379.916 288.037 377.409 288.204 375.319 288.205C372.217 288.205 370.496 287.807 369.904 286.953C369.741 286.657 369.654 286.325 369.651 285.987C369.648 285.649 369.729 285.316 369.887 285.017C376.25 268.01 381.576 246.482 381.061 239.851C380.159 228.241 375.056 217.272 370.12 206.665C364.084 193.693 358.383 181.441 362.005 171.222C367.041 157.021 390.041 132.368 402.498 130.669C403.158 130.584 403.823 130.543 404.489 130.547C414.189 130.547 431.282 137.492 450.653 148.976V148.396C431.304 136.959 414.224 130.047 404.489 130.047C403.8 130.043 403.113 130.086 402.43 130.174C389.836 131.892 366.61 156.743 361.534 171.055C357.843 181.466 363.586 193.809 369.667 206.876C374.584 217.443 379.668 228.37 380.563 239.89C381.014 245.698 376.243 266.599 369.418 284.841C369.228 285.215 369.135 285.63 369.148 286.049C369.161 286.468 369.28 286.877 369.492 287.238V287.238Z" fill="#D6D6D6"/>
<path d="M416.91 445.517C416.338 445.517 415.372 445.579 414.148 445.658C412.089 445.791 409.268 445.973 406.467 445.973C399.519 445.973 395.879 444.83 395.647 442.576C395.3 439.188 403.355 434.15 408.685 430.816C410.348 429.842 411.95 428.768 413.484 427.602C420.531 421.303 426.663 414.051 431.704 406.057C435.313 400.44 437.97 394.386 440.783 387.977C442.967 382.823 446.351 378.265 450.652 374.683V374.312C446.223 377.937 442.741 382.585 440.508 387.855C437.7 394.255 435.049 400.298 431.452 405.895C426.427 413.866 420.313 421.096 413.287 427.375C411.765 428.531 410.175 429.596 408.526 430.562C402.81 434.137 394.982 439.032 395.348 442.607C395.602 445.073 399.239 446.273 406.467 446.273C409.278 446.273 412.104 446.091 414.168 445.957C415.385 445.879 416.347 445.817 416.91 445.817C426.598 445.664 436.223 447.4 445.247 450.929H446.057C436.802 447.19 426.89 445.349 416.91 445.517Z" fill="#D6D6D6"/>
<path d="M384.593 274.212C386.454 276.886 390.381 277.186 395.818 277.602C396.408 277.647 397.015 277.695 397.639 277.745C399.358 277.886 401.158 277.947 403.063 278.013C411.904 278.315 421.924 278.658 430.972 286.898L431.082 286.997C436.099 291.39 439.085 299.131 441.72 305.959C444.374 312.838 446.666 318.779 450.308 318.779C450.422 318.779 450.537 318.755 450.652 318.744V318.443C450.538 318.461 450.423 318.473 450.308 318.479C446.872 318.479 444.614 312.627 442 305.852C439.353 298.99 436.353 291.214 431.281 286.772L431.173 286.676C422.045 278.361 411.966 278.017 403.074 277.713C401.171 277.647 399.375 277.586 397.665 277.446C397.04 277.395 396.432 277.348 395.841 277.304C390.487 276.893 386.618 276.598 384.839 274.04C383.155 271.617 383.393 267.083 385.614 259.339C387.591 252.86 388.379 246.076 387.939 239.316C386.942 226.464 381.572 214.922 376.375 203.753C370.952 192.097 365.829 181.087 368.508 173.528C372.971 160.941 394.512 138.722 403.43 137.506C403.781 137.463 404.134 137.443 404.488 137.447C411.938 137.447 428.795 143.648 450.652 157.033V156.682C428.815 143.332 411.959 137.147 404.488 137.147C404.121 137.143 403.754 137.164 403.389 137.209C394.402 138.434 372.711 160.774 368.225 173.427C365.504 181.102 370.653 192.166 376.107 203.887C381.289 215.024 386.647 226.541 387.64 239.34C388.077 246.064 387.293 252.812 385.325 259.257C383.047 267.201 382.829 271.674 384.593 274.212Z" fill="#D6D6D6"/>
<path d="M202.255 364.642C217.14 362.947 234.871 345.254 239.627 331.734C247.881 308.26 233.209 289.361 219.021 271.084C205.326 253.442 192.391 236.779 198.68 216.493C204.16 198.819 221.86 189.281 235.732 189.281C243.209 189.281 249.675 191.933 253.942 196.749C259.009 202.468 261.001 211.156 259.7 221.875C255.23 258.707 253.901 298.997 294.962 310.872C299.451 312.202 304.105 312.893 308.788 312.926C326.074 312.925 337.108 303.021 343.321 294.714C355.232 278.785 359.368 254.957 353.612 235.423C348.73 218.858 339.125 202.794 324.248 186.314C302.134 161.815 272.019 140.752 232.181 121.918L230.458 121.103C213.698 113.175 196.368 104.977 178.121 100.457C177.038 100.189 175.842 99.8713 174.564 99.5319C168.927 98.0344 161.911 96.1707 155.893 96.1707C153.788 96.1236 151.69 96.435 149.69 97.0915C147.092 98.0222 145.629 99.8005 144.214 101.521C143.191 102.911 141.937 104.115 140.506 105.08C138.867 105.925 137.172 106.655 135.432 107.265C132.057 108.569 128.567 109.917 127.461 111.213C125.331 113.711 125.917 115.215 126.484 116.67C126.763 117.204 126.933 117.788 126.983 118.389C127.033 118.99 126.963 119.594 126.777 120.167L126.382 121.326C123.352 130.238 123.352 130.238 116.369 132.258C115.02 132.647 113.342 133.133 111.354 133.766C105.599 135.6 103.24 138.419 100.959 141.145C99.2248 143.497 96.9933 145.437 94.4235 146.828C94.3395 146.821 94.2462 146.821 94.1466 146.821C90.5431 146.821 63.2438 148.617 61.1481 155.33C60.5836 157.139 61.8112 159.104 64.797 161.17C67.2061 163.01 70.1458 164.023 73.1774 164.056C74.0583 164.056 74.8541 163.98 75.6242 163.906C76.2833 163.842 76.9059 163.781 77.4962 163.781C79.6925 163.781 81.9157 164.404 84.9611 171.913C85.7106 173.762 86.2887 175.276 86.7682 176.531C89.1281 182.709 89.2067 182.791 95.2023 185.352C96.6886 185.987 98.5382 186.777 100.893 187.863C108.611 191.423 110.193 195.466 112.195 200.584C113.355 203.816 114.873 206.907 116.722 209.801C119.099 213.222 121.792 216.413 124.764 219.332C129.654 224.422 134.272 229.229 135.743 237.26C138.29 251.167 130.74 264.448 122.202 276.728C118.062 282.683 109.554 289.615 100.546 296.954C85.2482 309.416 67.9093 323.542 67.8473 336.625C67.8122 344.094 69.7306 349.827 73.549 353.663C77.7091 357.843 84.0314 359.874 92.8776 359.874C105.703 359.873 121.469 355.548 135.379 351.732C146.329 348.728 155.786 346.135 161.833 346.135C162.994 346.109 164.154 346.247 165.277 346.547C171.106 348.28 175.73 351.979 180.202 355.557C186.135 360.303 191.739 364.787 199.754 364.787C200.59 364.786 201.425 364.737 202.255 364.642V364.642ZM165.476 345.875C164.289 345.554 163.062 345.406 161.833 345.434C155.692 345.434 146.193 348.04 135.194 351.057C121.326 354.861 105.609 359.173 92.8776 359.174C84.2272 359.174 78.067 357.21 74.0451 353.169C70.3629 349.469 68.5133 343.904 68.5475 336.629C68.6076 323.876 85.8102 309.861 100.988 297.496C110.035 290.126 118.581 283.164 122.777 277.129C131.401 264.723 139.025 251.293 136.431 237.133C134.923 228.896 130.234 224.015 125.269 218.847C122.327 215.958 119.661 212.801 117.307 209.416C115.486 206.563 113.99 203.515 112.847 200.329C110.787 195.064 109.16 190.905 101.186 187.227C98.8224 186.137 96.9674 185.344 95.4772 184.708C89.6984 182.24 89.6984 182.24 87.422 176.281C86.9416 175.023 86.3615 173.504 85.6095 171.651C82.7038 164.484 80.4342 163.082 77.4962 163.082C76.8722 163.082 76.2331 163.143 75.5568 163.209C74.8034 163.281 74.0246 163.356 73.1774 163.356C70.2866 163.332 67.4832 162.362 65.1955 160.594C62.4904 158.722 61.3537 157.022 61.8166 155.539C63.6378 149.704 89.0861 147.52 94.1466 147.52C94.2284 147.518 94.3102 147.521 94.3917 147.528L94.4708 147.205L94.6251 147.511C97.326 146.073 99.673 144.052 101.496 141.594C103.815 138.823 106.006 136.205 111.567 134.433C113.545 133.802 115.219 133.319 116.564 132.93C123.829 130.829 123.927 130.722 127.045 121.551L127.439 120.393C127.868 119.079 127.759 117.649 127.136 116.415C126.599 115.037 126.135 113.847 127.993 111.667C128.985 110.506 132.544 109.131 135.685 107.918C137.464 107.294 139.197 106.546 140.87 105.677C142.37 104.675 143.684 103.419 144.754 101.966C146.172 100.243 147.51 98.616 149.926 97.7508C151.851 97.1212 153.869 96.8235 155.893 96.8704C161.82 96.8704 168.786 98.7214 174.384 100.208C175.666 100.549 176.866 100.868 177.953 101.137C196.132 105.639 213.43 113.822 230.159 121.736L231.883 122.551C271.635 141.344 301.678 162.354 323.728 186.782C338.533 203.184 348.089 219.158 352.94 235.62C358.637 254.954 354.546 278.533 342.759 294.295C336.643 302.474 325.784 312.224 308.788 312.225C304.172 312.194 299.583 311.512 295.157 310.2C254.624 298.477 255.961 258.506 260.395 221.959C261.72 211.036 259.671 202.158 254.467 196.285C250.065 191.317 243.412 188.581 235.732 188.581C221.61 188.581 203.591 198.291 198.011 216.286C191.614 236.92 205.266 254.506 218.467 271.512C232.541 289.642 247.093 308.388 238.967 331.502C234.277 344.834 216.82 362.279 202.176 363.947C201.372 364.039 200.563 364.086 199.754 364.087C191.985 364.087 186.473 359.678 180.639 355.01C176.115 351.391 171.436 347.648 165.476 345.875Z" fill="#D6D6D6"/>
<path d="M296.885 0.928711H296.195C295.087 2.07804 294.048 3.29087 293.081 4.56103C282.055 19.5537 277.163 33.3926 278.128 46.8691C278.504 52.1128 277.861 55.5825 276.161 57.4766C275.554 58.1029 274.816 58.5882 274 58.8982C273.185 59.2081 272.311 59.3352 271.441 59.2705C268.532 59.2705 264.946 58.1616 261.15 56.9873C257.778 55.8237 254.305 54.9749 250.777 54.4516C248.204 54.1733 245.618 54.0364 243.031 54.0415C234.557 54.0415 226.505 55.3906 217.981 56.8188C216.549 57.0586 215.11 57.2974 213.665 57.5351L213.556 57.5527C210.361 58.1552 207.124 58.5023 203.874 58.5908C197.635 58.5913 193.641 56.5215 191.665 52.2632C187.538 43.3711 188.692 32.666 189.71 23.2217C189.847 21.9482 189.983 20.689 190.105 19.4492C190.657 13.1646 191.874 6.95624 193.737 0.928711L193.206 0.928711C191.365 6.94348 190.159 13.1345 189.607 19.4004C189.486 20.6382 189.35 21.896 189.213 23.168C188.188 32.6772 187.026 43.4556 191.212 52.4741C193.278 56.9267 197.42 59.0913 203.874 59.0908C207.151 59.0028 210.415 58.6535 213.636 58.0464L213.745 58.0283C215.192 57.793 216.631 57.5542 218.063 57.312C226.567 55.8872 234.598 54.5415 243.031 54.5415C245.6 54.5364 248.167 54.6723 250.722 54.9487C254.219 55.4694 257.66 56.3116 261.002 57.4648C264.835 58.6509 268.455 59.7705 271.441 59.7705C272.381 59.8371 273.325 59.696 274.206 59.3573C275.086 59.0186 275.881 58.4906 276.534 57.8105C278.328 55.81 279.013 52.2197 278.626 46.833C277.671 33.4805 282.531 19.75 293.484 4.85693C294.538 3.48072 295.674 2.16896 296.885 0.928711V0.928711Z" fill="#D6D6D6"/>
<path d="M293.63 76.7316C290.239 79.1262 285.597 80.2902 279.44 80.2902C272.206 80.2907 264.115 78.6701 256.976 77.2404C252.768 76.3977 248.794 75.6018 245.549 75.256C241.855 74.8797 238.145 74.6916 234.432 74.6926C224.69 74.6926 212.196 76.0129 207.998 82.3015C206.172 85.0358 206.097 88.4719 207.776 92.5143C208.564 94.4128 210.602 95.444 212.573 96.4411C214.12 97.0692 215.509 98.033 216.639 99.2629C217.684 100.937 218.458 102.766 218.931 104.682C219.737 107.285 220.571 109.977 222.463 111.567C224.712 113.504 227.602 114.534 230.569 114.457C232.81 114.379 235.038 114.085 237.222 113.579C239.372 113.08 241.564 112.79 243.769 112.711C245.679 112.674 247.57 113.104 249.276 113.964C253.251 116.013 254.924 118.771 256.541 121.438C258.649 124.916 260.64 128.201 267.204 129.737C280.937 132.951 284.701 136.308 293.794 144.42C294.967 145.465 296.226 146.589 297.606 147.8C300.616 150.603 303.309 153.729 305.633 157.123C307.725 160.128 310.072 162.947 312.649 165.548C315.485 168.188 318.787 170.278 322.387 171.711C326.532 173.595 330.445 175.375 333.996 181.472L334.55 182.428C339.017 190.153 343.533 197.301 346.308 197.301C346.526 197.302 346.74 197.257 346.938 197.167C347.136 197.077 347.312 196.945 347.454 196.781C348.455 195.686 348.725 192.775 348.282 187.881C348.022 185.014 345.95 182.451 343.946 179.973C341.785 177.3 339.744 174.776 339.866 171.986C340.012 168.642 342.035 166.996 344.175 165.254C345.898 164.054 347.315 162.466 348.312 160.618C350.592 155.712 351.144 151.317 351.677 147.068C352.421 141.152 353.122 135.566 358.417 129.245C368.243 117.709 381.264 109.339 395.839 105.189C400.322 103.848 404.973 103.147 409.653 103.108C424.629 103.108 435.374 111.254 446.75 119.878C448.038 120.854 449.338 121.834 450.652 122.817V121.943C449.483 121.068 448.323 120.194 447.173 119.32C435.7 110.623 424.864 102.408 409.653 102.408C404.908 102.447 400.192 103.157 395.645 104.516C380.936 108.705 367.796 117.153 357.88 128.796C352.453 135.274 351.739 140.96 350.983 146.98C350.456 151.176 349.911 155.516 347.677 160.323C346.721 162.071 345.371 163.573 343.734 164.711C341.567 166.474 339.327 168.297 339.167 171.956C339.033 175.01 341.254 177.757 343.401 180.413C345.34 182.81 347.343 185.289 347.585 187.945C348.106 193.701 347.52 195.67 346.937 196.309C346.861 196.401 346.764 196.475 346.656 196.526C346.547 196.576 346.428 196.602 346.308 196.601C343.554 196.601 337.67 186.424 335.157 182.078L334.601 181.119C330.938 174.83 326.925 173.006 322.677 171.073C319.151 169.671 315.916 167.627 313.135 165.045C310.587 162.47 308.266 159.681 306.197 156.708C303.843 153.273 301.117 150.109 298.067 147.274C296.69 146.065 295.431 144.942 294.26 143.897C285.073 135.702 281.27 132.31 267.364 129.055C261.087 127.586 259.169 124.423 257.139 121.075C255.471 118.325 253.748 115.481 249.596 113.342C247.791 112.43 245.791 111.974 243.769 112.011C241.519 112.089 239.281 112.384 237.087 112.892C234.947 113.388 232.764 113.678 230.569 113.757C227.767 113.831 225.037 112.859 222.913 111.03C221.178 109.573 220.376 106.982 219.6 104.475C219.107 102.483 218.298 100.584 217.203 98.8478C216.013 97.5239 214.538 96.4874 212.889 95.8166C210.946 94.8337 209.111 93.905 208.422 92.2458C206.839 88.4328 206.892 85.218 208.58 82.6901C212.606 76.6589 224.861 75.3928 234.432 75.3928C238.12 75.3916 241.806 75.5784 245.474 75.9523C248.687 76.2946 252.647 77.0876 256.839 77.9269C264.009 79.363 272.136 80.9909 279.44 80.9904C285.747 80.9899 290.52 79.7844 294.034 77.3034C302.785 71.1164 300.275 61.7849 297.847 52.7604C295.255 43.1208 292.574 33.1525 303.353 26.6477C304.927 25.7995 306.701 25.3934 308.487 25.4724C314.932 25.4724 324.013 28.9963 332.795 32.404C340.442 35.3718 347.666 38.175 352.365 38.2858C353.042 38.3015 353.716 38.3093 354.393 38.3093H354.4C364.501 38.3088 374.712 36.5676 384.586 34.883C394.443 33.2018 404.636 31.4636 414.7 31.4636C421.265 31.4001 427.806 32.2619 434.131 34.0236C439.772 35.6742 445.292 37.7131 450.652 40.1259V39.3631C445.352 36.9895 439.896 34.9807 434.322 33.3508C427.935 31.5706 421.33 30.6996 414.7 30.7634C404.577 30.7634 394.354 32.507 384.468 34.1931C374.622 35.8723 364.441 37.6091 354.4 37.6091C353.716 37.631 353.055 37.6018 352.381 37.5856C347.804 37.4782 340.636 34.6965 333.048 31.7512C324.206 28.3205 315.064 24.7727 308.487 24.7727C306.573 24.6849 304.672 25.1261 302.992 26.048C291.76 32.8254 294.511 43.0524 297.172 52.9421C299.645 62.1393 301.982 70.8268 293.63 76.7316Z" fill="#D6D6D6"/>
<path d="M208.581 51.1909C211.368 51.127 214.145 50.8327 216.883 50.311C226.517 48.722 236.269 47.9547 246.033 48.0176C248.683 48.0176 251.407 48.062 254.359 48.1533C255.386 48.185 256.281 48.2007 257.092 48.2007C261.979 48.2007 264.83 47.6074 266.934 46.1543C269.449 44.4165 270.942 41.3701 271.927 35.9678C274.185 23.5681 279.16 12.425 287.565 0.928711H287.195C278.841 12.4002 273.887 23.5315 271.632 35.9141C270.662 41.2305 269.206 44.2192 266.764 45.9072C264.715 47.3232 261.912 47.9004 257.092 47.9004C256.284 47.9004 255.392 47.8852 254.368 47.8535C251.413 47.7622 248.687 47.7178 246.033 47.7178C236.252 47.6548 226.483 48.4233 216.833 50.0151C214.111 50.534 211.351 50.827 208.581 50.8911C202.552 50.8911 198.228 48.8716 196.724 39.0137C195.285 29.5893 196.561 19.6128 197.886 12.9023C198.676 8.8081 199.856 4.79872 201.409 0.928711L201.094 0.928711C199.55 4.78005 198.377 8.76998 197.592 12.8442C196.263 19.5781 194.982 29.5918 196.427 39.0586C197.742 47.6763 201.264 51.1914 208.581 51.1909Z" fill="#D6D6D6"/>
<path d="M212.705 43.6767H212.706C213.717 43.6703 214.727 43.5803 215.724 43.4077C224.086 42.037 232.535 41.2576 241.007 41.0752C243.066 41.0239 245.045 41.0757 246.934 41.125C248.203 41.1582 249.402 41.189 250.57 41.189C254.166 41.189 257.889 40.9111 260.764 38.8945C263.149 37.2222 264.846 34.4482 265.953 30.4141C268.743 19.9556 273.169 10.0042 279.069 0.928711L278.713 0.928711C272.85 9.9867 268.446 19.9098 265.664 30.335C264.576 34.2988 262.917 37.0185 260.592 38.6484C257.785 40.6177 254.116 40.8891 250.57 40.8891C249.405 40.8891 248.209 40.8579 246.942 40.8252C245.049 40.7764 243.067 40.7241 241 40.7754C232.513 40.9578 224.05 41.7386 215.674 43.1118C211.105 43.8789 207.704 42.9614 205.584 40.3828C200.756 34.5107 203.356 21.3354 204.752 14.2573C205.623 9.64432 207.089 5.16398 209.114 0.928711L208.775 0.928711C206.776 5.14993 205.325 9.60988 204.458 14.1997C203.052 21.3262 200.435 34.5913 205.352 40.5732C206.257 41.6205 207.391 42.4453 208.666 42.9835C209.941 43.5217 211.323 43.7589 212.705 43.6767V43.6767Z" fill="#D6D6D6"/>
</svg>
