<svg width="17" height="17" viewBox="0 0 17 17" fill="none" xmlns="http://www.w3.org/2000/svg">
<g clip-path="url(#clip0)">
<path d="M8.65088 16.8894C4.2395 16.8894 0.650879 13.3008 0.650879 8.88942C0.650879 4.47804 4.2395 0.88942 8.65088 0.88942C13.0623 0.88942 16.6509 4.47804 16.6509 8.88942C16.6509 13.3008 13.0623 16.8894 8.65088 16.8894ZM8.65088 1.88942C4.79089 1.88942 1.65088 5.02943 1.65088 8.88942C1.65088 12.7494 4.79089 15.8894 8.65088 15.8894C12.5109 15.8894 15.6509 12.7494 15.6509 8.88942C15.6509 5.02943 12.5109 1.88942 8.65088 1.88942Z" fill="#82B56A"/>
<path d="M12.1509 13.2229C12.0228 13.2229 11.8949 13.1742 11.7975 13.0761L8.29749 9.57614C8.20349 9.48215 8.15088 9.35483 8.15088 9.22287V4.55612C8.15088 4.28012 8.37488 4.05612 8.65088 4.05612C8.92688 4.05612 9.15088 4.28012 9.15088 4.55612V9.01547L12.5043 12.3689C12.6996 12.5642 12.6996 12.8808 12.5043 13.0761C12.4069 13.1742 12.2789 13.2229 12.1509 13.2229Z" fill="#82B56A"/>
</g>
<defs>
<clipPath id="clip0">
<rect width="16" height="16" fill="white" transform="translate(0.650879 0.88942)"/>
</clipPath>
</defs>
</svg>
