<svg width="17" height="16" viewBox="0 0 17 16" fill="none" xmlns="http://www.w3.org/2000/svg">
<path d="M9.32184 8.00465L16.1804 1.14611C16.4451 0.890455 16.4524 0.468636 16.1968 0.203925C15.9411 -0.0607856 15.5193 -0.0681257 15.2546 0.187527C15.2491 0.192876 15.2436 0.198342 15.2382 0.203925L8.37962 7.06247L1.52108 0.203886C1.25637 -0.0517667 0.834549 -0.0444266 0.578896 0.220284C0.32949 0.478513 0.32949 0.887878 0.578896 1.14611L7.43744 8.00465L0.578896 14.8632C0.318753 15.1234 0.318753 15.5452 0.578896 15.8054C0.839078 16.0655 1.2609 16.0655 1.52108 15.8054L8.37962 8.94683L15.2382 15.8054C15.5029 16.061 15.9247 16.0537 16.1803 15.789C16.4297 15.5307 16.4297 15.1214 16.1803 14.8632L9.32184 8.00465Z" fill="#82B56A"/>
</svg>
