<svg width="16" height="17" viewBox="0 0 16 17" fill="none" xmlns="http://www.w3.org/2000/svg">
<g clip-path="url(#clip0)">
<path d="M9.08031 16.2813H6.51304C6.08423 16.2813 5.7354 15.9332 5.7354 15.5052V9.72592H4.2376C3.80879 9.72592 3.45996 9.37766 3.45996 8.9498V6.47336C3.45996 6.04538 3.80879 5.69724 4.2376 5.69724H5.7354V4.45712C5.7354 3.22751 6.12226 2.18137 6.85404 1.43198C7.58912 0.679169 8.61639 0.281342 9.82481 0.281342L11.7827 0.284515C12.2108 0.285248 12.559 0.633392 12.559 1.06064V3.35995C12.559 3.78793 12.2103 4.13608 11.7816 4.13608L10.4634 4.13657C10.0614 4.13657 9.95898 4.21701 9.93709 4.24167C9.90101 4.28256 9.85808 4.39816 9.85808 4.71738V5.69711H11.6826C11.8199 5.69711 11.953 5.73093 12.0673 5.79465C12.314 5.93222 12.4674 6.19235 12.4674 6.47348L12.4664 8.94992C12.4664 9.37766 12.1176 9.7258 11.6888 9.7258H9.85808V15.5052C9.85808 15.9332 9.50913 16.2813 9.08031 16.2813ZM6.67522 15.3434H8.91813V9.306C8.91813 9.02023 9.15113 8.78781 9.43733 8.78781H11.5266L11.5275 6.63522H9.43721C9.15101 6.63522 8.91813 6.4028 8.91813 6.11703V4.71738C8.91813 4.35092 8.95543 3.93417 9.23259 3.62094C9.56747 3.24228 10.0952 3.19858 10.4631 3.19858L11.6192 3.19809V1.22226L9.82407 1.21933C7.88205 1.21933 6.67522 2.46005 6.67522 4.45712V6.11703C6.67522 6.40268 6.44235 6.63522 6.15614 6.63522H4.39978V8.78781H6.15614C6.44235 8.78781 6.67522 9.02023 6.67522 9.306V15.3434ZM11.7809 1.2225H11.781H11.7809Z" fill="#FCFCEE"/>
</g>
<defs>
<clipPath id="clip0">
<rect width="16" height="16" fill="white" transform="translate(0 0.313477)"/>
</clipPath>
</defs>
</svg>
