<svg width="16" height="17" viewBox="0 0 16 17" fill="none" xmlns="http://www.w3.org/2000/svg">
<path d="M15.375 7.71582H8.625V0.96582C8.625 0.620633 8.34519 0.34082 8 0.34082C7.65481 0.34082 7.375 0.620633 7.375 0.96582V7.71582H0.625C0.279813 7.71582 0 7.99563 0 8.34082C0 8.68601 0.279813 8.96582 0.625 8.96582H7.375V15.7158C7.375 16.061 7.65481 16.3408 8 16.3408C8.34519 16.3408 8.625 16.061 8.625 15.7158V8.96582H15.375C15.7202 8.96582 16 8.68601 16 8.34082C16 7.99563 15.7202 7.71582 15.375 7.71582Z" fill="#82B56A"/>
</svg>
