<svg width="35" height="35" viewBox="0 0 35 35" fill="none" xmlns="http://www.w3.org/2000/svg">
<path d="M26.4462 33.7061H8.06781C7.45875 33.7054 6.87485 33.4631 6.44418 33.0324C6.01351 32.6018 5.77124 32.0179 5.77051 31.4088V3.84124C5.77124 3.23219 6.01351 2.64828 6.44418 2.21761C6.87485 1.78695 7.45875 1.54467 8.06781 1.54395H26.4462C27.0552 1.54467 27.6391 1.78695 28.0698 2.21761C28.5005 2.64828 28.7428 3.23219 28.7435 3.84124V31.4088C28.7428 32.0179 28.5005 32.6018 28.0698 33.0324C27.6391 33.4631 27.0552 33.7054 26.4462 33.7061ZM8.06781 2.46286C7.70224 2.46286 7.35164 2.60809 7.09314 2.86658C6.83465 3.12508 6.68943 3.47567 6.68943 3.84124V31.4088C6.68943 31.7744 6.83465 32.125 7.09314 32.3835C7.35164 32.642 7.70224 32.7872 8.06781 32.7872H26.4462C26.8118 32.7872 27.1623 32.642 27.4208 32.3835C27.6793 32.125 27.8246 31.7744 27.8246 31.4088V3.84124C27.8246 3.47567 27.6793 3.12508 27.4208 2.86658C27.1623 2.60809 26.8118 2.46286 26.4462 2.46286H8.06781Z" fill="#FEFEFE"/>
<path d="M25.0679 11.4224H9.44626C9.20255 11.4224 8.96882 11.3256 8.79649 11.1533C8.62416 10.981 8.52734 10.7472 8.52734 10.5035V6.13865C8.52734 5.89493 8.62416 5.6612 8.79649 5.48887C8.96882 5.31654 9.20255 5.21973 9.44626 5.21973H25.0679C25.3116 5.21973 25.5453 5.31654 25.7177 5.48887C25.89 5.6612 25.9868 5.89493 25.9868 6.13865V10.5035C25.9868 10.7472 25.89 10.981 25.7177 11.1533C25.5453 11.3256 25.3116 11.4224 25.0679 11.4224ZM9.44626 6.13865V10.5035H25.0679V6.13865H9.44626Z" fill="#FEFEFE"/>
<path d="M24.6922 18.283H22.541C22.2973 18.283 22.0635 18.1862 21.8912 18.0138C21.7189 17.8415 21.6221 17.6078 21.6221 17.3641V15.2129C21.6221 14.9692 21.7189 14.7354 21.8912 14.5631C22.0635 14.3908 22.2973 14.2939 22.541 14.2939H24.6922C24.9359 14.2939 25.1696 14.3908 25.342 14.5631C25.5143 14.7354 25.6111 14.9692 25.6111 15.2129V17.3641C25.6111 17.6078 25.5143 17.8415 25.342 18.0138C25.1696 18.1862 24.9359 18.283 24.6922 18.283ZM22.541 15.2129V17.3641H24.6922V15.2129H22.541Z" fill="#FEFEFE"/>
<path d="M18.3328 18.283H16.1816C15.9379 18.283 15.7042 18.1862 15.5318 18.0138C15.3595 17.8415 15.2627 17.6078 15.2627 17.3641V15.2129C15.2627 14.9692 15.3595 14.7354 15.5318 14.5631C15.7042 14.3908 15.9379 14.2939 16.1816 14.2939H18.3328C18.5765 14.2939 18.8102 14.3908 18.9826 14.5631C19.1549 14.7354 19.2517 14.9692 19.2517 15.2129V17.3641C19.2517 17.6078 19.1549 17.8415 18.9826 18.0138C18.8102 18.1862 18.5765 18.283 18.3328 18.283ZM16.1816 15.2129V17.3641H18.3328V15.2129H16.1816Z" fill="#FEFEFE"/>
<path d="M11.9734 18.283H9.82224C9.57853 18.283 9.3448 18.1862 9.17246 18.0138C9.00013 17.8415 8.90332 17.6078 8.90332 17.3641V15.2129C8.90332 14.9692 9.00013 14.7354 9.17246 14.5631C9.3448 14.3908 9.57853 14.2939 9.82224 14.2939H11.9734C12.2171 14.2939 12.4509 14.3908 12.6232 14.5631C12.7955 14.7354 12.8923 14.9692 12.8923 15.2129V17.3641C12.8923 17.6078 12.7955 17.8415 12.6232 18.0138C12.4509 18.1862 12.2171 18.283 11.9734 18.283ZM9.82224 15.2129V17.3641H11.9734V15.2129H9.82224Z" fill="#FEFEFE"/>
<path d="M24.6922 23.9841H22.541C22.2973 23.9841 22.0635 23.8873 21.8912 23.715C21.7189 23.5427 21.6221 23.3089 21.6221 23.0652V20.914C21.6221 20.6703 21.7189 20.4366 21.8912 20.2643C22.0635 20.0919 22.2973 19.9951 22.541 19.9951H24.6922C24.9359 19.9951 25.1696 20.0919 25.342 20.2643C25.5143 20.4366 25.6111 20.6703 25.6111 20.914V23.0652C25.6111 23.3089 25.5143 23.5427 25.342 23.715C25.1696 23.8873 24.9359 23.9841 24.6922 23.9841ZM22.541 20.914V23.0652H24.6922V20.914H22.541Z" fill="#FEFEFE"/>
<path d="M18.3328 23.9841H16.1816C15.9379 23.9841 15.7042 23.8873 15.5318 23.715C15.3595 23.5427 15.2627 23.3089 15.2627 23.0652V20.914C15.2627 20.6703 15.3595 20.4366 15.5318 20.2643C15.7042 20.0919 15.9379 19.9951 16.1816 19.9951H18.3328C18.5765 19.9951 18.8102 20.0919 18.9826 20.2643C19.1549 20.4366 19.2517 20.6703 19.2517 20.914V23.0652C19.2517 23.3089 19.1549 23.5427 18.9826 23.715C18.8102 23.8873 18.5765 23.9841 18.3328 23.9841ZM16.1816 20.914V23.0652H18.3328V20.914H16.1816Z" fill="#FEFEFE"/>
<path d="M11.9734 23.9841H9.82224C9.57853 23.9841 9.3448 23.8873 9.17246 23.715C9.00013 23.5427 8.90332 23.3089 8.90332 23.0652V20.914C8.90332 20.6703 9.00013 20.4366 9.17246 20.2643C9.3448 20.0919 9.57853 19.9951 9.82224 19.9951H11.9734C12.2171 19.9951 12.4509 20.0919 12.6232 20.2643C12.7955 20.4366 12.8923 20.6703 12.8923 20.914V23.0652C12.8923 23.3089 12.7955 23.5427 12.6232 23.715C12.4509 23.8873 12.2171 23.9841 11.9734 23.9841ZM9.82224 20.914V23.0652H11.9734V20.914H9.82224Z" fill="#FEFEFE"/>
<path d="M24.6922 29.6858H22.541C22.2973 29.6858 22.0635 29.589 21.8912 29.4167C21.7189 29.2443 21.6221 29.0106 21.6221 28.7669V26.6157C21.6221 26.372 21.7189 26.1383 21.8912 25.9659C22.0635 25.7936 22.2973 25.6968 22.541 25.6968H24.6922C24.9359 25.6968 25.1696 25.7936 25.342 25.9659C25.5143 26.1383 25.6111 26.372 25.6111 26.6157V28.7669C25.6111 29.0106 25.5143 29.2443 25.342 29.4167C25.1696 29.589 24.9359 29.6858 24.6922 29.6858ZM22.541 26.6157V28.7669H24.6922V26.6157H22.541Z" fill="#FEFEFE"/>
<path d="M18.3328 29.6858H16.1816C15.9379 29.6858 15.7042 29.589 15.5318 29.4167C15.3595 29.2443 15.2627 29.0106 15.2627 28.7669V26.6157C15.2627 26.372 15.3595 26.1383 15.5318 25.9659C15.7042 25.7936 15.9379 25.6968 16.1816 25.6968H18.3328C18.5765 25.6968 18.8102 25.7936 18.9826 25.9659C19.1549 26.1383 19.2517 26.372 19.2517 26.6157V28.7669C19.2517 29.0106 19.1549 29.2443 18.9826 29.4167C18.8102 29.589 18.5765 29.6858 18.3328 29.6858ZM16.1816 26.6157V28.7669H18.3328V26.6157H16.1816Z" fill="#FEFEFE"/>
<path d="M11.9734 29.6858H9.82224C9.57853 29.6858 9.3448 29.589 9.17246 29.4167C9.00013 29.2443 8.90332 29.0106 8.90332 28.7669V26.6157C8.90332 26.372 9.00013 26.1383 9.17246 25.9659C9.3448 25.7936 9.57853 25.6968 9.82224 25.6968H11.9734C12.2171 25.6968 12.4509 25.7936 12.6232 25.9659C12.7955 26.1383 12.8923 26.372 12.8923 26.6157V28.7669C12.8923 29.0106 12.7955 29.2443 12.6232 29.4167C12.4509 29.589 12.2171 29.6858 11.9734 29.6858ZM9.82224 26.6157V28.7669H11.9734V26.6157H9.82224Z" fill="#FEFEFE"/>
</svg>
