<svg width="35" height="35" viewBox="0 0 35 35" fill="none" xmlns="http://www.w3.org/2000/svg">
<path d="M31.6084 12.8252H8.63106L9.6726 12.5889L14.0308 11.6005L18.7959 10.5194L23.1458 9.53258C23.1487 9.53273 23.1516 9.53273 23.1545 9.53258L27.9198 8.45151L27.926 8.44904L31.037 7.74325C31.1768 7.7115 31.2983 7.62554 31.3747 7.50426C31.4512 7.38297 31.4764 7.2363 31.4447 7.09647L30.7553 4.05773C30.6547 3.61591 30.3828 3.23206 29.9995 2.99046C29.6161 2.74886 29.1525 2.66925 28.7105 2.7691L16.0487 5.64166L14.9822 5.88351L10.6233 6.87191L5.85827 7.95298L3.88146 8.40178C3.66263 8.45142 3.45571 8.54369 3.27253 8.6733C3.08936 8.80291 2.9335 8.96733 2.81387 9.15718C2.69423 9.34703 2.61317 9.55858 2.57529 9.77976C2.53742 10.0009 2.54348 10.2274 2.59314 10.4462L3.26927 13.426V29.419C3.26984 29.9519 3.48178 30.4628 3.85858 30.8396C4.23537 31.2164 4.74626 31.4283 5.27913 31.4289H30.1394C30.6723 31.4283 31.1832 31.2164 31.56 30.8396C31.9368 30.4628 32.1487 29.9519 32.1493 29.419V13.3657C32.1492 13.2224 32.0922 13.0849 31.9907 12.9835C31.8893 12.8821 31.7518 12.8252 31.6084 12.8252ZM14.361 7.13168L13.4705 10.6186L10.2959 11.3389L11.1867 7.85198L14.361 7.13168ZM16.1955 6.71531L19.1248 6.05061L18.2356 9.53752L14.6548 10.3499L15.5468 6.86296L16.1955 6.71531ZM23.485 5.06158L22.5948 8.5485L19.4198 9.2688L20.3106 5.78189L23.485 5.06158ZM27.3601 7.46712L23.7793 8.27977L24.6692 4.7941L28.2503 3.98175L27.3601 7.46712ZM10.0012 8.12101L9.11137 11.6076L5.53056 12.42L6.42105 8.93336L10.0012 8.12101ZM15.4789 13.9063L13.8387 17.1096H10.5832L12.223 13.9063H15.4789ZM24.8347 13.9063L23.1949 17.1096H19.939L21.5792 13.9063H24.8347ZM4.35003 17.1096V13.9063H6.12267L4.48254 17.1096H4.35003ZM29.2952 17.1096L30.9354 13.9063H31.0679V17.1096H29.2952ZM29.7209 13.9063L28.0807 17.1096H24.4091L26.0486 13.9063H29.7209ZM20.3647 13.9063L18.7245 17.1096H15.0526L16.6927 13.9063H20.3647ZM9.36928 17.1096H5.69704L7.33718 13.9063H11.0088L9.36928 17.1096ZM29.703 4.29341L30.2725 6.8052L28.5447 7.19716L29.3913 3.88198C29.4695 3.92453 29.5377 3.98322 29.5914 4.05416C29.6451 4.12509 29.6832 4.20665 29.703 4.29341ZM3.72826 9.73273C3.77197 9.66272 3.82916 9.60209 3.8965 9.55437C3.96384 9.50665 4.03999 9.47278 4.12053 9.45474L5.23681 9.20146L4.34632 12.6887L4.2169 12.718L3.64702 10.2062C3.62857 10.1259 3.62624 10.0426 3.64019 9.96134C3.65413 9.88006 3.68407 9.80236 3.72826 9.73273ZM30.1391 30.3472H5.27882C5.03257 30.3469 4.79647 30.249 4.62234 30.0749C4.44821 29.9007 4.35027 29.6646 4.35003 29.4184V18.3087H31.0679V29.4184C31.0676 29.6646 30.9697 29.9007 30.7956 30.0749C30.6214 30.249 30.3853 30.3469 30.1391 30.3472Z" fill="#FCFCEE"/>
</svg>
