<svg width="35" height="35" viewBox="0 0 35 35" fill="none" xmlns="http://www.w3.org/2000/svg">
<g clip-path="url(#clip0)">
<path d="M31.4168 4.63867H2.73578C1.80667 4.63867 1.05078 5.39456 1.05078 6.32367V12.7319C1.05078 13.182 1.22612 13.6052 1.54432 13.9234L3.34525 15.7243V16.0752C3.34525 23.6465 9.505 29.8063 17.0763 29.8063C24.6476 29.8063 30.8074 23.6465 30.8074 16.0752V15.7243L32.6082 13.9233C32.9265 13.6051 33.1018 13.1819 33.1018 12.7319V6.32367C33.1018 5.39456 32.3459 4.63867 31.4168 4.63867ZM29.7318 16.0752C29.7318 23.0534 24.0545 28.7307 17.0763 28.7307C10.0981 28.7307 4.42077 23.0534 4.42077 16.0752V16.0393H8.47198H11.1926H29.7318V16.0752H29.7318ZM30.0468 14.9638H11.1926H8.47198H4.10577L2.31323 13.1713H25.6806H26.8281H29.1224H30.9708H31.8394L30.0468 14.9638ZM32.0263 12.0957H30.9708H29.1224H26.8281H25.6806H2.12631V6.32367C2.12631 5.98757 2.39968 5.7142 2.73578 5.7142H31.4168C31.7529 5.7142 32.0263 5.98757 32.0263 6.32367V12.0957Z" fill="#FCFCEE" stroke="#FCFCEE" stroke-width="0.198793"/>
<path d="M17.0805 26.9383C19.5911 26.9383 21.6336 24.8958 21.6336 22.3852C21.6336 19.8745 19.5911 17.832 17.0805 17.832C14.5698 17.832 12.5273 19.8745 12.5273 22.3852C12.5273 24.8958 14.5698 26.9383 17.0805 26.9383ZM17.0805 18.9076C18.998 18.9076 20.5581 20.4676 20.5581 22.3852C20.5581 24.3027 18.998 25.8628 17.0805 25.8628C15.1629 25.8628 13.6029 24.3027 13.6029 22.3852C13.6029 20.4676 15.1629 18.9076 17.0805 18.9076Z" fill="#FCFCEE" stroke="#FCFCEE" stroke-width="0.198793"/>
<path d="M15.2066 23.6466C15.227 23.6767 15.2479 23.7062 15.2697 23.7352C15.3348 23.8222 15.4059 23.9044 15.4826 23.9811C15.5593 24.0577 15.6414 24.129 15.7284 24.194C15.8734 24.3025 16.0318 24.394 16.2006 24.4655C16.4708 24.5799 16.7676 24.6433 17.079 24.6433C18.3244 24.6433 19.3376 23.6301 19.3376 22.3846C19.3376 21.1392 18.3244 20.126 17.079 20.126C15.8336 20.126 14.8203 21.1392 14.8203 22.3846C14.8203 22.5793 14.845 22.7682 14.8916 22.9484C14.9567 23.2009 15.0644 23.4363 15.2066 23.6466ZM17.079 21.2016C17.7313 21.2016 18.262 21.7323 18.262 22.3846C18.262 23.037 17.7313 23.5677 17.079 23.5677C16.4266 23.5677 15.8959 23.037 15.8959 22.3846C15.8959 21.7323 16.4266 21.2016 17.079 21.2016Z" fill="#FCFCEE" stroke="#FCFCEE" stroke-width="0.198793"/>
</g>
<defs>
<clipPath id="clip0">
<rect width="34" height="34" fill="white" transform="translate(0.0820312 0.222656)"/>
</clipPath>
</defs>
</svg>
