<svg width="35" height="35" viewBox="0 0 35 35" fill="none" xmlns="http://www.w3.org/2000/svg">
<path d="M32.8921 10.2778C33.8613 10.2445 34.6212 9.43397 34.592 8.4646V1.82531C34.6341 0.907076 33.9273 0.126887 33.0094 0.0783691H20.3088C19.3908 0.126887 18.6841 0.907076 18.7261 1.82531V8.4646C18.6969 9.43397 19.4568 10.2445 20.4261 10.2778H24.3925V12.5444H19.8339C19.6203 10.152 18.0054 8.83631 15.0311 8.61533C16.932 7.5266 17.5904 5.10302 16.5017 3.2021C15.4129 1.30117 12.9894 0.642811 11.0884 1.73153C9.18751 2.82026 8.52915 5.24383 9.61787 7.14476C9.96855 7.75701 10.4762 8.26465 11.0884 8.61533C8.11416 8.83631 6.49868 10.152 6.28562 12.5444H1.16039C0.847462 12.5444 0.59375 12.7981 0.59375 13.111V15.3776C0.59375 15.6905 0.847462 15.9442 1.16039 15.9442H1.72702V33.51C1.72702 33.8229 1.98074 34.0766 2.29366 34.0766H32.8921C33.205 34.0766 33.4587 33.8229 33.4587 33.51V15.9442H34.0253C34.3383 15.9442 34.592 15.6905 34.592 15.3776V13.111C34.592 12.7981 34.3383 12.5444 34.0253 12.5444H28.9256V10.2778H32.8921ZM10.2266 5.1781C10.2266 3.61341 11.4951 2.34492 13.0598 2.34492C14.6245 2.34492 15.893 3.61341 15.893 5.1781C15.893 6.7428 14.6245 8.01129 13.0598 8.01129C11.4958 8.00938 10.2284 6.74202 10.2266 5.1781ZM12.0211 9.7112H14.0984C17.0279 9.7112 18.4678 10.5929 18.691 12.5444H7.42853C7.65178 10.5929 9.09331 9.7112 12.0211 9.7112ZM3.99357 32.9433H2.8603V15.9442H3.99357V32.9433ZM20.9927 32.9433H5.12685V15.9442H20.9927V32.9433ZM32.3254 17.0775H30.0589V18.2108H32.3254V32.9433H22.126V15.9442H32.3254V17.0775ZM33.4587 13.6777V14.8109H1.72702V13.6777H33.4587ZM27.7923 10.2778V12.5444H25.5258V10.2778H27.7923ZM25.5258 9.14456V5.74474H27.7923V9.14456H25.5258ZM28.359 4.61147H24.9592C24.6462 4.61147 24.3925 4.86518 24.3925 5.1781V9.14456H20.4261C20.0835 9.11021 19.8314 8.80777 19.8594 8.4646V1.82531C19.8594 1.49496 20.0651 1.21164 20.3088 1.21164H33.0094C33.253 1.21164 33.4587 1.49496 33.4587 1.82531V8.4646C33.4867 8.80777 33.2347 9.11021 32.8921 9.14456H28.9256V5.1781C28.9256 4.86511 28.6719 4.61147 28.359 4.61147Z" fill="#FCFCEE"/>
</svg>
