<svg width="35" height="35" viewBox="0 0 35 35" fill="none" xmlns="http://www.w3.org/2000/svg">
<path d="M30.6252 25.9402C30.2711 24.587 29.1073 23.5812 27.6793 23.3817C27.6007 23.3649 27.5191 23.3569 27.4387 23.3498L27.3698 23.3432C27.3596 23.3423 27.3497 23.3415 27.3398 23.3415L22.6471 23.0233C22.5533 23.0173 22.4608 23.0065 22.3694 22.9923L21.1777 22.5378C20.641 22.1934 20.2221 21.6911 19.9914 21.102C21.2358 20.985 24.1935 20.2352 26.0276 18.019C27.4785 16.2656 27.8749 14.0239 27.2051 11.3564C25.8604 5.99725 23.8666 2.72835 21.2793 1.641C19.4705 0.880399 17.967 1.46052 17.5022 1.6837C17.0375 1.46076 15.5339 0.879928 13.7251 1.641C11.1378 2.72835 9.14407 5.99725 7.79933 11.3564C7.13192 14.018 7.52543 16.2557 8.96855 18.0074C10.7937 20.2225 13.7687 20.9787 15.0135 21.1012C14.783 21.6906 14.3636 22.1934 13.8262 22.538L12.6354 22.9922C12.5436 23.0065 12.4506 23.0172 12.3563 23.0233L7.66486 23.3415C7.65495 23.3415 7.64481 23.342 7.63466 23.3432L7.56577 23.3498C7.48532 23.3569 7.4037 23.3649 7.34448 23.3781C5.89712 23.5812 4.73333 24.587 4.37921 25.9402C3.76535 28.2895 3.88638 31.0566 4.09635 32.964C4.11239 33.111 4.23648 33.2223 4.3844 33.2223H15.9834H19.0211H30.62C30.7679 33.2223 30.892 33.111 30.9081 32.964C31.118 31.0566 31.2391 28.2895 30.6252 25.9402ZM20.9206 23.0602C21.2171 23.2433 21.541 23.3867 21.8863 23.4803L19.8477 28.0158L17.8912 25.1378L20.5932 22.9353L20.9206 23.0602ZM18.6777 27.326L17.9413 28.5657H17.0632L16.3267 27.326L17.5022 25.5966L18.6777 27.326ZM9.41609 17.6387C8.09635 16.0368 7.74153 13.9706 8.36176 11.4975C9.97545 5.06584 12.2849 2.88076 13.9379 2.18031C15.8074 1.38833 17.2941 2.22467 17.3567 2.26053C17.4468 2.3129 17.5588 2.31266 17.6485 2.26029C17.6636 2.25133 19.1791 1.38715 21.0547 2.17536C22.7115 2.87179 25.0261 5.05452 26.6427 11.4975C27.265 13.9763 26.9078 16.046 25.5808 17.6495C23.8186 19.7789 20.8612 20.4713 19.8347 20.5364C19.8308 20.5132 19.8262 20.4903 19.8229 20.4669C19.8076 20.3563 19.7951 20.2447 19.7927 20.1264C19.7927 20.1257 19.7925 20.125 19.7925 20.1243C19.7885 19.8238 19.7879 19.5407 19.7905 19.2761C19.7907 19.2611 19.7907 19.2455 19.791 19.2306C21.2743 18.1515 23.0619 16.0163 23.8737 13.0904C23.9272 13.106 23.982 13.1173 24.0376 13.1248C24.0914 13.1324 24.1452 13.1362 24.1988 13.1362C24.214 13.1362 24.229 13.1328 24.2442 13.1322C24.2725 13.1311 24.3005 13.128 24.3287 13.1248C24.3755 13.1195 24.422 13.1113 24.4683 13.1003C24.4964 13.0936 24.5245 13.0868 24.5524 13.078C24.6008 13.0627 24.6484 13.043 24.6958 13.0214C24.7196 13.0106 24.7436 13.0017 24.767 12.9894C24.837 12.9525 24.9059 12.9104 24.9726 12.8599C25.3883 12.5457 25.687 11.9903 25.7712 11.3743C25.8556 10.759 25.7169 10.144 25.4008 9.72878C25.1807 9.44002 24.8936 9.26449 24.5713 9.22132C24.3429 9.19041 24.1075 9.2291 23.8869 9.33338C23.7812 9.38316 23.7156 9.49145 23.7206 9.60823C23.7255 9.71982 23.7253 9.82692 23.7253 9.93875C23.7253 10.1212 23.7177 10.3035 23.7087 10.4857C23.7041 10.5678 23.7002 10.6506 23.6932 10.7312C22.9019 10.7029 22.0481 10.5512 21.1495 10.2789C20.4599 10.077 19.7526 9.80546 18.9852 9.4478C16.1709 8.16086 13.9302 6.33603 13.9078 6.31786C13.8266 6.25133 13.7152 6.23411 13.6171 6.27257C13.5192 6.31126 13.4501 6.4002 13.4364 6.50471C13.4321 6.53774 13.0105 9.63111 11.306 10.6684C11.3015 10.6122 11.2993 10.5522 11.296 10.4942C11.2867 10.3092 11.2791 10.1241 11.2791 9.93875C11.2791 9.82692 11.2789 9.71982 11.2839 9.60823C11.2888 9.49145 11.2232 9.38316 11.1175 9.33338C10.8965 9.22934 10.6599 9.18994 10.4338 9.22132C10.1109 9.26449 9.82375 9.44002 9.60364 9.72878C9.28751 10.144 9.14879 10.759 9.23325 11.3743C9.31747 11.9903 9.61615 12.5457 10.0318 12.8599C10.0986 12.9104 10.1674 12.9525 10.2373 12.9893C10.2609 13.0017 10.2849 13.0107 10.3087 13.0215C10.356 13.043 10.4035 13.0627 10.4517 13.078C10.4796 13.0869 10.5077 13.0936 10.5358 13.1004C10.5821 13.1114 10.6285 13.1196 10.6752 13.125C10.7032 13.1282 10.731 13.1312 10.7591 13.1324C10.7745 13.133 10.7898 13.1364 10.8052 13.1364C10.8583 13.1364 10.9116 13.1326 10.9649 13.1251C11.022 13.1175 11.0779 13.1057 11.1329 13.0897C11.9434 16.0165 13.7308 18.1522 15.2135 19.2306C15.2137 19.2461 15.2138 19.2622 15.214 19.2778C15.2165 19.5415 15.2159 19.8238 15.2119 20.1218C15.2119 20.1221 15.2119 20.1224 15.2119 20.1227C15.2119 20.123 15.2119 20.1233 15.2119 20.1237C15.2093 20.2502 15.1963 20.3668 15.1792 20.4807C15.1765 20.4992 15.1729 20.5175 15.1698 20.5358C14.1427 20.4685 11.1707 19.7684 9.41609 17.6387ZM15.5738 16.4067C15.6459 16.2221 15.823 16.0901 16.0329 16.0901C16.3061 16.0901 16.5281 16.3121 16.5281 16.5853C16.5281 16.8585 16.3061 17.0805 16.0329 17.0805C15.8239 17.0805 15.6469 16.9498 15.5743 16.7664C15.6145 16.7166 15.642 16.6559 15.642 16.587C15.642 16.5176 15.6144 16.4566 15.5738 16.4067ZM16.0329 17.6604C16.6258 17.6604 17.108 17.1782 17.108 16.5853C17.108 15.9924 16.6258 15.5102 16.0329 15.5102C15.5559 15.5102 15.1552 15.8245 15.015 16.2553C13.2285 15.9135 11.7906 12.9904 11.5983 12.5822C11.4944 12.1571 11.4151 11.7261 11.3619 11.2918C13.0568 10.4656 13.7161 8.10109 13.9269 7.06691C14.7 7.65199 16.5517 8.97266 18.7422 9.97437C19.5347 10.3434 20.2688 10.625 20.9839 10.8345C21.9176 11.1177 22.8075 11.2695 23.6409 11.302C23.5867 11.7418 23.5068 12.1784 23.4004 12.6086C23.4004 12.6088 23.4005 12.6089 23.4005 12.6091C23.4005 12.6091 23.4004 12.6091 23.4004 12.6091C22.6556 15.6374 20.8131 17.8144 19.337 18.8423C19.333 18.8451 19.3314 18.85 19.3275 18.8529C18.6439 19.3295 17.9959 19.5923 17.5022 19.5923C17.0085 19.5923 16.3605 19.3294 15.6769 18.8529C15.673 18.85 15.6715 18.8451 15.6675 18.8423C14.6827 18.1567 13.5409 16.9484 12.665 15.3263C13.3049 16.0704 14.0996 16.7077 14.9913 16.8391C15.1061 17.3092 15.5279 17.6604 16.0329 17.6604ZM24.3047 9.80192C24.3689 9.78988 24.4328 9.788 24.4937 9.79602C24.7048 9.82409 24.8525 9.96612 24.9396 10.0803C25.1644 10.3754 25.2606 10.8298 25.197 11.2955C25.133 11.7622 24.9183 12.1741 24.623 12.3975C24.5088 12.4838 24.3266 12.5803 24.1164 12.5504C24.0815 12.5457 24.0489 12.5347 24.0161 12.524C24.1246 12.0446 24.1994 11.5581 24.2469 11.0688C24.2475 11.065 24.2498 11.0618 24.2502 11.0579C24.2592 10.9781 24.2634 10.8994 24.2675 10.823C24.2763 10.7074 24.2848 10.5919 24.2902 10.4761C24.2991 10.3048 24.3052 10.1286 24.3052 9.93875C24.3052 9.89251 24.3052 9.84698 24.3047 9.80192ZM10.7143 10.4766C10.723 10.6659 10.7375 10.8548 10.7554 11.0435C10.759 11.0798 10.7599 11.1176 10.7644 11.1533C10.7644 11.1536 10.7647 11.1538 10.7647 11.1541C10.8128 11.6146 10.886 12.0724 10.9883 12.5239C10.955 12.5347 10.922 12.5458 10.8861 12.5506C10.6754 12.5815 10.4957 12.4838 10.3815 12.3975C10.0861 12.1741 9.87141 11.7622 9.80748 11.2955C9.74378 10.8298 9.84003 10.3754 10.0649 10.0803C10.1519 9.96612 10.2996 9.82409 10.5115 9.79602C10.5726 9.78705 10.6358 9.78988 10.6997 9.80192C10.6992 9.84698 10.6992 9.89251 10.6992 9.93875C10.6992 10.1306 10.7054 10.307 10.7143 10.4766ZM15.682 20.9122C15.6827 20.9101 15.6841 20.9085 15.6847 20.9064C15.6861 20.9014 15.6865 20.8959 15.6879 20.8908C15.7091 20.8061 15.7261 20.7202 15.7408 20.6333C15.7485 20.5885 15.758 20.544 15.7639 20.4979C15.7791 20.3788 15.7891 20.2583 15.7916 20.1361C15.7916 20.1359 15.7916 20.1356 15.7916 20.1353C15.7916 20.1343 15.7918 20.1334 15.7918 20.1323C15.792 20.1163 15.7919 20.1019 15.7921 20.086C15.7958 19.9267 15.7976 19.7698 15.7972 19.619C16.4193 19.9823 17.0018 20.1722 17.5022 20.1722C18.0026 20.1722 18.5851 19.9823 19.2072 19.619C19.2067 19.7855 19.2081 19.958 19.2126 20.1345C19.215 20.2532 19.2242 20.3705 19.2386 20.4864C19.2478 20.5636 19.263 20.6388 19.2774 20.7138C19.2847 20.7511 19.2905 20.7889 19.2989 20.8258C19.3046 20.8506 19.3071 20.8763 19.3134 20.901C19.3168 20.9146 19.3244 20.9259 19.3297 20.9386C19.4864 21.5286 19.7939 22.0636 20.2143 22.4963L17.5022 24.7071L14.7901 22.4963C15.217 22.0571 15.5279 21.5126 15.682 20.9122ZM14.0834 23.0604L14.4112 22.9353L17.1132 25.1378L15.1567 28.0158L13.1181 23.4802C13.4632 23.3866 13.787 23.2433 14.0834 23.0604ZM15.7513 32.6424H9.46351V30.5439C9.46351 30.3837 9.33375 30.254 9.17356 30.254C9.01337 30.254 8.88362 30.3837 8.88362 30.5439V32.6424H4.64533C4.45872 30.7982 4.37544 28.2477 4.94023 26.0869C5.23489 24.9607 6.21018 24.1229 7.44451 23.9488C7.50113 23.937 7.55987 23.9323 7.61767 23.9271L7.63372 23.9257C7.66627 23.928 7.70001 23.9262 7.73257 23.9181L12.3946 23.6018C12.4404 23.5988 12.4848 23.5912 12.5301 23.5866L14.8406 28.7266C14.8837 28.8224 14.975 28.8873 15.0798 28.8965C15.0883 28.8972 15.0968 28.8977 15.105 28.8977C15.2006 28.8977 15.2905 28.8505 15.3447 28.7708L15.9669 27.8554L16.5902 28.9046L15.7513 32.6424ZM16.3455 32.6424L17.1303 29.1456H17.8741L18.6589 32.6424H16.3455ZM30.3591 32.6424H26.1208V30.5439C26.1208 30.3837 25.9911 30.254 25.8309 30.254C25.6707 30.254 25.5409 30.3837 25.5409 30.5439V32.6424H19.2531L18.4142 28.9046L19.0375 27.8554L19.6597 28.7708C19.714 28.8505 19.8038 28.8977 19.8994 28.8977C19.9076 28.8977 19.9161 28.8972 19.9246 28.8965C20.0294 28.8873 20.1207 28.8224 20.1639 28.7266L22.4743 23.5867C22.5193 23.5913 22.5634 23.5988 22.6089 23.6018L27.2719 23.9181C27.3044 23.9257 27.3382 23.9276 27.3707 23.9257L27.3868 23.9271C27.4446 23.9323 27.5033 23.937 27.5793 23.9523C28.7942 24.1229 29.7695 24.9607 30.0642 26.0869C30.629 28.2477 30.5457 30.7982 30.3591 32.6424Z" fill="#FCFCEE" stroke="#FCFCEE" stroke-width="0.4"/>
</svg>
