<svg width="35" height="35" viewBox="0 0 35 35" fill="none" xmlns="http://www.w3.org/2000/svg">
<g clip-path="url(#clip0)">
<path d="M33.5274 0.398438C33.5273 0.398438 33.5272 0.398438 33.5271 0.398438H0.660417C0.347546 0.398367 0.0938208 0.65195 0.09375 0.964821C0.09375 0.964892 0.09375 0.965033 0.09375 0.965104V12.2984H1.22708V1.53177H32.9604V13.9984H13.1271V15.1318H33.5271C33.84 15.1318 34.0937 14.8783 34.0938 14.5654C34.0938 14.5653 34.0938 14.5652 34.0938 14.5651V0.965104C34.0938 0.652233 33.8402 0.398508 33.5274 0.398438Z" fill="#FCFCEE"/>
<path d="M30.1263 3.23389H18.793V4.36722H30.1263V3.23389Z" fill="#FCFCEE"/>
<path d="M31.8275 6.63281H20.4941V7.76615H31.8275V6.63281Z" fill="#FCFCEE"/>
<path d="M29.5599 10.0386H18.2266V11.1719H29.5599V10.0386Z" fill="#FCFCEE"/>
<path d="M18.1819 5.28843C17.7939 4.3559 16.7235 3.91447 15.7911 4.30243C15.7751 4.30908 15.7593 4.31588 15.7435 4.32297L11.1487 6.70651C11.3299 6.33095 11.425 5.91969 11.4271 5.50277C11.4271 3.93799 10.1585 2.66943 8.59375 2.66943C7.02897 2.66943 5.76042 3.93799 5.76042 5.50277C5.76254 6.11781 5.96675 6.71515 6.3416 7.20277H6.31802C4.70953 7.21353 3.27367 8.21349 2.7058 9.71848L1.19308 14.9325C0.832967 15.8679 1.29933 16.9182 2.23483 17.2783C2.66139 17.4425 3.1342 17.4397 3.55885 17.2705C4.04675 17.074 4.42641 16.677 4.60116 16.1809L5.19375 14.295V22.4963C4.70613 22.1215 4.1088 21.9173 3.49375 21.9151C1.93131 21.9127 0.662754 23.1775 0.660417 24.74C0.659283 25.5052 0.968117 26.2382 1.51658 26.7718C0.646179 27.2165 0.09715 28.1101 0.09375 29.0875V33.8361C0.0936792 34.149 0.347263 34.4027 0.660133 34.4028C0.660204 34.4028 0.660346 34.4028 0.660417 34.4028H6.32708C6.63995 34.4028 6.89368 34.1493 6.89375 33.8364C6.89375 33.8363 6.89375 33.8362 6.89375 33.8361V29.0875C6.89099 28.2843 6.51784 27.5274 5.88253 27.0361H10.1717C9.53633 27.5274 9.16318 28.2843 9.16049 29.0875V33.8361C9.16042 34.149 9.414 34.4027 9.72687 34.4028C9.72694 34.4028 9.72709 34.4028 9.72716 34.4028H15.3938C15.7067 34.4028 15.9604 34.1493 15.9605 33.8364C15.9605 33.8363 15.9605 33.8362 15.9605 33.8361V29.0875C15.9571 28.1101 15.4081 27.2165 14.5377 26.7718C15.6565 25.6798 15.6782 23.8875 14.5862 22.7687C13.9137 22.0797 12.9371 21.7797 11.9938 21.9724V10.3803L17.1959 7.67919C18.1283 7.29131 18.5698 6.22088 18.1819 5.28843ZM8.59375 3.80277C9.53265 3.80277 10.2938 4.56387 10.2938 5.50277C10.2938 6.44166 9.53265 7.20277 8.59375 7.20277C7.65528 7.20178 6.89474 6.44124 6.89375 5.50277C6.89375 4.56387 7.65485 3.80277 8.59375 3.80277ZM3.49375 23.0484C4.43265 23.0484 5.19375 23.8095 5.19375 24.7484C5.19375 25.6873 4.43265 26.4484 3.49375 26.4484C2.55485 26.4484 1.79375 25.6873 1.79375 24.7484C1.79474 23.8099 2.55528 23.0495 3.49375 23.0484ZM5.76042 33.2694H1.22708V29.0875C1.22822 28.2679 1.89242 27.6038 2.7121 27.6028H4.2754C5.09501 27.6038 5.75928 28.2679 5.76042 29.0875V33.2694ZM14.8271 29.0875V33.2694H10.2938V29.0875C10.2949 28.2679 10.9591 27.6038 11.7788 27.6028H13.3421C14.1617 27.6038 14.826 28.2679 14.8271 29.0875ZM12.5604 23.0484C13.4989 23.0494 14.2594 23.8099 14.2604 24.7484C14.2604 25.6873 13.4993 26.4484 12.5604 26.4484C11.6215 26.4484 10.8604 25.6873 10.8604 24.7484C10.8604 23.8095 11.6215 23.0484 12.5604 23.0484ZM17.145 6.23377C17.0691 6.42842 16.9133 6.5812 16.7172 6.65324L11.1662 9.53304C10.9784 9.63051 10.8604 9.82452 10.8604 10.0361V22.4963C9.79898 23.2811 9.43128 24.7015 9.97868 25.9028H9.16042V16.2694H8.02708V25.9028H6.07548C6.2367 25.5465 6.32163 25.1604 6.32496 24.7694H6.32708V10.6028C6.32701 10.2898 6.07322 10.0361 5.76028 10.0362C5.51285 10.0362 5.29405 10.1968 5.21982 10.4329L3.52775 15.8173C3.39954 16.1709 3.0089 16.3537 2.6553 16.2254C2.6305 16.2164 2.60621 16.206 2.58255 16.1941C2.25565 16.0252 2.11689 15.6308 2.26607 15.2943L3.77871 10.0804C4.18664 9.03275 5.19368 8.34099 6.31795 8.3361H10.3303C10.4211 8.33624 10.5106 8.31435 10.5913 8.27249L16.2234 5.34899C16.5612 5.20803 16.9507 5.35225 17.1151 5.67935C17.2023 5.85176 17.2132 6.05293 17.145 6.23377Z" fill="#FCFCEE"/>
<path d="M23.6037 26.7719C24.7245 25.68 24.7479 23.8861 23.6559 22.7653C22.564 21.6445 20.7701 21.6211 19.6493 22.7131C18.5285 23.8051 18.5051 25.5989 19.5971 26.7197C19.6143 26.7374 19.6318 26.7548 19.6494 26.7719C18.7791 27.2166 18.23 28.1103 18.2266 29.0876V33.8362C18.2265 34.1491 18.4801 34.4028 18.7929 34.4029C18.793 34.4029 18.7932 34.4029 18.7932 34.4029H24.4599C24.7728 34.4029 25.0265 34.1494 25.0266 33.8365C25.0266 33.8364 25.0266 33.8363 25.0266 33.8362V29.0876C25.0232 28.1103 24.4741 27.2166 23.6037 26.7719ZM21.6266 23.0485C22.5655 23.0485 23.3266 23.8096 23.3266 24.7485C23.3266 25.6874 22.5655 26.4485 21.6266 26.4485C20.6877 26.4485 19.9266 25.6874 19.9266 24.7485C19.9276 23.81 20.6881 23.0496 21.6266 23.0485ZM23.8932 33.2695H19.3599V29.0876C19.361 28.268 20.0252 27.6039 20.8449 27.6029H22.4082C23.2278 27.6039 23.8921 28.268 23.8932 29.0876V33.2695Z" fill="#FCFCEE"/>
<path d="M32.6701 26.7719C33.7909 25.68 33.8143 23.8861 32.7223 22.7653C31.6304 21.6445 29.8365 21.6211 28.7157 22.7131C27.5949 23.8051 27.5716 25.5989 28.6635 26.7197C28.6807 26.7374 28.6982 26.7548 28.7158 26.7719C27.8455 27.2166 27.2964 28.1103 27.293 29.0876V33.8362C27.2929 34.1491 27.5465 34.4028 27.8594 34.4029C27.8594 34.4029 27.8596 34.4029 27.8596 34.4029H33.5263C33.8392 34.4029 34.0929 34.1494 34.093 33.8365C34.093 33.8364 34.093 33.8363 34.093 33.8362V29.0876C34.0896 28.1103 33.5405 27.2166 32.6701 26.7719ZM30.693 23.0485C31.6319 23.0485 32.393 23.8096 32.393 24.7485C32.393 25.6874 31.6319 26.4485 30.693 26.4485C29.7541 26.4485 28.993 25.6874 28.993 24.7485C28.994 23.81 29.7545 23.0496 30.693 23.0485ZM32.9596 33.2695H28.4263V29.0876C28.4274 28.268 29.0916 27.6039 29.9113 27.6029H31.4746C32.2942 27.6039 32.9585 28.268 32.9596 29.0876V33.2695Z" fill="#FCFCEE"/>
</g>
<defs>
<clipPath id="clip0">
<rect width="34" height="34" fill="white" transform="translate(0.09375 0.398438)"/>
</clipPath>
</defs>
</svg>
