<svg width="34" height="35" viewBox="0 0 34 35" fill="none" xmlns="http://www.w3.org/2000/svg">
<path d="M17.0452 3.3487C17.1302 3.3487 17.2117 3.31492 17.2718 3.25481C17.3319 3.19469 17.3657 3.11316 17.3657 3.02814V2.03442C17.3657 1.94941 17.3319 1.86787 17.2718 1.80776C17.2117 1.74764 17.1302 1.71387 17.0452 1.71387C16.9601 1.71387 16.8786 1.74764 16.8185 1.80776C16.7584 1.86787 16.7246 1.94941 16.7246 2.03442V3.02814C16.7246 3.11316 16.7584 3.19469 16.8185 3.25481C16.8786 3.31492 16.9601 3.3487 17.0452 3.3487Z" fill="#FCFCEE" stroke="#FCFCEE" stroke-width="0.3"/>
<path d="M33.0749 13.7344C33.0964 13.5987 33.0887 13.46 33.0521 13.3276C33.0156 13.1952 32.9511 13.0722 32.863 12.9668C32.7749 12.8614 32.6653 12.7761 32.5415 12.7167C32.4177 12.6572 32.2826 12.6249 32.1453 12.6221H30.3277C30.0136 12.6218 29.704 12.697 29.425 12.8415C29.146 12.986 28.9059 13.1955 28.725 13.4523L27.1542 10.282C26.987 9.94859 26.7468 9.65707 26.4516 9.42901C26.1564 9.20096 25.8137 9.04221 25.4489 8.96453C23.6299 8.58709 21.7863 8.33964 19.9321 8.22405L19.4449 5.65961C19.3996 5.42562 19.2745 5.2146 19.0909 5.0626C18.9073 4.91059 18.6767 4.82703 18.4384 4.82617H15.6495C15.411 4.82641 15.1801 4.90976 14.9964 5.06187C14.8127 5.21397 14.6877 5.42534 14.643 5.65961L14.1558 8.22405C12.3025 8.33942 10.4599 8.58796 8.64222 8.96774C8.27728 9.0452 7.93448 9.20386 7.63925 9.43194C7.34402 9.66002 7.10396 9.95166 6.93687 10.2852L5.37256 13.4523C5.19119 13.1959 4.95101 12.9867 4.67214 12.8423C4.39328 12.6978 4.08385 12.6223 3.76979 12.6221H1.98109C1.84346 12.6249 1.70803 12.6572 1.58396 12.7169C1.4599 12.7765 1.35009 12.8621 1.26196 12.9679C1.17382 13.0736 1.10943 13.1971 1.07312 13.3299C1.03681 13.4627 1.02943 13.6017 1.05148 13.7376C1.18932 14.5294 1.7567 16.27 3.96532 16.3309L3.86595 16.536C3.6608 16.8566 2.26318 19.0716 2.09649 19.9596C1.74134 21.6868 1.61204 23.4529 1.71183 25.2134V25.2519C1.76118 26.0042 1.85107 26.7532 1.98109 27.4958C2.01877 27.7229 2.12102 27.9343 2.27563 28.1048C2.43025 28.2754 2.63068 28.3978 2.853 28.4575L3.24087 28.5568V31.7816C3.24087 31.9107 3.26635 32.0385 3.31584 32.1577C3.36534 32.2769 3.43788 32.3852 3.5293 32.4763C3.62073 32.5675 3.72924 32.6397 3.84862 32.6888C3.96799 32.7379 4.09589 32.7629 4.22497 32.7625H7.39205C7.6522 32.7625 7.9017 32.6592 8.08565 32.4752C8.26961 32.2912 8.37295 32.0418 8.37295 31.7816V29.3614C11.0111 29.6339 13.9987 29.7845 17.0536 29.7942C20.1181 29.7942 23.1185 29.6339 25.7342 29.3582V31.7816C25.7342 32.0418 25.8375 32.2912 26.0215 32.4752C26.2054 32.6592 26.4549 32.7625 26.7151 32.7625H29.8693C30.1292 32.7617 30.3782 32.658 30.562 32.4743C30.7458 32.2905 30.8494 32.0415 30.8502 31.7816V28.5472L31.2349 28.4478C31.4571 28.3899 31.658 28.2694 31.8137 28.1006C31.9694 27.9319 32.0734 27.7219 32.1132 27.4958C32.2432 26.7532 32.3331 26.0042 32.3825 25.2519V25.2199C32.4878 23.461 32.3639 21.696 32.0138 19.9692C31.8536 19.0748 30.4495 16.8598 30.2444 16.5392L30.145 16.3341C32.3536 16.2764 32.921 14.5294 33.0749 13.7344ZM15.2745 5.79104C15.2896 5.70158 15.3359 5.62035 15.4051 5.56169C15.4743 5.50303 15.562 5.47073 15.6527 5.47049H18.4416C18.5323 5.47073 18.62 5.50303 18.6892 5.56169C18.7584 5.62035 18.8047 5.70158 18.8198 5.79104L19.291 8.17917H19.2237C18.5826 8.14391 17.8902 8.12788 17.0632 8.12468C16.2394 8.12468 15.5534 8.14391 14.9091 8.17917H14.8385L15.2745 5.79104ZM7.51066 10.5705C7.63526 10.3233 7.81368 10.1072 8.0328 9.93797C8.25192 9.76878 8.50616 9.65084 8.77685 9.59282C10.8011 9.16933 12.856 8.90885 14.9219 8.81387C15.563 8.77861 16.2329 8.76258 17.0472 8.75938C17.8614 8.75617 18.5377 8.77861 19.1724 8.81387C21.2373 8.90865 23.2911 9.16913 25.3143 9.59282C25.5837 9.64845 25.8373 9.76369 26.0564 9.9301C26.2755 10.0965 26.4545 10.3098 26.5804 10.5545L28.5871 14.6159L26.5227 15.616C26.0665 15.8357 25.5674 15.9517 25.061 15.9558H9.03329C8.52833 15.9585 8.02907 15.849 7.57156 15.6353L5.50719 14.6159L7.51066 10.5705ZM1.66054 13.6254C1.65282 13.5803 1.65483 13.5341 1.66644 13.4899C1.67805 13.4457 1.69899 13.4044 1.72785 13.369C1.75867 13.3325 1.7977 13.3039 1.84173 13.2856C1.88576 13.2672 1.93352 13.2595 1.98109 13.2632H3.78261C4.02748 13.2627 4.26768 13.3302 4.4765 13.4581C4.68532 13.586 4.85458 13.7693 4.96546 13.9876L5.04559 14.1447L4.28267 15.6866C2.44269 15.7763 1.84325 14.6255 1.66054 13.6254ZM2.64785 20.4083C4.1565 20.8701 5.69873 21.2142 7.26063 21.4373L8.46591 23.0401C7.38564 23.3606 4.45577 23.9665 2.37537 22.5304C2.42773 21.8186 2.51868 21.1102 2.64785 20.4083ZM7.38564 32.1214H4.22497C4.13512 32.1206 4.04917 32.0845 3.98563 32.0209C3.92209 31.9574 3.88602 31.8715 3.88519 31.7816V28.6915C4.98148 28.9255 6.27332 29.1274 7.73184 29.2909V31.7816C7.73185 31.8268 7.72285 31.8715 7.70538 31.9131C7.6879 31.9548 7.6623 31.9925 7.63006 32.0242C7.59783 32.0558 7.55961 32.0807 7.51764 32.0974C7.47568 32.1141 7.4308 32.1222 7.38564 32.1214ZM29.8757 32.1214H26.7087C26.6186 32.1214 26.5321 32.0856 26.4684 32.0219C26.4047 31.9581 26.3689 31.8717 26.3689 31.7816V29.2909C27.8274 29.1274 29.1192 28.9255 30.2155 28.6915V31.7816C30.2151 31.8266 30.2058 31.8712 30.1882 31.9126C30.1706 31.9541 30.145 31.9916 30.1128 32.0232C30.0807 32.0548 30.0426 32.0797 30.0008 32.0965C29.9591 32.1134 29.9144 32.1218 29.8693 32.1214H29.8757ZM31.0746 27.8163C30.924 27.858 30.7541 27.8997 30.597 27.9382C30.5767 27.9363 30.5564 27.9363 30.5361 27.9382C30.4642 27.9386 30.3948 27.9648 30.3406 28.0119C28.9393 28.3133 27.5224 28.537 26.0964 28.6818C26.0804 28.6803 26.0643 28.6803 26.0483 28.6818C26.0043 28.682 25.9608 28.6907 25.9201 28.7075C22.9721 29.0085 20.0105 29.1572 17.0472 29.1531C14.0836 29.153 11.122 29 8.17421 28.6947C8.13368 28.6774 8.09003 28.6687 8.04598 28.669H8.00431C6.57633 28.5277 5.1573 28.3073 3.75376 28.0087C3.69864 27.9629 3.62981 27.937 3.55822 27.935C3.53796 27.9331 3.51758 27.9331 3.49732 27.935C3.33063 27.8965 3.17676 27.8548 3.01648 27.8131C2.91827 27.7866 2.82937 27.7333 2.75974 27.6591C2.6901 27.585 2.64248 27.4929 2.6222 27.3932C2.51642 26.7874 2.4491 26.1879 2.40102 25.5981C7.24686 26.3511 12.1432 26.7326 17.0472 26.7393C21.9554 26.7333 26.856 26.3518 31.7061 25.5981C31.658 26.1847 31.5907 26.7842 31.4817 27.3932C31.4621 27.4956 31.4132 27.59 31.3409 27.6651C31.2687 27.7403 31.1761 27.7928 31.0746 27.8163ZM31.4465 20.3987C31.5751 21.0953 31.666 21.7984 31.7189 22.5048C29.6385 23.9408 26.7087 23.319 25.6284 23.0144L26.8337 21.4117C28.3949 21.1969 29.9371 20.8615 31.4465 20.4083V20.3987ZM31.2958 19.7576C29.7719 20.2344 28.2122 20.5882 26.6317 20.8154C26.5877 20.8197 26.5451 20.833 26.5065 20.8545C26.4679 20.876 26.4341 20.9053 26.4073 20.9404L24.8398 23.008C24.8091 23.048 24.7882 23.0946 24.7788 23.1441C24.7694 23.1936 24.7719 23.2446 24.7859 23.2931C24.8 23.3415 24.8252 23.3859 24.8597 23.4227C24.8941 23.4595 24.9367 23.4876 24.9841 23.5049C26.0881 23.8799 27.2449 24.0757 28.4108 24.0851C29.5814 24.1129 30.7384 23.8298 31.7638 23.2645C31.7863 23.8286 31.7638 24.3896 31.7638 24.9506C26.8953 25.7133 21.975 26.097 17.0472 26.0982C12.122 26.0902 7.20491 25.7 2.34011 24.9314C2.31447 24.3736 2.30806 23.8094 2.34011 23.242C3.36471 23.8097 4.5221 24.0941 5.69311 24.0659C6.85899 24.0565 8.01587 23.8606 9.11984 23.4857C9.16668 23.4681 9.20876 23.4398 9.24272 23.4031C9.27667 23.3663 9.30156 23.3222 9.31538 23.2741C9.32984 23.2258 9.33274 23.1749 9.32382 23.1253C9.31491 23.0757 9.29445 23.029 9.26409 22.9888L7.68696 20.9404C7.6602 20.9053 7.62645 20.876 7.58784 20.8545C7.54922 20.833 7.50658 20.8197 7.46257 20.8154C5.8828 20.5966 4.32311 20.2514 2.79851 19.7832C3.25618 18.7707 3.79206 17.7954 4.40128 16.8662L4.42051 16.8374L5.23152 15.1897L7.3055 16.193C7.84466 16.4533 8.43465 16.5912 9.03329 16.5969H25.061C25.6635 16.5947 26.2579 16.4589 26.8016 16.1994L28.8756 15.1961L29.6866 16.8438L29.7059 16.8726C30.3105 17.8001 30.8421 18.7733 31.2958 19.7832V19.7576ZM29.8245 15.6866L29.0647 14.1447L29.1449 13.9876C29.2558 13.7693 29.425 13.586 29.6338 13.4581C29.8427 13.3302 30.0829 13.2627 30.3277 13.2632H32.1292C32.1731 13.2629 32.2165 13.2723 32.2563 13.2906C32.2962 13.3088 32.3316 13.3356 32.36 13.369C32.3895 13.4042 32.411 13.4453 32.4232 13.4895C32.4353 13.5338 32.4378 13.5801 32.4306 13.6254C32.2511 14.6255 31.6484 15.7763 29.8245 15.6866Z" fill="#FCFCEE" stroke="#FCFCEE" stroke-width="0.3"/>
<path d="M22.3125 20.8159H11.7791C11.6485 20.8156 11.5201 20.849 11.4061 20.9128C11.2922 20.9765 11.1967 21.0686 11.1287 21.1801C11.0607 21.2916 11.0226 21.4187 11.018 21.5492C11.0135 21.6796 11.0426 21.8091 11.1027 21.925L12.0644 23.7811C12.1283 23.9045 12.2249 24.008 12.3436 24.0804C12.4622 24.1527 12.5985 24.1911 12.7375 24.1914H21.354C21.4938 24.191 21.6309 24.1523 21.7501 24.0793C21.8694 24.0064 21.9664 23.9021 22.0304 23.7778L22.9921 21.925C23.0521 21.8091 23.0813 21.6796 23.0767 21.5492C23.0722 21.4187 23.0341 21.2916 22.9661 21.1801C22.8981 21.0686 22.8025 20.9765 22.6886 20.9128C22.5747 20.849 22.4463 20.8156 22.3157 20.8159H22.3125ZM22.4183 21.6301L21.4566 23.4829C21.447 23.5029 21.432 23.5198 21.4133 23.5317C21.3946 23.5436 21.373 23.55 21.3508 23.5503H12.7375C12.7158 23.55 12.6945 23.5439 12.6759 23.5326C12.6573 23.5213 12.642 23.5053 12.6317 23.4861L11.6701 21.6301C11.6603 21.6119 11.6551 21.5915 11.6551 21.5708C11.6551 21.5501 11.6603 21.5297 11.6701 21.5115C11.6813 21.4946 11.6965 21.4808 11.7145 21.4713C11.7324 21.4617 11.7524 21.4569 11.7727 21.457H22.3125C22.3328 21.4569 22.3528 21.4617 22.3707 21.4713C22.3886 21.4808 22.4039 21.4946 22.4151 21.5115C22.4254 21.5295 22.4311 21.5497 22.4316 21.5704C22.4322 21.5911 22.4276 21.6116 22.4183 21.6301Z" fill="#FCFCEE" stroke="#FCFCEE" stroke-width="0.3"/>
<path d="M20.509 4.73637C20.5512 4.73661 20.593 4.72853 20.6321 4.71258C20.6711 4.69662 20.7066 4.67312 20.7366 4.64341L21.4386 3.9414C21.4685 3.91172 21.4923 3.87644 21.5085 3.83759C21.5248 3.79873 21.5332 3.75705 21.5334 3.71493C21.5335 3.67282 21.5254 3.63108 21.5094 3.59211C21.4934 3.55314 21.4699 3.5177 21.4402 3.48781C21.4105 3.45792 21.3753 3.43417 21.3364 3.41792C21.2976 3.40166 21.2559 3.39322 21.2138 3.39307C21.1716 3.39292 21.1299 3.40107 21.0909 3.41705C21.052 3.43303 21.0165 3.45653 20.9866 3.48621L20.2846 4.19143C20.2249 4.25149 20.1914 4.33273 20.1914 4.41742C20.1914 4.5021 20.2249 4.58335 20.2846 4.64341C20.3443 4.70263 20.4249 4.73602 20.509 4.73637Z" fill="#FCFCEE" stroke="#FCFCEE" stroke-width="0.3"/>
<path d="M22.2561 7.14746H23.253C23.338 7.14746 23.4196 7.11368 23.4797 7.05357C23.5398 6.99345 23.5736 6.91192 23.5736 6.8269C23.5736 6.74189 23.5398 6.66035 23.4797 6.60024C23.4196 6.54012 23.338 6.50635 23.253 6.50635H22.2561C22.1711 6.50635 22.0896 6.54012 22.0294 6.60024C21.9693 6.66035 21.9355 6.74189 21.9355 6.8269C21.9355 6.91192 21.9693 6.99345 22.0294 7.05357C22.0896 7.11368 22.1711 7.14746 22.2561 7.14746Z" fill="#FCFCEE" stroke="#FCFCEE" stroke-width="0.3"/>
<path d="M10.842 7.14746H11.839C11.924 7.14746 12.0055 7.11368 12.0656 7.05357C12.1257 6.99345 12.1595 6.91192 12.1595 6.8269C12.1595 6.74189 12.1257 6.66035 12.0656 6.60024C12.0055 6.54012 11.924 6.50635 11.839 6.50635H10.842C10.757 6.50635 10.6755 6.54012 10.6154 6.60024C10.5553 6.66035 10.5215 6.74189 10.5215 6.8269C10.5215 6.91192 10.5553 6.99345 10.6154 7.05357C10.6755 7.11368 10.757 7.14746 10.842 7.14746Z" fill="#FCFCEE" stroke="#FCFCEE" stroke-width="0.3"/>
<path d="M13.3581 4.64356C13.4181 4.70327 13.4994 4.73678 13.5841 4.73678C13.6688 4.73678 13.75 4.70327 13.8101 4.64356C13.8698 4.5835 13.9033 4.50226 13.9033 4.41757C13.9033 4.33289 13.8698 4.25164 13.8101 4.19158L13.1081 3.48636C13.0782 3.45647 13.0427 3.43277 13.0036 3.41659C12.9646 3.40042 12.9227 3.39209 12.8805 3.39209C12.8382 3.39209 12.7963 3.40042 12.7573 3.41659C12.7182 3.43277 12.6828 3.45647 12.6529 3.48636C12.623 3.51625 12.5993 3.55173 12.5831 3.59078C12.5669 3.62983 12.5586 3.67169 12.5586 3.71396C12.5586 3.75622 12.5669 3.79808 12.5831 3.83713C12.5993 3.87618 12.623 3.91166 12.6529 3.94155L13.3581 4.64356Z" fill="#FCFCEE" stroke="#FCFCEE" stroke-width="0.3"/>
</svg>
