<svg width="35" height="35" viewBox="0 0 35 35" fill="none" xmlns="http://www.w3.org/2000/svg">
<g clip-path="url(#clip0)">
<path d="M1.91871 33.1093C1.69827 33.1093 1.51953 33.288 1.51953 33.5084C1.51953 33.7289 1.69827 33.9076 1.91871 33.9076H33.0548C33.2753 33.9076 33.454 33.7289 33.454 33.5084C33.454 33.288 33.2753 33.1093 33.0548 33.1093H30.6761V30.0875C32.24 29.9042 33.454 28.6736 33.454 27.1841C33.454 26.5809 33.2511 25.9928 32.8777 25.5022C32.9831 25.2291 33.0365 24.9446 33.0365 24.6536C33.0365 24.1283 32.8601 23.6174 32.535 23.1902C32.6147 22.9682 32.6549 22.738 32.6549 22.5029C32.6549 21.2884 31.5866 20.3002 30.2732 20.3002C28.9601 20.3002 27.8918 21.2884 27.8918 22.5029C27.8918 22.738 27.9319 22.9682 28.0115 23.19C27.6864 23.6174 27.51 24.1283 27.51 24.6536C27.51 24.9446 27.5634 25.2291 27.6688 25.5022C27.2954 25.9928 27.0925 26.5809 27.0925 27.1841C27.0925 28.676 28.3103 29.9083 29.8778 30.0885V33.1093H25.7253V10.7122H25.7762C25.9967 10.7122 26.1754 10.5335 26.1754 10.3131V7.81175C26.1754 7.59131 25.9967 7.41257 25.7762 7.41257H25.6923L25.1024 3.17459C25.0751 2.97714 24.9063 2.83037 24.7071 2.83037H21.6932V2.37233C21.6932 2.15188 21.5144 1.97314 21.294 1.97314H18.8018C18.5814 1.97314 18.4027 2.15188 18.4027 2.37233V2.83037H10.2664C10.0672 2.83037 9.89843 2.97714 9.87115 3.17459L9.28129 7.41257H9.19733C8.97689 7.41257 8.79815 7.59131 8.79815 7.81175V10.3131C8.79815 10.5335 8.97689 10.7122 9.19733 10.7122H9.24821V33.1093H5.09189V30.0873C6.64951 29.9034 7.85848 28.6731 7.85848 27.1841C7.85848 26.5811 7.65616 25.993 7.28427 25.5024C7.38952 25.2293 7.44273 24.9448 7.44273 24.6536C7.44273 24.1285 7.26692 23.6176 6.94317 23.1904C7.0223 22.9685 7.06246 22.7382 7.06246 22.5029C7.06246 21.2884 5.99765 20.3002 4.68901 20.3002C3.38036 20.3002 2.31555 21.2884 2.31555 22.5029C2.31555 22.7382 2.35571 22.9684 2.43504 23.1904C2.11109 23.6176 1.93528 24.1283 1.93528 24.6536C1.93528 24.9448 1.98849 25.2293 2.09374 25.5024C1.72185 25.993 1.51953 26.5811 1.51953 27.1841C1.51953 28.6755 2.73228 29.9075 4.29353 30.0883V33.1093H1.91871ZM27.8908 27.1841C27.8908 26.6871 28.077 26.2209 28.4294 25.8359C28.5422 25.7125 28.5662 25.5318 28.4896 25.3831C28.3693 25.1504 28.3083 24.905 28.3083 24.6536C28.3083 24.2452 28.4711 23.847 28.7666 23.532C28.8816 23.4094 28.9075 23.2278 28.8311 23.0779C28.7375 22.8941 28.6902 22.7007 28.6902 22.5029C28.6902 21.7285 29.4004 21.0986 30.2732 21.0986C31.1462 21.0986 31.8565 21.7285 31.8565 22.5029C31.8565 22.7003 31.809 22.8939 31.7154 23.0779C31.639 23.2278 31.6649 23.4094 31.7799 23.532C32.0754 23.847 32.2381 24.2452 32.2381 24.6536C32.2381 24.905 32.1771 25.1504 32.0569 25.3831C31.9803 25.5318 32.0043 25.7125 32.1171 25.8359C32.4695 26.2209 32.6557 26.6871 32.6557 27.1841C32.6557 28.3592 31.5869 29.3153 30.2732 29.3153C28.9595 29.3153 27.8908 28.3592 27.8908 27.1841ZM2.31789 27.1841C2.31789 26.6867 2.50345 26.2203 2.85449 25.8353C2.96676 25.7119 2.99073 25.5318 2.91433 25.3835C2.79445 25.1508 2.73364 24.9052 2.73364 24.6536C2.73364 24.245 2.89581 23.8464 3.19013 23.5315C3.30474 23.409 3.33046 23.228 3.25445 23.0785C3.16128 22.8945 3.11392 22.7007 3.11392 22.5029C3.11392 21.7285 3.82047 21.0986 4.68901 21.0986C5.55754 21.0986 6.26409 21.7285 6.26409 22.5029C6.26409 22.7011 6.21693 22.8947 6.12356 23.0785C6.04774 23.228 6.07347 23.4089 6.18788 23.5315C6.4822 23.8466 6.64437 24.245 6.64437 24.6536C6.64437 24.9052 6.58356 25.1508 6.46368 25.3835C6.38728 25.5318 6.41125 25.7119 6.52352 25.8353C6.87456 26.2203 7.06012 26.6867 7.06012 27.1841C7.06012 28.3592 5.99648 29.3153 4.68901 29.3153C3.38153 29.3153 2.31789 28.3592 2.31789 27.1841ZM19.6906 33.1093H15.2829V27.9989C15.2829 26.7836 16.2715 25.795 17.4868 25.795C18.7021 25.795 19.6906 26.7836 19.6906 27.9989V33.1093ZM9.59651 9.91388V8.21093H25.377V9.91388H9.59651ZM24.3596 3.62873L24.8864 7.41257H21.6932V3.62873H24.3596ZM20.8948 2.77151V7.41257H19.201V2.77151H20.8948ZM10.614 3.62873H18.4027V7.41257H10.0872L10.614 3.62873ZM10.0466 10.7122H24.927V33.1093H20.489V27.9989C20.489 26.3435 19.1422 24.9966 17.4868 24.9966C15.8314 24.9966 14.4845 26.3435 14.4845 27.9989V33.1093H10.0466V10.7122Z" fill="#FCFCEE" stroke="#FCFCEE" stroke-width="0.2"/>
<path d="M12.7703 17.0676H15.9548C16.1752 17.0676 16.3539 16.8888 16.3539 16.6684V14.2893C16.3539 13.1911 15.4607 12.2979 14.3625 12.2979C13.2644 12.2979 12.3711 13.1911 12.3711 14.2893V16.6684C12.3711 16.8888 12.5498 17.0676 12.7703 17.0676ZM13.1695 14.2893C13.1695 13.6314 13.7047 13.0962 14.3625 13.0962C15.0203 13.0962 15.5556 13.6314 15.5556 14.2893V16.2692H13.1695V14.2893Z" fill="#FCFCEE" stroke="#FCFCEE" stroke-width="0.2"/>
<path d="M19.0164 17.0676H22.2009C22.4213 17.0676 22.6 16.8888 22.6 16.6684V14.2893C22.6 13.1911 21.7067 12.2979 20.6086 12.2979C19.5105 12.2979 18.6172 13.1911 18.6172 14.2893V16.6684C18.6172 16.8888 18.7959 17.0676 19.0164 17.0676ZM19.4155 14.2893C19.4155 13.6314 19.9508 13.0962 20.6086 13.0962C21.2664 13.0962 21.8017 13.6314 21.8017 14.2893V16.2692H19.4155V14.2893Z" fill="#FCFCEE" stroke="#FCFCEE" stroke-width="0.2"/>
<path d="M15.9548 23.4836C16.1752 23.4836 16.3539 23.3048 16.3539 23.0844V20.7053C16.3539 19.6072 15.4607 18.7139 14.3625 18.7139C13.2644 18.7139 12.3711 19.6072 12.3711 20.7053V23.0844C12.3711 23.3048 12.5498 23.4836 12.7703 23.4836H15.9548ZM13.1695 20.7053C13.1695 20.0475 13.7047 19.5122 14.3625 19.5122C15.0203 19.5122 15.5556 20.0475 15.5556 20.7053V22.6852H13.1695V20.7053Z" fill="#FCFCEE" stroke="#FCFCEE" stroke-width="0.2"/>
<path d="M19.0164 23.4836H22.2009C22.4213 23.4836 22.6 23.3048 22.6 23.0844V20.7053C22.6 19.6072 21.7067 18.7139 20.6086 18.7139C19.5105 18.7139 18.6172 19.6072 18.6172 20.7053V23.0844C18.6172 23.3048 18.7959 23.4836 19.0164 23.4836ZM19.4155 20.7053C19.4155 20.0475 19.9508 19.5122 20.6086 19.5122C21.2664 19.5122 21.8017 20.0475 21.8017 20.7053V22.6852H19.4155V20.7053Z" fill="#FCFCEE" stroke="#FCFCEE" stroke-width="0.2"/>
</g>
<defs>
<clipPath id="clip0">
<rect width="34" height="34" fill="white" transform="translate(0.5 0.951172)"/>
</clipPath>
</defs>
</svg>
