<svg width="35" height="35" viewBox="0 0 35 35" fill="none" xmlns="http://www.w3.org/2000/svg">
<path d="M14.5775 26.7952C14.4274 26.7955 14.2779 26.7763 14.1327 26.7382C13.4077 26.5443 12.9299 25.8919 12.5086 25.3162C12.2761 24.9419 11.9755 24.6146 11.6223 24.3513C11.2107 24.1719 10.7689 24.0718 10.3201 24.0563C9.58501 23.9741 8.82185 23.8895 8.30128 23.3671C7.78071 22.8447 7.69571 22.0848 7.61209 21.3483C7.59668 20.8996 7.49693 20.4579 7.31804 20.0462C7.0544 19.6932 6.72717 19.3927 6.35317 19.1599C5.77701 18.7385 5.12458 18.2602 4.93115 17.5357C4.74507 16.8396 5.04831 16.1458 5.34236 15.475C5.557 15.0683 5.69381 14.6252 5.74577 14.1683C5.69381 13.7114 5.557 13.2683 5.34236 12.8616C5.04831 12.1908 4.74507 11.4975 4.93115 10.8014C5.12458 10.0764 5.77701 9.59851 6.35271 9.17719C6.72671 8.94441 7.05394 8.64382 7.31758 8.29089C7.49658 7.87918 7.59649 7.43746 7.61209 6.98878C7.69433 6.25365 7.77934 5.49095 8.30128 4.97038C8.82323 4.44981 9.58409 4.36481 10.3201 4.28119C10.7689 4.26574 11.2107 4.16567 11.6223 3.98622C11.9756 3.72288 12.2764 3.3956 12.509 3.02135C12.9303 2.44565 13.4082 1.79322 14.1327 1.59979C14.8284 1.41324 15.5226 1.71695 16.1934 2.011C16.5997 2.22686 17.0427 2.36492 17.4997 2.41808C17.9565 2.36612 18.3997 2.22931 18.8064 2.01468C19.4772 1.72108 20.1723 1.41738 20.8666 1.60346C21.5916 1.79689 22.0694 2.44979 22.4908 3.02779C22.7235 3.40184 23.0241 3.72909 23.3771 3.99265C23.7887 4.17193 24.2305 4.27185 24.6792 4.28716C25.4143 4.36941 26.1775 4.45441 26.698 4.97635C27.2186 5.4983 27.3036 6.2587 27.3872 6.99522C27.4027 7.44385 27.5025 7.88556 27.6813 8.29733C27.945 8.65001 28.2723 8.95043 28.6461 9.18316C29.2223 9.60495 29.8747 10.0828 30.0682 10.8078C30.2543 11.5039 29.951 12.1977 29.657 12.8685C29.4423 13.275 29.3055 13.718 29.2536 14.1747C29.3055 14.6316 29.4423 15.0748 29.657 15.4814C29.951 16.1522 30.2543 16.8456 30.0682 17.5417C29.8747 18.2667 29.2223 18.7445 28.6466 19.1663C28.2725 19.3989 27.9452 19.6995 27.6817 20.0526C27.5027 20.4643 27.4028 20.906 27.3872 21.3547C27.305 22.0898 27.22 22.8525 26.698 23.3731C26.1761 23.8937 25.4152 23.9787 24.6792 24.0623C24.2305 24.0776 23.7887 24.1775 23.3771 24.3568C23.0237 24.6201 22.7229 24.9474 22.4903 25.3217C22.069 25.8974 21.5911 26.5498 20.8666 26.7432C20.17 26.927 19.4767 26.6261 18.8059 26.3325C18.3998 26.116 17.9567 25.9773 17.4997 25.9236C17.0428 25.9755 16.5996 26.1123 16.193 26.327C15.6915 26.5903 15.142 26.7496 14.5775 26.7952ZM17.4997 25.0033C18.0849 25.0474 18.6549 25.2107 19.1748 25.4829C19.7262 25.7237 20.2431 25.9511 20.6295 25.8505C21.043 25.7402 21.3853 25.2707 21.7497 24.7735C22.0516 24.2915 22.4489 23.8762 22.9171 23.5532C23.4368 23.3039 24.0018 23.1632 24.5776 23.1397C25.1837 23.0722 25.7557 23.0083 26.0479 22.7156C26.3401 22.4229 26.4049 21.8505 26.472 21.2454C26.4952 20.6695 26.6359 20.1044 26.8855 19.5849C27.2078 19.117 27.6221 18.7198 28.1031 18.4174C28.6002 18.0535 29.0679 17.7094 29.1805 17.2972C29.283 16.9122 29.0555 16.3925 28.8129 15.8426C28.5403 15.3227 28.3768 14.7527 28.3323 14.1674C28.3765 13.5822 28.5401 13.0122 28.8129 12.4927C29.0537 11.9413 29.2811 11.423 29.1782 11.0375C29.0684 10.624 28.5984 10.2813 28.1008 9.91738C27.6198 9.61498 27.2055 9.21774 26.8832 8.74989C26.6337 8.23052 26.4929 7.66561 26.4697 7.08987C26.4021 6.48384 26.3383 5.91181 26.0451 5.6196C25.752 5.32738 25.1804 5.26306 24.5749 5.19551C23.999 5.17203 23.434 5.03132 22.9144 4.782C22.4478 4.46006 22.0515 4.04659 21.7497 3.56673C21.3853 3.0696 21.0416 2.60187 20.6295 2.48976C20.2458 2.3873 19.7248 2.61427 19.1748 2.85733C18.655 3.12965 18.0849 3.29288 17.4997 3.337C16.9142 3.29202 16.3442 3.12785 15.8245 2.85457C15.2731 2.61381 14.7544 2.38638 14.3698 2.4893C13.9563 2.59911 13.614 3.06914 13.2497 3.56627C12.9474 4.04756 12.5501 4.46217 12.0822 4.78476C11.5626 5.03408 10.9975 5.17479 10.4217 5.19827C9.81566 5.26581 9.24363 5.32922 8.95142 5.62235C8.6592 5.91549 8.59488 6.48706 8.52734 7.09262C8.50412 7.66866 8.3634 8.23388 8.11382 8.75357C7.7915 9.22141 7.37721 9.61866 6.89625 9.92105C6.39866 10.2849 5.92909 10.6291 5.81882 11.0408C5.71636 11.4258 5.94379 11.9454 6.18639 12.4954C6.45897 13.0153 6.62251 13.5853 6.66698 14.1706C6.62273 14.7559 6.45918 15.326 6.18639 15.8458C5.94563 16.3971 5.7182 16.9154 5.82112 17.3009C5.93093 17.7144 6.40096 18.0567 6.89855 18.4211C7.37943 18.7234 7.7937 19.1204 8.11612 19.5881C8.36566 20.1076 8.50638 20.6727 8.52963 21.2486C8.59717 21.8546 8.66104 22.4266 8.95417 22.7188C9.24731 23.0111 9.81888 23.0754 10.4244 23.1429C11.0003 23.1666 11.5652 23.3073 12.0849 23.5564C12.5526 23.879 12.9496 24.2935 13.252 24.7745C13.6163 25.2716 13.96 25.7393 14.3721 25.8514C14.7571 25.9548 15.2763 25.7269 15.8268 25.4839C16.346 25.2121 16.9152 25.049 17.4997 25.0046V25.0033Z" fill="#FEFEFE"/>
<path d="M17.5003 22.9899C15.7556 22.9899 14.05 22.4725 12.5993 21.5032C11.1486 20.5339 10.0179 19.1561 9.35022 17.5442C8.68253 15.9323 8.50784 14.1585 8.84822 12.4473C9.1886 10.7361 10.0288 9.1642 11.2625 7.93048C12.4962 6.69675 14.0681 5.85657 15.7793 5.51619C17.4906 5.1758 19.2643 5.3505 20.8762 6.01819C22.4882 6.68588 23.8659 7.81657 24.8352 9.26727C25.8046 10.718 26.322 12.4236 26.322 14.1683C26.3196 16.5072 25.3895 18.7497 23.7356 20.4036C22.0817 22.0575 19.8393 22.9876 17.5003 22.9899ZM17.5003 6.26836C15.9373 6.26836 14.4094 6.73184 13.1098 7.6002C11.8102 8.46856 10.7973 9.7028 10.1992 11.1468C9.60105 12.5909 9.44455 14.1798 9.74948 15.7128C10.0544 17.2458 10.8071 18.6539 11.9123 19.7591C13.0175 20.8643 14.4256 21.617 15.9586 21.9219C17.4916 22.2268 19.0805 22.0703 20.5246 21.4722C21.9686 20.8741 23.2028 19.8612 24.0712 18.5616C24.9396 17.262 25.403 15.7341 25.403 14.1711C25.401 12.0758 24.5677 10.0669 23.0861 8.58529C21.6045 7.1037 19.5956 6.27043 17.5003 6.26836Z" fill="#FEFEFE"/>
<path d="M20.1526 18.2112C20.0782 18.2111 20.0048 18.193 19.9389 18.1584L17.4997 16.876L15.0604 18.1584C14.9843 18.1984 14.8986 18.2164 14.8128 18.2102C14.727 18.2039 14.6447 18.1737 14.5753 18.123C14.5058 18.0723 14.452 18.0032 14.4199 17.9234C14.3878 17.8436 14.3787 17.7565 14.3937 17.6718L14.8596 14.955L12.8839 13.0317C12.8225 12.9718 12.7791 12.896 12.7585 12.8127C12.7379 12.7294 12.7411 12.642 12.7677 12.5605C12.7942 12.4789 12.843 12.4064 12.9087 12.3511C12.9743 12.2959 13.054 12.2601 13.1389 12.2479L15.8658 11.8514L17.0862 9.38222C17.1284 9.31057 17.1886 9.25119 17.2608 9.20993C17.333 9.16867 17.4147 9.14697 17.4978 9.14697C17.581 9.14697 17.6627 9.16867 17.7349 9.20993C17.8071 9.25119 17.8673 9.31057 17.9095 9.38222L19.1298 11.8536L21.8567 12.2502C21.9416 12.2624 22.0214 12.2982 22.087 12.3534C22.1526 12.4087 22.2015 12.4812 22.228 12.5628C22.2546 12.6443 22.2577 12.7317 22.2372 12.815C22.2166 12.8983 22.1732 12.9741 22.1117 13.034L20.1361 14.9573L20.6056 17.6718C20.6169 17.7377 20.6137 17.8054 20.5961 17.87C20.5786 17.9345 20.5471 17.9945 20.504 18.0457C20.4608 18.0968 20.407 18.1379 20.3463 18.1661C20.2856 18.1943 20.2195 18.2089 20.1526 18.2089V18.2112ZM17.4997 15.8974C17.5743 15.8973 17.6478 15.9155 17.7138 15.9502L19.5424 16.9118L19.1937 14.8746C19.1811 14.8012 19.1865 14.7258 19.2095 14.655C19.2324 14.5842 19.2723 14.52 19.3256 14.468L20.805 13.0257L18.7604 12.7285C18.6867 12.7177 18.6166 12.6892 18.5563 12.6453C18.4961 12.6014 18.4474 12.5436 18.4145 12.4767L17.4997 10.6237L16.5849 12.4767C16.552 12.5436 16.5033 12.6014 16.443 12.6453C16.3827 12.6892 16.3127 12.7177 16.2389 12.7285L14.1943 13.0257L15.6738 14.468C15.7271 14.52 15.7669 14.5842 15.7899 14.655C15.8129 14.7258 15.8183 14.8012 15.8057 14.8746L15.4569 16.9118L17.2856 15.9502C17.3516 15.9155 17.4251 15.8973 17.4997 15.8974Z" fill="#FEFEFE"/>
<path d="M21.0607 33.7072C21.0469 33.7072 21.0326 33.7072 21.0189 33.7072C20.9327 33.6993 20.8505 33.6673 20.7817 33.6148C20.713 33.5623 20.6604 33.4914 20.6302 33.4104L17.7755 25.7586C17.7562 25.7073 17.7462 25.653 17.7461 25.5982C17.7447 25.4864 17.7841 25.3778 17.8569 25.2929C17.9298 25.2081 18.0311 25.1527 18.1419 25.1372C18.2527 25.1217 18.3653 25.1471 18.4586 25.2087C18.552 25.2703 18.6197 25.3639 18.649 25.4719L21.1572 32.191L22.9895 29.1255C23.043 29.036 23.1254 28.9673 23.2231 28.9308C23.3208 28.8944 23.428 28.8922 23.5271 28.9247L26.9271 30.0393L24.5613 23.7135C24.5217 23.6001 24.5281 23.4757 24.5791 23.3669C24.6301 23.2581 24.7217 23.1737 24.8342 23.1316C24.9467 23.0896 25.0713 23.0932 25.1811 23.1419C25.291 23.1905 25.3774 23.2803 25.4219 23.3919L28.1212 30.6137C28.1514 30.6947 28.1582 30.7826 28.1407 30.8673C28.1231 30.9521 28.0821 31.0301 28.0222 31.0925C27.9623 31.1549 27.886 31.1991 27.802 31.2201C27.7181 31.241 27.63 31.2379 27.5478 31.211L23.59 29.913L21.4549 33.4839C21.4141 33.552 21.3563 33.6084 21.2872 33.6475C21.2181 33.6867 21.1401 33.7072 21.0607 33.7072Z" fill="#FEFEFE"/>
<path d="M13.9391 33.7072C13.8597 33.7071 13.7816 33.6865 13.7125 33.6473C13.6434 33.6081 13.5857 33.5516 13.5449 33.4834L11.4098 29.9125L7.45201 31.2105C7.3698 31.2374 7.28167 31.2405 7.19775 31.2196C7.11383 31.1986 7.03752 31.1544 6.97762 31.092C6.91772 31.0296 6.87664 30.9516 6.85913 30.8669C6.84161 30.7821 6.84836 30.6942 6.87861 30.6132L9.57793 23.3914C9.62241 23.2798 9.70883 23.1901 9.81868 23.1414C9.92852 23.0928 10.0531 23.0891 10.1656 23.1311C10.2781 23.1732 10.3697 23.2576 10.4207 23.3664C10.4717 23.4752 10.4781 23.5996 10.4385 23.713L8.07366 30.0398L11.4737 28.9251C11.5728 28.8926 11.68 28.8948 11.7776 28.9313C11.8753 28.9678 11.9577 29.0364 12.0112 29.1259L13.8426 32.191L16.3632 25.4369C16.3834 25.3792 16.4149 25.326 16.4559 25.2806C16.4969 25.2352 16.5465 25.1984 16.6019 25.1724C16.6573 25.1465 16.7173 25.1318 16.7784 25.1293C16.8395 25.1268 16.9005 25.1366 16.9578 25.158C17.0151 25.1794 17.0676 25.2121 17.1121 25.254C17.1566 25.296 17.1923 25.3464 17.2171 25.4023C17.2419 25.4583 17.2552 25.5186 17.2564 25.5798C17.2575 25.6409 17.2464 25.7017 17.2238 25.7585L14.3696 33.4085C14.3394 33.4896 14.2868 33.5604 14.2181 33.6129C14.1493 33.6655 14.0671 33.6975 13.9809 33.7053C13.9671 33.7072 13.9529 33.7072 13.9391 33.7072Z" fill="#FEFEFE"/>
</svg>
