<svg width="34" height="35" viewBox="0 0 34 35" fill="none" xmlns="http://www.w3.org/2000/svg">
<path d="M31.7387 14.3152H30.8273V11.6813C30.8273 11.1388 30.436 10.6974 29.9555 10.6974H27.6746V9.86379C27.6746 9.2409 27.2254 8.73438 26.6731 8.73438H23.2142C22.662 8.73438 22.2127 9.24126 22.2127 9.86379V14.1505H11.7886V9.86379C11.7886 9.2409 11.3393 8.73438 10.787 8.73438H7.32817C6.77588 8.73438 6.32664 9.24126 6.32664 9.86379V10.6974H4.04582C3.56488 10.6974 3.17399 11.1391 3.17399 11.6813V14.3152H2.26253C1.44978 14.3152 0.789062 15.0609 0.789062 15.9771V18.5735C0.789062 19.49 1.45014 20.2354 2.26253 20.2354H3.17399V23.1265C3.17399 23.669 3.56524 24.11 4.04582 24.11H6.327V24.9436C6.327 25.5665 6.77625 26.073 7.32853 26.073H10.7874C11.3397 26.073 11.7889 25.5661 11.7889 24.9436V20.6576H22.2134V24.9436C22.2134 25.5665 22.6627 26.073 23.215 26.073H26.6738C27.2261 26.073 27.6754 25.5661 27.6754 24.9436V24.11H29.9562C30.4371 24.11 30.828 23.669 30.828 23.1265V20.2354H31.7395C32.5522 20.2354 33.2133 19.4896 33.2133 18.5735V15.9771C33.2126 15.0606 32.5515 14.3152 31.7387 14.3152ZM3.17399 19.0515H2.26253C2.02872 19.0515 1.8385 18.8372 1.8385 18.5735V15.9771C1.8385 15.7134 2.02872 15.499 2.26253 15.499H3.17399V19.0515ZM4.22343 22.9261V11.8813H6.327V14.1502V20.6572V22.9258H4.22343V22.9261ZM10.7391 24.8889H7.3768V23.1265V19.4734V15.3344V11.6813V9.91819H10.7391V24.8889ZM22.2131 19.4734H11.7886V15.3344H22.2131V19.4734ZM26.6252 24.8889H23.2625V9.91855H26.6252V11.6817V23.1268V24.8889ZM29.7778 22.9261H27.6746V11.8813H29.7778V22.9261ZM32.1631 18.5735C32.1631 18.8372 31.9729 19.0515 31.7391 19.0515H30.8276V15.499H31.7391C31.9729 15.499 32.1631 15.7134 32.1631 15.9771V18.5735Z" fill="#FCFCEE"/>
</svg>
