<svg width="35" height="35" viewBox="0 0 35 35" fill="none" xmlns="http://www.w3.org/2000/svg">
<path d="M33.1672 31.6615H30.2829V22.2228H31.387C31.4757 22.2228 31.5608 22.1875 31.6235 22.1248C31.6862 22.0621 31.7215 21.977 31.7215 21.8883V19.2305C31.7215 19.1418 31.6862 19.0568 31.6235 18.994C31.5608 18.9313 31.4757 18.8961 31.387 18.8961H28.9786L28.3444 12.89C28.3358 12.8078 28.2971 12.7317 28.2357 12.6763C28.1743 12.621 28.0946 12.5903 28.0119 12.5903H25.6872C25.6046 12.5903 25.5249 12.621 25.4635 12.6763C25.4021 12.7317 25.3633 12.8078 25.3548 12.89L24.7245 18.8961H22.2375L21.5968 10.4632C21.5904 10.3793 21.5525 10.3008 21.4907 10.2435C21.429 10.1863 21.3479 10.1544 21.2637 10.1543H18.494C18.4097 10.1544 18.3285 10.1862 18.2666 10.2435C18.2048 10.3008 18.1668 10.3792 18.1602 10.4632L17.5195 18.8961H14.967L14.4736 8.35193C14.4695 8.26598 14.4325 8.1849 14.3702 8.12554C14.3079 8.06618 14.2252 8.03311 14.1391 8.0332H9.49239C9.40635 8.03311 9.32358 8.06618 9.26129 8.12554C9.19901 8.1849 9.162 8.26598 9.15795 8.35193L8.6082 20.0964H3.66368C3.57499 20.0964 3.48992 20.1316 3.4272 20.1943C3.36448 20.2571 3.32925 20.3421 3.32925 20.4308V31.6615H1.88353C1.8373 31.6574 1.79072 31.663 1.74676 31.6779C1.7028 31.6927 1.66241 31.7166 1.62818 31.7479C1.59394 31.7793 1.5666 31.8174 1.5479 31.8599C1.52919 31.9023 1.51953 31.9482 1.51953 31.9946C1.51953 32.0411 1.52919 32.087 1.5479 32.1294C1.5666 32.1719 1.59394 32.21 1.62818 32.2414C1.66241 32.2727 1.7028 32.2966 1.74676 32.3114C1.79072 32.3263 1.8373 32.3319 1.88353 32.3278H3.55504C3.62526 32.3531 3.7021 32.3531 3.77232 32.3278H8.27704C8.31189 32.3403 8.34864 32.3467 8.38568 32.3468H15.2471C15.2842 32.3467 15.3209 32.3403 15.3558 32.3278H33.1672C33.2559 32.3278 33.3409 32.2925 33.4037 32.2298C33.4664 32.1671 33.5016 32.082 33.5016 31.9933C33.5016 31.9046 33.4664 31.8196 33.4037 31.7569C33.3409 31.6941 33.2559 31.6589 33.1672 31.6589V31.6615ZM29.6141 31.6615H26.9072V28.9579C26.9073 28.914 26.8987 28.8704 26.8819 28.8298C26.8651 28.7892 26.8405 28.7523 26.8094 28.7212C26.7783 28.6902 26.7414 28.6655 26.7008 28.6488C26.6602 28.632 26.6167 28.6234 26.5727 28.6235H18.1065C18.0626 28.6235 18.0191 28.6321 17.9785 28.6489C17.938 28.6657 17.9011 28.6904 17.87 28.7214C17.839 28.7525 17.8143 28.7894 17.7975 28.8299C17.7807 28.8705 17.7721 28.914 17.7721 28.9579V31.6615H15.5652L15.1241 22.2228H29.6141V31.6615ZM8.32547 26.1463H6.58065V23.6979H8.44L8.32547 26.1463ZM5.91179 26.1463H3.99812V23.6979H5.91179V26.1463ZM3.99812 26.8152H5.91179V29.0587H3.99812V26.8152ZM6.58065 26.8152H8.29733L8.19196 29.0587H6.58065V26.8152ZM8.15793 29.7276L8.06695 31.6615H6.58065V29.7276H8.15793ZM8.73648 31.6615L9.69135 11.2663H13.9415L14.8957 31.6615H8.73648ZM25.9883 13.2578H27.7109L28.3045 18.8961H25.3947L25.9883 13.2578ZM18.8035 10.8232H20.9508L21.5641 18.8961H18.1903L18.8035 10.8232ZM17.8297 19.5656H31.05V21.5545H15.0927L14.9998 19.5656H17.8297ZM13.8217 8.70142L13.9101 10.5994H9.72145L9.80981 8.70142H13.8217ZM8.47142 23.0291H6.58065V20.7653H8.57744L8.47142 23.0291ZM5.91179 20.7653V23.0291H3.99812V20.7653H5.91179ZM3.99812 29.7276H5.91179V31.6615H3.99812V29.7276ZM18.4416 31.6615V29.2923H26.2383V31.6615H18.4416Z" fill="#FCFCEE" stroke="#FCFCEE" stroke-width="0.3"/>
<path d="M18.1041 25.1C18.1928 25.1 18.2779 25.0647 18.3407 25.002C18.4034 24.9393 18.4386 24.8542 18.4386 24.7654V23.6773C18.4386 23.5886 18.4034 23.5035 18.3407 23.4408C18.2779 23.378 18.1928 23.3428 18.1041 23.3428C18.0154 23.3428 17.9303 23.378 17.8675 23.4408C17.8048 23.5035 17.7695 23.5886 17.7695 23.6773V24.7654C17.7695 24.8094 17.7782 24.8529 17.795 24.8935C17.8118 24.9341 17.8365 24.9709 17.8675 25.002C17.8986 25.0331 17.9355 25.0577 17.9761 25.0745C18.0166 25.0913 18.0602 25.1 18.1041 25.1Z" fill="#FCFCEE" stroke="#FCFCEE" stroke-width="0.3"/>
<path d="M20.9283 25.1C21.017 25.1 21.1021 25.0647 21.1649 25.002C21.2276 24.9393 21.2629 24.8542 21.2629 24.7654V23.6773C21.2629 23.5886 21.2276 23.5035 21.1649 23.4408C21.1021 23.378 21.017 23.3428 20.9283 23.3428C20.8396 23.3428 20.7545 23.378 20.6917 23.4408C20.629 23.5035 20.5938 23.5886 20.5938 23.6773V24.7654C20.5938 24.8094 20.6024 24.8529 20.6192 24.8935C20.636 24.9341 20.6607 24.9709 20.6917 25.002C20.7228 25.0331 20.7597 25.0577 20.8003 25.0745C20.8409 25.0913 20.8844 25.1 20.9283 25.1Z" fill="#FCFCEE" stroke="#FCFCEE" stroke-width="0.3"/>
<path d="M23.7525 25.1C23.7965 25.1001 23.84 25.0915 23.8807 25.0747C23.9213 25.0579 23.9582 25.0333 23.9893 25.0022C24.0204 24.9711 24.045 24.9342 24.0618 24.8936C24.0786 24.8529 24.0872 24.8094 24.0871 24.7654V23.6773C24.0871 23.5886 24.0518 23.5035 23.9891 23.4408C23.9263 23.378 23.8413 23.3428 23.7525 23.3428C23.6638 23.3428 23.5787 23.378 23.516 23.4408C23.4532 23.5035 23.418 23.5886 23.418 23.6773V24.7654C23.418 24.8542 23.4532 24.9393 23.516 25.002C23.5787 25.0647 23.6638 25.1 23.7525 25.1Z" fill="#FCFCEE" stroke="#FCFCEE" stroke-width="0.3"/>
<path d="M26.5728 25.1C26.6168 25.1001 26.6603 25.0915 26.701 25.0747C26.7416 25.0579 26.7785 25.0333 26.8096 25.0022C26.8407 24.9711 26.8653 24.9342 26.8821 24.8936C26.8989 24.8529 26.9075 24.8094 26.9074 24.7654V23.6773C26.9074 23.5886 26.8721 23.5035 26.8094 23.4408C26.7467 23.378 26.6616 23.3428 26.5728 23.3428C26.4841 23.3428 26.399 23.378 26.3363 23.4408C26.2735 23.5035 26.2383 23.5886 26.2383 23.6773V24.7654C26.2383 24.8542 26.2735 24.9393 26.3363 25.002C26.399 25.0647 26.4841 25.1 26.5728 25.1Z" fill="#FCFCEE" stroke="#FCFCEE" stroke-width="0.3"/>
<path d="M18.1073 27.8207C18.1514 27.8208 18.1951 27.8122 18.2359 27.7953C18.2766 27.7784 18.3136 27.7537 18.3448 27.7225C18.3759 27.6913 18.4006 27.6542 18.4174 27.6134C18.4342 27.5726 18.4427 27.5289 18.4425 27.4848V26.398C18.4425 26.3093 18.4073 26.2242 18.3446 26.1615C18.2818 26.0987 18.1967 26.0635 18.108 26.0635C18.0193 26.0635 17.9342 26.0987 17.8714 26.1615C17.8087 26.2242 17.7734 26.3093 17.7734 26.398V27.4848C17.7733 27.5288 17.7818 27.5724 17.7985 27.6131C17.8152 27.6538 17.8397 27.6908 17.8707 27.722C17.9017 27.7532 17.9386 27.778 17.9792 27.7949C18.0198 27.8119 18.0633 27.8206 18.1073 27.8207Z" fill="#FCFCEE" stroke="#FCFCEE" stroke-width="0.3"/>
<path d="M20.9283 27.8207C21.017 27.8207 21.1021 27.7855 21.1649 27.7227C21.2276 27.66 21.2629 27.5749 21.2629 27.4861V26.398C21.2629 26.3093 21.2276 26.2242 21.1649 26.1615C21.1021 26.0987 21.017 26.0635 20.9283 26.0635C20.8396 26.0635 20.7545 26.0987 20.6917 26.1615C20.629 26.2242 20.5938 26.3093 20.5938 26.398V27.4848C20.5936 27.5289 20.6021 27.5725 20.6188 27.6133C20.6356 27.654 20.6602 27.691 20.6913 27.7222C20.7224 27.7535 20.7593 27.7782 20.8 27.7951C20.8406 27.812 20.8843 27.8207 20.9283 27.8207Z" fill="#FCFCEE" stroke="#FCFCEE" stroke-width="0.3"/>
<path d="M23.7525 27.8207C23.7965 27.8208 23.84 27.8122 23.8807 27.7954C23.9213 27.7786 23.9582 27.754 23.9893 27.7229C24.0204 27.6918 24.045 27.6549 24.0618 27.6143C24.0786 27.5736 24.0872 27.5301 24.0871 27.4861V26.398C24.0871 26.3093 24.0518 26.2242 23.9891 26.1615C23.9263 26.0987 23.8413 26.0635 23.7525 26.0635C23.6638 26.0635 23.5787 26.0987 23.516 26.1615C23.4532 26.2242 23.418 26.3093 23.418 26.398V27.4848C23.4178 27.5289 23.4263 27.5725 23.4431 27.6133C23.4598 27.654 23.4844 27.691 23.5155 27.7222C23.5466 27.7535 23.5835 27.7782 23.6242 27.7951C23.6649 27.812 23.7085 27.8207 23.7525 27.8207Z" fill="#FCFCEE" stroke="#FCFCEE" stroke-width="0.3"/>
<path d="M26.5728 27.8207C26.6168 27.8208 26.6603 27.8122 26.701 27.7954C26.7416 27.7786 26.7785 27.754 26.8096 27.7229C26.8407 27.6918 26.8653 27.6549 26.8821 27.6143C26.8989 27.5736 26.9075 27.5301 26.9074 27.4861V26.398C26.9074 26.3093 26.8721 26.2242 26.8094 26.1615C26.7467 26.0987 26.6616 26.0635 26.5728 26.0635C26.4841 26.0635 26.399 26.0987 26.3363 26.1615C26.2735 26.2242 26.2383 26.3093 26.2383 26.398V27.4848C26.2381 27.5289 26.2466 27.5725 26.2634 27.6133C26.2801 27.654 26.3047 27.691 26.3358 27.7222C26.3669 27.7535 26.4038 27.7782 26.4445 27.7951C26.4852 27.812 26.5288 27.8207 26.5728 27.8207Z" fill="#FCFCEE" stroke="#FCFCEE" stroke-width="0.3"/>
<path d="M11.8189 7.1966C11.9075 7.19591 11.9921 7.1602 12.0544 7.09728C12.1168 7.03436 12.1516 6.94934 12.1514 6.86079C12.1514 6.78813 12.1606 5.08292 13.5713 5.07572C15.5619 5.06524 16.5608 3.60746 16.5608 2.79446C16.5608 2.70574 16.5255 2.62066 16.4628 2.55793C16.4001 2.4952 16.315 2.45996 16.2263 2.45996C16.1376 2.45996 16.0525 2.4952 15.9898 2.55793C15.927 2.62066 15.8918 2.70574 15.8918 2.79446C15.8918 3.235 15.177 4.39821 13.568 4.40672C13.0063 4.40672 12.5409 4.59459 12.1842 4.95593C11.4818 5.6714 11.4838 6.8189 11.4844 6.8693C11.4861 6.95682 11.5222 7.04016 11.5847 7.10137C11.6473 7.16259 11.7314 7.19679 11.8189 7.1966Z" fill="#FCFCEE" stroke="#FCFCEE" stroke-width="0.3"/>
<path d="M19.8762 9.32062C19.9201 9.32028 19.9636 9.31129 20.004 9.29416C20.0445 9.27704 20.0812 9.25211 20.112 9.2208C20.1428 9.1895 20.1672 9.15243 20.1836 9.11171C20.2001 9.071 20.2084 9.02744 20.2081 8.98351C20.2081 8.97434 20.214 8.05922 20.7167 7.54929C20.9471 7.3156 21.245 7.20105 21.6273 7.19909C23.6179 7.18861 24.6168 5.73149 24.6168 4.91848C24.6168 4.82977 24.5815 4.74469 24.5188 4.68196C24.4561 4.61923 24.371 4.58398 24.2823 4.58398C24.1936 4.58398 24.1085 4.61923 24.0458 4.68196C23.983 4.74469 23.9478 4.82977 23.9478 4.91848C23.9478 5.35902 23.2336 6.52158 21.624 6.53009C21.0623 6.53009 20.5969 6.71796 20.2402 7.07995C19.5365 7.79346 19.5385 8.9403 19.5391 8.9894C19.5394 9.0333 19.5484 9.07669 19.5656 9.11711C19.5827 9.15753 19.6077 9.19417 19.639 9.22493C19.6703 9.2557 19.7074 9.27999 19.7481 9.29641C19.7888 9.31283 19.8323 9.32105 19.8762 9.32062Z" fill="#FCFCEE" stroke="#FCFCEE" stroke-width="0.3"/>
<path d="M26.8488 12.2474C26.9374 12.2465 27.022 12.2106 27.0842 12.1476C27.1464 12.0846 27.1811 11.9995 27.1807 11.9109C27.1807 11.8383 27.1899 10.1337 28.6005 10.1265C30.5911 10.116 31.5901 8.65824 31.5901 7.84524C31.5901 7.75653 31.5548 7.67144 31.4921 7.60871C31.4294 7.54598 31.3443 7.51074 31.2556 7.51074C31.1668 7.51074 31.0818 7.54598 31.019 7.60871C30.9563 7.67144 30.9211 7.75653 30.9211 7.84524C30.9211 8.28578 30.2062 9.44899 28.5973 9.4575C28.0356 9.4575 27.5702 9.64537 27.2134 10.0067C26.5098 10.7209 26.5117 11.8677 26.5117 11.9162C26.5126 12.0048 26.5486 12.0894 26.6118 12.1515C26.675 12.2136 26.7602 12.2481 26.8488 12.2474Z" fill="#FCFCEE" stroke="#FCFCEE" stroke-width="0.3"/>
</svg>
