<svg width="34" height="35" viewBox="0 0 34 35" fill="none" xmlns="http://www.w3.org/2000/svg">
<path d="M28.8182 30.8488H7.69774C7.57588 30.8488 7.45902 30.8004 7.37285 30.7142C7.28669 30.628 7.23828 30.5112 7.23828 30.3893V1.66576C7.23828 1.5439 7.28669 1.42704 7.37285 1.34087C7.45902 1.25471 7.57588 1.2063 7.69774 1.2063H22.2948C22.4165 1.2062 22.5334 1.25446 22.6196 1.34046L29.1439 7.85973C29.2301 7.94588 29.2785 8.06272 29.2786 8.18457V30.3893C29.2786 30.4497 29.2666 30.5096 29.2435 30.5654C29.2203 30.6212 29.1864 30.6719 29.1437 30.7145C29.1009 30.7572 29.0501 30.791 28.9943 30.8141C28.9384 30.8371 28.8786 30.8489 28.8182 30.8488ZM8.1572 29.9299H28.3587V8.37387L22.1046 2.12522H8.1572V29.9299Z" fill="#FEFEFE"/>
<path d="M26.8057 33.3684H5.18212C5.06026 33.3684 4.94339 33.32 4.85723 33.2339C4.77106 33.1477 4.72266 33.0308 4.72266 32.909V3.68138C4.72266 3.55953 4.77106 3.44266 4.85723 3.3565C4.94339 3.27033 5.06026 3.22192 5.18212 3.22192H7.70179C7.82365 3.22192 7.94051 3.27033 8.02668 3.3565C8.11284 3.44266 8.16125 3.55953 8.16125 3.68138C8.16125 3.80324 8.11284 3.9201 8.02668 4.00627C7.94051 4.09244 7.82365 4.14084 7.70179 4.14084H5.64158V32.4495H26.3462V30.3893C26.3462 30.2674 26.3946 30.1506 26.4808 30.0644C26.5669 29.9783 26.6838 29.9298 26.8057 29.9298C26.9275 29.9298 27.0444 29.9783 27.1305 30.0644C27.2167 30.1506 27.2651 30.2674 27.2651 30.3893V32.909C27.2651 33.0308 27.2167 33.1477 27.1305 33.2339C27.0444 33.32 26.9275 33.3684 26.8057 33.3684Z" fill="#FEFEFE"/>
<path d="M28.8197 8.64403H22.2954C22.1735 8.64403 22.0567 8.59562 21.9705 8.50946C21.8843 8.42329 21.8359 8.30643 21.8359 8.18457V1.66576C21.8359 1.5439 21.8843 1.42704 21.9705 1.34087C22.0567 1.25471 22.1735 1.2063 22.2954 1.2063C22.4173 1.2063 22.5341 1.25471 22.6203 1.34087C22.7064 1.42704 22.7549 1.5439 22.7549 1.66576V7.72511H28.8197C28.9416 7.72511 29.0584 7.77352 29.1446 7.85968C29.2308 7.94585 29.2792 8.06271 29.2792 8.18457C29.2792 8.30643 29.2308 8.42329 29.1446 8.50946C29.0584 8.59562 28.9416 8.64403 28.8197 8.64403Z" fill="#FEFEFE"/>
<path d="M25.7283 11.6035H10.7876C10.6657 11.6035 10.5489 11.5551 10.4627 11.4689C10.3765 11.3828 10.3281 11.2659 10.3281 11.144C10.3281 11.0222 10.3765 10.9053 10.4627 10.8191C10.5489 10.733 10.6657 10.6846 10.7876 10.6846H25.7283C25.8501 10.6846 25.967 10.733 26.0532 10.8191C26.1393 10.9053 26.1877 11.0222 26.1877 11.144C26.1877 11.2659 26.1393 11.3828 26.0532 11.4689C25.967 11.5551 25.8501 11.6035 25.7283 11.6035Z" fill="#FEFEFE"/>
<path d="M25.7283 16.0276H10.7876C10.6657 16.0276 10.5489 15.9792 10.4627 15.893C10.3765 15.8068 10.3281 15.69 10.3281 15.5681C10.3281 15.4462 10.3765 15.3294 10.4627 15.2432C10.5489 15.157 10.6657 15.1086 10.7876 15.1086H25.7283C25.8501 15.1086 25.967 15.157 26.0532 15.2432C26.1393 15.3294 26.1877 15.4462 26.1877 15.5681C26.1877 15.69 26.1393 15.8068 26.0532 15.893C25.967 15.9792 25.8501 16.0276 25.7283 16.0276Z" fill="#FEFEFE"/>
<path d="M18.8364 7.17942H10.7876C10.6657 7.17942 10.5489 7.13101 10.4627 7.04484C10.3765 6.95868 10.3281 6.84181 10.3281 6.71996C10.3281 6.5981 10.3765 6.48124 10.4627 6.39507C10.5489 6.30891 10.6657 6.2605 10.7876 6.2605H18.8364C18.9583 6.2605 19.0751 6.30891 19.1613 6.39507C19.2474 6.48124 19.2959 6.5981 19.2959 6.71996C19.2959 6.84181 19.2474 6.95868 19.1613 7.04484C19.0751 7.13101 18.9583 7.17942 18.8364 7.17942Z" fill="#FEFEFE"/>
<path d="M18.2587 27.6059C17.3499 27.6059 16.4616 27.3365 15.706 26.8316C14.9505 26.3268 14.3616 25.6092 14.0138 24.7696C13.6661 23.9301 13.5751 23.0062 13.7523 22.115C13.9296 21.2237 14.3672 20.405 15.0098 19.7625C15.6524 19.1199 16.471 18.6823 17.3623 18.505C18.2536 18.3278 19.1774 18.4187 20.0169 18.7665C20.8565 19.1142 21.5741 19.7031 22.0789 20.4587C22.5838 21.2143 22.8533 22.1026 22.8533 23.0113C22.8519 24.2295 22.3674 25.3974 21.506 26.2587C20.6447 27.1201 19.4768 27.6046 18.2587 27.6059ZM18.2587 19.3357C17.5317 19.3357 16.821 19.5512 16.2166 19.9551C15.6121 20.359 15.141 20.9331 14.8628 21.6047C14.5846 22.2764 14.5118 23.0154 14.6536 23.7284C14.7954 24.4414 15.1455 25.0964 15.6596 25.6104C16.1736 26.1245 16.8286 26.4746 17.5416 26.6164C18.2546 26.7582 18.9936 26.6854 19.6653 26.4072C20.3369 26.129 20.911 25.6579 21.3149 25.0534C21.7188 24.449 21.9343 23.7383 21.9343 23.0113C21.9332 22.0368 21.5456 21.1025 20.8565 20.4135C20.1675 19.7244 19.2332 19.3368 18.2587 19.3357Z" fill="#FEFEFE"/>
<path d="M17.5437 24.6245C17.4833 24.6247 17.4235 24.6128 17.3678 24.5897C17.312 24.5666 17.2614 24.5327 17.2188 24.4899L16.254 23.525C16.1703 23.4383 16.124 23.3223 16.125 23.2018C16.1261 23.0813 16.1744 22.9661 16.2596 22.8809C16.3448 22.7957 16.46 22.7474 16.5805 22.7464C16.7009 22.7453 16.817 22.7916 16.9037 22.8753L17.5418 23.5135L19.5272 21.5328C19.6138 21.4491 19.7299 21.4028 19.8504 21.4038C19.9708 21.4049 20.0861 21.4532 20.1712 21.5384C20.2564 21.6236 20.3048 21.7388 20.3058 21.8593C20.3068 21.9797 20.2605 22.0958 20.1768 22.1825L17.8685 24.4899C17.826 24.5327 17.7753 24.5666 17.7196 24.5897C17.6638 24.6128 17.604 24.6247 17.5437 24.6245Z" fill="#FEFEFE"/>
</svg>
