<svg width="35" height="35" viewBox="0 0 35 35" fill="none" xmlns="http://www.w3.org/2000/svg">
<path d="M26.4452 33.3685H8.06683C7.45777 33.3677 6.87387 33.1255 6.4432 32.6948C6.01253 32.2641 5.77026 31.6802 5.76953 31.0712V3.5036C5.77026 2.89454 6.01253 2.31064 6.4432 1.87997C6.87387 1.4493 7.45777 1.20703 8.06683 1.2063H26.4452C27.0543 1.20703 27.6382 1.4493 28.0688 1.87997C28.4995 2.31064 28.7418 2.89454 28.7425 3.5036V31.0712C28.7418 31.6802 28.4995 32.2641 28.0688 32.6948C27.6382 33.1255 27.0543 33.3677 26.4452 33.3685ZM8.06683 2.12522C7.70126 2.12522 7.35066 2.27044 7.09217 2.52894C6.83367 2.78743 6.68845 3.13803 6.68845 3.5036V31.0712C6.68845 31.4367 6.83367 31.7873 7.09217 32.0458C7.35066 32.3043 7.70126 32.4495 8.06683 32.4495H26.4452C26.8108 32.4495 27.1614 32.3043 27.4199 32.0458C27.6784 31.7873 27.8236 31.4367 27.8236 31.0712V3.5036C27.8236 3.13803 27.6784 2.78743 27.4199 2.52894C27.1614 2.27044 26.8108 2.12522 26.4452 2.12522H8.06683Z" fill="#FEFEFE"/>
<path d="M25.0679 11.0845H9.44626C9.20255 11.0845 8.96882 10.9877 8.79649 10.8154C8.62416 10.6431 8.52734 10.4093 8.52734 10.1656V5.80075C8.52734 5.55704 8.62416 5.32331 8.79649 5.15098C8.96882 4.97865 9.20255 4.88184 9.44626 4.88184H25.0679C25.3116 4.88184 25.5453 4.97865 25.7177 5.15098C25.89 5.32331 25.9868 5.55704 25.9868 5.80075V10.1656C25.9868 10.4093 25.89 10.6431 25.7177 10.8154C25.5453 10.9877 25.3116 11.0845 25.0679 11.0845ZM9.44626 5.80075V10.1656H25.0679V5.80075H9.44626Z" fill="#FEFEFE"/>
<path d="M24.6912 17.9453H22.54C22.2963 17.9453 22.0626 17.8485 21.8902 17.6762C21.7179 17.5039 21.6211 17.2701 21.6211 17.0264V14.8752C21.6211 14.6315 21.7179 14.3978 21.8902 14.2254C22.0626 14.0531 22.2963 13.9563 22.54 13.9563H24.6912C24.9349 13.9563 25.1686 14.0531 25.341 14.2254C25.5133 14.3978 25.6101 14.6315 25.6101 14.8752V17.0264C25.6101 17.2701 25.5133 17.5039 25.341 17.6762C25.1686 17.8485 24.9349 17.9453 24.6912 17.9453ZM22.54 14.8752V17.0264H24.6912V14.8752H22.54Z" fill="#FEFEFE"/>
<path d="M18.3318 17.9453H16.1806C15.9369 17.9453 15.7032 17.8485 15.5309 17.6762C15.3585 17.5039 15.2617 17.2701 15.2617 17.0264V14.8752C15.2617 14.6315 15.3585 14.3978 15.5309 14.2254C15.7032 14.0531 15.9369 13.9563 16.1806 13.9563H18.3318C18.5755 13.9563 18.8093 14.0531 18.9816 14.2254C19.1539 14.3978 19.2507 14.6315 19.2507 14.8752V17.0264C19.2507 17.2701 19.1539 17.5039 18.9816 17.6762C18.8093 17.8485 18.5755 17.9453 18.3318 17.9453ZM16.1806 14.8752V17.0264H18.3318V14.8752H16.1806Z" fill="#FEFEFE"/>
<path d="M11.9725 17.9453H9.82126C9.57755 17.9453 9.34382 17.8485 9.17149 17.6762C8.99916 17.5039 8.90234 17.2701 8.90234 17.0264V14.8752C8.90234 14.6315 8.99916 14.3978 9.17149 14.2254C9.34382 14.0531 9.57755 13.9563 9.82126 13.9563H11.9725C12.2162 13.9563 12.4499 14.0531 12.6222 14.2254C12.7946 14.3978 12.8914 14.6315 12.8914 14.8752V17.0264C12.8914 17.2701 12.7946 17.5039 12.6222 17.6762C12.4499 17.8485 12.2162 17.9453 11.9725 17.9453ZM9.82126 14.8752V17.0264H11.9725V14.8752H9.82126Z" fill="#FEFEFE"/>
<path d="M24.6912 23.6465H22.54C22.2963 23.6465 22.0626 23.5497 21.8902 23.3774C21.7179 23.205 21.6211 22.9713 21.6211 22.7276V20.5764C21.6211 20.3327 21.7179 20.0989 21.8902 19.9266C22.0626 19.7543 22.2963 19.6575 22.54 19.6575H24.6912C24.9349 19.6575 25.1686 19.7543 25.341 19.9266C25.5133 20.0989 25.6101 20.3327 25.6101 20.5764V22.7276C25.6101 22.9713 25.5133 23.205 25.341 23.3774C25.1686 23.5497 24.9349 23.6465 24.6912 23.6465ZM22.54 20.5764V22.7276H24.6912V20.5764H22.54Z" fill="#FEFEFE"/>
<path d="M18.3318 23.6465H16.1806C15.9369 23.6465 15.7032 23.5497 15.5309 23.3774C15.3585 23.205 15.2617 22.9713 15.2617 22.7276V20.5764C15.2617 20.3327 15.3585 20.0989 15.5309 19.9266C15.7032 19.7543 15.9369 19.6575 16.1806 19.6575H18.3318C18.5755 19.6575 18.8093 19.7543 18.9816 19.9266C19.1539 20.0989 19.2507 20.3327 19.2507 20.5764V22.7276C19.2507 22.9713 19.1539 23.205 18.9816 23.3774C18.8093 23.5497 18.5755 23.6465 18.3318 23.6465ZM16.1806 20.5764V22.7276H18.3318V20.5764H16.1806Z" fill="#FEFEFE"/>
<path d="M11.9725 23.6465H9.82126C9.57755 23.6465 9.34382 23.5497 9.17149 23.3774C8.99916 23.205 8.90234 22.9713 8.90234 22.7276V20.5764C8.90234 20.3327 8.99916 20.0989 9.17149 19.9266C9.34382 19.7543 9.57755 19.6575 9.82126 19.6575H11.9725C12.2162 19.6575 12.4499 19.7543 12.6222 19.9266C12.7946 20.0989 12.8914 20.3327 12.8914 20.5764V22.7276C12.8914 22.9713 12.7946 23.205 12.6222 23.3774C12.4499 23.5497 12.2162 23.6465 11.9725 23.6465ZM9.82126 20.5764V22.7276H11.9725V20.5764H9.82126Z" fill="#FEFEFE"/>
<path d="M24.6912 29.3482H22.54C22.2963 29.3482 22.0626 29.2513 21.8902 29.079C21.7179 28.9067 21.6211 28.6729 21.6211 28.4292V26.278C21.6211 26.0343 21.7179 25.8006 21.8902 25.6283C22.0626 25.4559 22.2963 25.3591 22.54 25.3591H24.6912C24.9349 25.3591 25.1686 25.4559 25.341 25.6283C25.5133 25.8006 25.6101 26.0343 25.6101 26.278V28.4292C25.6101 28.6729 25.5133 28.9067 25.341 29.079C25.1686 29.2513 24.9349 29.3482 24.6912 29.3482ZM22.54 26.278V28.4292H24.6912V26.278H22.54Z" fill="#FEFEFE"/>
<path d="M18.3318 29.3482H16.1806C15.9369 29.3482 15.7032 29.2513 15.5309 29.079C15.3585 28.9067 15.2617 28.6729 15.2617 28.4292V26.278C15.2617 26.0343 15.3585 25.8006 15.5309 25.6283C15.7032 25.4559 15.9369 25.3591 16.1806 25.3591H18.3318C18.5755 25.3591 18.8093 25.4559 18.9816 25.6283C19.1539 25.8006 19.2507 26.0343 19.2507 26.278V28.4292C19.2507 28.6729 19.1539 28.9067 18.9816 29.079C18.8093 29.2513 18.5755 29.3482 18.3318 29.3482ZM16.1806 26.278V28.4292H18.3318V26.278H16.1806Z" fill="#FEFEFE"/>
<path d="M11.9725 29.3482H9.82126C9.57755 29.3482 9.34382 29.2513 9.17149 29.079C8.99916 28.9067 8.90234 28.6729 8.90234 28.4292V26.278C8.90234 26.0343 8.99916 25.8006 9.17149 25.6283C9.34382 25.4559 9.57755 25.3591 9.82126 25.3591H11.9725C12.2162 25.3591 12.4499 25.4559 12.6222 25.6283C12.7946 25.8006 12.8914 26.0343 12.8914 26.278V28.4292C12.8914 28.6729 12.7946 28.9067 12.6222 29.079C12.4499 29.2513 12.2162 29.3482 11.9725 29.3482ZM9.82126 26.278V28.4292H11.9725V26.278H9.82126Z" fill="#FEFEFE"/>
</svg>
