<svg width="34" height="35" viewBox="0 0 34 35" fill="none" xmlns="http://www.w3.org/2000/svg">
<g clip-path="url(#clip0)">
<path d="M17.4436 19.495C17.3807 19.4814 17.3162 19.479 17.2525 19.4885C16.6139 19.4141 16.1322 18.8739 16.1311 18.2312C16.1311 17.9232 15.8814 17.6735 15.5734 17.6735C15.2654 17.6735 15.0157 17.9232 15.0157 18.2312C15.0173 19.3044 15.7351 20.2444 16.7699 20.5285V21.0862C16.7699 21.3941 17.0196 21.6439 17.3276 21.6439C17.6356 21.6439 17.8853 21.3941 17.8853 21.0862V20.5622C19.0797 20.3122 19.8915 19.1998 19.7659 17.9861C19.6401 16.7724 18.6176 15.8501 17.3973 15.8498C16.698 15.8498 16.1311 15.2829 16.1311 14.5836C16.1311 13.8843 16.698 13.3173 17.3973 13.3173C18.0966 13.3173 18.6636 13.8843 18.6636 14.5836C18.6636 14.8916 18.9133 15.1413 19.2213 15.1413C19.5293 15.1413 19.779 14.8916 19.779 14.5836C19.7774 13.4567 18.9879 12.4849 17.8853 12.2523V11.7447C17.8853 11.4367 17.6356 11.187 17.3276 11.187C17.0196 11.187 16.7699 11.4367 16.7699 11.7447V12.2863C15.6191 12.6006 14.8784 13.7179 15.0369 14.9003C15.1954 16.0827 16.2043 16.9652 17.3973 16.965C18.0874 16.965 18.6503 17.5175 18.6628 18.2073C18.6756 18.897 18.1331 19.47 17.4436 19.495Z" fill="#FEFEFE"/>
<path d="M9.31055 16.4504C9.31055 20.9169 12.9312 24.5376 17.3977 24.5376C21.8642 24.5376 25.4849 20.9169 25.4849 16.4504C25.4849 11.984 21.8642 8.36328 17.3977 8.36328C12.9334 8.36818 9.31572 11.9861 9.31055 16.4504ZM17.3977 9.47868C21.2482 9.47868 24.3695 12.5999 24.3695 16.4504C24.3695 20.301 21.2482 23.4222 17.3977 23.4222C13.5472 23.4222 10.4259 20.301 10.4259 16.4504C10.4303 12.6018 13.5491 9.48303 17.3977 9.47868Z" fill="#FEFEFE"/>
<path d="M28.2345 25.9124L23.8657 27.9766C23.2626 26.8547 22.1055 26.1406 20.8322 26.1047L16.7992 25.9939C16.1606 25.9756 15.534 25.8139 14.9663 25.5206L14.5559 25.3079C12.4547 24.2127 9.95024 24.2154 7.85125 25.315L7.87684 24.3853C7.88528 24.0773 7.64265 23.8208 7.33467 23.8124L2.91229 23.6906C2.60431 23.6822 2.34806 23.9248 2.33962 24.2328L2.07248 33.9375C2.06404 34.2455 2.30667 34.502 2.61466 34.5105L7.03703 34.6322H7.05228C7.35455 34.6322 7.60181 34.3917 7.60998 34.0898L7.62277 33.6255L8.77167 33.0103C9.22262 32.7677 9.74982 32.7099 10.2424 32.8494L17.1031 34.7749C17.1151 34.7784 17.1271 34.7812 17.1393 34.7839C17.6352 34.8876 18.1406 34.9396 18.6471 34.9394C19.72 34.9399 20.7804 34.7087 21.7556 34.261C21.7795 34.2501 21.8027 34.2373 21.8247 34.2229L31.7721 27.7887C32.0199 27.6283 32.1 27.3029 31.9548 27.0458C31.2163 25.7354 29.5783 25.2363 28.2345 25.9124ZM3.20285 33.4109L3.43922 24.821L6.74647 24.912L6.5101 33.5021L3.20285 33.4109ZM21.2532 33.2649C20.0416 33.8117 18.6885 33.9626 17.3863 33.6965L10.5442 31.7759C9.77405 31.5583 8.94976 31.6485 8.24528 32.0273L7.65818 32.3418L7.8153 26.6305C9.67575 25.3931 12.0618 25.266 14.0431 26.2983L14.4535 26.511C15.1708 26.8813 15.9618 27.0856 16.7687 27.109L20.8019 27.2198C21.9348 27.2525 22.8968 28.0591 23.1267 29.169L17.1192 29.0032C16.8112 28.9948 16.5549 29.2377 16.5462 29.5454C16.5378 29.8534 16.7807 30.1099 17.0884 30.1183L23.7181 30.3008H23.7337C24.0357 30.3005 24.2826 30.0601 24.2908 29.7583C24.2976 29.516 24.2796 29.2733 24.2369 29.0348L28.7178 26.9176C28.7222 26.9157 28.7265 26.9135 28.7309 26.9113C29.3665 26.5897 30.1349 26.6973 30.6578 27.1812L21.2532 33.2649Z" fill="#FEFEFE"/>
<path d="M17.9552 6.79528V1.49715C17.9552 1.18916 17.7055 0.939453 17.3975 0.939453C17.0896 0.939453 16.8398 1.18916 16.8398 1.49715V6.79528C16.8398 7.10327 17.0896 7.35298 17.3975 7.35298C17.7055 7.35298 17.9552 7.10327 17.9552 6.79528Z" fill="#FEFEFE"/>
<path d="M22.1379 6.79537V4.28573C22.1379 3.97774 21.8881 3.72803 21.5802 3.72803C21.2722 3.72803 21.0225 3.97774 21.0225 4.28573V6.79537C21.0225 7.10335 21.2722 7.35307 21.5802 7.35307C21.8881 7.35307 22.1379 7.10335 22.1379 6.79537Z" fill="#FEFEFE"/>
<path d="M13.7726 6.79537V4.28573C13.7726 3.97774 13.5229 3.72803 13.2149 3.72803C12.9069 3.72803 12.6572 3.97774 12.6572 4.28573V6.79537C12.6572 7.10335 12.9069 7.35307 13.2149 7.35307C13.5229 7.35307 13.7726 7.10335 13.7726 6.79537Z" fill="#FEFEFE"/>
</g>
<defs>
<clipPath id="clip0">
<rect width="34" height="34" fill="white" transform="translate(0 0.939453)"/>
</clipPath>
</defs>
</svg>
