<svg width="34" height="35" viewBox="0 0 34 35" fill="none" xmlns="http://www.w3.org/2000/svg">
<path d="M28.8192 31.1864H7.69872C7.57686 31.1864 7.46 31.138 7.37383 31.0519C7.28766 30.9657 7.23926 30.8488 7.23926 30.727V2.0034C7.23926 1.88155 7.28766 1.76468 7.37383 1.67852C7.46 1.59235 7.57686 1.54395 7.69872 1.54395H22.2957C22.4175 1.54385 22.5344 1.5921 22.6206 1.67811L29.1449 8.19738C29.2311 8.28352 29.2795 8.40037 29.2795 8.52222V30.727C29.2795 30.7874 29.2676 30.8472 29.2445 30.903C29.2213 30.9588 29.1874 31.0095 29.1446 31.0522C29.1019 31.0949 29.0511 31.1287 28.9953 31.1517C28.9394 31.1748 28.8796 31.1866 28.8192 31.1864ZM8.15818 30.2675H28.3597V8.71151L22.1055 2.46286H8.15818V30.2675Z" fill="#FEFEFE"/>
<path d="M26.8037 33.7061H5.18016C5.05831 33.7061 4.94144 33.6577 4.85528 33.5715C4.76911 33.4853 4.7207 33.3685 4.7207 33.2466V4.01903C4.7207 3.89717 4.76911 3.78031 4.85528 3.69414C4.94144 3.60798 5.05831 3.55957 5.18016 3.55957H7.69984C7.82169 3.55957 7.93856 3.60798 8.02472 3.69414C8.11089 3.78031 8.1593 3.89717 8.1593 4.01903C8.1593 4.14089 8.11089 4.25775 8.02472 4.34392C7.93856 4.43008 7.82169 4.47849 7.69984 4.47849H5.63962V32.7872H26.3442V30.7269C26.3442 30.6051 26.3927 30.4882 26.4788 30.4021C26.565 30.3159 26.6818 30.2675 26.8037 30.2675C26.9256 30.2675 27.0424 30.3159 27.1286 30.4021C27.2148 30.4882 27.2632 30.6051 27.2632 30.7269V33.2466C27.2632 33.3685 27.2148 33.4853 27.1286 33.5715C27.0424 33.6577 26.9256 33.7061 26.8037 33.7061Z" fill="#FEFEFE"/>
<path d="M28.8197 8.98168H22.2954C22.1735 8.98168 22.0567 8.93327 21.9705 8.8471C21.8843 8.76094 21.8359 8.64407 21.8359 8.52222V2.0034C21.8359 1.88155 21.8843 1.76468 21.9705 1.67852C22.0567 1.59235 22.1735 1.54395 22.2954 1.54395C22.4173 1.54395 22.5341 1.59235 22.6203 1.67852C22.7064 1.76468 22.7549 1.88155 22.7549 2.0034V8.06276H28.8197C28.9416 8.06276 29.0584 8.11117 29.1446 8.19733C29.2308 8.2835 29.2792 8.40036 29.2792 8.52222C29.2792 8.64407 29.2308 8.76094 29.1446 8.8471C29.0584 8.93327 28.9416 8.98168 28.8197 8.98168Z" fill="#FEFEFE"/>
<path d="M25.7293 11.9409H10.7886C10.6667 11.9409 10.5498 11.8925 10.4637 11.8063C10.3775 11.7202 10.3291 11.6033 10.3291 11.4814C10.3291 11.3596 10.3775 11.2427 10.4637 11.1565C10.5498 11.0704 10.6667 11.022 10.7886 11.022H25.7293C25.8511 11.022 25.968 11.0704 26.0541 11.1565C26.1403 11.2427 26.1887 11.3596 26.1887 11.4814C26.1887 11.6033 26.1403 11.7202 26.0541 11.8063C25.968 11.8925 25.8511 11.9409 25.7293 11.9409Z" fill="#FEFEFE"/>
<path d="M25.7293 16.3652H10.7886C10.6667 16.3652 10.5498 16.3168 10.4637 16.2306C10.3775 16.1445 10.3291 16.0276 10.3291 15.9057C10.3291 15.7839 10.3775 15.667 10.4637 15.5809C10.5498 15.4947 10.6667 15.4463 10.7886 15.4463H25.7293C25.8511 15.4463 25.968 15.4947 26.0541 15.5809C26.1403 15.667 26.1887 15.7839 26.1887 15.9057C26.1887 16.0276 26.1403 16.1445 26.0541 16.2306C25.968 16.3168 25.8511 16.3652 25.7293 16.3652Z" fill="#FEFEFE"/>
<path d="M18.8374 7.51706H10.7886C10.6667 7.51706 10.5498 7.46866 10.4637 7.38249C10.3775 7.29633 10.3291 7.17946 10.3291 7.0576C10.3291 6.93575 10.3775 6.81888 10.4637 6.73272C10.5498 6.64655 10.6667 6.59814 10.7886 6.59814H18.8374C18.9592 6.59814 19.0761 6.64655 19.1623 6.73272C19.2484 6.81888 19.2968 6.93575 19.2968 7.0576C19.2968 7.17946 19.2484 7.29633 19.1623 7.38249C19.0761 7.46866 18.9592 7.51706 18.8374 7.51706Z" fill="#FEFEFE"/>
<path d="M18.2596 27.9436C17.3509 27.9436 16.4626 27.6741 15.707 27.1693C14.9514 26.6644 14.3625 25.9468 14.0148 25.1073C13.667 24.2677 13.576 23.3439 13.7533 22.4526C13.9306 21.5614 14.3682 20.7427 15.0108 20.1001C15.6533 19.4576 16.472 19.02 17.3633 18.8427C18.2545 18.6654 19.1784 18.7564 20.0179 19.1041C20.8575 19.4519 21.575 20.0408 22.0799 20.7964C22.5848 21.5519 22.8542 22.4403 22.8542 23.349C22.8529 24.5671 22.3684 25.735 21.507 26.5964C20.6457 27.4577 19.4778 27.9422 18.2596 27.9436ZM18.2596 19.6733C17.5327 19.6733 16.822 19.8889 16.2175 20.2928C15.6131 20.6967 15.142 21.2707 14.8638 21.9424C14.5856 22.614 14.5128 23.3531 14.6546 24.0661C14.7964 24.7791 15.1465 25.434 15.6605 25.9481C16.1746 26.4621 16.8295 26.8122 17.5425 26.954C18.2556 27.0959 18.9946 27.0231 19.6663 26.7449C20.3379 26.4667 20.912 25.9955 21.3158 25.3911C21.7197 24.7866 21.9353 24.076 21.9353 23.349C21.9342 22.3745 21.5466 21.4402 20.8575 20.7511C20.1684 20.062 19.2341 19.6744 18.2596 19.6733Z" fill="#FEFEFE"/>
<path d="M17.5437 24.9619C17.4833 24.9621 17.4235 24.9502 17.3678 24.9271C17.312 24.904 17.2614 24.8701 17.2188 24.8273L16.254 23.8624C16.1703 23.7757 16.124 23.6597 16.125 23.5392C16.1261 23.4187 16.1744 23.3035 16.2596 23.2183C16.3448 23.1331 16.46 23.0848 16.5805 23.0838C16.7009 23.0827 16.817 23.129 16.9037 23.2127L17.5418 23.8509L19.5272 21.8702C19.6138 21.7865 19.7299 21.7402 19.8504 21.7412C19.9708 21.7423 20.0861 21.7906 20.1712 21.8758C20.2564 21.961 20.3048 22.0762 20.3058 22.1967C20.3068 22.3171 20.2605 22.4332 20.1768 22.5199L17.8685 24.8273C17.826 24.8701 17.7753 24.904 17.7196 24.9271C17.6638 24.9502 17.604 24.9621 17.5437 24.9619Z" fill="#FEFEFE"/>
</svg>
