<svg width="35" height="35" viewBox="0 0 35 35" fill="none" xmlns="http://www.w3.org/2000/svg">
<g clip-path="url(#clip0)">
<path d="M7.38184 31.0636H4.46129V12.8112C4.46129 12.8045 4.46222 12.7984 4.46222 12.7919C4.46222 9.64072 6.89322 7.07704 9.8813 7.07704C12.7538 7.07704 15.1103 9.44681 15.2882 12.4297C14.4345 12.5312 13.6476 12.942 13.0762 13.5844C12.5048 14.2268 12.1887 15.0563 12.1875 15.916V16.5386C12.1875 16.6443 12.2294 16.7456 12.3042 16.8203C12.3789 16.8951 12.4802 16.937 12.5859 16.937H14.3589C14.5351 17.5745 15.1046 18.0454 15.7715 18.0454C16.4385 18.0454 17.008 17.5748 17.184 16.937H18.8115C18.9172 16.937 19.0186 16.8951 19.0933 16.8203C19.168 16.7456 19.21 16.6443 19.21 16.5386V15.916C19.2088 15.0524 18.8899 14.2195 18.314 13.5759C17.738 12.9324 16.9454 12.5234 16.0872 12.4268C15.9059 9.00534 13.1919 6.28003 9.88137 6.28003C6.4653 6.28003 3.68434 9.18198 3.66574 12.756C3.66508 12.7653 3.66435 12.7745 3.66435 12.7839V31.0635H1.15625C1.05058 31.0635 0.949234 31.1055 0.874512 31.1802C0.799791 31.2549 0.757813 31.3563 0.757812 31.4619C0.757812 31.5676 0.799791 31.669 0.874512 31.7437C0.949234 31.8184 1.05058 31.8604 1.15625 31.8604H7.38184C7.48751 31.8604 7.58885 31.8184 7.66357 31.7437C7.7383 31.669 7.78027 31.5676 7.78027 31.4619C7.78027 31.3563 7.7383 31.2549 7.66357 31.1802C7.58885 31.1055 7.48751 31.0635 7.38184 31.0635V31.0636ZM15.7715 17.2487C15.661 17.2469 15.5528 17.2175 15.4567 17.163C15.3606 17.1086 15.2797 17.031 15.2214 16.9372H16.3214C16.2631 17.0309 16.1822 17.1086 16.0862 17.163C15.9901 17.2174 15.8819 17.2469 15.7715 17.2487ZM18.413 15.916V16.1402H12.9843V15.916C12.9843 15.1961 13.2703 14.5057 13.7793 13.9967C14.2884 13.4877 14.9788 13.2017 15.6987 13.2017C16.4186 13.2017 17.109 13.4877 17.618 13.9967C18.1271 14.5057 18.413 15.1961 18.413 15.916Z" fill="#FCFCEE" stroke="#FCFCEE" stroke-width="0.2"/>
<path d="M31.5487 24.9074V22.2711C31.5448 21.8265 31.3646 21.4016 31.0478 21.0896C30.7309 20.7776 30.3033 20.6041 29.8586 20.607H22.5676C22.3456 20.6059 22.1256 20.6489 21.9204 20.7336C21.7152 20.8182 21.5289 20.9429 21.3723 21.1002C21.3395 21.1334 21.3086 21.1676 21.2789 21.2028C21.1192 21.0156 20.9207 20.8653 20.6972 20.7625C20.4737 20.6596 20.2305 20.6065 19.9844 20.607H12.652C12.2073 20.6041 11.7797 20.7776 11.4628 21.0896C11.1459 21.4016 10.9658 21.8265 10.9618 22.2711V24.915C10.4849 24.9572 10.0407 25.1755 9.71597 25.5273C9.3912 25.8791 9.20907 26.3392 9.20508 26.818V31.4623C9.20508 31.5679 9.24706 31.6693 9.32178 31.744C9.3965 31.8187 9.49784 31.8607 9.60352 31.8607H12.6927C12.7983 31.8607 12.8997 31.8187 12.9744 31.744C13.0491 31.6693 13.0911 31.5679 13.0911 31.4623V30.9315L29.5445 30.9365V31.4623C29.5445 31.5679 29.5865 31.6693 29.6612 31.744C29.7359 31.8187 29.8373 31.8607 29.943 31.8607H33.032C33.1377 31.8607 33.2391 31.8187 33.3138 31.744C33.3885 31.6693 33.4305 31.5679 33.4305 31.4623V26.8178C33.426 26.3175 33.2271 25.8385 32.876 25.482C32.5249 25.1255 32.0489 24.9195 31.5487 24.9074ZM21.9368 21.6624C22.0195 21.5796 22.1179 21.5141 22.2262 21.4696C22.3345 21.4251 22.4505 21.4026 22.5676 21.4034H29.8586C30.092 21.4003 30.3171 21.4899 30.4845 21.6524C30.6519 21.815 30.7481 22.0374 30.7518 22.2707V25.0484C30.3972 25.1894 30.0928 25.4332 29.8777 25.7484C29.6626 26.0637 29.5466 26.436 29.5445 26.8176V26.9737L21.6766 26.9717L21.6776 22.3108C21.6756 22.191 21.6975 22.0719 21.742 21.9606C21.7865 21.8493 21.8527 21.7479 21.9368 21.6624ZM12.652 21.4034H19.9843C20.2177 21.4003 20.4428 21.4899 20.6103 21.6526C20.7778 21.8152 20.8738 22.0377 20.8775 22.2711L20.8793 26.9715L13.0911 26.9694V26.8179C13.0886 26.4136 12.9584 26.0204 12.7191 25.6945C12.4798 25.3686 12.1437 25.1266 11.7587 25.0032V22.2711C11.7624 22.0377 11.8585 21.8153 12.026 21.6527C12.1934 21.4901 12.4186 21.4005 12.652 21.4036V21.4034ZM12.2942 31.0634H10.002V26.8178C10.0101 26.5193 10.1345 26.2357 10.3485 26.0275C10.5626 25.8192 10.8495 25.7027 11.1481 25.7027C11.4467 25.7027 11.7336 25.8192 11.9476 26.0275C12.1617 26.2357 12.286 26.5193 12.2942 26.8178V31.0634ZM13.0911 30.1342V27.7662L21.2775 27.7684H21.2781L29.5444 27.7707V30.1395L13.0911 30.1342ZM32.6336 31.0636H30.3414V26.8178C30.3493 26.5191 30.4735 26.2352 30.6876 26.0267C30.9016 25.8182 31.1887 25.7015 31.4875 25.7015C31.7863 25.7015 32.0734 25.8182 32.2874 26.0267C32.5015 26.2352 32.6257 26.5191 32.6336 26.8178V31.0636Z" fill="#FCFCEE" stroke="#FCFCEE" stroke-width="0.2"/>
</g>
<defs>
<clipPath id="clip0">
<rect width="34" height="34" fill="white" transform="translate(0.09375 0.078125)"/>
</clipPath>
</defs>
</svg>
