<svg width="34" height="35" viewBox="0 0 34 35" fill="none" xmlns="http://www.w3.org/2000/svg">
<mask id="path-1-inside-1" fill="white">
<path d="M8.4668 22.6333C7.09365 22.6333 5.97656 23.7504 5.97656 25.1236C5.97656 26.4967 7.09365 27.6138 8.4668 27.6138C9.83995 27.6138 10.957 26.4967 10.957 25.1236C10.957 23.7504 9.83995 22.6333 8.4668 22.6333ZM8.4668 26.6177C7.64296 26.6177 6.97266 25.9475 6.97266 25.1236C6.97266 24.2997 7.64296 23.6294 8.4668 23.6294C9.29063 23.6294 9.96094 24.2997 9.96094 25.1236C9.96094 25.9475 9.29063 26.6177 8.4668 26.6177Z"/>
</mask>
<path d="M8.4668 22.6333C7.09365 22.6333 5.97656 23.7504 5.97656 25.1236C5.97656 26.4967 7.09365 27.6138 8.4668 27.6138C9.83995 27.6138 10.957 26.4967 10.957 25.1236C10.957 23.7504 9.83995 22.6333 8.4668 22.6333ZM8.4668 26.6177C7.64296 26.6177 6.97266 25.9475 6.97266 25.1236C6.97266 24.2997 7.64296 23.6294 8.4668 23.6294C9.29063 23.6294 9.96094 24.2997 9.96094 25.1236C9.96094 25.9475 9.29063 26.6177 8.4668 26.6177Z" fill="#FCFCEE"/>
<path d="M8.4668 21.6333C6.54135 21.6333 4.97656 23.1981 4.97656 25.1236H6.97656C6.97656 24.3027 7.64595 23.6333 8.4668 23.6333V21.6333ZM4.97656 25.1236C4.97656 27.049 6.54138 28.6138 8.4668 28.6138V26.6138C7.64593 26.6138 6.97656 25.9444 6.97656 25.1236H4.97656ZM8.4668 28.6138C10.3923 28.6138 11.957 27.049 11.957 25.1236H9.957C9.957 25.9444 9.28765 26.6138 8.4668 26.6138V28.6138ZM11.957 25.1236C11.957 23.1982 10.3923 21.6333 8.4668 21.6333V23.6333C9.28763 23.6333 9.957 24.3026 9.957 25.1236H11.957ZM8.4668 25.6177C8.19519 25.6177 7.97266 25.3952 7.97266 25.1236H5.97266C5.97266 26.4998 7.09074 27.6177 8.4668 27.6177V25.6177ZM7.97266 25.1236C7.97266 24.852 8.19527 24.6294 8.4668 24.6294V22.6294C7.09065 22.6294 5.97266 23.7474 5.97266 25.1236H7.97266ZM8.4668 24.6294C8.73833 24.6294 8.96094 24.852 8.96094 25.1236H10.9609C10.9609 23.7474 9.84294 22.6294 8.4668 22.6294V24.6294ZM8.96094 25.1236C8.96094 25.3951 8.73841 25.6177 8.4668 25.6177V27.6177C9.84285 27.6177 10.9609 26.4999 10.9609 25.1236H8.96094Z" fill="#FCFCEE" mask="url(#path-1-inside-1)"/>
<mask id="path-3-inside-2" fill="white">
<path d="M25.5332 22.6333C24.1601 22.6333 23.043 23.7504 23.043 25.1236C23.043 26.4967 24.1601 27.6138 25.5332 27.6138C26.9064 27.6138 28.0234 26.4967 28.0234 25.1236C28.0234 23.7504 26.9064 22.6333 25.5332 22.6333ZM25.5332 26.6177C24.7094 26.6177 24.0391 25.9475 24.0391 25.1236C24.0391 24.2997 24.7094 23.6294 25.5332 23.6294C26.357 23.6294 27.0273 24.2997 27.0273 25.1236C27.0273 25.9475 26.357 26.6177 25.5332 26.6177Z"/>
</mask>
<path d="M25.5332 22.6333C24.1601 22.6333 23.043 23.7504 23.043 25.1236C23.043 26.4967 24.1601 27.6138 25.5332 27.6138C26.9064 27.6138 28.0234 26.4967 28.0234 25.1236C28.0234 23.7504 26.9064 22.6333 25.5332 22.6333ZM25.5332 26.6177C24.7094 26.6177 24.0391 25.9475 24.0391 25.1236C24.0391 24.2997 24.7094 23.6294 25.5332 23.6294C26.357 23.6294 27.0273 24.2997 27.0273 25.1236C27.0273 25.9475 26.357 26.6177 25.5332 26.6177Z" fill="#FCFCEE"/>
<path d="M25.5332 21.6333C23.6078 21.6333 22.043 23.1981 22.043 25.1236H24.043C24.043 24.3027 24.7124 23.6333 25.5332 23.6333V21.6333ZM22.043 25.1236C22.043 27.049 23.6078 28.6138 25.5332 28.6138V26.6138C24.7124 26.6138 24.043 25.9444 24.043 25.1236H22.043ZM25.5332 28.6138C27.4587 28.6138 29.0234 27.049 29.0234 25.1236H27.0234C27.0234 25.9444 26.3541 26.6138 25.5332 26.6138V28.6138ZM29.0234 25.1236C29.0234 23.1982 27.4587 21.6333 25.5332 21.6333V23.6333C26.354 23.6333 27.0234 24.3026 27.0234 25.1236H29.0234ZM25.5332 25.6177C25.2616 25.6177 25.0391 25.3952 25.0391 25.1236H23.0391C23.0391 26.4998 24.1571 27.6177 25.5332 27.6177V25.6177ZM25.0391 25.1236C25.0391 24.8519 25.2617 24.6294 25.5332 24.6294V22.6294C24.157 22.6294 23.0391 23.7475 23.0391 25.1236H25.0391ZM25.5332 24.6294C25.8046 24.6294 26.0273 24.8519 26.0273 25.1236H28.0273C28.0273 23.7475 26.9093 22.6294 25.5332 22.6294V24.6294ZM26.0273 25.1236C26.0273 25.3952 25.8047 25.6177 25.5332 25.6177V27.6177C26.9092 27.6177 28.0273 26.4998 28.0273 25.1236H26.0273Z" fill="#FCFCEE" mask="url(#path-3-inside-2)"/>
<path d="M32.4863 17.385L29.8583 16.2646L24.623 7.12461C23.8265 5.73399 22.3361 4.87012 20.7335 4.87012H2.49023C1.11709 4.87012 0 5.9872 0 7.36035V25.124C0 25.3991 0.222926 25.6221 0.498047 25.6221H4.01273C4.26136 27.8601 6.16363 29.6065 8.4668 29.6065C10.77 29.6065 12.6722 27.8601 12.9209 25.6221H21.0791C21.3277 27.8601 23.23 29.6065 25.5331 29.6065C27.8363 29.6065 29.7386 27.8601 29.9872 25.6221H33.502C33.7771 25.6221 34 25.3991 34 25.124V19.6758C34 18.6762 33.4059 17.7771 32.4863 17.385ZM2.49023 5.86621H20.7335C21.98 5.86621 23.1392 6.53811 23.7588 7.61973L24.4661 8.85449H4.48242C4.2073 8.85449 3.98438 9.07748 3.98438 9.35254C3.98438 9.62759 4.2073 9.85058 4.48242 9.85058H25.0366L29.0771 16.9048C29.131 16.9989 29.2141 17.0729 29.3139 17.1154L32.0957 18.3013C32.6474 18.5365 33.0039 19.076 33.0039 19.6758V22.6338H29.2582C28.4531 21.4334 27.0841 20.6416 25.5332 20.6416C23.23 20.6416 21.3278 22.388 21.0791 24.626H12.9209C12.6722 22.388 10.77 20.6416 8.4668 20.6416C6.91601 20.6416 5.54691 21.4334 4.7418 22.6338H0.996094V9.85058H2.49023C2.76536 9.85058 2.98828 9.62759 2.98828 9.35254C2.98828 9.07748 2.76536 8.85449 2.49023 8.85449H0.996094V7.36035C0.996094 6.53645 1.6664 5.86621 2.49023 5.86621ZM0.996094 23.6299H4.24137C4.12881 23.9472 4.05105 24.2807 4.01266 24.626H0.996094V23.6299ZM8.4668 28.6104C6.54447 28.6104 4.98047 27.0464 4.98047 25.124C4.98047 23.2016 6.54447 21.6377 8.4668 21.6377C10.3891 21.6377 11.9531 23.2016 11.9531 25.124C11.9531 27.0464 10.3891 28.6104 8.4668 28.6104ZM25.5332 28.6104C23.6109 28.6104 22.0469 27.0464 22.0469 25.124C22.0469 23.2016 23.6109 21.6377 25.5332 21.6377C27.4555 21.6377 29.0195 23.2016 29.0195 25.124C29.0195 27.0464 27.4555 28.6104 25.5332 28.6104ZM29.9873 24.626C29.9489 24.2807 29.8711 23.9472 29.7586 23.6299H33.0039V24.626H29.9873Z" fill="#FCFCEE"/>
<path d="M5.0563 8.85547H2.29297V9.8497H5.0563V8.85547Z" fill="#FCFCEE"/>
<path d="M17 17.1553H27.2134C27.3911 17.1553 27.5552 17.0607 27.6443 16.907C27.7334 16.7533 27.7339 16.5638 27.6456 16.4097L24.6027 11.0972C24.5139 10.9423 24.349 10.8467 24.1705 10.8467H17C16.7249 10.8467 16.502 11.0697 16.502 11.3447V16.6572C16.502 16.9323 16.7249 17.1553 17 17.1553ZM17.498 11.8428H23.8817L26.3541 16.1592H17.498V11.8428Z" fill="#FCFCEE"/>
<path fill-rule="evenodd" clip-rule="evenodd" d="M2.51367 17.1553H12.7271C12.9047 17.1553 13.0977 17.0781 13.1579 16.907C13.1593 16.7383 13.1593 16.7243 13.1593 16.4097L13.1579 11.3447C13.139 11.1787 12.9906 10.8467 12.5489 10.8467H2.51367C2.23855 10.8467 2.01562 11.0697 2.01562 11.3447V16.6572C2.01562 16.9323 2.23855 17.1553 2.51367 17.1553ZM12.0162 16.1592H3.16017V11.8428H12.0162V16.1592Z" fill="#FCFCEE"/>
</svg>
