<svg width="35" height="35" viewBox="0 0 35 35" fill="none" xmlns="http://www.w3.org/2000/svg">
<g clip-path="url(#clip0)">
<path d="M34.4618 8.78955L34.4619 8.79065C34.4905 9.73978 33.7466 10.5335 32.7977 10.5664H28.8319H28.7955V10.6028V12.8693V12.9057H28.8319H33.9316C34.2244 12.9057 34.4618 13.1431 34.4618 13.436V15.7025C34.4618 15.9954 34.2244 16.2328 33.9316 16.2328H33.365H33.3286V16.2692V33.8349C33.3286 34.1277 33.0912 34.3652 32.7983 34.3652H2.19991C1.90708 34.3652 1.66966 34.1277 1.66966 33.8349V16.2692V16.2328H1.63327H1.06664C0.773809 16.2328 0.536389 15.9954 0.536389 15.7025V13.436C0.536389 13.1431 0.773809 12.9057 1.06664 12.9057H6.19187H6.22516L6.22812 12.8726C6.33392 11.6845 6.78733 10.7672 7.58085 10.1187C8.37532 9.46951 9.51456 9.08674 10.9974 8.97657L11.1159 8.96776L11.0128 8.9087C10.4061 8.56124 9.90316 8.05826 9.5557 7.45163C8.47696 5.56814 9.12929 3.1668 11.0128 2.08806C12.8963 1.00933 15.2976 1.66165 16.3763 3.54513C17.4551 5.42862 16.8028 7.82997 14.9193 8.9087L14.8161 8.96776L14.9347 8.97657C16.4175 9.08674 17.5566 9.46951 18.351 10.1187C19.1444 10.7672 19.5978 11.6845 19.7039 12.8726L19.7069 12.9057H19.7402H24.2988H24.3352V12.8693V10.6028V10.5664H24.2988H20.3329C19.384 10.5335 18.6401 9.73978 18.6688 8.79065H18.6688V8.78955V2.15026H18.6688L18.6687 2.1486C18.6276 1.25065 19.3185 0.487662 20.216 0.439709H32.9146C33.8122 0.487662 34.503 1.25065 34.4619 2.1486L34.4618 2.1486V2.15026L34.4618 8.78955ZM10.0964 5.50306V5.5031C10.0983 7.08708 11.382 8.37069 12.966 8.37263H12.966C14.5508 8.37263 15.8356 7.08785 15.8356 5.50306C15.8356 3.91826 14.5508 2.63348 12.966 2.63348C11.3812 2.63348 10.0964 3.91826 10.0964 5.50306ZM18.5973 12.9057H18.638L18.6334 12.8652C18.5207 11.88 18.0998 11.161 17.3349 10.6899C16.5724 10.2204 15.472 9.99976 14.0047 9.99976H11.9274C10.4609 9.99976 9.36052 10.2204 8.59779 10.6899C7.83267 11.161 7.41133 11.88 7.29862 12.8652L7.29399 12.9057H7.33478H18.5973ZM3.89982 33.3047H3.93621V33.2683V16.2692V16.2328H3.89982H2.76655H2.73016V16.2692V33.2683V33.3047H2.76655H3.89982ZM20.8989 33.3047H20.9353V33.2683V16.2692V16.2328H20.8989H5.0331H4.99671V16.2692V33.2683V33.3047H5.0331H20.8989ZM32.2317 17.4388H32.2681V17.4024V16.2692V16.2328H32.2317H22.0322H21.9958V16.2692V33.2683V33.3047H22.0322H32.2317H32.2681V33.2683V18.5357V18.4993H32.2317H30.0015V17.4388H32.2317ZM33.4013 14.0026V13.9662H33.365H1.63327H1.59689V14.0026V15.1359V15.1723H1.63327H33.365H33.4013V15.1359V14.0026ZM27.735 10.6028V10.5664H27.6986H25.432H25.3956V10.6028V12.8693V12.9057H25.432H27.6986H27.735V12.8693V10.6028ZM25.3956 9.46952V9.50591H25.432H27.6986H27.735V9.46952V6.06969V6.0333H27.6986H25.432H25.3956V6.06969V9.46952ZM24.2988 9.50591H24.3352V9.46952V5.50306C24.3352 5.21023 24.5726 4.97281 24.8654 4.97281H28.2652C28.5581 4.97281 28.7955 5.21016 28.7955 5.50306V9.46952V9.50591H28.8319H32.7983V9.50609L32.802 9.50572C33.1638 9.46944 33.4301 9.15039 33.4013 8.78806V2.15026C33.4013 1.97784 33.3477 1.81681 33.261 1.69809C33.1745 1.57961 33.0524 1.50021 32.9156 1.50021H20.215C20.0783 1.50021 19.9561 1.57961 19.8696 1.69809C19.7829 1.81681 19.7293 1.97784 19.7293 2.15026V8.78809C19.7005 9.15041 19.9668 9.46944 20.3287 9.50572L20.3287 9.50591H20.3323H24.2988Z" fill="#FCFCEE" stroke="#FCFCEE" stroke-width="0.0727782"/>
<path d="M27.7356 18.5012V17.4407H28.7961V18.5012H27.7356Z" fill="#FCFCEE" stroke="#FCFCEE" stroke-width="0.0727782"/>
<path d="M26.0325 3.76876V2.70826H27.093V3.76876H26.0325Z" fill="#FCFCEE" stroke="#FCFCEE" stroke-width="0.0727782"/>
</g>
<defs>
<clipPath id="clip0">
<rect width="34" height="34" fill="white" transform="translate(0.5 0.40332)"/>
</clipPath>
</defs>
</svg>
