<svg width="35" height="35" viewBox="0 0 35 35" fill="none" xmlns="http://www.w3.org/2000/svg">
<g clip-path="url(#clip0)">
<path d="M34.3496 5.74479V4.61146H11.6829C11.0573 4.61229 10.5504 5.11919 10.5496 5.74479H8.28294V4.04479C8.28294 1.85394 6.50713 0.078125 4.31628 0.078125C2.12542 0.078125 0.349609 1.85394 0.349609 4.04479V14.2448C0.349609 16.4356 2.12542 18.2115 4.31628 18.2115C6.50713 18.2115 8.28294 16.4356 8.28294 14.2448V6.87813H10.5496C10.5504 7.50373 11.0573 8.01063 11.6829 8.01146H34.3496V6.87813H14.5163V5.74479H34.3496ZM1.48294 4.04479C1.48294 2.48009 2.75158 1.21146 4.31628 1.21146C5.88097 1.21146 7.14961 2.48009 7.14961 4.04479V6.87813H1.48294V4.04479ZM7.14961 14.2448C7.14961 15.8095 5.88097 17.0781 4.31628 17.0781C2.75158 17.0781 1.48294 15.8095 1.48294 14.2448V8.01146H7.14961V14.2448ZM13.3829 6.87813H11.6829V5.74479H13.3829V6.87813Z" fill="#FCFCEE"/>
<path d="M2.61523 13.6772H3.74857V14.8106H2.61523V13.6772Z" fill="#FCFCEE"/>
<path d="M4.88281 13.6772H6.01615V14.8106H4.88281V13.6772Z" fill="#FCFCEE"/>
<path d="M2.61523 11.4116H3.74857V12.545H2.61523V11.4116Z" fill="#FCFCEE"/>
<path d="M4.88281 11.4116H6.01615V12.545H4.88281V11.4116Z" fill="#FCFCEE"/>
<path d="M2.61523 9.146H3.74857V10.2793H2.61523V9.146Z" fill="#FCFCEE"/>
<path d="M4.88281 9.146H6.01615V10.2793H4.88281V9.146Z" fill="#FCFCEE"/>
<path d="M30.9491 10.846V32.3793C30.9488 32.6923 30.6954 32.9457 30.3824 32.946H24.7158C24.4028 32.9457 24.1494 32.6923 24.1491 32.3793V30.6793C25.0876 30.6782 25.848 29.9179 25.8491 28.9793V26.7127H26.4158C27.3543 26.7116 28.1146 25.9512 28.1158 25.0127V20.4793C28.7414 20.4785 29.2483 19.9716 29.2491 19.346V18.7793C29.2491 13.4591 24.936 9.146 19.6158 9.146C14.2955 9.146 9.98242 13.4591 9.98242 18.7793V19.346C9.98325 19.9716 10.4902 20.4785 11.1158 20.4793V25.0127C11.1169 25.9512 11.8772 26.7116 12.8158 26.7127H13.3824V28.9793C13.3835 29.9179 14.1439 30.6782 15.0824 30.6793H16.2158C17.1543 30.6782 17.9146 29.9179 17.9158 28.9793V23.3127C17.9146 22.3741 17.1543 21.6138 16.2158 21.6127H15.0824C14.1439 21.6138 13.3835 22.3741 13.3824 23.3127V25.5793H12.8158C12.5028 25.5791 12.2494 25.3256 12.2491 25.0127V20.4793H12.8158C13.7543 20.4782 14.5146 19.7179 14.5158 18.7793C14.5158 15.9626 16.799 13.6793 19.6158 13.6793C22.4325 13.6793 24.7158 15.9626 24.7158 18.7793C24.7169 19.7179 25.4772 20.4782 26.4158 20.4793H26.9824V25.0127C26.9821 25.3256 26.7287 25.5791 26.4158 25.5793H25.8491V23.3127C25.848 22.3741 25.0876 21.6138 24.1491 21.6127H23.0158C22.0772 21.6138 21.3169 22.3741 21.3158 23.3127V28.9793C21.3169 29.9179 22.0772 30.6782 23.0158 30.6793V32.3793C23.0169 33.3179 23.7772 34.0782 24.7158 34.0793H30.3824C31.321 34.0782 32.0813 33.3179 32.0824 32.3793V10.846C32.0827 10.5331 32.3361 10.2796 32.6491 10.2793H34.3491V9.146H32.6491C31.7105 9.1471 30.9502 9.90745 30.9491 10.846ZM14.5158 23.3127C14.516 22.9997 14.7695 22.7463 15.0824 22.746H16.2158C16.5287 22.7463 16.7821 22.9997 16.7824 23.3127V28.9793C16.7821 29.2923 16.5287 29.5457 16.2158 29.546H15.0824C14.7695 29.5457 14.516 29.2923 14.5158 28.9793V23.3127ZM25.8491 18.7793C25.8491 15.3367 23.0584 12.546 19.6158 12.546C16.1731 12.546 13.3824 15.3367 13.3824 18.7793C13.3821 19.0923 13.1287 19.3457 12.8158 19.346H11.1158V18.7793C11.1158 14.085 14.9214 10.2793 19.6158 10.2793C24.3101 10.2793 28.1158 14.085 28.1158 18.7793V19.346H26.4158C26.1028 19.3457 25.8494 19.0923 25.8491 18.7793ZM22.4491 28.9793V23.3127C22.4494 22.9997 22.7028 22.7463 23.0158 22.746H24.1491C24.462 22.7463 24.7155 22.9997 24.7158 23.3127V28.9793C24.7155 29.2923 24.462 29.5457 24.1491 29.546H23.0158C22.7028 29.5457 22.4494 29.2923 22.4491 28.9793Z" fill="#FCFCEE"/>
</g>
<defs>
<clipPath id="clip0">
<rect width="34" height="34" fill="white" transform="translate(0.349609 0.078125)"/>
</clipPath>
</defs>
</svg>
