<svg width="35" height="35" viewBox="0 0 35 35" fill="none" xmlns="http://www.w3.org/2000/svg">
<path d="M26.5447 27.623H26.338V18.7253C26.338 16.4027 25.4153 14.1751 23.773 12.5328C22.1306 10.8904 19.9031 9.96777 17.5805 9.96777C15.2578 9.96777 13.0303 10.8904 11.3879 12.5328C9.74559 14.1751 8.82292 16.4027 8.82292 18.7253V27.623H8.61624C7.88508 27.623 7.18386 27.9134 6.66684 28.4304C6.14983 28.9474 5.85938 29.6487 5.85938 30.3798C5.85938 31.111 6.14983 31.8122 6.66684 32.3292C7.18386 32.8462 7.88508 33.1367 8.61624 33.1367H26.5447C27.2758 33.1367 27.977 32.8462 28.4941 32.3292C29.0111 31.8122 29.3015 31.111 29.3015 30.3798C29.3015 29.6487 29.0111 28.9474 28.4941 28.4304C27.977 27.9134 27.2758 27.623 26.5447 27.623ZM10.2241 18.7253C10.2241 16.7743 10.9992 14.9032 12.3787 13.5236C13.7583 12.144 15.6294 11.369 17.5805 11.369C19.5315 11.369 21.4026 12.144 22.7822 13.5236C24.1617 14.9032 24.9368 16.7743 24.9368 18.7253V27.623H10.2241V18.7253ZM26.5447 31.7355H8.61624C8.2567 31.7355 7.91188 31.5927 7.65764 31.3384C7.40341 31.0842 7.26058 30.7394 7.26058 30.3798C7.26058 30.0203 7.40341 29.6755 7.65764 29.4212C7.91188 29.167 8.2567 29.0242 8.61624 29.0242H26.5447C26.9042 29.0242 27.249 29.167 27.5033 29.4212C27.7575 29.6755 27.9003 30.0203 27.9003 30.3798C27.9003 30.7394 27.7575 31.0842 27.5033 31.3384C27.249 31.5927 26.9042 31.7355 26.5447 31.7355Z" fill="#FCFCEE"/>
<path d="M18.2801 5.74691V2.0092C18.2801 1.82338 18.2063 1.64518 18.0749 1.5138C17.9435 1.38241 17.7653 1.30859 17.5795 1.30859C17.3937 1.30859 17.2155 1.38241 17.0841 1.5138C16.9527 1.64518 16.8789 1.82338 16.8789 2.0092V5.74691C16.8789 5.93272 16.9527 6.11092 17.0841 6.24231C17.2155 6.3737 17.3937 6.44751 17.5795 6.44751C17.7653 6.44751 17.9435 6.3737 18.0749 6.24231C18.2063 6.11092 18.2801 5.93272 18.2801 5.74691Z" fill="#FCFCEE"/>
<path d="M24.3248 8.99397C24.5016 8.99711 24.673 8.93329 24.8047 8.81531L27.6316 6.16353C27.7062 6.10358 27.7677 6.029 27.8123 5.94438C27.8569 5.85976 27.8837 5.76691 27.8911 5.67153C27.8984 5.57615 27.8862 5.48028 27.8551 5.38982C27.824 5.29935 27.7747 5.21622 27.7102 5.14553C27.6458 5.07485 27.5675 5.01811 27.4803 4.97882C27.3931 4.93953 27.2988 4.91851 27.2031 4.91707C27.1075 4.91563 27.0125 4.93379 26.9242 4.97044C26.8358 5.00708 26.7559 5.06143 26.6893 5.13014L23.8624 7.78192C23.7597 7.87803 23.6884 8.00281 23.6576 8.14002C23.6268 8.27724 23.6381 8.42054 23.6898 8.55129C23.7416 8.68204 23.8315 8.79418 23.9479 8.87313C24.0643 8.95208 24.2017 8.99418 24.3423 8.99397H24.3248Z" fill="#FCFCEE"/>
<path d="M10.8388 8.99416C10.9794 8.99438 11.1168 8.95227 11.2332 8.87332C11.3496 8.79437 11.4395 8.68223 11.4912 8.55148C11.543 8.42073 11.5542 8.27743 11.5235 8.14022C11.4927 8.003 11.4213 7.87823 11.3187 7.78212L8.47423 5.13034C8.33859 5.00306 8.15794 4.93487 7.97202 4.94078C7.78611 4.9467 7.61016 5.02622 7.48288 5.16186C7.3556 5.29751 7.28741 5.47815 7.29332 5.66407C7.29924 5.84998 7.37876 6.02594 7.5144 6.15322L10.3624 8.81551C10.4932 8.93265 10.6632 8.99641 10.8388 8.99416Z" fill="#FCFCEE"/>
</svg>
