<svg width="35" height="35" viewBox="0 0 35 35" fill="none" xmlns="http://www.w3.org/2000/svg">
<path d="M22.0482 9.45215H13.1193C12.0729 9.45215 11.2227 10.3024 11.2227 11.3488V20.2777C11.2227 21.3241 12.0729 22.1744 13.1193 22.1744H22.0482C23.0947 22.1744 23.9449 21.3241 23.9449 20.2777V11.3522C23.9449 10.3058 23.0947 9.45215 22.0482 9.45215ZM22.9122 20.2777C22.9122 20.7562 22.5233 21.1417 22.0482 21.1417H13.1193C12.6408 21.1417 12.2553 20.7527 12.2553 20.2777V11.3522C12.2553 10.8738 12.6443 10.4882 13.1193 10.4882H22.0482C22.5267 10.4882 22.9122 10.8772 22.9122 11.3522V20.2777Z" fill="#FCFCEE" stroke="#FCFCEE" stroke-width="0.1"/>
<path d="M14.8945 14.4843V18.9695H20.2746V14.4843L17.5863 12.543L14.8945 14.4843ZM19.2454 17.9334H18.1026V16.202C18.1026 15.9163 17.872 15.6857 17.5863 15.6857C17.3006 15.6857 17.07 15.9163 17.07 16.202V17.9334H15.9272V15.011L17.5863 13.8166L19.2454 15.011V17.9334Z" fill="#FCFCEE" stroke="#FCFCEE" stroke-width="0.1"/>
<path d="M16.3913 5.0219H18.7733C19.059 5.0219 19.2896 4.79128 19.2896 4.50558C19.2896 4.21988 19.059 3.98926 18.7733 3.98926H16.3913C16.1056 3.98926 15.875 4.21988 15.875 4.50558C15.875 4.79128 16.1056 5.0219 16.3913 5.0219Z" fill="#FCFCEE" stroke="#FCFCEE" stroke-width="0.1"/>
<path d="M24.3821 1.21484H10.7856C9.52576 1.21484 8.5 2.24061 8.5 3.50044V30.9447C8.5 32.2046 9.52576 33.2303 10.7856 33.2303H24.3787C25.6385 33.2303 26.6643 32.2046 26.6643 30.9447V3.50044C26.6643 2.24061 25.6385 1.21484 24.3821 1.21484ZM25.6316 30.9413C25.6316 31.6297 25.0705 32.1942 24.3787 32.1942H10.7856C10.0972 32.1942 9.53265 31.6332 9.53265 30.9413V3.50044C9.53265 2.812 10.0937 2.24749 10.7856 2.24749H24.3787C25.0671 2.24749 25.6316 2.80856 25.6316 3.50044V30.9413Z" fill="#FCFCEE" stroke="#FCFCEE" stroke-width="0.1"/>
<path d="M17.5817 26.8789C16.6523 26.8789 15.8984 27.6327 15.8984 28.5621C15.8984 29.4915 16.6523 30.2453 17.5817 30.2453C18.511 30.2453 19.2649 29.4915 19.2649 28.5621C19.2649 27.6327 18.511 26.8789 17.5817 26.8789ZM17.5817 29.2127C17.2237 29.2127 16.9311 28.9201 16.9311 28.5621C16.9311 28.2041 17.2237 27.9116 17.5817 27.9116C17.9396 27.9116 18.2322 28.2041 18.2322 28.5621C18.2322 28.9201 17.9396 29.2127 17.5817 29.2127Z" fill="#FCFCEE" stroke="#FCFCEE" stroke-width="0.1"/>
</svg>
