<svg width="34" height="35" viewBox="0 0 34 35" fill="none" xmlns="http://www.w3.org/2000/svg">
<g clip-path="url(#clip0)">
<path d="M17.4436 19.1576C17.3807 19.144 17.3162 19.1416 17.2525 19.1511C16.6139 19.0767 16.1322 18.5365 16.1311 17.8938C16.1311 17.5858 15.8814 17.3361 15.5734 17.3361C15.2654 17.3361 15.0157 17.5858 15.0157 17.8938C15.0173 18.967 15.7351 19.907 16.7699 20.1911V20.7488C16.7699 21.0567 17.0196 21.3064 17.3276 21.3064C17.6356 21.3064 17.8853 21.0567 17.8853 20.7488V20.2248C19.0797 19.9748 19.8915 18.8624 19.7659 17.6487C19.6401 16.435 18.6176 15.5127 17.3973 15.5124C16.698 15.5124 16.1311 14.9455 16.1311 14.2462C16.1311 13.5469 16.698 12.9799 17.3973 12.9799C18.0966 12.9799 18.6636 13.5469 18.6636 14.2462C18.6636 14.5542 18.9133 14.8039 19.2213 14.8039C19.5293 14.8039 19.779 14.5542 19.779 14.2462C19.7774 13.1193 18.9879 12.1475 17.8853 11.9149V11.4073C17.8853 11.0993 17.6356 10.8496 17.3276 10.8496C17.0196 10.8496 16.7699 11.0993 16.7699 11.4073V11.9489C15.6191 12.2632 14.8784 13.3805 15.0369 14.5629C15.1954 15.7453 16.2043 16.6278 17.3973 16.6276C18.0874 16.6276 18.6503 17.1801 18.6628 17.8699C18.6756 18.5596 18.1331 19.1326 17.4436 19.1576Z" fill="#FEFEFE"/>
<path d="M9.30859 16.1128C9.30859 20.5793 12.9293 24.2 17.3958 24.2C21.8622 24.2 25.4829 20.5793 25.4829 16.1128C25.4829 11.6463 21.8622 8.02563 17.3958 8.02563C12.9315 8.03054 9.31377 11.6485 9.30859 16.1128ZM17.3958 9.14103C21.2463 9.14103 24.3675 12.2623 24.3675 16.1128C24.3675 19.9633 21.2463 23.0846 17.3958 23.0846C13.5452 23.0846 10.424 19.9633 10.424 16.1128C10.4283 12.2642 13.5472 9.14539 17.3958 9.14103Z" fill="#FEFEFE"/>
<path d="M28.2325 25.5748L23.8638 27.6389C23.2606 26.517 22.1035 25.803 20.8302 25.7671L16.7972 25.6562C16.1587 25.638 15.5321 25.4762 14.9643 25.1829L14.5539 24.9703C12.4528 23.875 9.94829 23.8777 7.84929 24.9773L7.87489 24.0477C7.88333 23.7397 7.6407 23.4832 7.33271 23.4747L2.91034 23.353C2.60235 23.3446 2.34611 23.5872 2.33767 23.8952L2.07053 33.5999C2.06208 33.9079 2.30472 34.1644 2.6127 34.1728L7.03508 34.2946H7.05032C7.35259 34.2946 7.59985 34.0541 7.60802 33.7521L7.62082 33.2878L8.76971 32.6727C9.22066 32.43 9.74786 32.3723 10.2405 32.5117L17.1011 34.4372C17.1131 34.4408 17.1251 34.4435 17.1374 34.4462C17.6332 34.55 18.1387 34.602 18.6452 34.6017C19.7181 34.6023 20.7785 34.3711 21.7536 33.9234C21.7776 33.9125 21.8007 33.8997 21.8228 33.8853L31.7701 27.451C32.0179 27.2907 32.098 26.9652 31.9529 26.7082C31.2143 25.3978 29.5764 24.8986 28.2325 25.5748ZM3.2009 33.0732L3.43727 24.4834L6.74452 24.5743L6.50815 33.1645L3.2009 33.0732ZM21.2512 32.9273C20.0397 33.4741 18.6866 33.6249 17.3844 33.3589L10.5422 31.4383C9.7721 31.2207 8.94781 31.3108 8.24333 31.6896L7.65622 32.0041L7.81335 26.2929C9.67379 25.0555 12.0598 24.9283 14.0412 25.9607L14.4515 26.1733C15.1688 26.5437 15.9599 26.7479 16.7667 26.7713L20.8 26.8822C21.9328 26.9149 22.8949 27.7215 23.1247 28.8314L17.1172 28.6656C16.8092 28.6571 16.553 28.9 16.5443 29.2077C16.5358 29.5157 16.7787 29.7722 17.0864 29.7807L23.7162 29.9631H23.7317C24.0337 29.9629 24.2807 29.7224 24.2889 29.4207C24.2957 29.1783 24.2777 28.9357 24.2349 28.6972L28.7159 26.5799C28.7202 26.578 28.7246 26.5758 28.7289 26.5736C29.3645 26.252 30.133 26.3596 30.6558 26.8435L21.2512 32.9273Z" fill="#FEFEFE"/>
<path d="M17.9552 6.45764V1.1595C17.9552 0.851518 17.7055 0.601807 17.3975 0.601807C17.0896 0.601807 16.8398 0.851518 16.8398 1.1595V6.45764C16.8398 6.76562 17.0896 7.01534 17.3975 7.01534C17.7055 7.01534 17.9552 6.76562 17.9552 6.45764Z" fill="#FEFEFE"/>
<path d="M22.1388 6.45772V3.94808C22.1388 3.64009 21.8891 3.39038 21.5811 3.39038C21.2731 3.39038 21.0234 3.64009 21.0234 3.94808V6.45772C21.0234 6.76571 21.2731 7.01542 21.5811 7.01542C21.8891 7.01542 22.1388 6.76571 22.1388 6.45772Z" fill="#FEFEFE"/>
<path d="M13.7716 6.45772V3.94808C13.7716 3.64009 13.5219 3.39038 13.2139 3.39038C12.906 3.39038 12.6562 3.64009 12.6562 3.94808V6.45772C12.6562 6.76571 12.906 7.01542 13.2139 7.01542C13.5219 7.01542 13.7716 6.76571 13.7716 6.45772Z" fill="#FEFEFE"/>
</g>
<defs>
<clipPath id="clip0">
<rect width="34" height="34" fill="white" transform="translate(0 0.601807)"/>
</clipPath>
</defs>
</svg>
