<svg width="34" height="35" viewBox="0 0 34 35" fill="none" xmlns="http://www.w3.org/2000/svg">
<path d="M32.6672 32.2089H29.7829V22.7701H30.887C30.9757 22.7701 31.0608 22.7349 31.1235 22.6722C31.1862 22.6095 31.2215 22.5244 31.2215 22.4357V19.7779C31.2215 19.6892 31.1862 19.6041 31.1235 19.5414C31.0608 19.4787 30.9757 19.4435 30.887 19.4435H28.4786L27.8444 13.4374C27.8358 13.3552 27.7971 13.279 27.7357 13.2237C27.6743 13.1683 27.5946 13.1377 27.5119 13.1376H25.1872C25.1046 13.1377 25.0249 13.1683 24.9635 13.2237C24.9021 13.279 24.8633 13.3552 24.8548 13.4374L24.2245 19.4435H21.7375L21.0968 11.0106C21.0904 10.9266 21.0525 10.8482 20.9907 10.7909C20.929 10.7336 20.8479 10.7018 20.7637 10.7017H17.994C17.9097 10.7018 17.8285 10.7336 17.7666 10.7909C17.7048 10.8481 17.6668 10.9266 17.6602 11.0106L17.0195 19.4435H14.467L13.9736 8.89929C13.9695 8.81335 13.9325 8.73226 13.8702 8.6729C13.8079 8.61354 13.7252 8.58047 13.6391 8.58057H8.99239C8.90635 8.58047 8.82358 8.61354 8.76129 8.6729C8.69901 8.73226 8.662 8.81335 8.65795 8.89929L8.1082 20.6438H3.16368C3.07499 20.6438 2.98992 20.679 2.9272 20.7417C2.86448 20.8044 2.82925 20.8895 2.82925 20.9782V32.2089H1.38353C1.3373 32.2048 1.29072 32.2104 1.24676 32.2252C1.2028 32.2401 1.16241 32.264 1.12818 32.2953C1.09394 32.3266 1.0666 32.3648 1.0479 32.4072C1.02919 32.4497 1.01953 32.4956 1.01953 32.542C1.01953 32.5884 1.02919 32.6343 1.0479 32.6768C1.0666 32.7193 1.09394 32.7574 1.12818 32.7887C1.16241 32.8201 1.2028 32.8439 1.24676 32.8588C1.29072 32.8737 1.3373 32.8792 1.38353 32.8751H3.05504C3.12526 32.9004 3.2021 32.9004 3.27232 32.8751H7.77704C7.81189 32.8877 7.84864 32.8941 7.88568 32.8941H14.7471C14.7842 32.8941 14.8209 32.8877 14.8558 32.8751H32.6672C32.7559 32.8751 32.8409 32.8399 32.9037 32.7772C32.9664 32.7145 33.0016 32.6294 33.0016 32.5407C33.0016 32.452 32.9664 32.3669 32.9037 32.3042C32.8409 32.2415 32.7559 32.2063 32.6672 32.2063V32.2089ZM29.1141 32.2089H26.4072V29.5053C26.4073 29.4613 26.3987 29.4178 26.3819 29.3772C26.3651 29.3366 26.3405 29.2997 26.3094 29.2686C26.2783 29.2375 26.2414 29.2129 26.2008 29.1961C26.1602 29.1793 26.1167 29.1708 26.0727 29.1708H17.6065C17.5626 29.1708 17.5191 29.1795 17.4785 29.1963C17.438 29.2131 17.4011 29.2377 17.37 29.2688C17.339 29.2998 17.3143 29.3367 17.2975 29.3773C17.2807 29.4179 17.2721 29.4614 17.2721 29.5053V32.2089H15.0652L14.6241 22.7701H29.1141V32.2089ZM7.82547 26.6937H6.08065V24.2453H7.94L7.82547 26.6937ZM5.41179 26.6937H3.49812V24.2453H5.41179V26.6937ZM3.49812 27.3625H5.41179V29.6061H3.49812V27.3625ZM6.08065 27.3625H7.79733L7.69196 29.6061H6.08065V27.3625ZM7.65793 30.2749L7.56695 32.2089H6.08065V30.2749H7.65793ZM8.23648 32.2089L9.19135 11.8136H13.4415L14.3957 32.2089H8.23648ZM25.4883 13.8052H27.2109L27.8045 19.4435H24.8947L25.4883 13.8052ZM18.3035 11.3706H20.4508L21.0641 19.4435H17.6903L18.3035 11.3706ZM17.3297 20.113H30.55V22.1019H14.5927L14.4998 20.113H17.3297ZM13.3217 9.24878L13.4101 11.1467H9.22145L9.30981 9.24878H13.3217ZM7.97142 23.5764H6.08065V21.3126H8.07744L7.97142 23.5764ZM5.41179 21.3126V23.5764H3.49812V21.3126H5.41179ZM3.49812 30.2749H5.41179V32.2089H3.49812V30.2749ZM17.9416 32.2089V29.8397H25.7383V32.2089H17.9416Z" fill="#FCFCEE" stroke="#FCFCEE" stroke-width="0.3"/>
<path d="M17.6041 25.6478C17.6928 25.6478 17.7779 25.6126 17.8407 25.5499C17.9034 25.4871 17.9386 25.402 17.9386 25.3133V24.2252C17.9386 24.1364 17.9034 24.0514 17.8407 23.9886C17.7779 23.9259 17.6928 23.8906 17.6041 23.8906C17.5154 23.8906 17.4303 23.9259 17.3675 23.9886C17.3048 24.0514 17.2695 24.1364 17.2695 24.2252V25.3133C17.2695 25.3572 17.2782 25.4007 17.295 25.4413C17.3118 25.4819 17.3365 25.5188 17.3675 25.5499C17.3986 25.5809 17.4355 25.6056 17.4761 25.6224C17.5166 25.6392 17.5602 25.6478 17.6041 25.6478Z" fill="#FCFCEE" stroke="#FCFCEE" stroke-width="0.3"/>
<path d="M20.4283 25.6478C20.517 25.6478 20.6021 25.6126 20.6649 25.5499C20.7276 25.4871 20.7629 25.402 20.7629 25.3133V24.2252C20.7629 24.1364 20.7276 24.0514 20.6649 23.9886C20.6021 23.9259 20.517 23.8906 20.4283 23.8906C20.3396 23.8906 20.2545 23.9259 20.1917 23.9886C20.129 24.0514 20.0938 24.1364 20.0938 24.2252V25.3133C20.0938 25.3572 20.1024 25.4007 20.1192 25.4413C20.136 25.4819 20.1607 25.5188 20.1917 25.5499C20.2228 25.5809 20.2597 25.6056 20.3003 25.6224C20.3409 25.6392 20.3844 25.6478 20.4283 25.6478Z" fill="#FCFCEE" stroke="#FCFCEE" stroke-width="0.3"/>
<path d="M23.2525 25.6478C23.2965 25.6479 23.34 25.6393 23.3807 25.6226C23.4213 25.6058 23.4582 25.5811 23.4893 25.5501C23.5204 25.519 23.545 25.4821 23.5618 25.4414C23.5786 25.4008 23.5872 25.3573 23.5871 25.3133V24.2252C23.5871 24.1364 23.5518 24.0514 23.4891 23.9886C23.4263 23.9259 23.3413 23.8906 23.2525 23.8906C23.1638 23.8906 23.0787 23.9259 23.016 23.9886C22.9532 24.0514 22.918 24.1364 22.918 24.2252V25.3133C22.918 25.402 22.9532 25.4871 23.016 25.5499C23.0787 25.6126 23.1638 25.6478 23.2525 25.6478Z" fill="#FCFCEE" stroke="#FCFCEE" stroke-width="0.3"/>
<path d="M26.0728 25.6478C26.1168 25.6479 26.1603 25.6393 26.201 25.6226C26.2416 25.6058 26.2785 25.5811 26.3096 25.5501C26.3407 25.519 26.3653 25.4821 26.3821 25.4414C26.3989 25.4008 26.4075 25.3573 26.4074 25.3133V24.2252C26.4074 24.1364 26.3721 24.0514 26.3094 23.9886C26.2467 23.9259 26.1616 23.8906 26.0728 23.8906C25.9841 23.8906 25.899 23.9259 25.8363 23.9886C25.7735 24.0514 25.7383 24.1364 25.7383 24.2252V25.3133C25.7383 25.402 25.7735 25.4871 25.8363 25.5499C25.899 25.6126 25.9841 25.6478 26.0728 25.6478Z" fill="#FCFCEE" stroke="#FCFCEE" stroke-width="0.3"/>
<path d="M17.6073 28.3686C17.6514 28.3686 17.6951 28.36 17.7359 28.3431C17.7766 28.3263 17.8136 28.3015 17.8448 28.2703C17.8759 28.2391 17.9006 28.2021 17.9174 28.1613C17.9342 28.1205 17.9427 28.0768 17.9425 28.0327V26.9459C17.9425 26.8572 17.9073 26.7721 17.8446 26.7093C17.7818 26.6466 17.6967 26.6113 17.608 26.6113C17.5193 26.6113 17.4342 26.6466 17.3714 26.7093C17.3087 26.7721 17.2734 26.8572 17.2734 26.9459V28.0327C17.2733 28.0767 17.2818 28.1203 17.2985 28.161C17.3152 28.2017 17.3397 28.2387 17.3707 28.2699C17.4017 28.3011 17.4386 28.3258 17.4792 28.3428C17.5198 28.3597 17.5633 28.3685 17.6073 28.3686Z" fill="#FCFCEE" stroke="#FCFCEE" stroke-width="0.3"/>
<path d="M20.4283 28.3686C20.517 28.3686 20.6021 28.3333 20.6649 28.2706C20.7276 28.2078 20.7629 28.1227 20.7629 28.034V26.9459C20.7629 26.8572 20.7276 26.7721 20.6649 26.7093C20.6021 26.6466 20.517 26.6113 20.4283 26.6113C20.3396 26.6113 20.2545 26.6466 20.1917 26.7093C20.129 26.7721 20.0938 26.8572 20.0938 26.9459V28.0327C20.0936 28.0767 20.1021 28.1204 20.1188 28.1611C20.1356 28.2019 20.1602 28.2389 20.1913 28.2701C20.2224 28.3013 20.2593 28.3261 20.3 28.343C20.3406 28.3599 20.3843 28.3686 20.4283 28.3686Z" fill="#FCFCEE" stroke="#FCFCEE" stroke-width="0.3"/>
<path d="M23.2525 28.3686C23.2965 28.3686 23.34 28.36 23.3807 28.3433C23.4213 28.3265 23.4582 28.3018 23.4893 28.2708C23.5204 28.2397 23.545 28.2028 23.5618 28.1621C23.5786 28.1215 23.5872 28.078 23.5871 28.034V26.9459C23.5871 26.8572 23.5518 26.7721 23.4891 26.7093C23.4263 26.6466 23.3413 26.6113 23.2525 26.6113C23.1638 26.6113 23.0787 26.6466 23.016 26.7093C22.9532 26.7721 22.918 26.8572 22.918 26.9459V28.0327C22.9178 28.0767 22.9263 28.1204 22.9431 28.1611C22.9598 28.2019 22.9844 28.2389 23.0155 28.2701C23.0466 28.3013 23.0835 28.3261 23.1242 28.343C23.1649 28.3599 23.2085 28.3686 23.2525 28.3686Z" fill="#FCFCEE" stroke="#FCFCEE" stroke-width="0.3"/>
<path d="M26.0728 28.3686C26.1168 28.3686 26.1603 28.36 26.201 28.3433C26.2416 28.3265 26.2785 28.3018 26.3096 28.2708C26.3407 28.2397 26.3653 28.2028 26.3821 28.1621C26.3989 28.1215 26.4075 28.078 26.4074 28.034V26.9459C26.4074 26.8572 26.3721 26.7721 26.3094 26.7093C26.2467 26.6466 26.1616 26.6113 26.0728 26.6113C25.9841 26.6113 25.899 26.6466 25.8363 26.7093C25.7735 26.7721 25.7383 26.8572 25.7383 26.9459V28.0327C25.7381 28.0767 25.7466 28.1204 25.7634 28.1611C25.7801 28.2019 25.8047 28.2389 25.8358 28.2701C25.8669 28.3013 25.9038 28.3261 25.9445 28.343C25.9852 28.3599 26.0288 28.3686 26.0728 28.3686Z" fill="#FCFCEE" stroke="#FCFCEE" stroke-width="0.3"/>
<path d="M11.3189 7.74445C11.4075 7.74376 11.4921 7.70805 11.5544 7.64513C11.6168 7.58221 11.6516 7.49719 11.6514 7.40864C11.6514 7.33598 11.6606 5.63077 13.0713 5.62357C15.0619 5.61309 16.0608 4.15531 16.0608 3.34231C16.0608 3.2536 16.0255 3.16851 15.9628 3.10578C15.9001 3.04305 15.815 3.00781 15.7263 3.00781C15.6376 3.00781 15.5525 3.04305 15.4898 3.10578C15.427 3.16851 15.3918 3.2536 15.3918 3.34231C15.3918 3.78285 14.677 4.94606 13.068 4.95457C12.5063 4.95457 12.0409 5.14244 11.6842 5.50378C10.9818 6.21925 10.9838 7.36675 10.9844 7.41715C10.9861 7.50467 11.0222 7.58801 11.0847 7.64923C11.1473 7.71044 11.2314 7.74464 11.3189 7.74445Z" fill="#FCFCEE" stroke="#FCFCEE" stroke-width="0.3"/>
<path d="M19.3762 9.86799C19.4201 9.86764 19.4636 9.85865 19.504 9.84153C19.5445 9.8244 19.5812 9.79947 19.612 9.76817C19.6428 9.73686 19.6672 9.69979 19.6836 9.65908C19.7001 9.61836 19.7084 9.5748 19.7081 9.53087C19.7081 9.52171 19.714 8.60658 20.2167 8.09666C20.4471 7.86297 20.745 7.74841 21.1273 7.74645C23.1179 7.73598 24.1168 6.27885 24.1168 5.46584C24.1168 5.37713 24.0815 5.29205 24.0188 5.22932C23.9561 5.16659 23.871 5.13135 23.7823 5.13135C23.6936 5.13135 23.6085 5.16659 23.5458 5.22932C23.483 5.29205 23.4478 5.37713 23.4478 5.46584C23.4478 5.90639 22.7336 7.06894 21.124 7.07745C20.5623 7.07745 20.0969 7.26532 19.7402 7.62731C19.0365 8.34082 19.0385 9.48767 19.0391 9.53676C19.0394 9.58066 19.0484 9.62406 19.0656 9.66447C19.0827 9.70489 19.1077 9.74153 19.139 9.77229C19.1703 9.80306 19.2074 9.82735 19.2481 9.84377C19.2888 9.86019 19.3323 9.86842 19.3762 9.86799Z" fill="#FCFCEE" stroke="#FCFCEE" stroke-width="0.3"/>
<path d="M26.3488 12.7957C26.4374 12.7949 26.522 12.759 26.5842 12.6959C26.6464 12.6329 26.6811 12.5478 26.6807 12.4593C26.6807 12.3866 26.6899 10.682 28.1005 10.6748C30.0911 10.6644 31.0901 9.20658 31.0901 8.39358C31.0901 8.30487 31.0548 8.21978 30.9921 8.15705C30.9294 8.09432 30.8443 8.05908 30.7556 8.05908C30.6668 8.05908 30.5818 8.09432 30.519 8.15705C30.4563 8.21978 30.4211 8.30487 30.4211 8.39358C30.4211 8.83412 29.7062 9.99733 28.0973 10.0058C27.5356 10.0058 27.0702 10.1937 26.7134 10.555C26.0098 11.2692 26.0117 12.4161 26.0117 12.4645C26.0126 12.5531 26.0486 12.6377 26.1118 12.6998C26.175 12.7619 26.2602 12.7964 26.3488 12.7957Z" fill="#FCFCEE" stroke="#FCFCEE" stroke-width="0.3"/>
</svg>
