<svg width="34" height="35" viewBox="0 0 34 35" fill="none" xmlns="http://www.w3.org/2000/svg">
<path d="M32.514 14.546H25.237V2.41775C25.237 2.14607 25.0236 1.93262 24.7519 1.93262H14.079C13.8073 1.93262 13.5939 2.14607 13.5939 2.41775V14.546H1.4656C1.19393 14.546 0.980469 14.7595 0.980469 15.0312V33.4661C0.980469 33.7378 1.19393 33.9513 1.4656 33.9513H14.079H18.9303H19.9006H24.7519H32.514C32.7857 33.9513 32.9991 33.7378 32.9991 33.4661V15.0312C32.9991 14.7595 32.7857 14.546 32.514 14.546ZM13.5939 32.981H1.95073V15.5163H13.5939V32.981ZM24.2668 32.981H19.9006H18.9303H14.5641V2.90288H24.2668V32.981ZM32.0289 32.981H25.237V15.5163H32.0289V32.981Z" fill="#FCFCEE"/>
<path d="M3.40701 18.4273H7.28805H11.1691C11.4408 18.4273 11.6542 18.2138 11.6542 17.9422C11.6542 17.6705 11.4408 17.457 11.1691 17.457H7.28805H3.40701C3.13533 17.457 2.92188 17.6705 2.92188 17.9422C2.92188 18.2138 3.13533 18.4273 3.40701 18.4273Z" fill="#FCFCEE"/>
<path d="M3.40701 22.3082H7.28805H11.1691C11.4408 22.3082 11.6542 22.0947 11.6542 21.823C11.6542 21.5513 11.4408 21.3379 11.1691 21.3379H7.28805H3.40701C3.13533 21.3379 2.92188 21.5513 2.92188 21.823C2.92188 22.0947 3.13533 22.3082 3.40701 22.3082Z" fill="#FCFCEE"/>
<path d="M3.40701 26.189H7.28805H11.1691C11.4408 26.189 11.6542 25.9756 11.6542 25.7039C11.6542 25.4322 11.4408 25.2188 11.1691 25.2188H7.28805H3.40701C3.13533 25.2188 2.92188 25.4322 2.92188 25.7039C2.92188 25.9756 3.13533 26.189 3.40701 26.189Z" fill="#FCFCEE"/>
<path d="M3.40701 30.0704H7.28805H11.1691C11.4408 30.0704 11.6542 29.8569 11.6542 29.5852C11.6542 29.3136 11.4408 29.1001 11.1691 29.1001H7.28805H3.40701C3.13533 29.1001 2.92188 29.3136 2.92188 29.5852C2.92188 29.8569 3.13533 30.0704 3.40701 30.0704Z" fill="#FCFCEE"/>
<path d="M16.0203 6.78374H18.9311H19.9013H22.8121C23.0838 6.78374 23.2973 6.57028 23.2973 6.29861C23.2973 6.02693 23.0838 5.81348 22.8121 5.81348H19.9013H18.9311H16.0203C15.7486 5.81348 15.5352 6.02693 15.5352 6.29861C15.5352 6.57028 15.7486 6.78374 16.0203 6.78374Z" fill="#FCFCEE"/>
<path d="M16.0203 10.6651H18.9311H19.9013H22.8121C23.0838 10.6651 23.2973 10.4516 23.2973 10.18C23.2973 9.90828 23.0838 9.69482 22.8121 9.69482H19.9013H18.9311H16.0203C15.7486 9.69482 15.5352 9.90828 15.5352 10.18C15.5352 10.4516 15.7486 10.6651 16.0203 10.6651Z" fill="#FCFCEE"/>
<path d="M16.0203 14.5459H18.9311H19.9013H22.8121C23.0838 14.5459 23.2973 14.3325 23.2973 14.0608C23.2973 13.7891 23.0838 13.5757 22.8121 13.5757H19.9013H18.9311H16.0203C15.7486 13.5757 15.5352 13.7891 15.5352 14.0608C15.5352 14.3325 15.7486 14.5459 16.0203 14.5459Z" fill="#FCFCEE"/>
<path d="M16.0203 18.4273H18.9311H19.9013H22.8121C23.0838 18.4273 23.2973 18.2138 23.2973 17.9422C23.2973 17.6705 23.0838 17.457 22.8121 17.457H19.9013H18.9311H16.0203C15.7486 17.457 15.5352 17.6705 15.5352 17.9422C15.5352 18.2138 15.7486 18.4273 16.0203 18.4273Z" fill="#FCFCEE"/>
<path d="M16.0203 22.3082H18.9311H19.9013H22.8121C23.0838 22.3082 23.2973 22.0947 23.2973 21.823C23.2973 21.5513 23.0838 21.3379 22.8121 21.3379H19.9013H18.9311H16.0203C15.7486 21.3379 15.5352 21.5513 15.5352 21.823C15.5352 22.0947 15.7486 22.3082 16.0203 22.3082Z" fill="#FCFCEE"/>
<path d="M16.0203 26.189H18.9311H19.9013H22.8121C23.0838 26.189 23.2973 25.9756 23.2973 25.7039C23.2973 25.4322 23.0838 25.2188 22.8121 25.2188H19.9013H18.9311H16.0203C15.7486 25.2188 15.5352 25.4322 15.5352 25.7039C15.5352 25.9756 15.7486 26.189 16.0203 26.189Z" fill="#FCFCEE"/>
<path d="M16.0203 30.0704H18.9311H19.9013H22.8121C23.0838 30.0704 23.2973 29.8569 23.2973 29.5852C23.2973 29.3136 23.0838 29.1001 22.8121 29.1001H19.9013H18.9311H16.0203C15.7486 29.1001 15.5352 29.3136 15.5352 29.5852C15.5352 29.8569 15.7486 30.0704 16.0203 30.0704Z" fill="#FCFCEE"/>
<path d="M26.6922 18.4273H30.5732C30.8449 18.4273 31.0583 18.2138 31.0583 17.9422C31.0583 17.6705 30.8449 17.457 30.5732 17.457H26.6922C26.4205 17.457 26.207 17.6705 26.207 17.9422C26.207 18.2138 26.4205 18.4273 26.6922 18.4273Z" fill="#FCFCEE"/>
<path d="M26.6922 22.3082H30.5732C30.8449 22.3082 31.0583 22.0947 31.0583 21.823C31.0583 21.5513 30.8449 21.3379 30.5732 21.3379H26.6922C26.4205 21.3379 26.207 21.5513 26.207 21.823C26.207 22.0947 26.4205 22.3082 26.6922 22.3082Z" fill="#FCFCEE"/>
<path d="M26.6922 26.189H30.5732C30.8449 26.189 31.0583 25.9756 31.0583 25.7039C31.0583 25.4322 30.8449 25.2188 30.5732 25.2188H26.6922C26.4205 25.2188 26.207 25.4322 26.207 25.7039C26.207 25.9756 26.4205 26.189 26.6922 26.189Z" fill="#FCFCEE"/>
<path d="M26.6922 30.0704H30.5732C30.8449 30.0704 31.0583 29.8569 31.0583 29.5852C31.0583 29.3136 30.8449 29.1001 30.5732 29.1001H26.6922C26.4205 29.1001 26.207 29.3136 26.207 29.5852C26.207 29.8569 26.4205 30.0704 26.6922 30.0704Z" fill="#FCFCEE"/>
</svg>
