<svg width="35" height="35" viewBox="0 0 35 35" fill="none" xmlns="http://www.w3.org/2000/svg">
<g clip-path="url(#clip0)">
<path d="M33.7192 5.87488L32.6992 0.731811C32.6382 0.424819 32.34 0.225424 32.033 0.28634C32.033 0.28634 32.0329 0.28634 32.0328 0.286411L3.95677 5.86864H3.0892C2.77626 5.86864 2.52253 6.12237 2.52253 6.43531V9.32531C1.2017 9.59221 0.252962 10.7544 0.255866 12.102V31.3686C0.257708 32.9326 1.5252 34.2001 3.0892 34.202H33.6892C34.0021 34.202 34.2559 33.9483 34.2559 33.6353V6.43531C34.253 6.13611 34.018 5.89067 33.7192 5.87488ZM31.6968 1.50871L32.5627 5.86864H9.7685L31.6968 1.50871ZM1.8805 10.8995L1.88333 10.9018C2.06424 10.7223 2.28248 10.5849 2.52253 10.4994V13.6983C2.51007 13.6943 2.4976 13.6915 2.48513 13.6869C2.41196 13.6578 2.34099 13.6235 2.27263 13.5844C2.23863 13.5657 2.20237 13.5509 2.1695 13.5277C2.06764 13.4636 1.97272 13.3892 1.88617 13.3056C1.22196 12.6419 1.21941 11.5662 1.8805 10.8995ZM33.1225 26.2686H25.1892V21.7353H33.1225V26.2686ZM33.1225 20.602H24.6225C24.3096 20.602 24.0559 20.8557 24.0559 21.1686V26.8353C24.0559 27.1483 24.3096 27.402 24.6225 27.402H33.1225V33.0686H3.0892C2.1503 33.0686 1.3892 32.3075 1.3892 31.3686V14.3686C1.4147 14.3879 1.44303 14.4009 1.4691 14.4191C1.51897 14.4542 1.57053 14.4842 1.6221 14.516C1.71751 14.5743 1.81632 14.6268 1.9179 14.6735C1.97457 14.699 2.03123 14.7239 2.0879 14.7455C2.19691 14.7862 2.3084 14.8199 2.42167 14.8463C2.47437 14.8594 2.52537 14.8758 2.57863 14.8854C2.74693 14.9175 2.91785 14.9342 3.0892 14.9353H33.1225V20.602ZM14.4628 13.802C14.774 11.6335 16.7842 10.1279 18.9527 10.4391C20.696 10.6893 22.0654 12.0588 22.3156 13.802H14.4628ZM33.1225 13.802H23.4558C23.1338 11.0038 20.6044 8.99643 17.8062 9.31844C15.4513 9.58945 13.5936 11.4471 13.3226 13.802H3.65587V7.00198H33.1225V13.802Z" fill="#FCFCEE"/>
<path d="M31.4234 8.13477H28.0234V9.2681H30.8568V12.1014H31.9901V8.70143C31.9901 8.38842 31.7364 8.13477 31.4234 8.13477Z" fill="#FCFCEE"/>
<path d="M5.35573 8.13477C5.04279 8.13477 4.78906 8.38849 4.78906 8.70143V12.1014H5.9224V9.2681H8.75573V8.13477H5.35573Z" fill="#FCFCEE"/>
<path d="M27.4556 23.4351H26.3223V24.5684H27.4556V23.4351Z" fill="#FCFCEE"/>
</g>
<defs>
<clipPath id="clip0">
<rect width="34" height="34" fill="white" transform="translate(0.255859 0.238281)"/>
</clipPath>
</defs>
</svg>
