<svg width="35" height="35" viewBox="0 0 35 35" fill="none" xmlns="http://www.w3.org/2000/svg">
<path d="M14.5785 26.4573C14.4284 26.4576 14.2789 26.4385 14.1337 26.4003C13.4087 26.2064 12.9309 25.554 12.5095 24.9783C12.2771 24.604 11.9764 24.2767 11.6232 24.0134C11.2116 23.834 10.7699 23.7339 10.3211 23.7184C9.58599 23.6362 8.82283 23.5517 8.30226 23.0292C7.78169 22.5068 7.69669 21.7469 7.61307 21.0104C7.59766 20.5617 7.4979 20.12 7.31901 19.7083C7.05538 19.3553 6.72815 19.0548 6.35415 18.822C5.77799 18.4007 5.12556 17.9224 4.93212 17.1978C4.74604 16.5017 5.04928 15.8079 5.34334 15.1371C5.55797 14.7305 5.69479 14.2873 5.74674 13.8304C5.69479 13.3735 5.55797 12.9304 5.34334 12.5237C5.04928 11.8529 4.74604 11.1596 4.93212 10.4635C5.12556 9.73846 5.77799 9.26062 6.35369 8.8393C6.72769 8.60652 7.05492 8.30593 7.31855 7.953C7.49756 7.54129 7.59747 7.09957 7.61307 6.65089C7.69531 5.91576 7.78031 5.15306 8.30226 4.63249C8.8242 4.11192 9.58507 4.02692 10.3211 3.9433C10.7699 3.92785 11.2116 3.82777 11.6232 3.64833C11.9766 3.38499 12.2773 3.05771 12.51 2.68346C12.9313 2.10776 13.4092 1.45533 14.1337 1.26189C14.8293 1.07535 15.5236 1.37906 16.1944 1.67311C16.6007 1.88897 17.0437 2.02703 17.5006 2.08019C17.9575 2.02823 18.4007 1.89142 18.8073 1.67679C19.4782 1.38319 20.1733 1.07949 20.8676 1.26557C21.5926 1.459 22.0704 2.11189 22.4917 2.68989C22.7244 3.06395 23.025 3.3912 23.378 3.65476C23.7897 3.83404 24.2314 3.93396 24.6801 3.94927C25.4153 4.03152 26.1784 4.11652 26.699 4.63846C27.2196 5.16041 27.3046 5.92081 27.3882 6.65733C27.4037 7.10596 27.5035 7.54767 27.6823 7.95943C27.946 8.31212 28.2732 8.61254 28.6471 8.84527C29.2233 9.26706 29.8757 9.74489 30.0692 10.4699C30.2552 11.166 29.952 11.8598 29.6579 12.5306C29.4433 12.9371 29.3064 13.3801 29.2545 13.8368C29.3065 14.2937 29.4433 14.7369 29.6579 15.1435C29.952 15.8144 30.2552 16.5077 30.0692 17.2038C29.8757 17.9288 29.2233 18.4066 28.6476 18.8284C28.2735 19.061 27.9462 19.3616 27.6827 19.7147C27.5037 20.1264 27.4037 20.5681 27.3882 21.0168C27.306 21.7519 27.221 22.5147 26.699 23.0352C26.1771 23.5558 25.4162 23.6408 24.6801 23.7244C24.2314 23.7397 23.7897 23.8396 23.378 24.0189C23.0247 24.2823 22.7239 24.6095 22.4913 24.9838C22.07 25.5595 21.5921 26.2119 20.8676 26.4054C20.171 26.5891 19.4777 26.2882 18.8069 25.9946C18.4007 25.7781 17.9577 25.6394 17.5006 25.5857C17.0438 25.6376 16.6006 25.7745 16.1939 25.9891C15.6925 26.2524 15.143 26.4117 14.5785 26.4573ZM17.5006 24.6654C18.0859 24.7096 18.6559 24.8728 19.1758 25.1451C19.7272 25.3858 20.2441 25.6132 20.6305 25.5126C21.044 25.4024 21.3863 24.9328 21.7506 24.4357C22.0526 23.9536 22.4499 23.5383 22.9181 23.2153C23.4377 22.966 24.0028 22.8253 24.5786 22.8018C25.1846 22.7343 25.7567 22.6704 26.0489 22.3777C26.3411 22.0851 26.4059 21.5126 26.473 20.9075C26.4962 20.3316 26.6369 19.7665 26.8865 19.247C27.2088 18.7791 27.6231 18.3819 28.104 18.0795C28.6012 17.7156 29.0689 17.3715 29.1815 16.9593C29.2839 16.5743 29.0565 16.0547 28.8139 15.5047C28.5413 14.9848 28.3778 14.4148 28.3333 13.8295C28.3775 13.2443 28.5411 12.6743 28.8139 12.1548C29.0547 11.6034 29.2821 11.0851 29.1792 10.6997C29.0694 10.2861 28.5993 9.94338 28.1017 9.57949C27.6208 9.27709 27.2065 8.87984 26.8842 8.412C26.6346 7.89263 26.4939 7.32772 26.4707 6.75198C26.4031 6.14595 26.3393 5.57392 26.0461 5.28171C25.753 4.98949 25.1814 4.92516 24.5759 4.85762C24 4.83414 23.435 4.69343 22.9154 4.44411C22.4487 4.12217 22.0525 3.7087 21.7506 3.22884C21.3863 2.73171 21.0426 2.26398 20.6305 2.15187C20.2468 2.04941 19.7258 2.27638 19.1758 2.51944C18.6559 2.79176 18.0859 2.95499 17.5006 2.99911C16.9152 2.95413 16.3451 2.78996 15.8254 2.51668C15.2741 2.27592 14.7554 2.04849 14.3708 2.15141C13.9573 2.26122 13.615 2.73125 13.2506 3.22838C12.9483 3.70967 12.5511 4.12428 12.0831 4.44687C11.5635 4.69619 10.9985 4.8369 10.4227 4.86038C9.81664 4.92792 9.24461 4.99133 8.95239 5.28446C8.66018 5.5776 8.59585 6.14917 8.52831 6.75473C8.50509 7.33077 8.36438 7.89599 8.1148 8.41568C7.79248 8.88352 7.37819 9.28077 6.89723 9.58316C6.39964 9.94706 5.93007 10.2912 5.8198 10.7029C5.71734 11.0879 5.94477 11.6075 6.18737 12.1575C6.45995 12.6774 6.62349 13.2474 6.66796 13.8327C6.62371 14.418 6.46015 14.9881 6.18737 15.5079C5.94661 16.0592 5.71918 16.5775 5.8221 16.963C5.93191 17.3765 6.40193 17.7188 6.89953 18.0832C7.3804 18.3855 7.79468 18.7826 8.1171 19.2502C8.36664 19.7697 8.50735 20.3348 8.53061 20.9107C8.59815 21.5167 8.66201 22.0887 8.95515 22.3809C9.24828 22.6732 9.81985 22.7375 10.4254 22.805C11.0012 22.8287 11.5662 22.9694 12.0859 23.2185C12.5536 23.5411 12.9506 23.9556 13.2529 24.4366C13.6173 24.9337 13.961 25.4014 14.3731 25.5135C14.7581 25.6169 15.2773 25.389 15.8277 25.146C16.347 24.8742 16.9162 24.7111 17.5006 24.6668V24.6654Z" fill="#FEFEFE"/>
<path d="M17.5013 22.652C15.7566 22.652 14.051 22.1347 12.6003 21.1653C11.1496 20.196 10.0189 18.8182 9.3512 17.2063C8.68351 15.5944 8.50881 13.8206 8.8492 12.1094C9.18958 10.3982 10.0298 8.82631 11.2635 7.59259C12.4972 6.35886 14.0691 5.51868 15.7803 5.1783C17.4915 4.83791 19.2653 5.01261 20.8772 5.6803C22.4891 6.34799 23.8669 7.47868 24.8362 8.92938C25.8056 10.3801 26.3229 12.0857 26.3229 13.8304C26.3206 16.1693 25.3905 18.4118 23.7366 20.0657C22.0827 21.7196 19.8402 22.6497 17.5013 22.652ZM17.5013 5.93047C15.9383 5.93047 14.4104 6.39395 13.1108 7.26231C11.8112 8.13067 10.7983 9.36491 10.2002 10.8089C9.60203 12.253 9.44553 13.8419 9.75046 15.3749C10.0554 16.9079 10.808 18.316 11.9133 19.4212C13.0185 20.5264 14.4266 21.2791 15.9596 21.584C17.4925 21.889 19.0815 21.7325 20.5255 21.1343C21.9696 20.5362 23.2038 19.5233 24.0722 18.2237C24.9405 16.9241 25.404 15.3962 25.404 13.8332C25.4019 11.7379 24.5687 9.729 23.0871 8.2474C21.6055 6.7658 19.5966 5.93254 17.5013 5.93047Z" fill="#FEFEFE"/>
<path d="M20.1536 17.8738C20.0791 17.8737 20.0058 17.8556 19.9399 17.8209L17.5007 16.5386L15.0614 17.8209C14.9853 17.861 14.8995 17.879 14.8138 17.8728C14.728 17.8665 14.6457 17.8363 14.5763 17.7856C14.5068 17.7349 14.453 17.6658 14.4209 17.586C14.3888 17.5062 14.3797 17.419 14.3947 17.3344L14.8606 14.6176L12.8849 12.6943C12.8235 12.6344 12.78 12.5586 12.7595 12.4753C12.7389 12.392 12.7421 12.3046 12.7686 12.2231C12.7952 12.1415 12.844 12.069 12.9096 12.0137C12.9752 11.9585 13.055 11.9227 13.1399 11.9105L15.8668 11.5139L17.0871 9.04481C17.1294 8.97317 17.1895 8.91379 17.2617 8.87253C17.3339 8.83127 17.4157 8.80957 17.4988 8.80957C17.582 8.80957 17.6637 8.83127 17.7359 8.87253C17.8081 8.91379 17.8683 8.97317 17.9105 9.04481L19.1308 11.5162L21.8577 11.9128C21.9426 11.925 22.0224 11.9608 22.088 12.016C22.1536 12.0713 22.2025 12.1438 22.229 12.2254C22.2555 12.3069 22.2587 12.3943 22.2382 12.4776C22.2176 12.5609 22.1741 12.6367 22.1127 12.6966L20.137 14.6199L20.6066 17.3344C20.6179 17.4003 20.6147 17.468 20.5971 17.5326C20.5796 17.5971 20.5481 17.6571 20.505 17.7083C20.4618 17.7594 20.408 17.8005 20.3473 17.8287C20.2866 17.8569 20.2205 17.8715 20.1536 17.8715V17.8738ZM17.5007 15.5599C17.5753 15.5599 17.6487 15.5781 17.7148 15.6128L19.5434 16.5744L19.1947 14.5372C19.1821 14.4638 19.1875 14.3884 19.2104 14.3176C19.2334 14.2468 19.2733 14.1826 19.3265 14.1306L20.806 12.6883L18.7614 12.3911C18.6876 12.3803 18.6176 12.3518 18.5573 12.3079C18.497 12.264 18.4484 12.2062 18.4154 12.1393L17.5007 10.2863L16.5859 12.1393C16.553 12.2062 16.5043 12.264 16.444 12.3079C16.3837 12.3518 16.3137 12.3803 16.2399 12.3911L14.1953 12.6883L15.6748 14.1306C15.728 14.1826 15.7679 14.2468 15.7909 14.3176C15.8138 14.3884 15.8192 14.4638 15.8066 14.5372L15.4579 16.5744L17.2865 15.6128C17.3526 15.5781 17.4261 15.5599 17.5007 15.5599Z" fill="#FEFEFE"/>
<path d="M21.0607 33.3693C21.0469 33.3693 21.0326 33.3693 21.0189 33.3693C20.9327 33.3615 20.8505 33.3294 20.7817 33.2769C20.713 33.2244 20.6604 33.1536 20.6302 33.0725L17.7755 25.4207C17.7562 25.3694 17.7462 25.3151 17.7461 25.2603C17.7447 25.1485 17.7841 25.0399 17.8569 24.955C17.9298 24.8702 18.0311 24.8148 18.1419 24.7993C18.2527 24.7838 18.3653 24.8092 18.4586 24.8708C18.552 24.9325 18.6197 25.026 18.649 25.134L21.1572 31.8531L22.9895 28.7876C23.043 28.6981 23.1254 28.6294 23.2231 28.5929C23.3208 28.5565 23.428 28.5543 23.5271 28.5868L26.9271 29.7014L24.5613 23.3756C24.5217 23.2622 24.5281 23.1378 24.5791 23.029C24.6301 22.9202 24.7217 22.8358 24.8342 22.7937C24.9467 22.7517 25.0713 22.7554 25.1811 22.804C25.291 22.8527 25.3774 22.9424 25.4219 23.054L28.1212 30.2758C28.1514 30.3568 28.1582 30.4447 28.1407 30.5295C28.1231 30.6142 28.0821 30.6922 28.0222 30.7546C27.9623 30.817 27.886 30.8612 27.802 30.8822C27.7181 30.9031 27.63 30.9 27.5478 30.8731L23.59 29.5751L21.4549 33.146C21.4141 33.2141 21.3563 33.2705 21.2872 33.3096C21.2181 33.3488 21.1401 33.3693 21.0607 33.3693Z" fill="#FEFEFE"/>
<path d="M13.9411 33.3695C13.8616 33.3695 13.7835 33.3489 13.7145 33.3096C13.6454 33.2704 13.5876 33.214 13.5469 33.1458L11.4117 29.5749L7.45396 30.8728C7.37176 30.8997 7.28362 30.9029 7.1997 30.8819C7.11578 30.861 7.03948 30.8168 6.97957 30.7544C6.91967 30.692 6.8786 30.6139 6.86108 30.5292C6.84357 30.4445 6.85032 30.3566 6.88056 30.2755L9.57988 23.0537C9.62436 22.9421 9.71079 22.8524 9.82063 22.8038C9.93048 22.7551 10.055 22.7514 10.1675 22.7935C10.2801 22.8355 10.3717 22.92 10.4227 23.0288C10.4737 23.1375 10.4801 23.262 10.4405 23.3754L8.07561 29.7021L11.4756 28.5875C11.5747 28.555 11.6819 28.5571 11.7796 28.5936C11.8773 28.6301 11.9597 28.6988 12.0132 28.7883L13.8446 31.8533L16.3652 25.0993C16.3854 25.0415 16.4169 24.9884 16.4578 24.9429C16.4988 24.8975 16.5485 24.8608 16.6038 24.8348C16.6592 24.8088 16.7192 24.7942 16.7804 24.7917C16.8415 24.7892 16.9025 24.799 16.9598 24.8204C17.0171 24.8418 17.0695 24.8744 17.1141 24.9164C17.1586 24.9583 17.1943 25.0088 17.219 25.0647C17.2438 25.1206 17.2572 25.181 17.2583 25.2421C17.2595 25.3033 17.2484 25.3641 17.2257 25.4209L14.3716 33.0709C14.3413 33.1519 14.2888 33.2228 14.22 33.2753C14.1512 33.3278 14.069 33.3598 13.9829 33.3677C13.9691 33.3695 13.9549 33.3695 13.9411 33.3695Z" fill="#FEFEFE"/>
</svg>
