<svg width="35" height="35" viewBox="0 0 35 35" fill="none" xmlns="http://www.w3.org/2000/svg">
<path d="M27.1943 3.82656H19.5615V3.5118C19.5615 2.96477 19.3442 2.44014 18.9574 2.05333C18.5706 1.66653 18.046 1.44922 17.4989 1.44922C16.9519 1.44922 16.4273 1.66653 16.0405 2.05333C15.6537 2.44014 15.4364 2.96477 15.4364 3.5118V3.82656H7.80363C7.32856 3.82698 6.87306 4.01587 6.53712 4.35177C6.20117 4.68767 6.01221 5.14314 6.01172 5.6182V31.2372C6.01221 31.7123 6.20116 32.1678 6.5371 32.5037C6.87304 32.8397 7.32853 33.0286 7.80363 33.0291H27.1943C27.6693 33.0286 28.1248 32.8397 28.4608 32.5037C28.7967 32.1678 28.9857 31.7123 28.9862 31.2372V5.6182C28.9857 5.14314 28.7967 4.68767 28.4608 4.35177C28.1248 4.01587 27.6693 3.82698 27.1943 3.82656ZM25.5872 7.2247V29.6286H9.41066V7.2247H25.5872ZM15.9012 4.75439C16.0245 4.75439 16.1427 4.70542 16.2299 4.61824C16.3171 4.53107 16.366 4.41283 16.366 4.28955V3.5118C16.366 3.21134 16.4854 2.92318 16.6979 2.71072C16.9103 2.49826 17.1985 2.37891 17.4989 2.37891C17.7994 2.37891 18.0876 2.49826 18.3 2.71072C18.5125 2.92318 18.6318 3.21134 18.6318 3.5118V4.29141C18.6318 4.41469 18.6808 4.53293 18.768 4.6201C18.8552 4.70728 18.9734 4.75625 19.0967 4.75625H21.2671V6.29688H13.7305V4.75625L15.9012 4.75439ZM28.0567 31.2345C28.0565 31.4631 27.9655 31.6823 27.8039 31.8439C27.6423 32.0056 27.4231 32.0965 27.1945 32.0968H7.80389C7.57528 32.0966 7.35609 32.0056 7.19444 31.844C7.03279 31.6823 6.94188 31.4632 6.94167 31.2345V5.6182C6.94195 5.38969 7.03286 5.17061 7.19444 5.00902C7.35603 4.84743 7.57511 4.75653 7.80363 4.75625H12.8008V6.29688H8.94581C8.88476 6.29684 8.8243 6.30884 8.76788 6.33219C8.71147 6.35554 8.66021 6.38977 8.61704 6.43295C8.57387 6.47612 8.53963 6.52738 8.51628 6.58379C8.49293 6.6402 8.48093 6.70066 8.48097 6.76172V30.095C8.48097 30.2183 8.52994 30.3365 8.61712 30.4237C8.70429 30.5109 8.82253 30.5599 8.94581 30.5599H26.0521C26.1753 30.5598 26.2935 30.5108 26.3807 30.4236C26.4678 30.3365 26.5168 30.2183 26.5169 30.095V6.76066C26.517 6.69954 26.5051 6.63901 26.4818 6.58252C26.4584 6.52603 26.4242 6.4747 26.381 6.43145C26.3379 6.3882 26.2866 6.35389 26.2301 6.33048C26.1737 6.30707 26.1132 6.29502 26.0521 6.29502H22.1968V4.75439H27.1943C27.4228 4.75467 27.6419 4.84557 27.8035 5.00714C27.9652 5.16872 28.0561 5.3878 28.0565 5.61634L28.0567 31.2345Z" fill="#FCFCEE"/>
<path d="M12.6238 27.3425C12.667 27.3857 12.7182 27.42 12.7746 27.4434C12.831 27.4668 12.8915 27.4788 12.9525 27.4788C13.0136 27.4788 13.074 27.4668 13.1304 27.4434C13.1869 27.42 13.2381 27.3857 13.2812 27.3425L15.1313 25.4925C15.1764 25.4497 15.2124 25.3984 15.2372 25.3415C15.2621 25.2846 15.2753 25.2233 15.2761 25.1613C15.2769 25.0992 15.2653 25.0376 15.2419 24.9801C15.2185 24.9226 15.1838 24.8703 15.1399 24.8264C15.096 24.7826 15.0437 24.7479 14.9862 24.7246C14.9287 24.7012 14.8671 24.6896 14.805 24.6905C14.7429 24.6913 14.6816 24.7046 14.6248 24.7295C14.5679 24.7544 14.5166 24.7905 14.4739 24.8356L12.9524 26.3568L12.3561 25.7605C12.2684 25.6758 12.1509 25.629 12.0291 25.6301C11.9072 25.6311 11.7906 25.6801 11.7044 25.7663C11.6183 25.8525 11.5694 25.9691 11.5684 26.0909C11.5673 26.2128 11.6142 26.3302 11.6989 26.4179L12.6238 27.3425Z" fill="#FCFCEE"/>
<path d="M22.9721 25.624H16.8574C16.7341 25.624 16.6159 25.673 16.5287 25.7602C16.4416 25.8473 16.3926 25.9656 16.3926 26.0889C16.3926 26.2122 16.4416 26.3304 16.5287 26.4176C16.6159 26.5047 16.7341 26.5537 16.8574 26.5537H22.9721C23.0954 26.5537 23.2136 26.5047 23.3008 26.4176C23.388 26.3304 23.437 26.2122 23.437 26.0889C23.437 25.9656 23.388 25.8473 23.3008 25.7602C23.2136 25.673 23.0954 25.624 22.9721 25.624Z" fill="#FCFCEE"/>
<path d="M12.6235 22.7664C12.6667 22.8096 12.7179 22.8439 12.7743 22.8673C12.8307 22.8907 12.8912 22.9027 12.9522 22.9027C13.0133 22.9027 13.0738 22.8907 13.1302 22.8673C13.1866 22.8439 13.2378 22.8096 13.2809 22.7664L15.131 20.9166C15.2182 20.8294 15.2672 20.7112 15.2672 20.5879C15.2672 20.4646 15.2182 20.3464 15.131 20.2592C15.0879 20.216 15.0366 20.1818 14.9802 20.1584C14.9238 20.1351 14.8634 20.123 14.8023 20.123C14.679 20.123 14.5608 20.172 14.4736 20.2592L12.9521 21.781L12.3558 21.1844C12.3129 21.14 12.2616 21.1046 12.2049 21.0802C12.1482 21.0559 12.0872 21.0431 12.0254 21.0425C11.9637 21.042 11.9025 21.0538 11.8454 21.0772C11.7883 21.1006 11.7364 21.1351 11.6927 21.1787C11.6491 21.2224 11.6146 21.2743 11.5912 21.3314C11.5679 21.3886 11.5561 21.4498 11.5567 21.5115C11.5572 21.5732 11.57 21.6342 11.5944 21.6909C11.6188 21.7476 11.6542 21.7989 11.6986 21.8418L12.6235 22.7664Z" fill="#FCFCEE"/>
<path d="M22.9721 21.0483H16.8574C16.7341 21.0483 16.6159 21.0973 16.5287 21.1845C16.4416 21.2717 16.3926 21.3899 16.3926 21.5132C16.3926 21.6365 16.4416 21.7547 16.5287 21.8419C16.6159 21.9291 16.7341 21.978 16.8574 21.978H22.9721C23.0954 21.978 23.2136 21.9291 23.3008 21.8419C23.388 21.7547 23.437 21.6365 23.437 21.5132C23.437 21.3899 23.388 21.2717 23.3008 21.1845C23.2136 21.0973 23.0954 21.0483 22.9721 21.0483Z" fill="#FCFCEE"/>
<path d="M12.6225 18.191C12.6656 18.2342 12.7169 18.2685 12.7733 18.2919C12.8297 18.3153 12.8901 18.3273 12.9512 18.3273C13.0123 18.3273 13.0727 18.3153 13.1291 18.2919C13.1855 18.2685 13.2368 18.2342 13.2799 18.191L15.13 16.3409C15.2146 16.2532 15.2615 16.1358 15.2604 16.0139C15.2593 15.8921 15.2104 15.7755 15.1242 15.6893C15.038 15.6031 14.9214 15.5543 14.7995 15.5532C14.6776 15.5522 14.5602 15.5991 14.4726 15.6838L12.9511 17.205L12.3547 16.6087C12.2667 16.5263 12.15 16.4813 12.0295 16.4833C11.9089 16.4853 11.7938 16.5341 11.7085 16.6193C11.6232 16.7046 11.5744 16.8197 11.5723 16.9402C11.5703 17.0608 11.6152 17.1775 11.6976 17.2656L12.6225 18.191Z" fill="#FCFCEE"/>
<path d="M22.9721 16.4722H16.8574C16.7341 16.4722 16.6159 16.5211 16.5287 16.6083C16.4416 16.6955 16.3926 16.8137 16.3926 16.937C16.3926 17.0603 16.4416 17.1785 16.5287 17.2657C16.6159 17.3529 16.7341 17.4019 16.8574 17.4019H22.9721C23.0954 17.4019 23.2136 17.3529 23.3008 17.2657C23.388 17.1785 23.437 17.0603 23.437 16.937C23.437 16.8137 23.388 16.6955 23.3008 16.6083C23.2136 16.5211 23.0954 16.4722 22.9721 16.4722Z" fill="#FCFCEE"/>
<path d="M12.0273 13.3967H22.9711C23.0944 13.3967 23.2126 13.3477 23.2998 13.2605C23.387 13.1734 23.4359 13.0551 23.4359 12.9319V9.84104C23.4358 9.71783 23.3868 9.5997 23.2996 9.5126C23.2125 9.4255 23.0943 9.37654 22.9711 9.37646H12.0273C11.9041 9.37654 11.7859 9.42553 11.6987 9.51269C11.6116 9.59985 11.5626 9.71805 11.5625 9.84131V12.9319C11.5625 13.0551 11.6115 13.1734 11.6986 13.2605C11.7858 13.3477 11.9041 13.3967 12.0273 13.3967ZM12.4911 10.3062H22.5073V12.4673H12.4911V10.3062Z" fill="#FCFCEE"/>
</svg>
