<svg width="34" height="35" viewBox="0 0 34 35" fill="none" xmlns="http://www.w3.org/2000/svg">
<path d="M16.7041 1.36768C7.9512 1.36768 0.847656 8.47121 0.847656 17.2241C0.847656 25.977 7.9512 33.0806 16.7041 33.0806C25.457 33.0806 32.5606 25.977 32.5606 17.2241C32.5605 17.1263 32.5217 17.0325 32.4525 16.9634C32.3834 16.8942 32.2896 16.8554 32.1918 16.8554H30.4287C30.3798 16.8547 30.3313 16.8637 30.286 16.8819C30.2406 16.9002 30.1994 16.9272 30.1646 16.9615C30.1298 16.9958 30.1021 17.0367 30.0833 17.0818C30.0644 17.1269 30.0547 17.1753 30.0547 17.2241C30.0547 17.273 30.0644 17.3214 30.0833 17.3665C30.1021 17.4115 30.1298 17.4524 30.1646 17.4867C30.1994 17.521 30.2406 17.5481 30.286 17.5663C30.3313 17.5845 30.3798 17.5936 30.4287 17.5929H31.7885C31.6931 21.4822 30.141 25.013 27.6515 27.6414L26.649 26.6504C26.6074 26.6048 26.555 26.5703 26.4966 26.5502C26.4382 26.53 26.3757 26.5249 26.3148 26.5352C26.2473 26.5474 26.1846 26.5782 26.1337 26.6241C26.0828 26.67 26.0456 26.7292 26.0265 26.795C26.0073 26.8609 26.0069 26.9307 26.0253 26.9968C26.0436 27.0628 26.08 27.1225 26.1304 27.169L27.1329 28.1715C24.5093 30.6841 20.9762 32.25 17.0729 32.3431V30.9141C17.0733 30.8616 17.0624 30.8095 17.0411 30.7615C17.0197 30.7135 16.9884 30.6706 16.9491 30.6357C16.9098 30.6007 16.8635 30.5746 16.8133 30.559C16.7631 30.5435 16.7102 30.5388 16.658 30.5454C16.5684 30.5567 16.4861 30.6005 16.4266 30.6684C16.3671 30.7364 16.3347 30.8238 16.3354 30.9141V32.3431C12.4283 32.25 8.89519 30.6741 6.26374 28.16L7.27782 27.169C7.3343 27.1155 7.37246 27.0456 7.38682 26.9692C7.40118 26.8928 7.39102 26.8138 7.35779 26.7435C7.32455 26.6732 7.26995 26.6152 7.20178 26.5778C7.1336 26.5403 7.05535 26.5254 6.9782 26.5352C6.89562 26.5441 6.81848 26.5807 6.75925 26.6389L5.73366 27.6299C3.24261 25.0028 1.68926 21.4794 1.59669 17.5929H3.00257C3.05143 17.5936 3.09995 17.5845 3.14529 17.5663C3.19064 17.5481 3.23191 17.521 3.26671 17.4867C3.30151 17.4524 3.32914 17.4115 3.348 17.3665C3.36686 17.3214 3.37657 17.273 3.37657 17.2241C3.37657 17.1753 3.36686 17.1269 3.348 17.0818C3.32914 17.0367 3.30151 16.9958 3.26671 16.9615C3.23191 16.9272 3.19064 16.9002 3.14529 16.8819C3.09995 16.8637 3.05143 16.8547 3.00257 16.8554H1.59669C1.69088 12.9592 3.25359 9.43517 5.7567 6.80681L6.75925 7.79783C6.79406 7.8319 6.83523 7.85878 6.88042 7.87693C6.92561 7.89508 6.97394 7.90415 7.02263 7.90362C7.07133 7.90309 7.11944 7.89297 7.16423 7.87385C7.20902 7.85472 7.2496 7.82696 7.28365 7.79215C7.31771 7.75733 7.34457 7.71616 7.36271 7.67096C7.38085 7.62576 7.3899 7.57744 7.38936 7.52874C7.38882 7.48004 7.37869 7.43193 7.35955 7.38715C7.34041 7.34237 7.31264 7.3018 7.27782 7.26775L6.28679 6.27672C8.91578 3.7756 12.4398 2.2095 16.3354 2.11671V3.52259C16.3347 3.57145 16.3437 3.61996 16.3619 3.66531C16.3801 3.71065 16.4072 3.75193 16.4415 3.78673C16.4758 3.82152 16.5167 3.84916 16.5618 3.86802C16.6069 3.88688 16.6552 3.89659 16.7041 3.89659C16.753 3.89659 16.8014 3.88688 16.8464 3.86802C16.8915 3.84916 16.9324 3.82152 16.9667 3.78673C17.001 3.75193 17.0281 3.71065 17.0463 3.66531C17.0645 3.61996 17.0736 3.57145 17.0729 3.52259V2.11671C22.9784 2.27166 28.3652 6.10162 30.7398 11.1512L26.0613 10.091C26.0121 10.0736 25.9599 10.0669 25.908 10.0711C25.8561 10.0754 25.8056 10.0906 25.76 10.1158C25.7144 10.141 25.6747 10.1755 25.6434 10.2172C25.6121 10.2588 25.59 10.3066 25.5785 10.3575C25.567 10.4083 25.5664 10.461 25.5768 10.512C25.5872 10.5631 25.6082 10.6113 25.6386 10.6537C25.6689 10.696 25.7079 10.7314 25.753 10.7576C25.798 10.7838 25.8481 10.8001 25.8999 10.8055L31.4197 12.05C31.5144 12.0707 31.6134 12.0533 31.6954 12.0016C31.7773 11.9498 31.8356 11.8679 31.8576 11.7735L33.1137 6.24215C33.1254 6.19115 33.1261 6.13823 33.1158 6.08693C33.1055 6.03563 33.0843 5.98711 33.0538 5.9446C33.0233 5.90209 32.9841 5.86656 32.9388 5.84038C32.8935 5.81419 32.8431 5.79795 32.791 5.79273C32.7 5.78207 32.6083 5.80566 32.5338 5.85892C32.4592 5.91218 32.4071 5.99128 32.3877 6.08082L31.3506 10.7018C28.7697 5.35326 23.0135 1.36768 16.7041 1.36768ZM16.658 7.60193C16.5664 7.61342 16.4824 7.65885 16.4227 7.72926C16.3629 7.79968 16.3318 7.88994 16.3354 7.98221V15.0692C15.3069 15.2471 14.5146 16.1468 14.5146 17.2241C14.5146 18.4282 15.5001 19.4136 16.7041 19.4136C17.1726 19.4136 17.6031 19.2519 17.9602 18.9988L21.6477 22.6863C21.6802 22.7266 21.7208 22.7596 21.7669 22.7832C21.8129 22.8068 21.8635 22.8204 21.9151 22.8232C21.9668 22.8259 22.0185 22.8178 22.0668 22.7993C22.1152 22.7808 22.1591 22.7523 22.1957 22.7157C22.2323 22.6791 22.2607 22.6352 22.2793 22.5869C22.2978 22.5385 22.3059 22.4868 22.3031 22.4352C22.3004 22.3835 22.2868 22.333 22.2632 22.2869C22.2396 22.2408 22.2066 22.2002 22.1663 22.1677L18.4903 18.4802C18.7434 18.1232 18.8936 17.6926 18.8936 17.2241C18.8936 16.1468 18.1014 15.2471 17.0729 15.0692V7.98221C17.075 7.9287 17.0654 7.87536 17.0448 7.82593C17.0242 7.77649 16.993 7.73214 16.9536 7.69595C16.9141 7.65976 16.8672 7.6326 16.8161 7.61636C16.7651 7.60013 16.7111 7.5952 16.658 7.60193ZM16.7041 15.7722C17.5096 15.7722 18.1561 16.4187 18.1561 17.2241C18.1561 18.0296 17.5096 18.6761 16.7041 18.6761C15.8986 18.6761 15.2521 18.0296 15.2521 17.2241C15.2521 16.4187 15.8986 15.7722 16.7041 15.7722Z" fill="#FCFCEE" stroke="#FCFCEE" stroke-width="0.3"/>
</svg>
