<svg width="35" height="35" viewBox="0 0 35 35" fill="none" xmlns="http://www.w3.org/2000/svg">
<path d="M17.2227 3.4821L10.7898 9.04952V5.53384C10.7897 5.34801 10.6207 5.17896 10.4348 5.17892C9.58474 5.17892 8.71606 5.17892 7.87277 5.17892C7.71407 5.21446 7.59157 5.37126 7.59549 5.53384V11.8111C5.73758 13.42 4.04266 14.7894 2.0166 16.6353C1.59942 17.0568 1.42371 17.5945 1.6395 18.0327C1.85387 18.468 2.36449 18.6773 2.97045 18.6649C3.5643 18.6649 4.16119 18.6649 4.75612 18.6649V32.151C4.75613 32.3368 4.92521 32.5058 5.11103 32.5058H29.9554C30.1412 32.5058 30.3103 32.3368 30.3103 32.151V18.6649H32.2845C32.9031 18.6649 33.2424 18.3955 33.4824 17.9218C33.5598 17.4545 33.2891 17.0339 32.8946 16.6353C27.8305 12.2501 22.7572 7.86558 17.6885 3.4821C17.4567 3.34167 17.3436 3.3991 17.2227 3.4821ZM17.4556 4.22522L32.3844 17.1346C32.6962 17.4496 32.7835 17.7341 32.7726 17.8C32.6879 17.9527 32.4295 17.9361 32.2846 17.9553C21.4289 17.9553 12.689 17.9553 2.97045 17.9553C2.5262 17.9666 2.33292 17.8131 2.28279 17.7113C2.33404 17.3703 2.31218 17.3496 2.51569 17.1347L17.4556 4.22522ZM8.30533 5.88879H10.0799V9.65956L8.30533 11.19V5.88879ZM17.5332 8.01818C15.9361 8.01818 14.3545 9.194 14.339 10.8463L14.3279 15.4599C14.322 15.6494 14.4932 15.826 14.6828 15.8259H20.3615C20.5473 15.8258 20.7164 15.6568 20.7164 15.471L20.7275 10.8574C20.7414 9.12503 19.0393 8.03884 17.5332 8.01818H17.5332ZM17.5332 8.72796C18.6566 8.71625 20.0398 9.50894 20.0177 11.2122H15.0488C15.0873 9.44412 16.5094 8.75693 17.5332 8.72796ZM15.0488 11.922H17.1783V15.1161H15.0377L15.0488 11.922ZM17.8881 11.922H20.0177L20.0066 15.1161H17.8882L17.8881 11.922ZM5.46597 18.6651H29.6005V31.7963H5.46597V18.6651ZM17.5332 21.5043C16.575 21.5043 15.627 21.7818 14.8935 22.2695C14.16 22.7572 13.6261 23.4755 13.618 24.3324C13.618 26.228 13.618 28.1254 13.618 30.0217C13.618 30.2075 13.7871 30.3766 13.9729 30.3766H21.0713C21.2572 30.3766 21.4262 30.2075 21.4263 30.0217V24.3434C21.4429 23.4839 20.9055 22.7581 20.1729 22.2694C19.3858 21.7886 18.4864 21.5132 17.5332 21.5043ZM17.5332 22.2141C18.3494 22.2141 19.1751 22.458 19.7737 22.8573C20.3722 23.2566 20.7272 23.7747 20.7164 24.3324C20.7164 26.1097 20.7164 27.8888 20.7164 29.6668H14.3279V24.3434C14.3332 23.7806 14.6809 23.2568 15.2817 22.8573C16.0292 22.482 16.67 22.1997 17.5332 22.2141ZM7.51785 23.9886C7.35915 24.024 7.23665 24.1808 7.24057 24.3434V29.312C7.24059 29.4978 7.40966 29.6668 7.59549 29.6669H11.1447C11.3305 29.6668 11.4996 29.4978 11.4996 29.312V24.3434C11.4996 24.1576 11.3305 23.9886 11.1447 23.9886C9.93908 23.9886 8.71708 23.9886 7.51785 23.9886ZM23.8441 23.9886C23.6854 24.024 23.5629 24.1808 23.5669 24.3434V29.312C23.5669 29.4978 23.736 29.6668 23.9218 29.6669H27.471C27.6568 29.6668 27.8259 29.4978 27.8259 29.312V24.3434C27.8259 24.1576 27.6568 23.9886 27.471 23.9886C26.2654 23.9886 25.0434 23.9886 23.8441 23.9886ZM7.95041 24.6983H10.7898V28.9571H7.95041V24.6983ZM24.2767 24.6983H27.1161V28.9571H24.2767V24.6983Z" fill="#FCFCEE" stroke="#FCFCEE" stroke-width="0.2"/>
</svg>
