<svg width="34" height="35" viewBox="0 0 34 35" fill="none" xmlns="http://www.w3.org/2000/svg">
<mask id="path-1-inside-1" fill="white">
<path d="M33.4759 14.5863L30.3026 14.28C29.9664 12.9328 29.4221 11.6465 28.6894 10.4669L30.7035 8.03618C30.8891 7.81151 30.8745 7.4828 30.6692 7.27583L27.311 3.8833C27.1043 3.6744 26.7722 3.65835 26.5462 3.84595L24.111 5.86497C22.9273 5.13976 21.641 4.59772 20.2954 4.25711L19.9891 1.08206C19.9623 0.788493 19.7196 0.561605 19.4249 0.554688H14.6094C14.3147 0.561605 14.072 0.788493 14.0452 1.08206L13.7392 4.24937C12.39 4.58333 11.1015 5.1262 9.91971 5.85806L7.48841 3.84401C7.26291 3.65752 6.93309 3.67301 6.7264 3.87998L3.32695 7.27279C3.11971 7.47975 3.10422 7.8104 3.29098 8.0359L5.30863 10.4694C4.58397 11.6517 4.0411 12.9361 3.69827 14.2798L0.520459 14.5863C0.228271 14.6137 0.0038737 14.8569 0 15.1502V19.9591C0.003597 20.2527 0.228271 20.4959 0.520459 20.523L3.69219 20.8293C4.02809 22.1766 4.57207 23.4629 5.30448 24.6424L3.28988 27.0732C3.10311 27.2987 3.11888 27.6293 3.3264 27.836L6.7264 31.2286C6.93337 31.4353 7.26346 31.4505 7.48841 31.264L9.92386 29.2452C11.1076 29.9702 12.3939 30.5122 13.7395 30.8531L14.0455 34.0279C14.0726 34.3212 14.315 34.5475 14.6094 34.5547H19.4249C19.7196 34.5478 19.9623 34.3209 19.9891 34.0273L20.2951 30.86C21.6443 30.526 22.9328 29.9832 24.1146 29.2513L26.5462 31.2654C26.7714 31.4519 27.1015 31.4364 27.3082 31.2294L30.7074 27.8366C30.9146 27.6296 30.9301 27.299 30.7433 27.0735L28.7257 24.64C29.4503 23.4574 29.9935 22.173 30.3363 20.8291L33.4765 20.5228C33.7692 20.4954 33.9945 20.2527 34 19.9589V15.1502C33.9945 14.8561 33.7687 14.6132 33.4759 14.5863ZM32.8667 19.4453L29.8355 19.7408C29.5903 19.7644 29.3875 19.942 29.3316 20.1819C28.9963 21.6752 28.3948 23.096 27.5553 24.376C27.4194 24.5835 27.4344 24.8555 27.5924 25.047L29.5419 27.3991L26.8729 30.0623L24.5197 28.1113C24.3277 27.952 24.0537 27.9373 23.8454 28.0751C22.5701 28.9201 21.1473 29.5183 19.6515 29.8387C19.4083 29.8974 19.2293 30.1044 19.2066 30.3537L18.9106 33.4214H15.1237L14.828 30.3528C14.8044 30.1052 14.6243 29.9004 14.3817 29.8457C12.9437 29.5391 11.5309 28.9409 10.1826 28.0748C9.97533 27.9409 9.705 27.9564 9.51436 28.1133L7.16164 30.0634L4.49321 27.3994L6.44362 25.047C6.60327 24.8544 6.61766 24.5796 6.47904 24.3713C5.63236 23.0985 5.03221 21.6782 4.70903 20.1841C4.65286 19.9425 4.44839 19.7638 4.20158 19.7406L1.13333 19.4448V15.6649L4.20186 15.3688C4.44701 15.3456 4.64954 15.1677 4.70461 14.9278C5.0394 13.4342 5.64093 12.0134 6.47987 10.7334C6.61572 10.5256 6.6005 10.2539 6.44251 10.0624L4.49266 7.71051L7.16164 5.04707L9.51463 6.99803C9.70693 7.15741 9.98086 7.17235 10.1889 7.03455C11.4645 6.18953 12.887 5.59133 14.383 5.27119C14.626 5.21226 14.805 5.00529 14.828 4.75627L15.1237 1.68802H18.9106L19.2066 4.75654C19.2299 5.00446 19.41 5.20894 19.6527 5.26372C21.0906 5.5703 22.5034 6.16851 23.852 7.03483C24.0593 7.16903 24.3296 7.15326 24.52 6.99637L26.8705 5.04845L29.5021 7.70747L27.5497 10.0624C27.3901 10.255 27.3757 10.5295 27.5143 10.7378C28.3607 12.0109 28.9611 13.4311 29.2843 14.9253C29.3419 15.1674 29.5475 15.3456 29.7954 15.3688L32.8667 15.6646V19.4453Z"/>
<path d="M16.9997 8.28934C11.8906 8.28934 7.73442 12.4455 7.73442 17.5547C7.73442 22.6638 11.8906 26.82 16.9997 26.82C22.1089 26.82 26.2648 22.6638 26.2648 17.5547C26.2648 12.4455 22.1086 8.28934 16.9997 8.28934ZM16.9997 25.6867C12.5085 25.6869 8.86747 22.0462 8.8672 17.555C8.8672 13.0637 12.5079 9.42268 16.9992 9.42268C21.4905 9.4224 25.1315 13.0634 25.1315 17.5547C25.1262 22.0437 21.4888 25.6814 16.9997 25.6867Z"/>
<path d="M20.3847 17.6964H17.0702V13.2024C17.0702 12.8894 16.8165 12.6357 16.5036 12.6357C16.1906 12.6357 15.9369 12.8894 15.9369 13.2024V18.2802C15.9405 18.4302 16.0033 18.5724 16.112 18.6754C16.2208 18.7786 16.366 18.8342 16.5157 18.8298H20.3847C20.6977 18.8298 20.9514 18.576 20.9514 18.2631C20.9514 17.9501 20.6977 17.6964 20.3847 17.6964Z"/>
</mask>
<path d="M33.4759 14.5863L30.3026 14.28C29.9664 12.9328 29.4221 11.6465 28.6894 10.4669L30.7035 8.03618C30.8891 7.81151 30.8745 7.4828 30.6692 7.27583L27.311 3.8833C27.1043 3.6744 26.7722 3.65835 26.5462 3.84595L24.111 5.86497C22.9273 5.13976 21.641 4.59772 20.2954 4.25711L19.9891 1.08206C19.9623 0.788493 19.7196 0.561605 19.4249 0.554688H14.6094C14.3147 0.561605 14.072 0.788493 14.0452 1.08206L13.7392 4.24937C12.39 4.58333 11.1015 5.1262 9.91971 5.85806L7.48841 3.84401C7.26291 3.65752 6.93309 3.67301 6.7264 3.87998L3.32695 7.27279C3.11971 7.47975 3.10422 7.8104 3.29098 8.0359L5.30863 10.4694C4.58397 11.6517 4.0411 12.9361 3.69827 14.2798L0.520459 14.5863C0.228271 14.6137 0.0038737 14.8569 0 15.1502V19.9591C0.003597 20.2527 0.228271 20.4959 0.520459 20.523L3.69219 20.8293C4.02809 22.1766 4.57207 23.4629 5.30448 24.6424L3.28988 27.0732C3.10311 27.2987 3.11888 27.6293 3.3264 27.836L6.7264 31.2286C6.93337 31.4353 7.26346 31.4505 7.48841 31.264L9.92386 29.2452C11.1076 29.9702 12.3939 30.5122 13.7395 30.8531L14.0455 34.0279C14.0726 34.3212 14.315 34.5475 14.6094 34.5547H19.4249C19.7196 34.5478 19.9623 34.3209 19.9891 34.0273L20.2951 30.86C21.6443 30.526 22.9328 29.9832 24.1146 29.2513L26.5462 31.2654C26.7714 31.4519 27.1015 31.4364 27.3082 31.2294L30.7074 27.8366C30.9146 27.6296 30.9301 27.299 30.7433 27.0735L28.7257 24.64C29.4503 23.4574 29.9935 22.173 30.3363 20.8291L33.4765 20.5228C33.7692 20.4954 33.9945 20.2527 34 19.9589V15.1502C33.9945 14.8561 33.7687 14.6132 33.4759 14.5863ZM32.8667 19.4453L29.8355 19.7408C29.5903 19.7644 29.3875 19.942 29.3316 20.1819C28.9963 21.6752 28.3948 23.096 27.5553 24.376C27.4194 24.5835 27.4344 24.8555 27.5924 25.047L29.5419 27.3991L26.8729 30.0623L24.5197 28.1113C24.3277 27.952 24.0537 27.9373 23.8454 28.0751C22.5701 28.9201 21.1473 29.5183 19.6515 29.8387C19.4083 29.8974 19.2293 30.1044 19.2066 30.3537L18.9106 33.4214H15.1237L14.828 30.3528C14.8044 30.1052 14.6243 29.9004 14.3817 29.8457C12.9437 29.5391 11.5309 28.9409 10.1826 28.0748C9.97533 27.9409 9.705 27.9564 9.51436 28.1133L7.16164 30.0634L4.49321 27.3994L6.44362 25.047C6.60327 24.8544 6.61766 24.5796 6.47904 24.3713C5.63236 23.0985 5.03221 21.6782 4.70903 20.1841C4.65286 19.9425 4.44839 19.7638 4.20158 19.7406L1.13333 19.4448V15.6649L4.20186 15.3688C4.44701 15.3456 4.64954 15.1677 4.70461 14.9278C5.0394 13.4342 5.64093 12.0134 6.47987 10.7334C6.61572 10.5256 6.6005 10.2539 6.44251 10.0624L4.49266 7.71051L7.16164 5.04707L9.51463 6.99803C9.70693 7.15741 9.98086 7.17235 10.1889 7.03455C11.4645 6.18953 12.887 5.59133 14.383 5.27119C14.626 5.21226 14.805 5.00529 14.828 4.75627L15.1237 1.68802H18.9106L19.2066 4.75654C19.2299 5.00446 19.41 5.20894 19.6527 5.26372C21.0906 5.5703 22.5034 6.16851 23.852 7.03483C24.0593 7.16903 24.3296 7.15326 24.52 6.99637L26.8705 5.04845L29.5021 7.70747L27.5497 10.0624C27.3901 10.255 27.3757 10.5295 27.5143 10.7378C28.3607 12.0109 28.9611 13.4311 29.2843 14.9253C29.3419 15.1674 29.5475 15.3456 29.7954 15.3688L32.8667 15.6646V19.4453Z" fill="#FCFCEE"/>
<path d="M16.9997 8.28934C11.8906 8.28934 7.73442 12.4455 7.73442 17.5547C7.73442 22.6638 11.8906 26.82 16.9997 26.82C22.1089 26.82 26.2648 22.6638 26.2648 17.5547C26.2648 12.4455 22.1086 8.28934 16.9997 8.28934ZM16.9997 25.6867C12.5085 25.6869 8.86747 22.0462 8.8672 17.555C8.8672 13.0637 12.5079 9.42268 16.9992 9.42268C21.4905 9.4224 25.1315 13.0634 25.1315 17.5547C25.1262 22.0437 21.4888 25.6814 16.9997 25.6867Z" fill="#FCFCEE"/>
<path d="M20.3847 17.6964H17.0702V13.2024C17.0702 12.8894 16.8165 12.6357 16.5036 12.6357C16.1906 12.6357 15.9369 12.8894 15.9369 13.2024V18.2802C15.9405 18.4302 16.0033 18.5724 16.112 18.6754C16.2208 18.7786 16.366 18.8342 16.5157 18.8298H20.3847C20.6977 18.8298 20.9514 18.576 20.9514 18.2631C20.9514 17.9501 20.6977 17.6964 20.3847 17.6964Z" fill="#FCFCEE"/>
<path d="M33.4759 14.5863L30.3026 14.28C29.9664 12.9328 29.4221 11.6465 28.6894 10.4669L30.7035 8.03618C30.8891 7.81151 30.8745 7.4828 30.6692 7.27583L27.311 3.8833C27.1043 3.6744 26.7722 3.65835 26.5462 3.84595L24.111 5.86497C22.9273 5.13976 21.641 4.59772 20.2954 4.25711L19.9891 1.08206C19.9623 0.788493 19.7196 0.561605 19.4249 0.554688H14.6094C14.3147 0.561605 14.072 0.788493 14.0452 1.08206L13.7392 4.24937C12.39 4.58333 11.1015 5.1262 9.91971 5.85806L7.48841 3.84401C7.26291 3.65752 6.93309 3.67301 6.7264 3.87998L3.32695 7.27279C3.11971 7.47975 3.10422 7.8104 3.29098 8.0359L5.30863 10.4694C4.58397 11.6517 4.0411 12.9361 3.69827 14.2798L0.520459 14.5863C0.228271 14.6137 0.0038737 14.8569 0 15.1502V19.9591C0.003597 20.2527 0.228271 20.4959 0.520459 20.523L3.69219 20.8293C4.02809 22.1766 4.57207 23.4629 5.30448 24.6424L3.28988 27.0732C3.10311 27.2987 3.11888 27.6293 3.3264 27.836L6.7264 31.2286C6.93337 31.4353 7.26346 31.4505 7.48841 31.264L9.92386 29.2452C11.1076 29.9702 12.3939 30.5122 13.7395 30.8531L14.0455 34.0279C14.0726 34.3212 14.315 34.5475 14.6094 34.5547H19.4249C19.7196 34.5478 19.9623 34.3209 19.9891 34.0273L20.2951 30.86C21.6443 30.526 22.9328 29.9832 24.1146 29.2513L26.5462 31.2654C26.7714 31.4519 27.1015 31.4364 27.3082 31.2294L30.7074 27.8366C30.9146 27.6296 30.9301 27.299 30.7433 27.0735L28.7257 24.64C29.4503 23.4574 29.9935 22.173 30.3363 20.8291L33.4765 20.5228C33.7692 20.4954 33.9945 20.2527 34 19.9589V15.1502C33.9945 14.8561 33.7687 14.6132 33.4759 14.5863ZM32.8667 19.4453L29.8355 19.7408C29.5903 19.7644 29.3875 19.942 29.3316 20.1819C28.9963 21.6752 28.3948 23.096 27.5553 24.376C27.4194 24.5835 27.4344 24.8555 27.5924 25.047L29.5419 27.3991L26.8729 30.0623L24.5197 28.1113C24.3277 27.952 24.0537 27.9373 23.8454 28.0751C22.5701 28.9201 21.1473 29.5183 19.6515 29.8387C19.4083 29.8974 19.2293 30.1044 19.2066 30.3537L18.9106 33.4214H15.1237L14.828 30.3528C14.8044 30.1052 14.6243 29.9004 14.3817 29.8457C12.9437 29.5391 11.5309 28.9409 10.1826 28.0748C9.97533 27.9409 9.705 27.9564 9.51436 28.1133L7.16164 30.0634L4.49321 27.3994L6.44362 25.047C6.60327 24.8544 6.61766 24.5796 6.47904 24.3713C5.63236 23.0985 5.03221 21.6782 4.70903 20.1841C4.65286 19.9425 4.44839 19.7638 4.20158 19.7406L1.13333 19.4448V15.6649L4.20186 15.3688C4.44701 15.3456 4.64954 15.1677 4.70461 14.9278C5.0394 13.4342 5.64093 12.0134 6.47987 10.7334C6.61572 10.5256 6.6005 10.2539 6.44251 10.0624L4.49266 7.71051L7.16164 5.04707L9.51463 6.99803C9.70693 7.15741 9.98086 7.17235 10.1889 7.03455C11.4645 6.18953 12.887 5.59133 14.383 5.27119C14.626 5.21226 14.805 5.00529 14.828 4.75627L15.1237 1.68802H18.9106L19.2066 4.75654C19.2299 5.00446 19.41 5.20894 19.6527 5.26372C21.0906 5.5703 22.5034 6.16851 23.852 7.03483C24.0593 7.16903 24.3296 7.15326 24.52 6.99637L26.8705 5.04845L29.5021 7.70747L27.5497 10.0624C27.3901 10.255 27.3757 10.5295 27.5143 10.7378C28.3607 12.0109 28.9611 13.4311 29.2843 14.9253C29.3419 15.1674 29.5475 15.3456 29.7954 15.3688L32.8667 15.6646V19.4453Z" stroke="#FCFCEE" stroke-width="0.144202" mask="url(#path-1-inside-1)"/>
<path d="M16.9997 8.28934C11.8906 8.28934 7.73442 12.4455 7.73442 17.5547C7.73442 22.6638 11.8906 26.82 16.9997 26.82C22.1089 26.82 26.2648 22.6638 26.2648 17.5547C26.2648 12.4455 22.1086 8.28934 16.9997 8.28934ZM16.9997 25.6867C12.5085 25.6869 8.86747 22.0462 8.8672 17.555C8.8672 13.0637 12.5079 9.42268 16.9992 9.42268C21.4905 9.4224 25.1315 13.0634 25.1315 17.5547C25.1262 22.0437 21.4888 25.6814 16.9997 25.6867Z" stroke="#FCFCEE" stroke-width="0.144202" mask="url(#path-1-inside-1)"/>
<path d="M20.3847 17.6964H17.0702V13.2024C17.0702 12.8894 16.8165 12.6357 16.5036 12.6357C16.1906 12.6357 15.9369 12.8894 15.9369 13.2024V18.2802C15.9405 18.4302 16.0033 18.5724 16.112 18.6754C16.2208 18.7786 16.366 18.8342 16.5157 18.8298H20.3847C20.6977 18.8298 20.9514 18.576 20.9514 18.2631C20.9514 17.9501 20.6977 17.6964 20.3847 17.6964Z" stroke="#FCFCEE" stroke-width="0.144202" mask="url(#path-1-inside-1)"/>
</svg>
