<svg width="35" height="35" viewBox="0 0 35 35" fill="none" xmlns="http://www.w3.org/2000/svg">
<path d="M17.2227 2.93376L10.7898 8.50118V4.9855C10.7897 4.79967 10.6207 4.63062 10.4348 4.63058C9.58474 4.63058 8.71606 4.63058 7.87277 4.63058C7.71407 4.66612 7.59157 4.82292 7.59549 4.9855V11.2627C5.73758 12.8717 4.04266 14.2411 2.0166 16.0869C1.59942 16.5084 1.42371 17.0462 1.6395 17.4844C1.85387 17.9196 2.36449 18.1289 2.97045 18.1165C3.5643 18.1165 4.16119 18.1165 4.75612 18.1165V31.6026C4.75613 31.7884 4.92521 31.9575 5.11103 31.9575H29.9554C30.1412 31.9575 30.3103 31.7884 30.3103 31.6026V18.1165H32.2845C32.9031 18.1165 33.2424 17.8472 33.4824 17.3735C33.5598 16.9062 33.2891 16.4856 32.8946 16.0869C27.8305 11.7018 22.7572 7.31724 17.6885 2.93376C17.4567 2.79333 17.3436 2.85076 17.2227 2.93376ZM17.4556 3.67688L32.3844 16.5863C32.6962 16.9012 32.7835 17.1857 32.7726 17.2517C32.6879 17.4044 32.4295 17.3878 32.2846 17.4069C21.4289 17.4069 12.689 17.4069 2.97045 17.4069C2.5262 17.4183 2.33292 17.2647 2.28279 17.163C2.33404 16.822 2.31218 16.8013 2.51569 16.5864L17.4556 3.67688ZM8.30533 5.34045H10.0799V9.11122L8.30533 10.6417V5.34045ZM17.5332 7.46984C15.9361 7.46984 14.3545 8.64566 14.339 10.2979L14.3279 14.9116C14.322 15.1011 14.4932 15.2776 14.6828 15.2775H20.3615C20.5473 15.2775 20.7164 15.1085 20.7164 14.9227L20.7275 10.309C20.7414 8.57669 19.0393 7.4905 17.5332 7.46984H17.5332ZM17.5332 8.17962C18.6566 8.16791 20.0398 8.9606 20.0177 10.6639H15.0488C15.0873 8.89578 16.5094 8.20859 17.5332 8.17962ZM15.0488 11.3737H17.1783V14.5678H15.0377L15.0488 11.3737ZM17.8881 11.3737H20.0177L20.0066 14.5678H17.8882L17.8881 11.3737ZM5.46597 18.1167H29.6005V31.2479H5.46597V18.1167ZM17.5332 20.9559C16.575 20.9559 15.627 21.2335 14.8935 21.7212C14.16 22.2089 13.6261 22.9272 13.618 23.784C13.618 25.6797 13.618 27.5771 13.618 29.4734C13.618 29.6592 13.7871 29.8282 13.9729 29.8283H21.0713C21.2572 29.8282 21.4262 29.6592 21.4263 29.4734V23.795C21.4429 22.9356 20.9055 22.2098 20.1729 21.7211C19.3858 21.2403 18.4864 20.9648 17.5332 20.9559ZM17.5332 21.6657C18.3494 21.6657 19.1751 21.9097 19.7737 22.309C20.3722 22.7082 20.7272 23.2264 20.7164 23.784C20.7164 25.5614 20.7164 27.3405 20.7164 29.1185H14.3279V23.795C14.3332 23.2323 14.6809 22.7084 15.2817 22.3089C16.0292 21.9336 16.67 21.6514 17.5332 21.6657ZM7.51785 23.4402C7.35915 23.4757 7.23665 23.6325 7.24057 23.7951V28.7637C7.24059 28.9495 7.40966 29.1185 7.59549 29.1185H11.1447C11.3305 29.1185 11.4996 28.9495 11.4996 28.7637V23.7951C11.4996 23.6093 11.3305 23.4402 11.1447 23.4402C9.93908 23.4402 8.71708 23.4402 7.51785 23.4402ZM23.8441 23.4402C23.6854 23.4757 23.5629 23.6325 23.5669 23.7951V28.7637C23.5669 28.9495 23.736 29.1185 23.9218 29.1185H27.471C27.6568 29.1185 27.8259 28.9495 27.8259 28.7637V23.7951C27.8259 23.6093 27.6568 23.4402 27.471 23.4402C26.2654 23.4402 25.0434 23.4402 23.8441 23.4402ZM7.95041 24.15H10.7898V28.4088H7.95041V24.15ZM24.2767 24.15H27.1161V28.4088H24.2767V24.15Z" fill="#FCFCEE" stroke="#FCFCEE" stroke-width="0.2"/>
</svg>
