<svg width="35" height="35" viewBox="0 0 35 35" fill="none" xmlns="http://www.w3.org/2000/svg">
<path d="M2.52344 24.8836V30.6991H20.1893C21.059 31.5457 22.0752 32.2273 23.1885 32.7107L24.2492 33.1862L25.4927 32.6741C27.3124 31.916 28.8669 30.6361 29.9604 28.9959C31.0539 27.3557 31.6374 25.4285 31.6374 23.4572V18.044L24.3223 14.1305L19.9698 16.5079C18.7071 15.496 17.2315 14.7833 15.654 14.4231C17.1418 13.8584 18.3846 12.79 19.1661 11.4037C19.9477 10.0174 20.2185 8.40096 19.9314 6.83566C19.6444 5.27035 18.8176 3.85521 17.595 2.83645C16.3725 1.81768 14.8314 1.25977 13.24 1.25977C11.6486 1.25977 10.1075 1.81768 8.88495 2.83645C7.66237 3.85521 6.83564 5.27035 6.54858 6.83566C6.26152 8.40096 6.53232 10.0174 7.31384 11.4037C8.09537 12.79 9.33817 13.8584 10.826 14.4231C8.46559 14.9755 6.36109 16.3094 4.85398 18.2082C3.34688 20.107 2.52561 22.4594 2.52344 24.8836ZM24.3223 14.9717L30.9059 18.5195V23.4572C30.9083 25.2882 30.3674 27.0788 29.3517 28.6023C28.3361 30.1258 26.8912 31.3138 25.2001 32.0158L24.2857 32.4181L23.4811 32.0889C21.8133 31.3662 20.3942 30.1701 19.3996 28.6488C18.4049 27.1276 17.8783 25.3479 17.8851 23.5303V18.4829L24.3223 14.9717ZM7.1685 8.09556C7.16852 6.89629 7.5237 5.72389 8.18924 4.72625C8.85479 3.7286 9.80087 2.9504 10.9082 2.48981C12.0155 2.02922 13.2344 1.90687 14.4111 2.13819C15.5878 2.36951 16.6697 2.94414 17.5203 3.7896C18.3708 4.63506 18.952 5.71347 19.1903 6.88881C19.4287 8.06414 19.3137 9.28375 18.8598 10.3938C18.4058 11.5038 17.6333 12.4546 16.6397 13.1261C15.6461 13.7976 14.4758 14.1598 13.2766 14.1671C12.4762 14.1719 11.6827 14.0184 10.9419 13.7154C10.201 13.4125 9.52738 12.966 8.95971 12.4017C8.39204 11.8375 7.94154 11.1665 7.63414 10.4275C7.32673 9.68848 7.16848 8.89597 7.1685 8.09556ZM13.2766 14.8986C15.4408 14.9038 17.5451 15.6096 19.2749 16.9102L17.1901 18.044V23.5303C17.1901 25.8844 18.0188 28.1634 19.5309 29.9676H3.25494V24.8836C3.26462 22.2321 4.32474 19.6924 6.20311 17.8209C8.08148 15.9494 10.625 14.8985 13.2766 14.8986Z" fill="#FCFCEE" stroke="#FCFCEE" stroke-width="0.4"/>
<path d="M23.2599 26.1634H23.2964L23.5525 25.9439L28.0878 22.2498L27.6489 21.7012L23.3696 25.1392L21.5408 22.9813L20.9922 23.4568L23.0404 25.9073L23.2599 26.1634Z" fill="#FCFCEE" stroke="#FCFCEE" stroke-width="0.4"/>
</svg>
