<svg width="34" height="35" viewBox="0 0 34 35" fill="none" xmlns="http://www.w3.org/2000/svg">
<path d="M1.73036 15.6365H3.5926V8.74396C3.5926 8.58133 3.65721 8.42537 3.7722 8.31038C3.88719 8.19538 4.04316 8.13078 4.20578 8.13078H9.88334V2.12392C9.88269 1.97067 9.93944 1.82273 10.0424 1.70924C10.1454 1.59575 10.2872 1.52493 10.4397 1.51074H23.589C23.7516 1.51074 23.9076 1.57534 24.0226 1.69034C24.1376 1.80533 24.2022 1.96129 24.2022 2.12392V8.13078H29.8797C30.0423 8.13078 30.1983 8.19538 30.3133 8.31038C30.4283 8.42537 30.4929 8.58133 30.4929 8.74396V15.6365H32.3551C32.5117 15.6509 32.6568 15.725 32.7603 15.8433C32.8639 15.9617 32.918 16.1153 32.9115 16.2724V32.6919C32.9115 32.8545 32.8469 33.0105 32.7319 33.1255C32.6169 33.2405 32.461 33.3051 32.2984 33.3051H1.73036C1.56774 33.3051 1.41178 33.2405 1.29678 33.1255C1.18179 33.0105 1.11719 32.8545 1.11719 32.6919V16.2724C1.11719 16.1098 1.18179 15.9538 1.29678 15.8388C1.41178 15.7238 1.56774 15.6592 1.73036 15.6592V15.6365ZM10.4397 22.4496H23.589C23.7516 22.4496 23.9076 22.5142 24.0226 22.6292C24.1376 22.7442 24.2022 22.9001 24.2022 23.0628V32.1469H31.6852V19.8039H2.34354V32.0787H9.82657V22.9946C9.82657 22.9141 9.84243 22.8344 9.87324 22.76C9.90406 22.6856 9.94922 22.618 10.0062 22.5611C10.0631 22.5041 10.1307 22.459 10.2051 22.4281C10.2795 22.3973 10.3592 22.3815 10.4397 22.3815V22.4496ZM16.4012 23.6759H11.0529V32.0787H16.4012V23.6759ZM22.9758 23.6759H17.6275V32.0787H22.9758V23.6759ZM11.0529 8.74396V15.6365H22.9758V2.7371H11.0529V8.74396ZM24.2022 15.6365H29.2098V9.35713H24.2022V15.6365ZM4.8076 15.6365H9.82657V9.35713H4.8076V15.6365ZM15.7199 4.71289H18.2975C18.4601 4.71289 18.6161 4.77749 18.7311 4.89248C18.8461 5.00748 18.9107 5.16344 18.9107 5.32606V7.2905H20.8751C21.0358 7.29047 21.19 7.35352 21.3047 7.46606C21.4194 7.57861 21.4853 7.73167 21.4883 7.89232V10.4699C21.4883 10.6326 21.4237 10.7885 21.3087 10.9035C21.1937 11.0185 21.0377 11.0831 20.8751 11.0831H18.9107V13.0589C18.9077 13.2196 18.8418 13.3726 18.7271 13.4852C18.6124 13.5977 18.4582 13.6608 18.2975 13.6607H15.7199C15.5603 13.6607 15.4072 13.5973 15.2943 13.4845C15.1815 13.3716 15.1181 13.2185 15.1181 13.0589V11.0831H13.1536C12.991 11.0831 12.835 11.0185 12.72 10.9035C12.605 10.7885 12.5404 10.6326 12.5404 10.4699V7.89232C12.5434 7.73167 12.6093 7.57861 12.724 7.46606C12.8387 7.35352 12.9929 7.29047 13.1536 7.2905H15.1181V5.32606C15.118 5.16539 15.1811 5.01112 15.2936 4.89645C15.4062 4.78178 15.5592 4.71586 15.7199 4.71289ZM17.6957 5.92789H16.3331V7.89232C16.3331 8.05495 16.2685 8.21091 16.1535 8.3259C16.0385 8.4409 15.8825 8.5055 15.7199 8.5055H13.7554V9.86811H15.7199C15.8806 9.86809 16.0348 9.93113 16.1495 10.0437C16.2642 10.1562 16.3301 10.3093 16.3331 10.4699V12.4457H17.6957V10.4699C17.6957 10.3103 17.7591 10.1572 17.8719 10.0444C17.9848 9.93152 18.1379 9.86811 18.2975 9.86811H20.2733V8.5055H18.2975C18.1368 8.50252 17.9838 8.43661 17.8712 8.32194C17.7587 8.20727 17.6956 8.053 17.6957 7.89232V5.92789ZM31.6852 16.8629H2.34354V18.5434H31.6852V16.8629Z" fill="#FCFCEE"/>
</svg>
