<svg width="34" height="35" viewBox="0 0 34 35" fill="none" xmlns="http://www.w3.org/2000/svg">
<path d="M22.713 10.6789H23.0962L23.1818 11.0451C23.1818 11.0451 23.1818 11.0451 23.1818 11.0724L23.6916 13.2214C23.7186 13.3336 23.7825 13.4334 23.8732 13.5048C23.9638 13.5762 24.0759 13.615 24.1912 13.6149H26.4805C26.5999 13.6205 26.7176 13.5843 26.8132 13.5125C26.9088 13.4406 26.9763 13.3377 27.004 13.2214L27.5173 11.0587C27.5348 10.983 27.535 10.9042 27.5178 10.8284C27.5006 10.7526 27.4665 10.6816 27.4181 10.6207C27.3692 10.558 27.3063 10.5077 27.2343 10.4738C27.1624 10.4399 27.0835 10.4234 27.004 10.4257H24.0954L24.003 10.0493C23.9768 9.93645 23.9131 9.83582 23.8224 9.76375C23.7317 9.69168 23.6193 9.65242 23.5034 9.65234H22.7164C22.5803 9.65234 22.4497 9.70642 22.3535 9.80268C22.2572 9.89894 22.2031 10.0295 22.2031 10.1656C22.2031 10.3018 22.2572 10.4323 22.3535 10.5286C22.4497 10.6248 22.5803 10.6789 22.7164 10.6789H22.713ZM26.3504 11.4523L26.0835 12.5883H24.6087L24.3418 11.4523H26.3504Z" fill="#FCFCEE"/>
<path d="M24.1237 14.0116L24.0279 14.039C23.9968 14.0522 23.967 14.0682 23.9389 14.0869C23.9105 14.1058 23.8842 14.1276 23.8602 14.1519C23.764 14.2481 23.7098 14.3786 23.7097 14.5146C23.7061 14.5476 23.7061 14.5809 23.7097 14.6139C23.7168 14.6463 23.7259 14.6783 23.7371 14.7097C23.751 14.7404 23.767 14.7701 23.785 14.7986C23.8047 14.8264 23.8265 14.8527 23.85 14.8773C23.8739 14.9017 23.9003 14.9234 23.9287 14.9423C23.9561 14.9612 23.9861 14.9762 24.0176 14.9868C24.0483 15.0007 24.0805 15.011 24.1134 15.0176C24.1464 15.0212 24.1797 15.0212 24.2127 15.0176C24.2457 15.021 24.2789 15.021 24.3119 15.0176C24.3449 15.011 24.377 15.0007 24.4077 14.9868C24.439 14.9755 24.4688 14.9606 24.4967 14.9423C24.5533 14.904 24.6021 14.8552 24.6404 14.7986C24.6586 14.7708 24.6735 14.7409 24.6849 14.7097C24.6987 14.679 24.709 14.6468 24.7157 14.6139C24.7192 14.5809 24.7192 14.5476 24.7157 14.5146C24.7156 14.4389 24.6987 14.3641 24.6663 14.2956C24.6339 14.2271 24.5867 14.1666 24.5282 14.1186C24.4696 14.0705 24.4011 14.036 24.3277 14.0175C24.2542 13.999 24.1775 13.997 24.1032 14.0116H24.1237Z" fill="#FCFCEE"/>
<path d="M26.6605 14.0875L26.5716 14.0396L26.4758 14.0122C26.4092 13.9985 26.3405 13.9985 26.2739 14.0122L26.1781 14.0396C26.1485 14.0535 26.1199 14.0695 26.0925 14.0875C26.0641 14.1064 26.0378 14.1282 26.0138 14.1525C25.9176 14.2486 25.8634 14.3791 25.8633 14.5152C25.8641 14.6511 25.9182 14.7813 26.0138 14.8779C26.0378 14.9022 26.0641 14.924 26.0925 14.9429C26.1192 14.9611 26.1479 14.976 26.1781 14.9874C26.2089 15.0007 26.241 15.011 26.2739 15.0182H26.3765C26.4095 15.0215 26.4428 15.0215 26.4758 15.0182C26.5088 15.0115 26.5409 15.0012 26.5716 14.9874C26.6028 14.976 26.6327 14.9611 26.6605 14.9429C26.6883 14.9231 26.7146 14.9014 26.7392 14.8779C26.8349 14.7813 26.8889 14.6511 26.8898 14.5152C26.8897 14.3791 26.8355 14.2486 26.7392 14.1525C26.7146 14.129 26.6883 14.1073 26.6605 14.0875Z" fill="#FCFCEE"/>
<path d="M32.4782 26.4917H31.9889V13.1977C31.988 11.6312 31.3655 10.1291 30.2582 9.02118C29.1509 7.91321 27.6492 7.2899 26.0827 7.28809H23.6292C22.5923 7.28958 21.574 7.56388 20.6767 8.08343C19.7793 8.60299 19.0345 9.34951 18.5169 10.248L1.62308 12.1574H1.60255H1.5478H1.50331C1.48623 12.1613 1.46999 12.1683 1.45541 12.178L1.41092 12.1985L1.37328 12.2703L1.33906 12.2909L1.30827 12.3251L1.27405 12.3627L1.25009 12.4038C1.2408 12.4179 1.23279 12.4328 1.22614 12.4483L1.20561 12.4928C1.20561 12.5099 1.20561 12.527 1.20561 12.5407V12.5886C1.20402 12.6068 1.20402 12.6251 1.20561 12.6433C1.20561 12.6433 1.20561 12.6433 1.20561 12.6673V14.8915C1.20526 15.0214 1.25414 15.1465 1.3424 15.2418C1.43066 15.337 1.55175 15.3953 1.68125 15.4048H2.46486V26.4917H1.68125C1.54512 26.4917 1.41456 26.5458 1.31831 26.642C1.22205 26.7383 1.16797 26.8689 1.16797 27.005C1.16797 27.1411 1.22205 27.2717 1.31831 27.3679C1.41456 27.4642 1.54512 27.5183 1.68125 27.5183H32.4782C32.6143 27.5183 32.7449 27.4642 32.8412 27.3679C32.9374 27.2717 32.9915 27.1411 32.9915 27.005C32.9915 26.8689 32.9374 26.7383 32.8412 26.642C32.7449 26.5458 32.6143 26.4917 32.4782 26.4917ZM23.6292 8.31465H26.0827C27.3769 8.31646 28.6175 8.83162 29.5323 9.74707C30.4471 10.6625 30.9614 11.9035 30.9623 13.1977V16.0344H18.7462V13.1977C18.7471 11.9029 19.2618 10.6614 20.1774 9.74586C21.0929 8.83031 22.3344 8.31556 23.6292 8.31465ZM8.39499 15.4048H12.8161V20.435H8.39499V15.4048ZM13.8426 15.4048H17.7196V20.435H13.8426V15.4048ZM2.20822 14.3782V13.1258L18.0379 11.3362C17.8368 11.9362 17.734 12.5648 17.7333 13.1977V14.3782H2.20822ZM7.38211 15.4048V20.435H3.49143V15.4048H7.38211ZM3.49143 21.4615H7.36842V26.4917H3.49143V21.4615ZM8.39499 21.4615H12.8161V26.4917H8.39499V21.4615ZM13.8426 21.4615H17.7196V26.4917H13.8426V21.4615ZM24.341 26.4917H21.4016V19.9593H24.341V26.4917ZM25.3675 26.4917V19.9593H28.3069V26.4917H25.3675ZM28.8202 18.9328H20.8883C20.7522 18.9328 20.6216 18.9868 20.5253 19.0831C20.4291 19.1794 20.375 19.3099 20.375 19.446V26.4917H18.7462V17.061H30.9623V26.4917H29.3335V19.4563C29.3349 19.388 29.3226 19.3202 29.2974 19.2567C29.2722 19.1933 29.2346 19.1355 29.1868 19.0867C29.139 19.038 29.082 18.9992 29.019 18.9728C28.9561 18.9464 28.8885 18.9327 28.8202 18.9328Z" fill="#FCFCEE"/>
</svg>
