<svg width="35" height="35" viewBox="0 0 35 35" fill="none" xmlns="http://www.w3.org/2000/svg">
<g clip-path="url(#clip0)">
<path d="M26.0429 24.1117C24.1738 24.1172 22.3791 23.3801 21.0535 22.0625C19.7279 20.7449 18.9799 18.9547 18.9741 17.0857L18.7443 10.3509C18.7412 10.2461 18.7741 10.1433 18.8374 10.0597C18.9008 9.97617 18.9908 9.91677 19.0926 9.89144L28.9287 7.44712C29.0309 7.42177 29.1386 7.43226 29.234 7.47684C29.3293 7.52142 29.4065 7.59737 29.4525 7.69201L32.4036 13.75C32.9574 14.8373 33.2227 16.0485 33.1743 17.2677C33.1258 18.487 32.7651 19.6733 32.1267 20.7132C31.4884 21.7531 30.5937 22.6117 29.5285 23.2067C28.4632 23.8018 27.263 24.1134 26.0429 24.1117ZM19.6766 10.6918L19.8921 17.0549C19.8974 17.9926 20.1156 18.9169 20.5301 19.7581C20.9447 20.5993 21.5448 21.3354 22.2852 21.9109C23.0256 22.4864 23.887 22.8863 24.8044 23.0805C25.7219 23.2747 26.6714 23.2581 27.5815 23.0319C28.4916 22.8058 29.3385 22.3759 30.0583 21.7749C30.7781 21.1738 31.3521 20.4171 31.7369 19.562C32.1218 18.7068 32.3075 17.7754 32.28 16.8381C32.2526 15.9007 32.0127 14.9818 31.5784 14.1506L28.7904 8.42668L19.6766 10.6918Z" fill="#FCFCEE" stroke="#FCFCEE" stroke-width="0.2"/>
<path d="M28.7322 28.1254C28.6297 28.1253 28.5302 28.091 28.4494 28.0279C28.3686 27.9648 28.3113 27.8765 28.2865 27.7771L27.2389 23.5611C27.2239 23.5024 27.2207 23.4413 27.2294 23.3813C27.2381 23.3213 27.2586 23.2636 27.2896 23.2116C27.3207 23.1596 27.3618 23.1142 27.4105 23.0781C27.4592 23.042 27.5145 23.0159 27.5733 23.0013C27.6322 22.9867 27.6933 22.9839 27.7532 22.993C27.8131 23.0021 27.8706 23.023 27.9225 23.0545C27.9743 23.0859 28.0193 23.1273 28.0551 23.1762C28.0908 23.2252 28.1166 23.2807 28.1307 23.3396L29.1774 27.5552C29.1942 27.6229 29.1954 27.6936 29.1808 27.7619C29.1662 27.8302 29.1362 27.8943 29.0932 27.9492C29.0501 28.0042 28.9951 28.0486 28.9323 28.0791C28.8695 28.1097 28.8006 28.1255 28.7308 28.1254H28.7322Z" fill="#FCFCEE" stroke="#FCFCEE" stroke-width="0.2"/>
<path d="M26.2016 31.6414C26.117 31.6414 26.0341 31.6181 25.9619 31.5739C25.8897 31.5298 25.8312 31.4666 25.7926 31.3913C25.7541 31.3159 25.7371 31.2315 25.7435 31.1471C25.7499 31.0627 25.7795 30.9818 25.829 30.9132L28.3611 27.3979C28.4246 27.3097 28.5174 27.2469 28.6229 27.2206C28.7284 27.1944 28.8398 27.2064 28.9373 27.2545L32.8206 29.176C32.905 29.2176 32.9746 29.2841 33.0199 29.3666C33.0653 29.449 33.0842 29.5434 33.0742 29.637C33.0642 29.7305 33.0257 29.8188 32.9639 29.8897C32.9021 29.9607 32.82 30.011 32.7287 30.0338L26.3137 31.6281C26.277 31.6369 26.2394 31.6414 26.2016 31.6414ZM28.8789 28.2506L27.3071 30.434L31.292 29.4438L28.8789 28.2506Z" fill="#FCFCEE" stroke="#FCFCEE" stroke-width="0.2"/>
<path d="M19.4369 17.6024C19.3246 17.6027 19.216 17.5617 19.1318 17.4873C19.0476 17.4129 18.9936 17.3103 18.98 17.1988C18.9663 17.0872 18.994 16.9746 19.0578 16.8821C19.1216 16.7896 19.2171 16.7237 19.3262 16.6969L31.9085 13.5702C32.0268 13.5408 32.152 13.5596 32.2564 13.6224C32.3609 13.6853 32.4361 13.7871 32.4656 13.9054C32.495 14.0237 32.4762 14.1489 32.4134 14.2534C32.3505 14.3578 32.2487 14.4331 32.1304 14.4625L19.549 17.5891C19.5123 17.5981 19.4747 17.6026 19.4369 17.6024Z" fill="#FCFCEE" stroke="#FCFCEE" stroke-width="0.2"/>
<path d="M8.14457 24.1121C7.55353 24.1117 6.96474 24.0392 6.39127 23.8961C4.89955 23.5293 3.56484 22.6937 2.58327 21.512C1.7178 20.4315 1.18199 19.1245 1.03997 17.7474C0.897942 16.3704 1.15571 14.9815 1.78243 13.7471L4.734 7.69054C4.78005 7.59591 4.8572 7.51995 4.95254 7.47537C5.04788 7.4308 5.15563 7.42031 5.25778 7.44565L15.0939 9.88997C15.1957 9.91531 15.2857 9.9747 15.3491 10.0583C15.4124 10.1419 15.4453 10.2446 15.4422 10.3494L15.2124 17.0842C15.1885 18.4681 14.7664 19.8159 13.9964 20.9661C13.2265 22.1164 12.1414 23.0204 10.871 23.5699C10.0062 23.9267 9.08004 24.1109 8.14457 24.1121ZM5.397 8.42706L2.609 14.151C2.05986 15.226 1.832 16.4365 1.95267 17.6376C2.07334 18.8387 2.53744 19.9796 3.28946 20.9239C4.14828 21.9526 5.31203 22.6814 6.61242 23.005C7.9128 23.3286 9.28241 23.2302 10.5232 22.7241C11.6302 22.2416 12.5748 21.4503 13.2438 20.4449C13.9128 19.4396 14.2779 18.2627 14.2954 17.0552L14.5108 10.6922L5.397 8.42706Z" fill="#FCFCEE" stroke="#FCFCEE" stroke-width="0.2"/>
<path d="M5.45428 28.1254C5.38446 28.1255 5.31554 28.1097 5.25274 28.0791C5.18995 28.0486 5.13494 28.0042 5.09188 27.9492C5.04883 27.8943 5.01887 27.8302 5.00428 27.7619C4.98969 27.6936 4.99086 27.6229 5.00768 27.5552L6.05571 23.3396C6.06991 23.2807 6.09562 23.2252 6.13137 23.1762C6.16712 23.1273 6.21219 23.0859 6.26401 23.0545C6.31582 23.023 6.37334 23.0021 6.43325 22.993C6.49317 22.9839 6.5543 22.9867 6.61312 23.0013C6.67194 23.0159 6.72729 23.042 6.77598 23.0781C6.82467 23.1142 6.86574 23.1596 6.89682 23.2116C6.92791 23.2636 6.94839 23.3213 6.95709 23.3813C6.96579 23.4413 6.96254 23.5024 6.94752 23.5611L5.89995 27.7785C5.87489 27.8777 5.81744 27.9656 5.73671 28.0285C5.65598 28.0913 5.55658 28.1254 5.45428 28.1254Z" fill="#FCFCEE" stroke="#FCFCEE" stroke-width="0.2"/>
<path d="M7.98707 31.6414C7.94977 31.6413 7.91261 31.6368 7.87634 31.6281L1.46137 30.0338C1.37008 30.011 1.288 29.9607 1.22621 29.8897C1.16442 29.8188 1.12592 29.7305 1.1159 29.637C1.10587 29.5434 1.12482 29.449 1.17017 29.3666C1.21552 29.2841 1.28509 29.2176 1.36948 29.176L5.25283 27.2545C5.3503 27.2064 5.46169 27.1944 5.56718 27.2206C5.67267 27.2469 5.76544 27.3097 5.82899 27.3979L8.36107 30.9132C8.41056 30.9818 8.44015 31.0627 8.44657 31.1471C8.45299 31.2315 8.436 31.3159 8.39746 31.3913C8.35893 31.4666 8.30035 31.5298 8.22818 31.5739C8.15601 31.6181 8.07305 31.6414 7.98845 31.6414H7.98707ZM2.89672 29.4438L6.87978 30.434L5.30797 28.2506L2.89672 29.4438Z" fill="#FCFCEE" stroke="#FCFCEE" stroke-width="0.2"/>
<path d="M14.7502 17.6024C14.7127 17.6025 14.6754 17.5981 14.639 17.5891L2.0558 14.4625C1.93748 14.4331 1.83569 14.3578 1.77283 14.2534C1.70998 14.1489 1.6912 14.0237 1.72062 13.9054C1.75005 13.7871 1.82528 13.6853 1.92975 13.6224C2.03423 13.5596 2.1594 13.5408 2.27772 13.5702L14.86 16.6969C14.9691 16.7237 15.0646 16.7896 15.1284 16.8821C15.1922 16.9746 15.2199 17.0872 15.2062 17.1988C15.1926 17.3103 15.1386 17.4129 15.0544 17.4873C14.9702 17.5617 14.8616 17.6027 14.7493 17.6024H14.7502Z" fill="#FCFCEE" stroke="#FCFCEE" stroke-width="0.2"/>
<path d="M17.0942 6.74457C16.9724 6.74457 16.8555 6.69616 16.7693 6.61C16.6832 6.52383 16.6348 6.40697 16.6348 6.28511V3.60692C16.6348 3.48506 16.6832 3.3682 16.7693 3.28203C16.8555 3.19587 16.9724 3.14746 17.0942 3.14746C17.2161 3.14746 17.3329 3.19587 17.4191 3.28203C17.5053 3.3682 17.5537 3.48506 17.5537 3.60692V6.28511C17.5537 6.40697 17.5053 6.52383 17.4191 6.61C17.3329 6.69616 17.2161 6.74457 17.0942 6.74457Z" fill="#FCFCEE" stroke="#FCFCEE" stroke-width="0.2"/>
<path d="M20.305 7.28004C20.2259 7.28001 20.1482 7.25957 20.0793 7.2207C20.0105 7.18183 19.9528 7.12584 19.9119 7.05815C19.871 6.99046 19.8483 6.91336 19.8459 6.83431C19.8435 6.75526 19.8616 6.67694 19.8984 6.60693L21.3039 3.9292C21.3605 3.82123 21.4578 3.7402 21.5742 3.70392C21.6906 3.66765 21.8166 3.6791 21.9246 3.73577C22.0326 3.79243 22.1136 3.88966 22.1499 4.00607C22.1862 4.12248 22.1747 4.24853 22.118 4.35649L20.7126 7.03422C20.6735 7.1085 20.6149 7.17068 20.5431 7.21401C20.4713 7.25734 20.3889 7.28018 20.305 7.28004Z" fill="#FCFCEE" stroke="#FCFCEE" stroke-width="0.2"/>
<path d="M13.8813 7.28003C13.7974 7.28018 13.7151 7.25734 13.6432 7.21401C13.5714 7.17068 13.5128 7.1085 13.4738 7.03422L12.0683 4.35649C12.0402 4.30304 12.023 4.24457 12.0175 4.18445C12.012 4.12432 12.0185 4.06371 12.0364 4.00607C12.0544 3.94843 12.0835 3.89489 12.1222 3.84851C12.1608 3.80213 12.2083 3.76382 12.2617 3.73576C12.3152 3.70771 12.3736 3.69046 12.4338 3.68499C12.4939 3.67953 12.5545 3.68596 12.6121 3.70392C12.6698 3.72188 12.7233 3.75102 12.7697 3.78968C12.8161 3.82833 12.8544 3.87574 12.8824 3.9292L14.2879 6.60693C14.3247 6.67694 14.3428 6.75526 14.3404 6.83431C14.3381 6.91336 14.3153 6.99046 14.2744 7.05815C14.2335 7.12584 14.1759 7.18183 14.107 7.2207C14.0381 7.25957 13.9604 7.28001 13.8813 7.28003Z" fill="#FCFCEE" stroke="#FCFCEE" stroke-width="0.2"/>
</g>
<defs>
<clipPath id="clip0">
<rect width="34" height="34" fill="white" transform="translate(0.09375 0.394531)"/>
</clipPath>
</defs>
</svg>
