<svg width="35" height="35" viewBox="0 0 35 35" fill="none" xmlns="http://www.w3.org/2000/svg">
<path d="M24.3521 31.6114H10.6482C10.5133 31.6114 10.3905 31.5324 10.3342 31.4096C10.2778 31.2875 10.2984 31.1431 10.3865 31.0406L12.6343 28.4281V25.2805C12.6343 25.0896 12.7888 24.9351 12.9797 24.9351H22.0206C22.2115 24.9351 22.3661 25.0896 22.3661 25.2805V28.4281L24.6139 31.0406C24.7019 31.1431 24.7225 31.2875 24.6662 31.4096C24.6098 31.5324 24.487 31.6114 24.3521 31.6114ZM11.4012 30.9205H23.5991L21.7588 28.7816C21.7048 28.7189 21.6751 28.6393 21.6751 28.5563V25.626H13.3252V28.5563C13.3252 28.6393 13.2955 28.7189 13.2415 28.7816L11.4012 30.9205Z" fill="#FCFCEE" stroke="#FCFCEE" stroke-width="0.3"/>
<path d="M32.0092 25.6259H2.99095C2.03858 25.6259 1.26367 24.8513 1.26367 23.8986V20.7896H33.7364V23.8986C33.7364 24.8513 32.9615 25.6259 32.0092 25.6259ZM1.95458 21.4805V23.8986C1.95458 24.4701 2.41946 24.935 2.99095 24.935H32.0092C32.5806 24.935 33.0455 24.4701 33.0455 23.8986V21.4805H1.95458Z" fill="#FCFCEE" stroke="#FCFCEE" stroke-width="0.3"/>
<path d="M33.7364 21.48H1.26367V4.59251C1.26367 3.63981 2.03858 2.86523 2.99095 2.86523H32.0092C32.9615 2.86523 33.7364 3.63981 33.7364 4.59251V21.48ZM1.95458 20.7891H33.0455V4.59251C33.0455 4.02102 32.5806 3.55614 32.0092 3.55614H2.99095C2.41946 3.55614 1.95458 4.02102 1.95458 4.59251V20.7891Z" fill="#FCFCEE" stroke="#FCFCEE" stroke-width="0.3"/>
<path d="M21.3575 18.1625H13.6404C13.4494 18.1625 13.2949 18.008 13.2949 17.8171V11.4822C13.2949 11.2912 13.4494 11.1367 13.6404 11.1367H21.3575C21.5484 11.1367 21.7029 11.2912 21.7029 11.4822V17.8171C21.7029 18.008 21.5484 18.1625 21.3575 18.1625ZM13.9858 17.4716H21.012V11.8276H13.9858V17.4716Z" fill="#FCFCEE" stroke="#FCFCEE" stroke-width="0.3"/>
<path d="M20.1216 11.8273H14.8767C14.6858 11.8273 14.5312 11.6728 14.5312 11.4818V9.1507C14.5312 7.51383 15.8628 6.18262 17.4993 6.18262C19.1359 6.18262 20.4671 7.51383 20.4671 9.1507V11.4818C20.4671 11.6728 20.3126 11.8273 20.1216 11.8273ZM15.2222 11.1364H19.7762V9.1507C19.7762 7.89505 18.7546 6.87353 17.4993 6.87353C16.2437 6.87353 15.2222 7.89505 15.2222 9.1507V11.1364Z" fill="#FCFCEE" stroke="#FCFCEE" stroke-width="0.3"/>
</svg>
