<svg width="16" height="17" viewBox="0 0 16 17" fill="none" xmlns="http://www.w3.org/2000/svg">
<g clip-path="url(#clip0)">
<path d="M11.6689 0.313477H4.33105C1.94287 0.313477 0 2.25634 0 4.64452V11.9825C0 14.3706 1.94287 16.3134 4.33105 16.3134H11.669C14.0571 16.3134 16 14.3706 16 11.9825V4.64452C16 2.25634 14.0571 0.313477 11.6689 0.313477V0.313477ZM15.062 11.9825C15.062 13.8534 13.5399 15.3755 11.6689 15.3755H4.33105C2.46008 15.3755 0.937986 13.8534 0.937986 11.9825V4.64452C0.937986 2.77355 2.46008 1.25146 4.33105 1.25146H11.669C13.5399 1.25146 15.062 2.77355 15.062 4.64452V11.9825Z" fill="#FCFCEE"/>
<path d="M7.99987 3.93863C5.58752 3.93863 3.625 5.90115 3.625 8.3135C3.625 10.7258 5.58752 12.6884 7.99987 12.6884C10.4122 12.6884 12.3747 10.7258 12.3747 8.3135C12.3747 5.90115 10.4122 3.93863 7.99987 3.93863ZM7.99987 11.7504C6.10485 11.7504 4.56299 10.2086 4.56299 8.3135C4.56299 6.41848 6.10485 4.87662 7.99987 4.87662C9.89501 4.87662 11.4368 6.41848 11.4368 8.3135C11.4368 10.2086 9.89501 11.7504 7.99987 11.7504Z" fill="#FCFCEE"/>
<path d="M12.4792 2.38484C11.7664 2.38484 11.1865 2.9648 11.1865 3.67756C11.1865 4.39045 11.7664 4.97041 12.4792 4.97041C13.1921 4.97041 13.7721 4.39045 13.7721 3.67756C13.7721 2.96467 13.1921 2.38484 12.4792 2.38484ZM12.4792 4.0323C12.2837 4.0323 12.1245 3.87312 12.1245 3.67756C12.1245 3.48189 12.2837 3.32283 12.4792 3.32283C12.6749 3.32283 12.8341 3.48189 12.8341 3.67756C12.8341 3.87312 12.6749 4.0323 12.4792 4.0323Z" fill="#FCFCEE"/>
</g>
<defs>
<clipPath id="clip0">
<rect width="16" height="16" fill="white" transform="translate(0 0.313477)"/>
</clipPath>
</defs>
</svg>
