<svg width="17" height="17" viewBox="0 0 17 17" fill="none" xmlns="http://www.w3.org/2000/svg">
<g clip-path="url(#clip0)">
<path d="M8.66894 0.663597C5.35994 0.663597 2.66895 3.3546 2.66895 6.6636C2.66895 10.8226 8.08494 16.2866 8.31494 16.5176C8.41294 16.6146 8.54094 16.6636 8.66894 16.6636C8.79694 16.6636 8.92494 16.6146 9.02294 16.5176C9.25294 16.2866 14.6689 10.8226 14.6689 6.6636C14.6689 3.3546 11.9779 0.663597 8.66894 0.663597ZM8.66894 15.4406C7.47494 14.1626 3.66895 9.8406 3.66895 6.6636C3.66895 3.9066 5.91194 1.6636 8.66894 1.6636C11.4259 1.6636 13.6689 3.9066 13.6689 6.6636C13.6689 9.8376 9.86294 14.1626 8.66894 15.4406Z" fill="#82B56A"/>
<path d="M8.66894 3.6637C7.01495 3.6637 5.66895 5.0097 5.66895 6.6637C5.66895 8.3177 7.01495 9.6637 8.66894 9.6637C10.3229 9.6637 11.6689 8.3177 11.6689 6.6637C11.6689 5.0097 10.3229 3.6637 8.66894 3.6637ZM8.66894 8.6637C7.56594 8.6637 6.66895 7.7667 6.66895 6.6637C6.66895 5.5607 7.56594 4.6637 8.66894 4.6637C9.77194 4.6637 10.6689 5.5607 10.6689 6.6637C10.6689 7.7667 9.77194 8.6637 8.66894 8.6637Z" fill="#82B56A"/>
</g>
<defs>
<clipPath id="clip0">
<rect width="16" height="16" fill="white" transform="translate(0.668945 0.663597)"/>
</clipPath>
</defs>
</svg>
