<svg width="16" height="17" viewBox="0 0 16 17" fill="none" xmlns="http://www.w3.org/2000/svg">
<path d="M3.26085 11.5434C4.83896 13.4299 6.73867 14.9152 8.90693 15.9661C9.73246 16.3574 10.8365 16.8215 12.0665 16.9011C12.1427 16.9044 12.2157 16.9077 12.2919 16.9077C13.1175 16.9077 13.7805 16.6226 14.3209 16.0358C14.3243 16.0325 14.3309 16.0258 14.3342 16.0192C14.5265 15.7871 14.7453 15.5782 14.9741 15.3561C15.1299 15.2069 15.289 15.0511 15.4415 14.892C16.1477 14.156 16.1477 13.221 15.4349 12.5082L13.4424 10.5157C13.1042 10.1642 12.6997 9.97858 12.2753 9.97858C11.851 9.97858 11.4432 10.1642 11.0951 10.5124L9.90817 11.6993C9.79876 11.6363 9.68604 11.5799 9.57995 11.5269C9.44733 11.4606 9.32467 11.3976 9.21526 11.3279C8.13445 10.6417 7.1531 9.7465 6.21484 8.59607C5.74075 7.99599 5.42247 7.49205 5.20034 6.97817C5.51198 6.69636 5.80374 6.40129 6.08554 6.11285C6.18501 6.01008 6.28778 5.9073 6.39056 5.80452C6.74862 5.44646 6.94091 5.03204 6.94091 4.61099C6.94091 4.18994 6.75194 3.77551 6.39056 3.41745L5.40258 2.42947C5.28654 2.31343 5.17713 2.20071 5.06441 2.08467C4.84559 1.85923 4.61683 1.62715 4.39139 1.41828C4.0499 1.08343 3.64874 0.907715 3.22438 0.907715C2.80332 0.907715 2.39885 1.08343 2.0441 1.4216L0.804152 2.66155C0.353261 3.11244 0.0979773 3.65948 0.0449313 4.29271C-0.0180608 5.08509 0.127816 5.92719 0.505768 6.94501C1.08596 8.51982 1.96122 9.9819 3.26085 11.5434ZM0.853883 4.36234C0.893667 3.92139 1.06275 3.55338 1.38103 3.23511L2.61435 2.00179C2.80664 1.81613 3.01882 1.71998 3.22438 1.71998C3.42661 1.71998 3.63217 1.81613 3.82114 2.00842C4.04327 2.21397 4.25214 2.42947 4.47759 2.65823C4.59031 2.77427 4.70635 2.89031 4.82239 3.00966L5.81037 3.99764C6.01592 4.2032 6.12201 4.41207 6.12201 4.61762C6.12201 4.82317 6.01592 5.03204 5.81037 5.23759C5.70759 5.34037 5.60482 5.44646 5.50204 5.54924C5.19371 5.86089 4.90527 6.15595 4.587 6.43776C4.58036 6.44439 4.57705 6.44771 4.57042 6.45434C4.29524 6.72951 4.33834 6.99143 4.40465 7.19035C4.40797 7.2003 4.41128 7.20693 4.4146 7.21687C4.66988 7.83022 5.02462 8.41372 5.57829 9.10995C6.5729 10.3366 7.62056 11.2882 8.77431 12.0209C8.91687 12.1137 9.06938 12.1866 9.21194 12.2596C9.34456 12.3259 9.46723 12.3889 9.57663 12.4585C9.5899 12.4651 9.59984 12.4717 9.6131 12.4784C9.72251 12.5347 9.8286 12.5613 9.9347 12.5613C10.1999 12.5613 10.3723 12.3922 10.4287 12.3358L11.6686 11.0959C11.8609 10.9036 12.0698 10.8008 12.2753 10.8008C12.5273 10.8008 12.7329 10.9566 12.8622 11.0959L14.8613 13.0917C15.2592 13.4896 15.2559 13.9206 14.8514 14.3416C14.7121 14.4908 14.5663 14.6334 14.4105 14.7826C14.1784 15.008 13.9364 15.2401 13.7175 15.502C13.3363 15.9131 12.8821 16.1054 12.2952 16.1054C12.2389 16.1054 12.1792 16.1021 12.1228 16.0988C11.0354 16.0291 10.0242 15.6048 9.26499 15.2434C7.20283 14.2455 5.39263 12.8298 3.89077 11.0329C2.65413 9.54427 1.82197 8.15844 1.27162 6.67315C0.930136 5.76142 0.800837 5.02873 0.853883 4.36234Z" fill="#82B56A"/>
</svg>
