<svg width="16" height="16" viewBox="0 0 16 16" fill="none" xmlns="http://www.w3.org/2000/svg">
<path d="M3.26085 10.6357C4.83896 12.5222 6.73867 14.0075 8.90693 15.0584C9.73246 15.4496 10.8365 15.9138 12.0665 15.9934C12.1427 15.9967 12.2157 16 12.2919 16C13.1175 16 13.7805 15.7149 14.3209 15.1281C14.3243 15.1247 14.3309 15.1181 14.3342 15.1115C14.5265 14.8794 14.7453 14.6705 14.9741 14.4484C15.1299 14.2992 15.289 14.1434 15.4415 13.9843C16.1477 13.2482 16.1477 12.3133 15.4349 11.6005L13.4424 9.60796C13.1042 9.25653 12.6997 9.07087 12.2753 9.07087C11.851 9.07087 11.4432 9.25653 11.0951 9.60464L9.90817 10.7915C9.79876 10.7286 9.68604 10.6722 9.57995 10.6191C9.44733 10.5528 9.32467 10.4898 9.21526 10.4202C8.13445 9.73394 7.1531 8.83879 6.21484 7.68835C5.74075 7.08827 5.42247 6.58433 5.20034 6.07045C5.51198 5.78864 5.80374 5.49358 6.08554 5.20514C6.18501 5.10236 6.28778 4.99959 6.39056 4.89681C6.74862 4.53875 6.94091 4.12433 6.94091 3.70327C6.94091 3.28222 6.75194 2.8678 6.39056 2.50974L5.40258 1.52176C5.28654 1.40572 5.17713 1.293 5.06441 1.17696C4.84559 0.951513 4.61683 0.719436 4.39139 0.510568C4.0499 0.175715 3.64874 0 3.22438 0C2.80332 0 2.39885 0.175715 2.0441 0.513883L0.804152 1.75383C0.353261 2.20472 0.0979773 2.75176 0.0449313 3.385C-0.0180608 4.17737 0.127816 5.01948 0.505768 6.0373C1.08596 7.6121 1.96122 9.07418 3.26085 10.6357ZM0.853883 3.45462C0.893667 3.01368 1.06275 2.64567 1.38103 2.32739L2.61435 1.09407C2.80664 0.908413 3.01882 0.812267 3.22438 0.812267C3.42661 0.812267 3.63217 0.908413 3.82114 1.1007C4.04327 1.30626 4.25214 1.52176 4.47759 1.75052C4.59031 1.86656 4.70635 1.98259 4.82239 2.10195L5.81037 3.08993C6.01592 3.29548 6.12201 3.50435 6.12201 3.7099C6.12201 3.91546 6.01592 4.12433 5.81037 4.32988C5.70759 4.43266 5.60482 4.53875 5.50204 4.64152C5.19371 4.95317 4.90527 5.24824 4.587 5.53005C4.58036 5.53668 4.57705 5.53999 4.57042 5.54662C4.29524 5.8218 4.33834 6.08371 4.40465 6.28264C4.40797 6.29258 4.41128 6.29921 4.4146 6.30916C4.66988 6.9225 5.02462 7.50601 5.57829 8.20224C6.5729 9.42893 7.62056 10.3804 8.77431 11.1131C8.91687 11.206 9.06938 11.2789 9.21194 11.3518C9.34456 11.4182 9.46723 11.4811 9.57663 11.5508C9.5899 11.5574 9.59984 11.564 9.6131 11.5707C9.72251 11.627 9.8286 11.6535 9.9347 11.6535C10.1999 11.6535 10.3723 11.4845 10.4287 11.4281L11.6686 10.1881C11.8609 9.99586 12.0698 9.89308 12.2753 9.89308C12.5273 9.89308 12.7329 10.0489 12.8622 10.1881L14.8613 12.184C15.2592 12.5818 15.2559 13.0128 14.8514 13.4339C14.7121 13.5831 14.5663 13.7257 14.4105 13.8748C14.1784 14.1003 13.9364 14.3324 13.7175 14.5943C13.3363 15.0054 12.8821 15.1977 12.2952 15.1977C12.2389 15.1977 12.1792 15.1944 12.1228 15.191C11.0354 15.1214 10.0242 14.6971 9.26499 14.3357C7.20283 13.3378 5.39263 11.9221 3.89077 10.1252C2.65413 8.63655 1.82197 7.25072 1.27162 5.76544C0.930136 4.85371 0.800837 4.12101 0.853883 3.45462Z" fill="#82B56A"/>
</svg>
