<svg width="9" height="16" viewBox="0 0 9 16" fill="none" xmlns="http://www.w3.org/2000/svg">
<path d="M0.182309 8.43906L7.58278 15.8191C7.82525 16.0607 8.21781 16.0603 8.45987 15.8178C8.70175 15.5753 8.70112 15.1826 8.45862 14.9407L1.49865 7.99997L8.45887 1.05925C8.70134 0.817376 8.70196 0.424847 8.46012 0.182348C8.33878 0.0607855 8.17981 3.81493e-06 8.02084 3.81493e-06C7.86228 3.81493e-06 7.70394 0.060379 7.58281 0.181097L0.182309 7.56091C0.0655287 7.6771 -2.7612e-06 7.83522 -2.7612e-06 7.99997C-2.7612e-06 8.16472 0.0657162 8.32266 0.182309 8.43906Z" fill="#82B56A"/>
</svg>
