<svg width="16" height="17" viewBox="0 0 16 17" fill="none" xmlns="http://www.w3.org/2000/svg">
<g clip-path="url(#clip0)">
<path d="M15.753 2.28969C15.5575 2.05067 15.2648 1.91908 14.9286 1.91908C14.7459 1.91908 14.5523 1.95753 14.3533 2.03358L0.809595 7.20363C0.0908454 7.47792 -0.00595633 7.88954 0.000269252 8.11049C0.00649483 8.33144 0.12649 8.73695 0.859644 8.97023C0.864039 8.97157 0.868433 8.97291 0.872828 8.97414L3.68215 9.77809L5.20144 14.1226C5.40859 14.7149 5.87356 15.0828 6.41506 15.0828C6.75649 15.0828 7.09231 14.9397 7.38626 14.6692L9.12393 13.0692L11.6443 15.0986C11.6446 15.0989 11.6449 15.099 11.6452 15.0993L11.6691 15.1185C11.6713 15.1203 11.6736 15.1221 11.6758 15.1238C11.956 15.3411 12.2617 15.4558 12.5604 15.4559H12.5606C13.1442 15.4559 13.6089 15.0239 13.7443 14.3555L15.9634 3.39796C16.0525 2.95815 15.9778 2.56459 15.753 2.28969ZM4.62197 9.62538L10.042 6.85646L6.66714 10.4425C6.61184 10.5012 6.57266 10.5731 6.55337 10.6514L5.90261 13.2874L4.62197 9.62538ZM6.75112 13.9795C6.72866 14.0001 6.70608 14.0186 6.6835 14.0355L7.28726 11.5902L8.38552 12.4746L6.75112 13.9795ZM15.0446 3.21181L12.8255 14.1694C12.8041 14.2743 12.7359 14.5183 12.5604 14.5183C12.4738 14.5183 12.3649 14.4711 12.2534 14.3853L9.39749 12.0857C9.39712 12.0853 9.39663 12.085 9.39614 12.0847L7.6968 10.7163L12.5773 5.53041C12.7335 5.36439 12.7477 5.11012 12.6109 4.92775C12.4739 4.74538 12.2257 4.688 12.0227 4.79176L3.99563 8.89259L1.1481 8.0779L14.6876 2.90944C14.802 2.86574 14.8819 2.85658 14.9286 2.85658C14.9573 2.85658 15.0083 2.86 15.0272 2.88332C15.0521 2.91371 15.0839 3.01735 15.0446 3.21181Z" fill="#FEFEFE"/>
</g>
<defs>
<clipPath id="clip0">
<rect width="16" height="16" fill="white" transform="translate(0 0.700256)"/>
</clipPath>
</defs>
</svg>
