<svg width="17" height="17" viewBox="0 0 17 17" fill="none" xmlns="http://www.w3.org/2000/svg">
<g clip-path="url(#clip0)">
<path d="M10.155 0.898239H7.18281C4.06978 0.898239 1.53711 3.43032 1.53711 6.54275V9.22014C1.53711 11.538 2.96139 13.621 5.103 14.4694V16.2051C5.103 16.3228 5.17224 16.4292 5.27981 16.4767C5.31844 16.494 5.35945 16.5023 5.40016 16.5023C5.47237 16.5023 5.54398 16.4758 5.59955 16.4253L7.32277 14.8646H10.155C13.268 14.8646 15.8007 12.3326 15.8007 9.22014V6.54275C15.8007 3.43032 13.268 0.898239 10.155 0.898239ZM15.2064 9.22014C15.2064 12.0048 12.9405 14.2703 10.155 14.2703H7.20806C7.13437 14.2703 7.06335 14.2977 7.00867 14.3473L5.69731 15.535V14.2635C5.69731 14.1375 5.61797 14.0252 5.49911 13.9836C3.48498 13.2713 2.13142 11.357 2.13142 9.22014V6.54275C2.13142 3.75808 4.39755 1.49255 7.18281 1.49255H10.155C12.9405 1.49255 15.2064 3.75808 15.2064 6.54275V9.22014Z" fill="#FEFEFE" stroke="#FEFEFE" stroke-width="0.195051"/>
<path d="M12.596 9.95975L10.7697 8.77349C10.57 8.64364 10.3323 8.59966 10.0996 8.6478C9.86663 8.69683 9.66634 8.83441 9.53648 9.03499L9.45061 9.16693C8.66017 8.90573 7.7886 8.57202 7.2668 7.06157L7.48283 6.87377C7.85368 6.55135 7.89261 5.98734 7.57019 5.6159L6.14146 3.97232C6.03389 3.8484 5.84608 3.83563 5.72217 3.9429L4.82505 4.72264C4.03818 5.4067 4.40576 6.41852 4.5267 6.75104C4.53205 6.7659 4.53859 6.78016 4.54632 6.79413C4.57752 6.84999 5.32249 8.17948 6.52568 9.40495C7.73363 10.6355 9.91447 11.7718 9.98133 11.8048C10.2303 11.9665 10.5106 12.044 10.7878 12.044C11.2746 12.044 11.7518 11.8054 12.0365 11.368L12.6837 10.3713C12.7728 10.2331 12.7336 10.0492 12.596 9.95975ZM11.5378 11.0441C11.2701 11.4565 10.7168 11.5736 10.28 11.2919C10.2583 11.2806 8.0917 10.1523 6.94973 8.98893C5.88234 7.90163 5.17362 6.69369 5.07704 6.5252C4.84169 5.86521 4.88329 5.45959 5.21492 5.17135L5.88798 4.58654L7.12178 6.00577C7.23143 6.13176 7.21866 6.316 7.09325 6.42506L6.72864 6.74183C6.63979 6.81909 6.60473 6.94122 6.6395 7.05355C7.26115 9.07362 8.46999 9.47033 9.35254 9.76006L9.48121 9.80255C9.60988 9.84594 9.75073 9.79631 9.82443 9.6828L10.0351 9.3583C10.0785 9.29114 10.1451 9.24568 10.2223 9.22933C10.2999 9.21269 10.3789 9.22815 10.4461 9.27183L12.0234 10.2961L11.5378 11.0441Z" fill="#FEFEFE" stroke="#FEFEFE" stroke-width="0.195051"/>
<path d="M9.34744 5.72614C9.18935 5.68067 9.02503 5.77249 8.98015 5.93058C8.93528 6.08837 9.02681 6.2527 9.1846 6.29757C9.62736 6.42357 9.98009 6.77689 10.1049 7.21995C10.1417 7.3507 10.2609 7.43658 10.3908 7.43658C10.4175 7.43658 10.4445 7.43301 10.4716 7.42558C10.6294 7.38101 10.7215 7.21698 10.6769 7.05889C10.4966 6.41881 9.98692 5.908 9.34744 5.72614Z" fill="#FEFEFE" stroke="#FEFEFE" stroke-width="0.195051"/>
<path d="M11.6088 7.50075C11.6355 7.50075 11.6626 7.49719 11.6896 7.48976C11.8477 7.44518 11.9395 7.28086 11.895 7.12307C11.5443 5.88006 10.5551 4.88874 9.31296 4.53512C9.15517 4.48966 8.99085 4.58207 8.94598 4.73986C8.9011 4.89765 8.99263 5.06198 9.15042 5.10685C10.1955 5.40401 11.0279 6.23872 11.3229 7.28442C11.3601 7.41517 11.4789 7.50075 11.6088 7.50075Z" fill="#FEFEFE" stroke="#FEFEFE" stroke-width="0.195051"/>
<path d="M9.18484 3.15133C9.02676 3.10587 8.86243 3.19769 8.81756 3.35607C8.77269 3.51386 8.86421 3.67819 9.022 3.72306C10.7928 4.22674 12.2034 5.64062 12.7032 7.41257C12.74 7.54332 12.8592 7.6292 12.9891 7.6292C13.0158 7.6292 13.0428 7.62563 13.0699 7.6182C13.2277 7.57363 13.3198 7.4093 13.2752 7.25151C12.7198 5.28225 11.1526 3.71147 9.18484 3.15133Z" fill="#FEFEFE" stroke="#FEFEFE" stroke-width="0.195051"/>
</g>
<defs>
<clipPath id="clip0">
<rect width="16" height="16" fill="white" transform="translate(0.668945 0.700256)"/>
</clipPath>
</defs>
</svg>
